<REAPER_PROJECT 0.1 "6.69/win64" 1666753052
  <NOTES 0 2
  >
  RIPPLE 0
  GROUPOVERRIDE 0 0 0
  AUTOXFADE 129
  ENVATTACH 3
  POOLEDENVATTACH 0
  MIXERUIFLAGS 11 48
  PEAKGAIN 1
  FEEDBACK 0
  PANLAW 1
  PROJOFFS 0 0 0
  MAXPROJLEN 0 600
  GRID 3199 8 1 8 1 0 0 0
  TIMEMODE 1 5 -1 30 0 0 -1
  VIDEO_CONFIG 0 0 256
  PANMODE 3
  CURSOR 59.99999999999986
  ZOOM 1.17478157786265 0 0
  VZOOMEX 3 0
  USE_REC_CFG 0
  RECMODE 1
  SMPTESYNC 0 30 100 40 1000 300 0 0 1 0 0
  LOOP 0
  LOOPGRAN 0 4
  RECORD_PATH "" ""
  <RECORD_CFG
    ZXZhdxgAAA==
  >
  <APPLYFX_CFG
  >
  RENDER_FILE ""
  RENDER_PATTERN ""
  RENDER_FMT 0 2 0
  RENDER_1X 0
  RENDER_RANGE 1 0 0 18 1000
  RENDER_RESAMPLE 3 0 1
  RENDER_ADDTOPROJ 0
  RENDER_STEMS 0
  RENDER_DITHER 0
  TIMELOCKMODE 0
  TEMPOENVLOCKMODE 1
  ITEMMIX 1
  DEFPITCHMODE 589824 0
  TAKELANE 1
  SAMPLERATE 44100 0 0
  <RENDER_CFG
    ZXZhdxgAAA==
  >
  LOCK 1
  <METRONOME 6 2
    VOL 1 1
    FREQ 1600 800 1
    BEATLEN 4
    SAMPLES "" ""
    PATTERN 2863311530 2863311529
    MULT 1
  >
  GLOBAL_AUTO -1
  TEMPO 120 4 4
  PLAYRATE 1 0 0.25 4
  SELECTION 276 276
  SELECTION2 276 276
  MASTERAUTOMODE 0
  MASTERTRACKHEIGHT 0 0
  MASTERPEAKCOL 16576
  MASTERMUTESOLO 0
  MASTERTRACKVIEW 0 0.6667 0.5 0.5 -1 -1 -1 0 0 0 -1 -1 0
  MASTERHWOUT 0 0 1 0 0 0 0 -1
  MASTER_NCH 2 2
  MASTER_VOLUME 1 0 -1 -1 1
  MASTER_PANMODE 3
  MASTER_FX 1
  MASTER_SEL 0
  <MASTERPLAYSPEEDENV
    EGUID {2F8EBD6E-373F-446F-B332-40A4409671D3}
    ACT 0 -1
    VIS 0 1 1
    LANEHEIGHT 0 0
    ARM 0
    DEFSHAPE 0 -1 -1
  >
  <TEMPOENVEX
    EGUID {9481EF9A-5585-4398-B547-D8A51570E536}
    ACT 1 -1
    VIS 1 0 1
    LANEHEIGHT 0 0
    ARM 0
    DEFSHAPE 1 -1 -1
    PT 0.000000000000 70.0000000000 1 262148 0 1
    PT 27.428571428571 70.0000000000 1 262146 0 3
    PT 29.142857142857 70.0000000000 1 262148 0 3
    PT 108.000000000000 70.0000000000 1 262146 0 3
    PT 109.714285714286 70.0000000000 1 262148 0 3
    PT 168.000000000000 70.0000000000 1 262146 0 3
    PT 169.714285714286 70.0000000000 1 262148 0 3
    PT 183.428571428571 70.0000000000 1 262146 0 3
    PT 185.142857142857 70.0000000000 1 262148 0 3
    PT 198.857142857143 70.0000000000 1 262146 0 3
    PT 200.571428571429 70.0000000000 1 262148 0 3
    PT 214.285714285714 70.0000000000 1 262146 0 3
    PT 216.000000000000 70.0000000000 1 262148 0 3
    PT 229.714285714286 70.0000000000 1 262146 0 3
    PT 231.428571428572 70.0000000000 1 262148 1 3
    PT 276.000000000000 69.9999883333 1 262148 0 1
    PT 505.714324000000 68.0000000000 1 262148 0 1
  >
  <PROJBAY
  >
  <TRACK {EC31E4FE-75E1-44A4-8187-5417D545DC29}
    NAME Guia
    PEAKCOL 16576
    BEAT -1
    AUTOMODE 0
    VOLPAN 1 0 -1 -1 1
    MUTESOLO 0 0 0
    IPHASE 0
    PLAYOFFS 0 1
    ISBUS 0 0
    BUSCOMP 0 0 0 0 0
    SHOWINMIX 1 0.6667 0.5 1 0.5 -1 -1 -1
    SEL 0
    REC 0 0 1 0 0 0 0 0
    VU 2
    TRACKHEIGHT 0 0 0 0 0 0
    INQ 0 0 0 0.5 100 0 0 100
    NCHAN 2
    FX 1
    TRACKID {EC31E4FE-75E1-44A4-8187-5417D545DC29}
    PERF 0
    MIDIOUT -1
    MAINSEND 1 0
    <ITEM
      POSITION 0
      SNAPOFFS 0
      LENGTH 276
      LOOP 1
      ALLTAKES 0
      FADEIN 1 0 0 1 0 0 0
      FADEOUT 1 0 0 1 0 0 0
      MUTE 0 0
      SEL 0
      IGUID {7BF0FC93-CAB1-4959-B2C6-9245F1CB5747}
      IID 42
      NAME ""
      VOLPAN 1 0 1 -1
      SOFFS 0 0
      PLAYRATE 1 1 0 -1 0 0.0025
      CHANMODE 0
      GUID {D6C2C143-0A51-40F3-A6C9-98F93CBB300E}
      <SOURCE MIDI
        HASDATA 1 960 QN
        CCINTERP 32
        POOLEDEVTS {D1FAE2C8-5F30-456F-B1EA-B2CF1DEA0779}
        <x 0 0 0 0 6 "João Viu - Andréa Fontes"
          /wZKb8OjbyBWaXUgLSBBbmRyw6lhIEZvbnRlcw==
        >
        <X 1920 0
          /1kCAAA=
        >
        E 307200 b0 7b 00
        CCINTERP 32
        CHASE_CC_TAKEOFFS 1
        GUID {904531A3-681F-468A-8170-F3B6835411A5}
        IGNTEMPO 0 120 4 4
        SRCCOLOR 608
        VELLANE 132 140 0
        CFGEDITVIEW -27906.666667 0.001398 61 12 0 -1 0 0 0 0.5
        KEYSNAP 0
        TRACKSEL 252
        EVTFILTER 0 -1 -1 -1 -1 0 0 0 0 -1 -1 -1 -1 0 -1 0 -1 -1
        CFGEDIT 1 1 0 1 0 0 1 1 1 1 1 0.125 64 107 1295 715 0 0 0 0 0 0 0 1 0 0.5 0 0 1 64
      >
    >
    <ITEM
      POSITION 276.00000000000011
      SNAPOFFS 0
      LENGTH 229.71432400000015
      LOOP 0
      ALLTAKES 0
      FADEIN 1 0 0 1 0 0 0
      FADEOUT 1 0 0 1 0 0 0
      MUTE 0 0
      SEL 0
      IGUID {70AA5B0D-84F0-47D2-BC55-DA4FC49458B4}
      IID 15
      NAME ""
      VOLPAN 1 0 1 -1
      SOFFS 0 0
      PLAYRATE 1 1 0 -1 0 0.0025
      CHANMODE 0
      GUID {440F3BE3-D29D-4F6B-868E-38FF68448FBD}
      <SOURCE MIDI
        HASDATA 1 960 QN
        CCINTERP 32
        POOLEDEVTS {7DD6C810-C21C-4ADC-92F2-B54BD76AFA86}
        <x 0 0 0 0 6 "Hino da Vitória - Cassiane"
          /wZIaW5vIGRhIFZpdMOzcmlhIC0gQ2Fzc2lhbmU=
        >
        E 257280 b0 7b 00
        CCINTERP 32
        CHASE_CC_TAKEOFFS 1
        GUID {23D69D0D-3AA7-4DA6-881F-55C157EA21A7}
        IGNTEMPO 0 120 4 4
        SRCCOLOR 580
        VELLANE 132 140 0
        CFGEDITVIEW -16335.008116 0.029468 73 12 0 -1 0 0 0 0.5
        KEYSNAP 0
        TRACKSEL 252
        EVTFILTER 0 -1 -1 -1 -1 0 0 0 0 -1 -1 -1 -1 0 -1 0 -1 -1
        CFGEDIT 1 1 0 1 0 0 1 1 1 1 1 0.125 48 91 1295 715 0 0 0 0 0 0 0 1 0 0.5 0 0 1 64
      >
    >
    <ITEM
      POSITION 505.71432400000026
      SNAPOFFS 0
      LENGTH 236.47058823529449
      LOOP 0
      ALLTAKES 0
      FADEIN 1 0 0 1 0 0 0
      FADEOUT 1 0 0 1 0 0 0
      MUTE 0 0
      SEL 0
      IGUID {1A62F088-D1C1-4F98-9DE9-1F53321AA0BC}
      IID 51
      NAME ""
      VOLPAN 1 0 1 -1
      SOFFS 0 0
      PLAYRATE 1 1 0 -1 0 0.0025
      CHANMODE 0
      GUID {F928E26D-54AC-4DDD-A6F7-CC3905DB49EF}
      <SOURCE MIDI
        HASDATA 1 960 QN
        CCINTERP 32
        POOLEDEVTS {D7A88CA0-604D-403D-A18F-2A7BCCBBCAE4}
        <x 0 0 0 0 6 "Rompendo Em Fé"
          /wZSb21wZW5kbyBFbSBGw6k=
        >
        E 257280 b0 7b 00
        CCINTERP 32
        CHASE_CC_TAKEOFFS 1
        GUID {4BBFF4D9-CB7F-4166-A070-E5CF765FE507}
        IGNTEMPO 0 120 4 4
        SRCCOLOR 615
        VELLANE 132 140 0
        CFGEDITVIEW -1323.458001 0.029468 73 12 0 -1 0 0 0 0.5
        KEYSNAP 0
        TRACKSEL 252
        EVTFILTER 0 -1 -1 -1 -1 0 0 0 0 -1 -1 -1 -1 0 -1 0 -1 -1
        CFGEDIT 1 1 0 1 0 0 1 1 1 1 1 0.125 48 91 1295 715 0 0 0 0 0 0 0 1 0 0.5 0 0 1 64
      >
    >
  >
  <TRACK {7CA9F48A-933A-4CCF-A140-8596706F1B8A}
    NAME Drums
    PEAKCOL 16576
    BEAT -1
    AUTOMODE 0
    VOLPAN 1 0 -1 -1 1
    MUTESOLO 0 0 0
    IPHASE 0
    PLAYOFFS 0 1
    ISBUS 0 0
    BUSCOMP 0 0 0 0 0
    SHOWINMIX 1 0.6667 0.5 1 0.5 -1 -1 -1
    SEL 0
    REC 0 0 1 0 0 0 0 0
    VU 2
    SCORE 0 10 0 0
    TRACKHEIGHT 0 0 0 0 0 0
    INQ 0 0 0 0.5 100 0 0 100
    NCHAN 2
    FX 1
    TRACKID {7CA9F48A-933A-4CCF-A140-8596706F1B8A}
    PERF 0
    MIDIOUT -1
    <MIDINOTENAMES
      -1 36 Kick 0 36
      -1 37 "Side Stick" 0 37
      -1 38 "Snare Center" 0 38
      -1 40 "Snare Rimshot" 0 40
      -1 41 "Tom 6" 0 41
      -1 42 "HiHat Closed" 0 42
      -1 43 "Tom 5" 0 43
      -1 44 "HiHat Pedal" 0 44
      -1 45 "Tom 4" 0 45
      -1 46 "HiHat Open" 0 46
      -1 47 "Tom 3" 0 47
      -1 48 "Tom 2" 0 48
      -1 49 "Crash 1" 0 49
      -1 50 "Tom 1" 0 50
    >
    MAINSEND 1 0
    <FXCHAIN
      SHOW 0
      LASTSEL 0
      DOCKED 0
    >
    <ITEM
      POSITION 0
      SNAPOFFS 0
      LENGTH 276
      LOOP 1
      ALLTAKES 0
      FADEIN 1 0 0 1 0 0 0
      FADEOUT 1 0 0 1 0 0 0
      MUTE 0 0
      SEL 0
      IGUID {55FFF349-1161-49FB-B328-1CE1B7AA8417}
      IID 43
      NAME ""
      VOLPAN 1 0 1 -1
      SOFFS 0 0
      PLAYRATE 1 1 0 -1 0 0.0025
      CHANMODE 0
      GUID {24C07E93-6CEE-4930-92DA-8C9FBA511732}
      <SOURCE MIDI
        HASDATA 1 960 QN
        CCINTERP 32
        POOLEDEVTS {5E73CE12-ECC6-4E0D-833F-E42273CE4387}
        e 0 99 00 01
        e 125 89 00 00
        e 2515 99 30 70
        e 0 99 32 71
        e 120 99 30 00
        e 5 99 32 00
        e 115 99 30 62
        e 125 99 30 00
        e 355 99 2d 61
        e 120 99 2d 00
        e 120 99 2b 61
        e 120 99 2b 00
        e 120 99 31 7c
        e 0 99 33 78
        e 0 99 24 79
        e 120 99 31 00
        e 0 99 33 00
        e 0 99 24 00
        e 360 99 33 69
        e 120 99 33 00
        e 360 99 26 7a
        e 0 99 33 71
        e 120 99 26 00
        e 0 99 33 00
        e 360 99 33 6a
        e 120 99 33 00
        e 120 99 24 7f
        e 120 99 24 00
        e 120 99 24 7a
        e 0 99 33 73
        e 120 99 24 00
        e 0 99 33 00
        e 360 99 33 62
        e 120 99 33 00
        e 360 99 26 7a
        e 0 99 33 7b
        e 120 99 26 00
        e 0 99 33 00
        e 360 99 33 61
        e 120 99 33 00
        e 360 99 24 76
        e 0 99 33 77
        e 120 99 24 00
        e 0 99 33 00
        e 360 99 33 72
        e 120 99 33 00
        e 360 99 26 7a
        e 0 99 33 6d
        e 120 99 26 00
        e 0 99 33 00
        e 360 99 33 5e
        e 120 99 33 00
        e 120 99 24 7f
        e 120 99 24 00
        e 120 99 24 7f
        e 0 99 33 7d
        e 120 99 24 00
        e 0 99 33 00
        e 120 99 26 7e
        e 120 99 26 00
        e 120 99 33 6c
        e 120 99 33 00
        e 360 99 26 76
        e 0 99 33 77
        e 120 99 26 00
        e 0 99 33 00
        e 240 99 26 69
        e 120 99 26 00
        e 0 99 33 6b
        e 120 99 33 00
        e 120 99 26 79
        e 120 99 26 00
        e 120 99 24 78
        e 0 99 33 76
        e 120 99 24 00
        e 0 99 33 00
        e 360 99 33 63
        e 120 99 33 00
        e 360 99 26 7e
        e 0 99 33 7b
        e 120 99 26 00
        e 0 99 33 00
        e 360 99 33 6b
        e 120 99 33 00
        e 120 99 24 78
        e 120 99 24 00
        e 120 99 24 7d
        e 0 99 33 7a
        e 120 99 24 00
        e 0 99 33 00
        e 360 99 33 67
        e 120 99 33 00
        e 360 99 26 74
        e 0 99 33 7c
        e 120 99 26 00
        e 0 99 33 00
        e 360 99 33 67
        e 120 99 33 00
        e 360 99 24 6f
        e 0 99 33 76
        e 120 99 24 00
        e 0 99 33 00
        e 360 99 33 66
        e 120 99 33 00
        e 360 99 26 7c
        e 0 99 33 7a
        e 120 99 26 00
        e 0 99 33 00
        e 360 99 33 5f
        e 120 99 33 00
        e 120 99 2f 62
        e 0 99 24 7f
        e 120 99 2f 00
        e 0 99 24 00
        e 0 99 30 67
        e 120 99 30 00
        e 0 99 32 61
        e 0 99 24 7c
        e 0 99 33 7a
        e 120 99 32 00
        e 0 99 24 00
        e 0 99 33 00
        e 120 99 32 7c
        e 120 99 32 00
        e 120 99 30 58
        e 0 99 33 65
        e 120 99 30 00
        e 0 99 33 00
        e 120 99 2f 5c
        e 120 99 2f 00
        e 120 99 30 7a
        e 0 99 26 7c
        e 0 99 33 79
        e 120 99 30 00
        e 0 99 26 00
        e 0 99 33 00
        e 120 99 2f 5d
        e 120 99 2f 00
        e 120 99 2d 61
        e 0 99 33 67
        e 120 99 2d 00
        e 0 99 33 00
        e 120 99 2f 62
        e 120 99 2f 00
        e 120 99 31 78
        e 0 99 24 7b
        e 0 99 33 70
        e 120 99 31 00
        e 0 99 24 00
        e 0 99 33 00
        e 360 99 33 6a
        e 120 99 33 00
        e 360 99 26 73
        e 0 99 33 76
        e 120 99 26 00
        e 0 99 33 00
        e 360 99 33 6b
        e 120 99 33 00
        e 120 99 24 77
        e 120 99 24 00
        e 120 99 24 76
        e 0 99 33 72
        e 120 99 24 00
        e 0 99 33 00
        e 360 99 33 67
        e 120 99 33 00
        e 360 99 26 7f
        e 0 99 33 7f
        e 120 99 26 00
        e 0 99 33 00
        e 360 99 33 60
        e 120 99 33 00
        e 360 99 24 73
        e 0 99 33 7b
        e 120 99 24 00
        e 0 99 33 00
        e 360 99 33 66
        e 120 99 33 00
        e 360 99 26 79
        e 0 99 33 79
        e 120 99 26 00
        e 0 99 33 00
        e 360 99 33 5e
        e 120 99 33 00
        e 120 99 24 78
        e 120 99 24 00
        e 120 99 24 7c
        e 0 99 33 76
        e 120 99 24 00
        e 0 99 33 00
        e 120 99 26 7d
        e 120 99 26 00
        e 120 99 33 67
        e 120 99 33 00
        e 360 99 26 7f
        e 0 99 33 7e
        e 120 99 26 00
        e 0 99 33 00
        e 360 99 33 64
        e 120 99 33 00
        e 120 99 26 7f
        e 120 99 26 00
        e 120 99 24 7a
        e 0 99 33 74
        e 120 99 24 00
        e 0 99 33 00
        e 360 99 33 67
        e 120 99 33 00
        e 360 99 26 7a
        e 0 99 33 75
        e 120 99 26 00
        e 0 99 33 00
        e 360 99 33 6a
        e 120 99 33 00
        e 120 99 24 76
        e 120 99 24 00
        e 120 99 24 72
        e 0 99 33 73
        e 120 99 24 00
        e 0 99 33 00
        e 360 99 33 6d
        e 120 99 33 00
        e 360 99 26 76
        e 0 99 33 79
        e 120 99 26 00
        e 0 99 33 00
        e 360 99 33 68
        e 120 99 33 00
        e 360 99 24 79
        e 0 99 33 70
        e 120 99 24 00
        e 0 99 33 00
        e 360 99 33 69
        e 120 99 33 00
        e 360 99 26 7c
        e 0 99 33 77
        e 120 99 26 00
        e 0 99 33 00
        e 360 99 33 57
        e 120 99 33 00
        e 120 99 24 71
        e 120 99 24 00
        e 120 99 24 78
        e 0 99 33 71
        e 120 99 24 00
        e 0 99 33 00
        e 360 99 33 61
        e 120 99 33 00
        e 360 99 26 74
        e 0 99 33 7e
        e 120 99 26 00
        e 0 99 33 00
        e 120 99 30 6e
        e 120 99 30 00
        e 120 99 33 69
        e 0 99 2f 5c
        e 120 99 33 00
        e 0 99 2f 00
        e 120 99 2d 56
        e 120 99 2d 00
        e 120 99 31 6d
        e 120 99 31 00
        e 600 99 35 66
        e 120 99 35 00
        e 120 99 35 77
        e 125 99 35 00
        e 355 99 35 78
        e 120 99 35 00
        e 360 99 24 7b
        e 0 99 2a 6f
        e 0 99 33 70
        e 120 99 2a 00
        e 0 99 33 00
        e 5 99 24 00
        e 355 99 2a 61
        e 120 99 2a 00
        e 360 99 25 7d
        e 0 99 2a 75
        e 120 99 25 00
        e 5 99 2a 00
        e 355 99 2a 60
        e 120 99 2a 00
        e 120 99 24 77
        e 120 99 24 00
        e 120 99 24 78
        e 0 99 2a 65
        e 120 99 2a 00
        e 5 99 24 00
        e 355 99 2a 5f
        e 120 99 2a 00
        e 360 99 25 73
        e 0 99 2a 6d
        e 120 99 25 00
        e 0 99 2a 00
        e 360 99 2a 66
        e 120 99 2a 00
        e 120 99 25 7f
        e 120 99 25 00
        e 120 99 24 73
        e 0 99 2a 78
        e 120 99 24 00
        e 0 99 2a 00
        e 360 99 2a 68
        e 120 99 2a 00
        e 360 99 25 7a
        e 0 99 2a 70
        e 120 99 25 00
        e 0 99 2a 00
        e 360 99 2a 66
        e 120 99 2a 00
        e 120 99 24 7b
        e 120 99 24 00
        e 120 99 24 74
        e 0 99 2a 6e
        e 120 99 24 00
        e 0 99 2a 00
        e 120 99 25 78
        e 120 99 25 00
        e 120 99 2a 69
        e 120 99 2a 00
        e 360 99 25 75
        e 0 99 2a 7a
        e 120 99 25 00
        e 0 99 2a 00
        e 360 99 2a 75
        e 120 99 2a 00
        e 120 99 25 73
        e 120 99 25 00
        e 120 99 24 7e
        e 0 99 2a 6d
        e 120 99 2a 00
        e 5 99 24 00
        e 355 99 2a 5a
        e 120 99 2a 00
        e 360 99 25 7f
        e 0 99 2a 79
        e 120 99 25 00
        e 5 99 2a 00
        e 355 99 2a 63
        e 120 99 2a 00
        e 120 99 24 73
        e 120 99 24 00
        e 120 99 24 7b
        e 0 99 2a 72
        e 120 99 2a 00
        e 5 99 24 00
        e 355 99 2a 6d
        e 120 99 2a 00
        e 360 99 25 7a
        e 0 99 2a 74
        e 120 99 25 00
        e 0 99 2a 00
        e 360 99 2a 70
        e 120 99 2a 00
        e 360 99 24 74
        e 0 99 2a 74
        e 120 99 24 00
        e 0 99 2a 00
        e 360 99 2a 64
        e 120 99 2a 00
        e 360 99 25 7e
        e 0 99 2a 78
        e 120 99 25 00
        e 0 99 2a 00
        e 360 99 2a 64
        e 120 99 2a 00
        e 120 99 24 6f
        e 120 99 24 00
        e 120 99 24 7e
        e 0 99 2a 61
        e 120 99 24 00
        e 0 99 2a 00
        e 360 99 2a 6b
        e 120 99 2a 00
        e 360 99 25 79
        e 0 99 2a 71
        e 120 99 25 00
        e 0 99 2a 00
        e 360 99 2a 68
        e 120 99 2a 00
        e 360 99 24 7f
        e 0 99 2a 75
        e 120 99 2a 00
        e 5 99 24 00
        e 355 99 2a 61
        e 120 99 2a 00
        e 360 99 25 74
        e 0 99 2a 75
        e 120 99 25 00
        e 5 99 2a 00
        e 355 99 2a 61
        e 120 99 2a 00
        e 120 99 24 75
        e 120 99 24 00
        e 120 99 24 71
        e 0 99 2a 67
        e 120 99 2a 00
        e 5 99 24 00
        e 355 99 2a 61
        e 120 99 2a 00
        e 360 99 25 7a
        e 0 99 2a 72
        e 120 99 25 00
        e 0 99 2a 00
        e 360 99 2a 66
        e 120 99 2a 00
        e 360 99 24 79
        e 0 99 2a 6a
        e 120 99 24 00
        e 0 99 2a 00
        e 360 99 2a 66
        e 120 99 2a 00
        e 360 99 25 7a
        e 0 99 2a 76
        e 120 99 25 00
        e 0 99 2a 00
        e 360 99 2a 67
        e 120 99 2a 00
        e 120 99 24 76
        e 120 99 24 00
        e 120 99 24 7f
        e 0 99 2a 6e
        e 120 99 24 00
        e 0 99 2a 00
        e 360 99 2a 6a
        e 120 99 2a 00
        e 360 99 25 72
        e 0 99 2a 79
        e 120 99 25 00
        e 0 99 2a 00
        e 360 99 2a 6c
        e 120 99 2a 00
        e 360 99 35 7f
        e 0 99 24 7a
        e 0 99 2a 71
        e 120 99 35 00
        e 0 99 2a 00
        e 5 99 24 00
        e 355 99 2a 5f
        e 120 99 2a 00
        e 360 99 25 6e
        e 0 99 2a 70
        e 120 99 25 00
        e 5 99 2a 00
        e 355 99 2a 60
        e 120 99 2a 00
        e 120 99 24 7b
        e 120 99 24 00
        e 0 99 33 61
        e 120 99 33 00
        e 0 99 33 7a
        e 120 99 33 00
        e 840 99 35 68
        e 120 99 35 00
        e 120 99 35 62
        e 120 99 35 00
        e 120 99 35 7a
        e 120 99 35 00
        e 360 99 33 70
        e 0 99 24 76
        e 0 99 2a 70
        e 120 99 33 00
        e 0 99 24 00
        e 0 99 2a 00
        e 360 99 2a 60
        e 120 99 2a 00
        e 360 99 26 76
        e 0 99 2a 78
        e 120 99 26 00
        e 5 99 2a 00
        e 355 99 2a 60
        e 120 99 2a 00
        e 120 99 24 67
        e 120 99 24 00
        e 120 99 24 79
        e 0 99 2a 7a
        e 120 99 24 00
        e 0 99 2a 00
        e 360 99 2a 66
        e 120 99 2a 00
        e 360 99 26 7f
        e 0 99 2a 78
        e 120 99 26 00
        e 0 99 2a 00
        e 360 99 2a 67
        e 120 99 2a 00
        e 360 99 24 7f
        e 0 99 2a 6b
        e 120 99 24 00
        e 0 99 2a 00
        e 360 99 2a 69
        e 120 99 2a 00
        e 360 99 26 74
        e 0 99 2a 69
        e 120 99 26 00
        e 0 99 2a 00
        e 360 99 2a 64
        e 120 99 2a 00
        e 120 99 24 78
        e 120 99 24 00
        e 120 99 24 7c
        e 0 99 2a 6a
        e 120 99 24 00
        e 0 99 2a 00
        e 120 99 26 73
        e 120 99 26 00
        e 120 99 2a 68
        e 120 99 2a 00
        e 360 99 26 76
        e 0 99 2a 71
        e 120 99 26 00
        e 0 99 2a 00
        e 360 99 2a 74
        e 120 99 2a 00
        e 120 99 26 7d
        e 120 99 26 00
        e 120 99 24 78
        e 0 99 2a 74
        e 120 99 24 00
        e 0 99 2a 00
        e 360 99 2a 67
        e 120 99 2a 00
        e 360 99 26 7e
        e 0 99 2a 76
        e 120 99 26 00
        e 5 99 2a 00
        e 355 99 2a 6a
        e 120 99 2a 00
        e 120 99 24 7a
        e 120 99 24 00
        e 120 99 24 76
        e 0 99 2a 73
        e 120 99 24 00
        e 0 99 2a 00
        e 360 99 2a 68
        e 120 99 2a 00
        e 360 99 26 77
        e 0 99 2a 7a
        e 120 99 26 00
        e 0 99 2a 00
        e 360 99 2a 67
        e 120 99 2a 00
        e 360 99 24 7b
        e 0 99 2a 6f
        e 120 99 24 00
        e 0 99 2a 00
        e 360 99 2a 67
        e 120 99 2a 00
        e 360 99 26 7a
        e 0 99 2a 74
        e 120 99 26 00
        e 0 99 2a 00
        e 360 99 2a 6c
        e 120 99 2a 00
        e 120 99 24 7f
        e 120 99 24 00
        e 120 99 24 71
        e 0 99 2a 72
        e 120 99 24 00
        e 0 99 2a 00
        e 360 99 2a 68
        e 120 99 2a 00
        e 360 99 26 78
        e 0 99 2a 72
        e 120 99 26 00
        e 0 99 2a 00
        e 360 99 2a 66
        e 120 99 2a 00
        e 360 99 24 77
        e 0 99 2a 72
        e 120 99 24 00
        e 0 99 2a 00
        e 360 99 2a 64
        e 120 99 2a 00
        e 360 99 26 7b
        e 0 99 2a 76
        e 120 99 26 00
        e 5 99 2a 00
        e 355 99 2a 67
        e 120 99 2a 00
        e 120 99 24 79
        e 120 99 24 00
        e 120 99 24 6f
        e 0 99 2a 77
        e 120 99 24 00
        e 0 99 2a 00
        e 360 99 2a 59
        e 120 99 2a 00
        e 360 99 26 78
        e 0 99 2a 76
        e 120 99 26 00
        e 0 99 2a 00
        e 360 99 2a 62
        e 120 99 2a 00
        e 360 99 24 7a
        e 0 99 2a 77
        e 120 99 24 00
        e 0 99 2a 00
        e 360 99 2a 6a
        e 120 99 2a 00
        e 360 99 26 7f
        e 0 99 2a 6d
        e 120 99 26 00
        e 0 99 2a 00
        e 360 99 2a 66
        e 120 99 2a 00
        e 120 99 24 7a
        e 120 99 24 00
        e 120 99 24 7f
        e 0 99 2a 75
        e 120 99 24 00
        e 0 99 2a 00
        e 120 99 26 76
        e 120 99 26 00
        e 120 99 2a 69
        e 120 99 2a 00
        e 120 99 2f 60
        e 120 99 30 5f
        e 5 99 2f 00
        e 115 99 30 00
        e 0 99 26 77
        e 0 99 2a 74
        e 0 99 32 69
        e 120 99 26 00
        e 0 99 2a 00
        e 0 99 32 00
        e 120 99 32 79
        e 120 99 32 00
        e 120 99 2a 6d
        e 0 99 30 66
        e 120 99 2a 00
        e 0 99 30 00
        e 120 99 2f 6a
        e 120 99 2f 00
        e 120 99 24 73
        e 0 99 33 74
        e 0 99 31 78
        e 120 99 24 00
        e 0 99 33 00
        e 0 99 31 00
        e 360 99 33 6d
        e 120 99 33 00
        e 360 99 26 7e
        e 0 99 33 78
        e 120 99 26 00
        e 0 99 33 00
        e 360 99 33 5c
        e 120 99 33 00
        e 120 99 24 7e
        e 120 99 24 00
        e 120 99 24 78
        e 0 99 33 78
        e 120 99 24 00
        e 0 99 33 00
        e 360 99 33 62
        e 120 99 33 00
        e 120 99 2f 62
        e 0 99 30 63
        e 120 99 2f 00
        e 0 99 30 00
        e 120 99 2f 67
        e 0 99 26 7c
        e 0 99 33 7f
        e 120 99 2f 00
        e 0 99 26 00
        e 0 99 33 00
        e 120 99 31 77
        e 120 99 31 00
        e 120 99 33 6a
        e 120 99 33 00
        e 360 99 24 6e
        e 0 99 33 74
        e 0 99 39 7f
        e 120 99 24 00
        e 0 99 33 00
        e 0 99 39 00
        e 360 99 33 6f
        e 120 99 33 00
        e 360 99 26 73
        e 0 99 33 7c
        e 120 99 26 00
        e 0 99 33 00
        e 360 99 33 64
        e 120 99 33 00
        e 120 99 24 7f
        e 120 99 24 00
        e 120 99 24 76
        e 0 99 33 77
        e 120 99 24 00
        e 0 99 33 00
        e 360 99 33 68
        e 120 99 33 00
        e 360 99 26 7a
        e 0 99 33 7a
        e 120 99 26 00
        e 0 99 33 00
        e 360 99 33 68
        e 120 99 33 00
        e 360 99 24 74
        e 0 99 33 75
        e 120 99 24 00
        e 0 99 33 00
        e 360 99 33 6a
        e 120 99 33 00
        e 360 99 26 7e
        e 0 99 33 74
        e 120 99 26 00
        e 0 99 33 00
        e 360 99 33 69
        e 120 99 33 00
        e 120 99 24 79
        e 120 99 24 00
        e 120 99 24 77
        e 0 99 33 7e
        e 120 99 24 00
        e 0 99 33 00
        e 360 99 33 63
        e 120 99 33 00
        e 360 99 26 6e
        e 0 99 33 7f
        e 120 99 26 00
        e 0 99 33 00
        e 360 99 33 60
        e 120 99 33 00
        e 360 99 24 79
        e 0 99 33 72
        e 120 99 24 00
        e 0 99 33 00
        e 360 99 33 6c
        e 120 99 33 00
        e 360 99 26 79
        e 0 99 33 7c
        e 120 99 26 00
        e 0 99 33 00
        e 360 99 33 63
        e 120 99 33 00
        e 120 99 24 7f
        e 120 99 24 00
        e 120 99 24 7d
        e 0 99 33 70
        e 120 99 24 00
        e 0 99 33 00
        e 360 99 33 6b
        e 120 99 33 00
        e 360 99 26 7f
        e 0 99 33 77
        e 120 99 26 00
        e 0 99 33 00
        e 360 99 33 6d
        e 120 99 33 00
        e 360 99 24 70
        e 0 99 33 7a
        e 120 99 24 00
        e 0 99 33 00
        e 120 99 26 7c
        e 120 99 26 00
        e 120 99 33 61
        e 120 99 33 00
        e 360 99 26 7a
        e 0 99 33 75
        e 0 99 30 7f
        e 120 99 26 00
        e 0 99 33 00
        e 0 99 30 00
        e 120 99 2f 5f
        e 125 99 2f 00
        e 115 99 2d 60
        e 0 99 33 64
        e 120 99 33 00
        e 5 99 2d 00
        e 115 99 2b 5d
        e 0 99 24 73
        e 120 99 2b 00
        e 0 99 24 00
        e 120 99 24 77
        e 0 99 33 79
        e 0 99 31 71
        e 120 99 24 00
        e 0 99 33 00
        e 0 99 31 00
        e 360 99 33 6a
        e 120 99 33 00
        e 360 99 26 73
        e 0 99 33 72
        e 120 99 26 00
        e 0 99 33 00
        e 360 99 33 63
        e 120 99 33 00
        e 120 99 2d 5e
        e 0 99 24 7c
        e 120 99 2d 00
        e 0 99 24 00
        e 0 99 2f 60
        e 0 99 30 61
        e 120 99 2f 00
        e 0 99 30 00
        e 0 99 32 64
        e 0 99 24 7c
        e 0 99 33 77
        e 120 99 32 00
        e 0 99 24 00
        e 0 99 33 00
        e 120 99 32 63
        e 120 99 32 00
        e 120 99 33 62
        e 0 99 30 71
        e 120 99 33 00
        e 0 99 30 00
        e 120 99 2f 5e
        e 120 99 2f 00
        e 120 99 30 6c
        e 0 99 26 75
        e 0 99 33 7e
        e 120 99 30 00
        e 0 99 26 00
        e 0 99 33 00
        e 120 99 31 76
        e 120 99 31 00
        e 120 99 33 69
        e 120 99 33 00
        e 360 99 24 74
        e 0 99 33 74
        e 0 99 39 7b
        e 120 99 24 00
        e 0 99 33 00
        e 0 99 39 00
        e 360 99 33 6e
        e 120 99 33 00
        e 360 99 26 7f
        e 0 99 33 78
        e 120 99 26 00
        e 0 99 33 00
        e 360 99 33 68
        e 120 99 33 00
        e 120 99 24 71
        e 120 99 24 00
        e 120 99 24 6e
        e 0 99 33 75
        e 120 99 24 00
        e 0 99 33 00
        e 120 99 26 7f
        e 120 99 26 00
        e 120 99 33 66
        e 120 99 33 00
        e 360 99 26 7d
        e 0 99 33 77
        e 120 99 26 00
        e 0 99 33 00
        e 240 99 26 67
        e 120 99 26 00
        e 0 99 33 66
        e 120 99 33 00
        e 120 99 26 7a
        e 120 99 26 00
        e 120 99 24 7c
        e 0 99 33 79
        e 120 99 24 00
        e 0 99 33 00
        e 360 99 33 6e
        e 120 99 33 00
        e 360 99 26 76
        e 0 99 33 76
        e 120 99 26 00
        e 0 99 33 00
        e 360 99 33 6b
        e 120 99 33 00
        e 120 99 24 7a
        e 120 99 24 00
        e 120 99 24 70
        e 0 99 33 7a
        e 120 99 24 00
        e 0 99 33 00
        e 120 99 26 71
        e 120 99 26 00
        e 120 99 33 68
        e 120 99 33 00
        e 360 99 26 7b
        e 0 99 33 7f
        e 120 99 26 00
        e 0 99 33 00
        e 360 99 33 61
        e 120 99 33 00
        e 360 99 24 7f
        e 0 99 33 6b
        e 120 99 24 00
        e 0 99 33 00
        e 360 99 33 6b
        e 120 99 33 00
        e 360 99 26 7f
        e 0 99 33 70
        e 120 99 26 00
        e 0 99 33 00
        e 360 99 33 6c
        e 120 99 33 00
        e 120 99 24 78
        e 120 99 24 00
        e 120 99 24 74
        e 0 99 33 74
        e 120 99 24 00
        e 0 99 33 00
        e 360 99 33 66
        e 120 99 33 00
        e 360 99 26 6d
        e 0 99 33 78
        e 120 99 26 00
        e 0 99 33 00
        e 360 99 35 60
        e 0 99 33 73
        e 120 99 35 00
        e 0 99 33 00
        e 120 99 35 61
        e 120 99 35 00
        e 120 99 35 72
        e 0 99 24 7a
        e 0 99 33 75
        e 120 99 35 00
        e 0 99 24 00
        e 0 99 33 00
        e 360 99 33 6c
        e 120 99 33 00
        e 360 99 32 7e
        e 0 99 26 75
        e 0 99 33 7e
        e 120 99 32 00
        e 0 99 26 00
        e 0 99 33 00
        e 120 99 30 5c
        e 120 99 30 00
        e 120 99 2f 66
        e 0 99 33 63
        e 120 99 2f 00
        e 0 99 33 00
        e 120 99 2d 5b
        e 0 99 24 78
        e 120 99 2d 00
        e 0 99 24 00
        e 120 99 31 7f
        e 120 99 31 00
        e 600 99 35 76
        e 120 99 35 00
        e 360 99 35 66
        e 120 99 35 00
        e 120 99 35 77
        e 120 99 35 00
        e 360 99 35 76
        e 120 99 35 00
        e 1200 99 35 70
        e 120 99 35 00
        e 120 99 35 64
        e 120 99 35 00
        e 0 99 35 5e
        e 120 99 35 00
        e 120 99 35 77
        e 120 99 35 00
        e 120 99 35 77
        e 120 99 35 00
        e 240 99 35 74
        e 120 99 35 00
        e 240 99 35 75
        e 120 99 35 00
        e 120 99 33 6f
        e 120 99 33 00
        e 240 99 33 77
        e 120 99 33 00
        e 240 99 31 7f
        e 0 99 24 7a
        e 0 99 2a 6d
        e 120 99 31 00
        e 0 99 2a 00
        e 5 99 24 00
        e 355 99 2a 64
        e 120 99 2a 00
        e 360 99 25 7a
        e 0 99 2a 71
        e 120 99 25 00
        e 5 99 2a 00
        e 355 99 2a 66
        e 120 99 2a 00
        e 120 99 24 7f
        e 120 99 24 00
        e 120 99 24 7a
        e 0 99 2a 71
        e 120 99 2a 00
        e 5 99 24 00
        e 355 99 2a 6c
        e 120 99 2a 00
        e 360 99 25 77
        e 0 99 2a 75
        e 120 99 25 00
        e 0 99 2a 00
        e 360 99 2a 66
        e 120 99 2a 00
        e 360 99 24 70
        e 0 99 2a 67
        e 120 99 24 00
        e 0 99 2a 00
        e 360 99 2a 6b
        e 120 99 2a 00
        e 360 99 25 6e
        e 0 99 2a 77
        e 120 99 25 00
        e 0 99 2a 00
        e 360 99 2a 62
        e 120 99 2a 00
        e 120 99 25 72
        e 0 99 24 7d
        e 120 99 25 00
        e 0 99 24 00
        e 120 99 24 77
        e 0 99 2a 6f
        e 120 99 24 00
        e 0 99 2a 00
        e 120 99 25 7e
        e 125 99 25 00
        e 115 99 2a 60
        e 120 99 2a 00
        e 360 99 25 7a
        e 0 99 2a 7a
        e 120 99 25 00
        e 0 99 2a 00
        e 360 99 2a 6d
        e 120 99 2a 00
        e 120 99 25 7f
        e 120 99 25 00
        e 120 99 24 7f
        e 0 99 2a 6d
        e 120 99 2a 00
        e 5 99 24 00
        e 355 99 2a 61
        e 120 99 2a 00
        e 360 99 25 7f
        e 0 99 2a 75
        e 120 99 25 00
        e 5 99 2a 00
        e 355 99 2a 6b
        e 120 99 2a 00
        e 120 99 24 7f
        e 120 99 24 00
        e 120 99 24 7c
        e 0 99 2a 6f
        e 120 99 2a 00
        e 5 99 24 00
        e 115 99 25 77
        e 120 99 25 00
        e 120 99 2a 60
        e 120 99 2a 00
        e 360 99 25 73
        e 0 99 2a 76
        e 120 99 25 00
        e 0 99 2a 00
        e 240 99 25 73
        e 120 99 25 00
        e 0 99 2a 67
        e 120 99 2a 00
        e 120 99 25 7f
        e 125 99 25 00
        e 115 99 24 7e
        e 0 99 2a 76
        e 120 99 24 00
        e 0 99 2a 00
        e 360 99 2a 6d
        e 120 99 2a 00
        e 360 99 25 79
        e 0 99 2a 73
        e 120 99 25 00
        e 0 99 2a 00
        e 360 99 2a 6c
        e 120 99 2a 00
        e 120 99 24 7a
        e 120 99 24 00
        e 120 99 24 6e
        e 0 99 2a 6b
        e 120 99 24 00
        e 0 99 2a 00
        e 120 99 25 7e
        e 120 99 25 00
        e 120 99 2a 60
        e 120 99 2a 00
        e 360 99 25 7e
        e 0 99 2a 7f
        e 120 99 25 00
        e 0 99 2a 00
        e 360 99 2a 69
        e 120 99 2a 00
        e 120 99 25 78
        e 125 99 25 00
        e 115 99 24 7f
        e 0 99 2a 6d
        e 120 99 2a 00
        e 5 99 24 00
        e 355 99 2a 5e
        e 120 99 2a 00
        e 360 99 25 7b
        e 0 99 2a 78
        e 120 99 25 00
        e 5 99 2a 00
        e 355 99 2a 64
        e 120 99 2a 00
        e 120 99 24 72
        e 120 99 24 00
        e 120 99 24 75
        e 0 99 2a 70
        e 120 99 2a 00
        e 5 99 24 00
        e 355 99 2a 62
        e 120 99 2a 00
        e 360 99 25 74
        e 0 99 2a 75
        e 120 99 25 00
        e 0 99 2a 00
        e 360 99 2a 5f
        e 120 99 2a 00
        e 120 99 25 77
        e 120 99 25 00
        e 120 99 24 78
        e 0 99 2a 73
        e 120 99 24 00
        e 0 99 2a 00
        e 360 99 2a 6a
        e 120 99 2a 00
        e 360 99 25 77
        e 0 99 2a 6f
        e 120 99 25 00
        e 0 99 2a 00
        e 360 99 2a 5d
        e 120 99 2a 00
        e 120 99 24 7a
        e 120 99 24 00
        e 120 99 24 7b
        e 0 99 2a 6f
        e 120 99 24 00
        e 0 99 2a 00
        e 360 99 2a 6c
        e 120 99 2a 00
        e 360 99 25 78
        e 0 99 2a 78
        e 120 99 25 00
        e 0 99 2a 00
        e 360 99 2a 68
        e 120 99 2a 00
        e 360 99 24 7e
        e 0 99 2a 6f
        e 120 99 2a 00
        e 5 99 24 00
        e 355 99 2a 62
        e 120 99 2a 00
        e 360 99 25 7f
        e 0 99 2a 75
        e 0 99 32 7e
        e 120 99 25 00
        e 5 99 2a 00
        e 0 99 32 00
        e 355 99 2a 66
        e 120 99 2a 00
        e 120 99 30 5e
        e 0 99 24 78
        e 120 99 30 00
        e 0 99 24 00
        e 120 99 30 70
        e 0 99 24 7f
        e 0 99 2a 71
        e 120 99 30 00
        e 0 99 2a 00
        e 5 99 24 00
        e 355 99 2a 6d
        e 120 99 2a 00
        e 120 99 2f 5c
        e 120 99 2f 00
        e 120 99 2f 6e
        e 0 99 25 7c
        e 0 99 2a 78
        e 120 99 2f 00
        e 0 99 25 00
        e 0 99 2a 00
        e 120 99 2d 63
        e 120 99 2d 00
        e 120 99 2b 73
        e 0 99 2a 6f
        e 120 99 2b 00
        e 0 99 2a 00
        e 360 99 31 63
        e 0 99 24 71
        e 0 99 2a 74
        e 120 99 31 00
        e 0 99 24 00
        e 0 99 2a 00
        e 360 99 2a 61
        e 120 99 2a 00
        e 360 99 26 72
        e 0 99 2a 70
        e 120 99 26 00
        e 5 99 2a 00
        e 355 99 2a 60
        e 120 99 2a 00
        e 120 99 24 7b
        e 120 99 24 00
        e 120 99 24 7c
        e 0 99 2a 72
        e 120 99 24 00
        e 0 99 2a 00
        e 120 99 26 7f
        e 120 99 26 00
        e 120 99 2a 69
        e 120 99 2a 00
        e 360 99 26 78
        e 0 99 2a 74
        e 120 99 26 00
        e 0 99 2a 00
        e 360 99 2a 6d
        e 120 99 2a 00
        e 120 99 26 7f
        e 120 99 26 00
        e 120 99 24 75
        e 0 99 2a 6b
        e 120 99 24 00
        e 0 99 2a 00
        e 360 99 2a 6b
        e 120 99 2a 00
        e 360 99 26 7d
        e 0 99 2a 6b
        e 120 99 26 00
        e 0 99 2a 00
        e 360 99 2a 68
        e 120 99 2a 00
        e 120 99 24 7c
        e 120 99 24 00
        e 120 99 24 79
        e 0 99 2a 67
        e 120 99 24 00
        e 0 99 2a 00
        e 360 99 2a 5c
        e 120 99 2a 00
        e 360 99 26 7a
        e 0 99 2a 74
        e 120 99 26 00
        e 0 99 2a 00
        e 240 99 26 5f
        e 120 99 26 00
        e 0 99 2a 6d
        e 120 99 2a 00
        e 120 99 26 74
        e 120 99 26 00
        e 120 99 24 7a
        e 0 99 2a 72
        e 120 99 24 00
        e 0 99 2a 00
        e 360 99 2a 64
        e 120 99 2a 00
        e 360 99 26 7b
        e 0 99 2a 7c
        e 120 99 26 00
        e 5 99 2a 00
        e 355 99 2a 69
        e 120 99 2a 00
        e 120 99 24 77
        e 120 99 24 00
        e 120 99 24 78
        e 0 99 2a 6c
        e 120 99 24 00
        e 0 99 2a 00
        e 360 99 2a 66
        e 120 99 2a 00
        e 360 99 26 79
        e 0 99 2a 76
        e 120 99 26 00
        e 0 99 2a 00
        e 360 99 2a 68
        e 120 99 2a 00
        e 360 99 24 79
        e 0 99 2a 68
        e 120 99 24 00
        e 0 99 2a 00
        e 360 99 2a 6a
        e 120 99 2a 00
        e 360 99 26 77
        e 0 99 2a 6c
        e 120 99 26 00
        e 0 99 2a 00
        e 360 99 2a 69
        e 120 99 2a 00
        e 120 99 24 77
        e 120 99 24 00
        e 120 99 24 7f
        e 0 99 2a 67
        e 120 99 24 00
        e 0 99 2a 00
        e 360 99 2a 6e
        e 120 99 2a 00
        e 360 99 26 7d
        e 0 99 2a 7b
        e 120 99 26 00
        e 0 99 2a 00
        e 360 99 2a 6e
        e 120 99 2a 00
        e 360 99 24 7b
        e 0 99 2a 7b
        e 120 99 24 00
        e 0 99 2a 00
        e 360 99 2a 60
        e 120 99 2a 00
        e 360 99 26 7a
        e 0 99 2a 75
        e 120 99 26 00
        e 5 99 2a 00
        e 355 99 2a 69
        e 120 99 2a 00
        e 120 99 24 7a
        e 120 99 24 00
        e 120 99 24 7a
        e 0 99 2a 73
        e 120 99 24 00
        e 0 99 2a 00
        e 360 99 2a 65
        e 120 99 2a 00
        e 360 99 26 73
        e 0 99 2a 79
        e 120 99 26 00
        e 0 99 2a 00
        e 360 99 2a 67
        e 120 99 2a 00
        e 360 99 24 7a
        e 0 99 2a 71
        e 120 99 24 00
        e 0 99 2a 00
        e 360 99 2a 6c
        e 120 99 2a 00
        e 360 99 26 76
        e 0 99 2a 6c
        e 0 99 30 5f
        e 0 99 32 77
        e 120 99 26 00
        e 0 99 2a 00
        e 0 99 30 00
        e 5 99 32 00
        e 355 99 2a 62
        e 120 99 2a 00
        e 120 99 24 7f
        e 0 99 2d 65
        e 120 99 24 00
        e 0 99 2f 63
        e 5 99 2d 00
        e 115 99 2f 00
        e 0 99 30 65
        e 0 99 24 73
        e 0 99 2a 72
        e 120 99 30 00
        e 0 99 24 00
        e 0 99 2a 00
        e 120 99 30 6e
        e 120 99 30 00
        e 120 99 2f 70
        e 0 99 2a 6f
        e 120 99 2f 00
        e 0 99 2a 00
        e 120 99 2d 58
        e 120 99 2d 00
        e 120 99 2f 79
        e 0 99 26 7f
        e 0 99 2a 75
        e 120 99 2f 00
        e 0 99 26 00
        e 0 99 2a 00
        e 120 99 2d 67
        e 120 99 2d 00
        e 120 99 2b 6b
        e 0 99 2a 6f
        e 120 99 2b 00
        e 0 99 2a 00
        e 120 99 2d 68
        e 120 99 2d 00
        e 120 99 31 77
        e 0 99 24 7a
        e 0 99 33 71
        e 120 99 31 00
        e 0 99 24 00
        e 0 99 33 00
        e 360 99 33 6a
        e 120 99 33 00
        e 360 99 26 75
        e 0 99 33 76
        e 120 99 26 00
        e 0 99 33 00
        e 360 99 33 65
        e 120 99 33 00
        e 120 99 24 7c
        e 0 99 2f 66
        e 120 99 24 00
        e 0 99 30 5b
        e 5 99 2f 00
        e 115 99 30 00
        e 0 99 32 57
        e 0 99 24 7a
        e 0 99 33 7d
        e 120 99 32 00
        e 0 99 24 00
        e 0 99 33 00
        e 120 99 32 6f
        e 120 99 32 00
        e 120 99 30 61
        e 0 99 33 6e
        e 120 99 30 00
        e 0 99 33 00
        e 120 99 2f 5e
        e 120 99 2f 00
        e 120 99 30 70
        e 0 99 26 71
        e 0 99 33 78
        e 120 99 30 00
        e 0 99 26 00
        e 0 99 33 00
        e 120 99 31 71
        e 120 99 31 00
        e 120 99 33 5d
        e 120 99 33 00
        e 360 99 39 7f
        e 0 99 24 7d
        e 0 99 33 67
        e 120 99 39 00
        e 0 99 24 00
        e 0 99 33 00
        e 360 99 33 68
        e 120 99 33 00
        e 360 99 26 7b
        e 0 99 33 7a
        e 120 99 26 00
        e 0 99 33 00
        e 360 99 33 65
        e 120 99 33 00
        e 120 99 24 7a
        e 120 99 24 00
        e 120 99 24 7d
        e 0 99 33 73
        e 120 99 24 00
        e 0 99 33 00
        e 120 99 26 7f
        e 120 99 26 00
        e 120 99 33 6a
        e 120 99 33 00
        e 360 99 26 7e
        e 0 99 33 78
        e 120 99 26 00
        e 0 99 33 00
        e 360 99 33 5f
        e 120 99 33 00
        e 120 99 26 71
        e 120 99 26 00
        e 120 99 24 7b
        e 0 99 33 7b
        e 120 99 24 00
        e 0 99 33 00
        e 360 99 33 66
        e 120 99 33 00
        e 360 99 26 70
        e 0 99 33 7c
        e 120 99 26 00
        e 0 99 33 00
        e 360 99 33 6e
        e 120 99 33 00
        e 120 99 24 6e
        e 120 99 24 00
        e 120 99 24 7f
        e 0 99 33 74
        e 120 99 24 00
        e 0 99 33 00
        e 360 99 33 67
        e 120 99 33 00
        e 360 99 26 7c
        e 0 99 33 7f
        e 120 99 26 00
        e 0 99 33 00
        e 360 99 33 63
        e 120 99 33 00
        e 360 99 24 7a
        e 0 99 33 7b
        e 120 99 24 00
        e 0 99 33 00
        e 360 99 33 65
        e 120 99 33 00
        e 360 99 26 71
        e 0 99 33 7f
        e 120 99 26 00
        e 0 99 33 00
        e 360 99 33 63
        e 120 99 33 00
        e 120 99 24 7f
        e 120 99 24 00
        e 120 99 24 7d
        e 0 99 33 74
        e 120 99 24 00
        e 0 99 33 00
        e 360 99 33 61
        e 120 99 33 00
        e 360 99 26 75
        e 0 99 33 77
        e 120 99 26 00
        e 0 99 33 00
        e 360 99 33 64
        e 120 99 33 00
        e 360 99 24 72
        e 0 99 33 6f
        e 120 99 24 00
        e 0 99 33 00
        e 360 99 33 68
        e 0 99 30 6e
        e 0 99 32 6e
        e 120 99 33 00
        e 0 99 30 00
        e 0 99 32 00
        e 360 99 30 6f
        e 0 99 26 7a
        e 0 99 33 76
        e 0 99 2f 7e
        e 120 99 30 00
        e 0 99 26 00
        e 0 99 33 00
        e 0 99 2f 00
        e 120 99 2f 6a
        e 120 99 2f 00
        e 120 99 2d 6c
        e 0 99 33 68
        e 120 99 2d 00
        e 0 99 33 00
        e 120 99 2b 64
        e 0 99 24 7f
        e 120 99 2b 00
        e 0 99 24 00
        e 120 99 31 75
        e 0 99 24 7c
        e 0 99 33 76
        e 120 99 31 00
        e 0 99 24 00
        e 0 99 33 00
        e 360 99 33 6a
        e 120 99 33 00
        e 360 99 26 72
        e 0 99 33 70
        e 120 99 26 00
        e 0 99 33 00
        e 360 99 33 6a
        e 120 99 33 00
        e 120 99 24 7f
        e 120 99 24 00
        e 120 99 24 79
        e 0 99 33 75
        e 120 99 24 00
        e 0 99 33 00
        e 120 99 26 79
        e 120 99 26 00
        e 120 99 33 65
        e 120 99 33 00
        e 360 99 26 7d
        e 0 99 33 7d
        e 120 99 26 00
        e 0 99 33 00
        e 360 99 33 63
        e 120 99 33 00
        e 360 99 24 7f
        e 0 99 33 75
        e 120 99 24 00
        e 0 99 33 00
        e 360 99 33 60
        e 120 99 33 00
        e 360 99 26 79
        e 0 99 33 74
        e 120 99 26 00
        e 0 99 33 00
        e 360 99 33 5e
        e 120 99 33 00
        e 120 99 24 74
        e 120 99 24 00
        e 120 99 24 70
        e 0 99 33 77
        e 120 99 24 00
        e 0 99 33 00
        e 360 99 33 6a
        e 120 99 33 00
        e 360 99 26 75
        e 0 99 33 7a
        e 120 99 26 00
        e 0 99 33 00
        e 360 99 33 66
        e 120 99 33 00
        e 360 99 31 72
        e 0 99 24 7a
        e 0 99 33 75
        e 120 99 31 00
        e 0 99 24 00
        e 0 99 33 00
        e 360 99 33 74
        e 120 99 33 00
        e 360 99 26 71
        e 0 99 33 7f
        e 120 99 26 00
        e 0 99 33 00
        e 360 99 33 67
        e 120 99 33 00
        e 120 99 24 77
        e 120 99 24 00
        e 120 99 24 6f
        e 0 99 33 7d
        e 120 99 24 00
        e 0 99 33 00
        e 360 99 33 61
        e 120 99 33 00
        e 360 99 26 7c
        e 0 99 33 77
        e 120 99 26 00
        e 0 99 33 00
        e 360 99 33 6c
        e 120 99 33 00
        e 360 99 24 75
        e 0 99 33 72
        e 120 99 24 00
        e 0 99 33 00
        e 360 99 33 66
        e 120 99 33 00
        e 360 99 26 7f
        e 0 99 33 77
        e 120 99 26 00
        e 0 99 33 00
        e 360 99 33 65
        e 120 99 33 00
        e 120 99 24 7d
        e 120 99 24 00
        e 120 99 24 77
        e 0 99 33 75
        e 120 99 24 00
        e 0 99 33 00
        e 360 99 33 5f
        e 120 99 33 00
        e 360 99 26 77
        e 0 99 33 7f
        e 120 99 26 00
        e 0 99 33 00
        e 360 99 33 62
        e 120 99 33 00
        e 120 99 2d 60
        e 120 99 2d 00
        e 0 99 2f 59
        e 0 99 30 5e
        e 120 99 2f 00
        e 0 99 30 00
        e 0 99 32 6b
        e 0 99 24 7d
        e 0 99 33 78
        e 120 99 32 00
        e 0 99 24 00
        e 0 99 33 00
        e 120 99 32 66
        e 120 99 32 00
        e 120 99 30 6b
        e 0 99 33 63
        e 120 99 30 00
        e 0 99 33 00
        e 120 99 2f 6b
        e 120 99 2f 00
        e 120 99 30 78
        e 0 99 26 7f
        e 0 99 33 76
        e 120 99 30 00
        e 0 99 26 00
        e 0 99 33 00
        e 120 99 2f 6c
        e 120 99 2f 00
        e 120 99 2d 64
        e 0 99 33 67
        e 120 99 2d 00
        e 0 99 33 00
        e 120 99 2b 5e
        e 0 99 24 76
        e 120 99 2b 00
        e 0 99 24 00
        e 120 99 24 7f
        e 0 99 33 7c
        e 120 99 24 00
        e 0 99 33 00
        e 360 99 33 6a
        e 120 99 33 00
        e 360 99 26 77
        e 0 99 33 75
        e 120 99 26 00
        e 0 99 33 00
        e 360 99 33 64
        e 120 99 33 00
        e 120 99 24 7f
        e 120 99 24 00
        e 120 99 24 7c
        e 0 99 33 72
        e 120 99 24 00
        e 0 99 33 00
        e 360 99 33 5a
        e 120 99 33 00
        e 360 99 26 7a
        e 0 99 33 74
        e 120 99 26 00
        e 0 99 33 00
        e 360 99 33 6b
        e 120 99 33 00
        e 360 99 24 7c
        e 0 99 33 7c
        e 120 99 24 00
        e 0 99 33 00
        e 360 99 33 68
        e 120 99 33 00
        e 360 99 26 77
        e 0 99 33 78
        e 120 99 26 00
        e 0 99 33 00
        e 360 99 33 5d
        e 120 99 33 00
        e 120 99 24 7a
        e 120 99 24 00
        e 120 99 24 76
        e 0 99 33 76
        e 120 99 24 00
        e 0 99 33 00
        e 360 99 33 69
        e 120 99 33 00
        e 360 99 26 72
        e 0 99 33 68
        e 120 99 26 00
        e 0 99 33 00
        e 360 99 33 66
        e 120 99 33 00
        e 360 99 24 75
        e 0 99 33 77
        e 120 99 24 00
        e 0 99 33 00
        e 360 99 33 64
        e 120 99 33 00
        e 360 99 26 73
        e 0 99 33 7d
        e 120 99 26 00
        e 0 99 33 00
        e 360 99 33 6e
        e 120 99 33 00
        e 120 99 24 79
        e 120 99 24 00
        e 120 99 24 78
        e 0 99 33 74
        e 120 99 24 00
        e 0 99 33 00
        e 120 99 26 7f
        e 120 99 26 00
        e 120 99 33 69
        e 120 99 33 00
        e 360 99 26 75
        e 0 99 33 7e
        e 120 99 26 00
        e 0 99 33 00
        e 360 99 33 5f
        e 120 99 33 00
        e 360 99 24 74
        e 0 99 33 6f
        e 120 99 24 00
        e 0 99 33 00
        e 360 99 33 64
        e 120 99 33 00
        e 360 99 26 7f
        e 0 99 33 76
        e 120 99 26 00
        e 0 99 33 00
        e 360 99 33 64
        e 120 99 33 00
        e 120 99 24 7a
        e 120 99 24 00
        e 120 99 24 79
        e 0 99 33 75
        e 120 99 24 00
        e 0 99 33 00
        e 360 99 33 65
        e 120 99 33 00
        e 360 99 26 7d
        e 0 99 33 73
        e 120 99 26 00
        e 0 99 33 00
        e 360 99 33 70
        e 120 99 33 00
        e 120 99 2d 5f
        e 120 99 2d 00
        e 0 99 2f 54
        e 0 99 30 61
        e 120 99 2f 00
        e 0 99 30 00
        e 0 99 32 70
        e 120 99 32 00
        e 120 99 32 70
        e 120 99 32 00
        e 120 99 30 6d
        e 120 99 30 00
        e 120 99 2f 5f
        e 120 99 2f 00
        e 120 99 30 7a
        e 120 99 30 00
        e 120 99 2f 70
        e 120 99 2f 00
        e 120 99 2d 71
        e 120 99 2d 00
        e 120 99 2b 6e
        e 120 99 2b 00
        e 120 99 24 7f
        e 0 99 2a 6f
        e 0 99 31 7f
        e 120 99 24 00
        e 0 99 2a 00
        e 0 99 31 00
        e 360 99 2a 6a
        e 120 99 2a 00
        e 120 99 24 73
        e 120 99 24 00
        e 120 99 2b 78
        e 0 99 2a 78
        e 120 99 2b 00
        e 5 99 2a 00
        e 355 99 2a 65
        e 120 99 2a 00
        e 120 99 24 79
        e 120 99 24 00
        e 120 99 24 78
        e 0 99 2a 6a
        e 120 99 24 00
        e 5 99 2a 00
        e 355 99 2a 62
        e 120 99 2a 00
        e 120 99 24 78
        e 120 99 24 00
        e 120 99 2b 7e
        e 0 99 2a 72
        e 120 99 2b 00
        e 5 99 2a 00
        e 355 99 2a 61
        e 120 99 2a 00
        e 120 99 24 76
        e 120 99 24 00
        e 120 99 24 6f
        e 0 99 2a 73
        e 120 99 24 00
        e 5 99 2a 00
        e 355 99 2a 62
        e 120 99 2a 00
        e 120 99 24 7a
        e 120 99 24 00
        e 120 99 2b 75
        e 0 99 2a 7a
        e 120 99 2b 00
        e 0 99 2a 00
        e 360 99 2a 5f
        e 120 99 2a 00
        e 120 99 24 7f
        e 120 99 24 00
        e 120 99 24 79
        e 0 99 2a 77
        e 120 99 24 00
        e 0 99 2a 00
        e 360 99 2a 61
        e 120 99 2a 00
        e 120 99 24 79
        e 120 99 24 00
        e 120 99 2b 7f
        e 0 99 2a 70
        e 120 99 2b 00
        e 5 99 2a 00
        e 355 99 2a 5e
        e 120 99 2a 00
        e 120 99 24 78
        e 120 99 24 00
        e 120 99 24 79
        e 0 99 2a 6b
        e 120 99 24 00
        e 0 99 2a 00
        e 360 99 2a 63
        e 120 99 2a 00
        e 120 99 24 7f
        e 120 99 24 00
        e 120 99 2b 79
        e 0 99 2a 74
        e 120 99 2b 00
        e 5 99 2a 00
        e 355 99 2a 5d
        e 120 99 2a 00
        e 120 99 24 7f
        e 120 99 24 00
        e 120 99 24 73
        e 0 99 2a 66
        e 120 99 24 00
        e 5 99 2a 00
        e 355 99 2a 5b
        e 120 99 2a 00
        e 120 99 24 7b
        e 120 99 24 00
        e 120 99 2b 77
        e 0 99 2a 6c
        e 120 99 2b 00
        e 5 99 2a 00
        e 355 99 2a 66
        e 120 99 2a 00
        e 120 99 24 77
        e 120 99 24 00
        e 120 99 24 7b
        e 0 99 2a 76
        e 120 99 24 00
        e 5 99 2a 00
        e 355 99 2a 6f
        e 120 99 2a 00
        e 120 99 24 6e
        e 120 99 24 00
        e 120 99 2b 76
        e 0 99 2a 7f
        e 120 99 2b 00
        e 0 99 2a 00
        e 360 99 2a 5e
        e 120 99 2a 00
        e 120 99 24 7e
        e 120 99 24 00
        e 120 99 24 7f
        e 0 99 2a 6f
        e 120 99 24 00
        e 0 99 2a 00
        e 360 99 2a 5e
        e 120 99 2a 00
        e 120 99 24 7d
        e 120 99 24 00
        e 120 99 2b 75
        e 0 99 2a 75
        e 120 99 2b 00
        e 5 99 2a 00
        e 355 99 2a 62
        e 120 99 2a 00
        e 120 99 2d 5f
        e 0 99 24 79
        e 120 99 2d 00
        e 0 99 24 00
        e 0 99 2f 5c
        e 0 99 30 5b
        e 120 99 2f 00
        e 0 99 30 00
        e 0 99 32 62
        e 0 99 24 7f
        e 0 99 2a 73
        e 120 99 32 00
        e 0 99 24 00
        e 0 99 2a 00
        e 120 99 32 74
        e 120 99 32 00
        e 120 99 30 6e
        e 0 99 2a 6c
        e 120 99 30 00
        e 0 99 2a 00
        e 120 99 2f 69
        e 0 99 24 7a
        e 120 99 2f 00
        e 0 99 24 00
        e 120 99 30 74
        e 0 99 2b 7b
        e 0 99 2a 74
        e 120 99 30 00
        e 0 99 2b 00
        e 5 99 2a 00
        e 115 99 2f 71
        e 120 99 2f 00
        e 120 99 2d 79
        e 0 99 2a 60
        e 120 99 2d 00
        e 0 99 2a 00
        e 120 99 2b 70
        e 0 99 24 7b
        e 120 99 2b 00
        e 0 99 24 00
        e 120 99 31 75
        e 0 99 24 78
        e 0 99 2a 7b
        e 120 99 31 00
        e 0 99 24 00
        e 0 99 2a 00
        e 360 99 2a 69
        e 120 99 2a 00
        e 120 99 24 7f
        e 120 99 24 00
        e 120 99 2b 6b
        e 0 99 2a 77
        e 120 99 2b 00
        e 5 99 2a 00
        e 355 99 2a 65
        e 120 99 2a 00
        e 120 99 24 7a
        e 120 99 24 00
        e 120 99 24 7a
        e 0 99 2a 71
        e 120 99 24 00
        e 5 99 2a 00
        e 355 99 2a 5e
        e 120 99 2a 00
        e 120 99 24 72
        e 120 99 24 00
        e 120 99 2b 75
        e 0 99 2a 7a
        e 120 99 2b 00
        e 5 99 2a 00
        e 355 99 2a 64
        e 120 99 2a 00
        e 120 99 24 77
        e 120 99 24 00
        e 120 99 24 7a
        e 0 99 2a 77
        e 120 99 24 00
        e 5 99 2a 00
        e 355 99 2a 68
        e 120 99 2a 00
        e 120 99 24 78
        e 120 99 24 00
        e 120 99 2b 6f
        e 0 99 2a 7f
        e 120 99 2b 00
        e 0 99 2a 00
        e 360 99 2a 5e
        e 120 99 2a 00
        e 120 99 24 75
        e 120 99 24 00
        e 120 99 24 7f
        e 0 99 2a 7d
        e 120 99 24 00
        e 0 99 2a 00
        e 360 99 2a 61
        e 120 99 2a 00
        e 120 99 24 75
        e 120 99 24 00
        e 120 99 2b 7f
        e 0 99 2a 7f
        e 120 99 2b 00
        e 5 99 2a 00
        e 355 99 2a 67
        e 120 99 2a 00
        e 120 99 24 7f
        e 120 99 24 00
        e 120 99 24 7f
        e 0 99 2a 6a
        e 120 99 24 00
        e 0 99 2a 00
        e 360 99 2a 63
        e 120 99 2a 00
        e 120 99 24 7f
        e 120 99 24 00
        e 120 99 2b 7a
        e 0 99 2a 74
        e 120 99 2b 00
        e 5 99 2a 00
        e 355 99 2a 67
        e 120 99 2a 00
        e 120 99 24 7b
        e 120 99 24 00
        e 120 99 24 7e
        e 0 99 2a 7a
        e 120 99 24 00
        e 5 99 2a 00
        e 355 99 2a 5f
        e 120 99 2a 00
        e 120 99 24 79
        e 120 99 24 00
        e 120 99 2b 75
        e 0 99 2a 73
        e 120 99 2b 00
        e 5 99 2a 00
        e 355 99 2a 5f
        e 120 99 2a 00
        e 120 99 24 7b
        e 120 99 24 00
        e 120 99 24 73
        e 0 99 2a 6f
        e 120 99 24 00
        e 5 99 2a 00
        e 355 99 2a 62
        e 120 99 2a 00
        e 120 99 24 7f
        e 120 99 24 00
        e 120 99 2b 7b
        e 0 99 2a 6f
        e 120 99 2b 00
        e 0 99 2a 00
        e 360 99 2a 5f
        e 120 99 2a 00
        e 120 99 24 7f
        e 120 99 24 00
        e 120 99 24 7e
        e 0 99 2a 74
        e 120 99 24 00
        e 0 99 2a 00
        e 360 99 2a 5f
        e 120 99 2a 00
        e 120 99 24 7e
        e 120 99 24 00
        e 120 99 2b 76
        e 0 99 2a 77
        e 120 99 2b 00
        e 5 99 2a 00
        e 355 99 2a 69
        e 120 99 2a 00
        e 120 99 24 7f
        e 120 99 24 00
        e 120 99 24 77
        e 0 99 2a 6a
        e 120 99 24 00
        e 0 99 2a 00
        e 120 99 26 7e
        e 120 99 26 00
        e 120 99 2a 64
        e 120 99 2a 00
        e 120 99 32 73
        e 0 99 24 6e
        e 120 99 32 00
        e 0 99 24 00
        e 120 99 32 7c
        e 0 99 2b 7f
        e 0 99 2a 7b
        e 120 99 32 00
        e 0 99 2b 00
        e 5 99 2a 00
        e 115 99 30 64
        e 120 99 30 00
        e 120 99 2f 70
        e 0 99 2a 5d
        e 120 99 2f 00
        e 0 99 2a 00
        e 120 99 2d 69
        e 0 99 24 7e
        e 120 99 2d 00
        e 0 99 24 00
        e 120 99 31 76
        e 0 99 24 74
        e 0 99 33 73
        e 120 99 31 00
        e 0 99 24 00
        e 0 99 33 00
        e 360 99 33 67
        e 120 99 33 00
        e 360 99 26 76
        e 0 99 33 6f
        e 120 99 26 00
        e 0 99 33 00
        e 360 99 33 69
        e 120 99 33 00
        e 120 99 24 7f
        e 120 99 24 00
        e 120 99 24 7b
        e 0 99 33 76
        e 120 99 24 00
        e 0 99 33 00
        e 360 99 33 71
        e 120 99 33 00
        e 120 99 2d 61
        e 0 99 2f 64
        e 120 99 2d 00
        e 0 99 30 65
        e 5 99 2f 00
        e 115 99 30 00
        e 0 99 32 61
        e 0 99 26 7d
        e 0 99 33 75
        e 120 99 32 00
        e 0 99 26 00
        e 0 99 33 00
        e 120 99 31 7c
        e 120 99 31 00
        e 120 99 33 63
        e 120 99 33 00
        e 360 99 24 7b
        e 0 99 33 76
        e 0 99 39 7f
        e 120 99 24 00
        e 0 99 33 00
        e 0 99 39 00
        e 360 99 33 6c
        e 120 99 33 00
        e 360 99 26 6e
        e 0 99 33 77
        e 120 99 26 00
        e 0 99 33 00
        e 360 99 33 66
        e 120 99 33 00
        e 120 99 24 7e
        e 120 99 24 00
        e 120 99 24 7b
        e 0 99 33 75
        e 120 99 24 00
        e 0 99 33 00
        e 360 99 33 6c
        e 120 99 33 00
        e 360 99 26 7b
        e 0 99 33 71
        e 120 99 26 00
        e 0 99 33 00
        e 360 99 33 6a
        e 120 99 33 00
        e 360 99 24 7b
        e 0 99 33 76
        e 120 99 24 00
        e 0 99 33 00
        e 360 99 33 6d
        e 120 99 33 00
        e 360 99 26 72
        e 0 99 33 71
        e 120 99 26 00
        e 0 99 33 00
        e 360 99 33 69
        e 120 99 33 00
        e 120 99 24 7f
        e 120 99 24 00
        e 120 99 24 7f
        e 0 99 33 72
        e 120 99 24 00
        e 0 99 33 00
        e 360 99 33 6b
        e 120 99 33 00
        e 360 99 26 7c
        e 0 99 33 71
        e 120 99 26 00
        e 0 99 33 00
        e 360 99 33 6b
        e 120 99 33 00
        e 360 99 24 75
        e 0 99 33 73
        e 120 99 24 00
        e 0 99 33 00
        e 360 99 33 75
        e 120 99 33 00
        e 360 99 26 74
        e 0 99 33 75
        e 120 99 26 00
        e 0 99 33 00
        e 360 99 33 62
        e 120 99 33 00
        e 120 99 24 77
        e 120 99 24 00
        e 120 99 24 72
        e 0 99 33 71
        e 120 99 24 00
        e 0 99 33 00
        e 360 99 33 68
        e 120 99 33 00
        e 360 99 26 7e
        e 0 99 33 7f
        e 120 99 26 00
        e 0 99 33 00
        e 360 99 33 66
        e 120 99 33 00
        e 360 99 24 7c
        e 0 99 33 70
        e 120 99 24 00
        e 0 99 33 00
        e 120 99 26 7f
        e 120 99 26 00
        e 120 99 33 6f
        e 120 99 33 00
        e 120 99 32 68
        e 120 99 32 00
        e 120 99 32 77
        e 0 99 26 7d
        e 0 99 33 7f
        e 120 99 32 00
        e 0 99 26 00
        e 0 99 33 00
        e 120 99 30 71
        e 120 99 30 00
        e 120 99 2f 6e
        e 0 99 33 6c
        e 120 99 2f 00
        e 0 99 33 00
        e 120 99 2d 62
        e 0 99 24 7c
        e 120 99 2d 00
        e 0 99 24 00
        e 120 99 31 7f
        e 0 99 24 7f
        e 0 99 33 74
        e 120 99 31 00
        e 0 99 24 00
        e 0 99 33 00
        e 360 99 33 6d
        e 120 99 33 00
        e 360 99 26 7c
        e 0 99 33 71
        e 120 99 26 00
        e 0 99 33 00
        e 360 99 33 62
        e 120 99 33 00
        e 120 99 24 71
        e 120 99 24 00
        e 120 99 24 7f
        e 0 99 33 75
        e 120 99 24 00
        e 0 99 33 00
        e 360 99 33 66
        e 0 99 32 7f
        e 120 99 33 00
        e 0 99 30 5f
        e 5 99 32 00
        e 115 99 2f 64
        e 5 99 30 00
        e 115 99 2f 00
        e 120 99 26 75
        e 0 99 33 7f
        e 0 99 30 7d
        e 120 99 26 00
        e 0 99 33 00
        e 0 99 30 00
        e 120 99 31 7b
        e 120 99 31 00
        e 120 99 33 60
        e 120 99 33 00
        e 360 99 24 6c
        e 0 99 33 6f
        e 0 99 39 7c
        e 120 99 24 00
        e 0 99 33 00
        e 0 99 39 00
        e 360 99 33 68
        e 120 99 33 00
        e 360 99 26 79
        e 0 99 33 73
        e 120 99 26 00
        e 0 99 33 00
        e 360 99 33 62
        e 120 99 33 00
        e 120 99 24 7d
        e 120 99 24 00
        e 120 99 24 76
        e 0 99 33 7c
        e 120 99 24 00
        e 0 99 33 00
        e 360 99 33 5c
        e 120 99 33 00
        e 360 99 26 7e
        e 0 99 33 77
        e 120 99 26 00
        e 0 99 33 00
        e 360 99 33 63
        e 120 99 33 00
        e 360 99 24 7a
        e 0 99 33 7f
        e 120 99 24 00
        e 0 99 33 00
        e 360 99 33 6a
        e 120 99 33 00
        e 360 99 26 7f
        e 0 99 33 76
        e 120 99 26 00
        e 0 99 33 00
        e 360 99 33 68
        e 120 99 33 00
        e 120 99 24 72
        e 120 99 24 00
        e 120 99 24 7c
        e 0 99 33 73
        e 120 99 24 00
        e 0 99 33 00
        e 360 99 33 63
        e 120 99 33 00
        e 360 99 26 73
        e 0 99 33 75
        e 120 99 26 00
        e 0 99 33 00
        e 360 99 33 63
        e 120 99 33 00
        e 360 99 24 78
        e 0 99 33 76
        e 120 99 24 00
        e 0 99 33 00
        e 360 99 33 61
        e 120 99 33 00
        e 360 99 26 7e
        e 0 99 33 7e
        e 120 99 26 00
        e 0 99 33 00
        e 360 99 33 64
        e 120 99 33 00
        e 120 99 24 7a
        e 120 99 24 00
        e 120 99 24 77
        e 0 99 33 76
        e 120 99 24 00
        e 0 99 33 00
        e 360 99 33 6e
        e 120 99 33 00
        e 360 99 26 72
        e 0 99 33 7e
        e 120 99 26 00
        e 0 99 33 00
        e 360 99 33 61
        e 120 99 33 00
        e 120 99 2d 5e
        e 120 99 2d 00
        e 0 99 2f 56
        e 0 99 30 5c
        e 120 99 2f 00
        e 0 99 30 00
        e 0 99 32 67
        e 0 99 24 7f
        e 0 99 33 75
        e 120 99 32 00
        e 0 99 24 00
        e 0 99 33 00
        e 120 99 32 7a
        e 120 99 32 00
        e 120 99 30 74
        e 0 99 33 66
        e 120 99 30 00
        e 0 99 33 00
        e 120 99 2f 65
        e 120 99 2f 00
        e 120 99 30 7c
        e 0 99 26 7f
        e 0 99 33 69
        e 120 99 30 00
        e 0 99 26 00
        e 0 99 33 00
        e 120 99 2f 76
        e 120 99 2f 00
        e 120 99 2d 6f
        e 0 99 33 66
        e 120 99 2d 00
        e 0 99 33 00
        e 120 99 2b 6a
        e 0 99 24 79
        e 120 99 2b 00
        e 0 99 24 00
        e 120 99 31 7d
        e 120 99 31 00
        e 600 99 35 7f
        e 120 99 35 00
        e 360 99 35 5b
        e 120 99 35 00
        e 120 99 35 77
        e 120 99 35 00
        e 360 99 33 66
        e 120 99 33 00
        e 0 99 33 59
        e 120 99 33 00
        e 0 99 33 65
        e 120 99 33 00
        e 120 99 33 7b
        e 120 99 33 00
        e 120 99 33 76
        e 120 99 33 00
        e 120 99 33 7f
        e 120 99 33 00
        e 240 99 35 6e
        e 120 99 35 00
        e 120 99 35 72
        e 120 99 35 00
        e 240 99 33 7f
        e 120 99 33 00
        E 7560 b0 7b 00
        CCINTERP 32
        CHASE_CC_TAKEOFFS 1
        GUID {9869282F-3455-4DB7-916F-987C372A6F30}
        IGNTEMPO 0 120 4 4
        SRCCOLOR 610
        VELLANE 129 140 0
        CFGEDITVIEW 60109.46196 0.032663 62 12 0 -1 0 0 0 0.5
        KEYSNAP 0
        TRACKSEL 252
        EVTFILTER 0 -1 -1 -1 -1 0 0 0 0 -1 -1 -1 -1 0 -1 0 -1 -1
        CFGEDIT 1 1 0 1 0 0 1 1 1 1 1 0.125 64 107 1295 715 0 0 0 0 0 0 0 1 0 0.5 0 0 1 64
      >
    >
    <ITEM
      POSITION 276
      SNAPOFFS 0
      LENGTH 229.7143240000002
      LOOP 0
      ALLTAKES 0
      FADEIN 1 0 0 1 0 0 0
      FADEOUT 1 0 0 1 0 0 0
      MUTE 0 0
      SEL 1
      IGUID {8A53C3B4-4C5F-4C1D-93B4-E20EEE1D60A5}
      IID 16
      NAME ""
      VOLPAN 1 0 1 -1
      SOFFS 0 0
      PLAYRATE 1 1 0 -1 0 0.0025
      CHANMODE 0
      GUID {29C19E7E-0B32-4540-BEE9-3CDE29EE1369}
      <SOURCE MIDI
        HASDATA 1 960 QN
        CCINTERP 32
        POOLEDEVTS {104C9493-C7E3-4228-B82E-1B685B434DF2}
        E 0 c9 01 00
        E 57600 99 24 6e
        E 480 89 24 00
        E 2400 99 2a 6e
        E 480 89 2a 00
        E 480 99 24 76
        E 480 89 24 00
        E 2400 99 2a 7f
        E 480 89 2a 00
        E 480 99 24 7c
        E 480 89 24 00
        E 2400 99 2a 7b
        E 480 89 2a 00
        E 480 99 24 76
        E 480 89 24 00
        E 2400 99 2a 74
        E 480 89 2a 00
        E 480 99 24 6f
        E 480 89 24 00
        E 3360 99 24 74
        E 480 89 24 00
        E 2400 99 2a 7c
        E 480 89 2a 00
        E 480 99 24 7f
        E 480 89 24 00
        E 3360 99 24 76
        E 480 89 24 00
        E 3360 99 24 6e
        E 480 89 24 00
        E 480 99 2e 79
        E 120 89 2e 00
        E 360 99 26 7b
        E 93 89 26 00
        E 387 99 24 78
        E 120 89 24 00
        E 120 99 2d 7f
        E 120 89 2d 00
        E 138 99 2d 7f
        E 120 89 2d 00
        E 342 99 24 77
        E 0 99 2b 7f
        E 120 89 24 00
        E 0 89 2b 00
        E 120 99 29 7f
        E 120 89 29 00
        E 120 99 29 79
        E 120 89 29 00
        E 360 99 24 7e
        E 0 99 31 6b
        E 120 89 24 00
        E 0 89 31 00
        E 360 99 2a 61
        E 120 89 2a 00
        E 360 99 26 77
        E 0 99 2a 7c
        E 120 89 26 00
        E 0 89 2a 00
        E 360 99 2a 55
        E 120 89 2a 00
        E 120 99 24 7f
        E 120 89 24 00
        E 120 99 24 7f
        E 0 99 2a 7c
        E 120 89 24 00
        E 0 89 2a 00
        E 360 99 2e 59
        E 120 89 2e 00
        E 120 99 24 7f
        E 120 89 24 00
        E 120 99 26 73
        E 0 99 2a 7a
        E 120 89 26 00
        E 0 89 2a 00
        E 360 99 2e 62
        E 120 89 2e 00
        E 360 99 24 77
        E 0 99 2a 7d
        E 120 89 24 00
        E 0 89 2a 00
        E 360 99 2a 62
        E 120 89 2a 00
        E 360 99 26 75
        E 0 99 2a 75
        E 120 89 26 00
        E 0 89 2a 00
        E 360 99 2a 60
        E 120 89 2a 00
        E 120 99 24 7f
        E 120 89 24 00
        E 120 99 24 7f
        E 0 99 2a 7f
        E 120 89 24 00
        E 0 89 2a 00
        E 360 99 2a 5a
        E 120 89 2a 00
        E 360 99 26 7e
        E 0 99 2a 79
        E 120 89 26 00
        E 0 89 2a 00
        E 360 99 2e 60
        E 120 89 2e 00
        E 360 99 31 7f
        E 0 99 24 7f
        E 120 89 31 00
        E 0 89 24 00
        E 360 99 2a 63
        E 120 89 2a 00
        E 360 99 2a 7b
        E 0 99 26 7a
        E 120 89 2a 00
        E 0 89 26 00
        E 360 99 2a 52
        E 120 89 2a 00
        E 120 99 24 7b
        E 120 89 24 00
        E 120 99 2a 7f
        E 0 99 24 7f
        E 120 89 2a 00
        E 0 89 24 00
        E 360 99 2a 6e
        E 120 89 2a 00
        E 360 99 39 71
        E 0 99 24 7f
        E 120 89 39 00
        E 0 89 24 00
        E 840 99 31 7e
        E 0 99 24 7f
        E 120 89 31 00
        E 0 89 24 00
        E 360 99 2a 59
        E 120 89 2a 00
        E 360 99 2a 7f
        E 0 99 26 7f
        E 120 89 2a 00
        E 0 89 26 00
        E 360 99 2a 4b
        E 120 89 2a 00
        E 120 99 24 7f
        E 120 89 24 00
        E 120 99 2e 7c
        E 0 99 24 7a
        E 120 89 2e 00
        E 0 89 24 00
        E 600 99 24 76
        E 120 89 24 00
        E 0 99 24 7f
        E 120 89 24 00
        E 0 99 39 7e
        E 0 99 26 77
        E 120 89 39 00
        E 0 89 26 00
        E 120 99 24 7f
        E 120 89 24 00
        E 120 99 24 7c
        E 120 89 24 00
        E 360 99 31 77
        E 0 99 24 75
        E 120 89 31 00
        E 0 89 24 00
        E 360 99 2a 59
        E 120 89 2a 00
        E 360 99 26 7c
        E 0 99 2a 78
        E 120 89 26 00
        E 0 89 2a 00
        E 360 99 2a 56
        E 120 89 2a 00
        E 120 99 24 71
        E 120 89 24 00
        E 120 99 24 73
        E 0 99 2a 7f
        E 120 89 24 00
        E 0 89 2a 00
        E 360 99 2a 57
        E 120 89 2a 00
        E 360 99 26 78
        E 0 99 2a 7d
        E 120 89 26 00
        E 0 89 2a 00
        E 360 99 2e 5b
        E 120 89 2e 00
        E 360 99 24 75
        E 0 99 2a 71
        E 120 89 24 00
        E 0 89 2a 00
        E 360 99 2a 62
        E 120 89 2a 00
        E 360 99 26 7f
        E 0 99 2a 78
        E 120 89 26 00
        E 0 89 2a 00
        E 360 99 2a 5f
        E 120 89 2a 00
        E 120 99 24 7f
        E 120 89 24 00
        E 120 99 24 7b
        E 0 99 2a 7f
        E 120 89 24 00
        E 0 89 2a 00
        E 360 99 2a 5a
        E 120 89 2a 00
        E 360 99 26 7d
        E 0 99 39 7f
        E 120 89 26 00
        E 0 89 39 00
        E 360 99 2a 51
        E 120 89 2a 00
        E 360 99 24 75
        E 0 99 31 7f
        E 120 89 24 00
        E 0 89 31 00
        E 360 99 2a 54
        E 120 89 2a 00
        E 360 99 26 75
        E 0 99 2a 7f
        E 120 89 26 00
        E 0 89 2a 00
        E 360 99 2a 5a
        E 120 89 2a 00
        E 120 99 24 7e
        E 120 89 24 00
        E 120 99 24 79
        E 0 99 2a 78
        E 120 89 24 00
        E 0 89 2a 00
        E 360 99 2a 5f
        E 120 89 2a 00
        E 360 99 24 69
        E 0 99 39 65
        E 120 89 24 00
        E 0 89 39 00
        E 360 99 2a 5a
        E 120 89 2a 00
        E 360 99 24 71
        E 0 99 31 7d
        E 120 89 24 00
        E 0 89 31 00
        E 360 99 2a 53
        E 120 89 2a 00
        E 360 99 26 7f
        E 0 99 2a 7f
        E 120 89 26 00
        E 0 89 2a 00
        E 360 99 2a 54
        E 120 89 2a 00
        E 120 99 24 74
        E 120 89 24 00
        E 120 99 24 75
        E 0 99 2a 7b
        E 120 89 24 00
        E 0 89 2a 00
        E 360 99 2a 58
        E 120 89 2a 00
        E 360 99 26 7d
        E 0 99 2a 7f
        E 120 89 26 00
        E 0 89 2a 00
        E 360 99 2a 51
        E 120 89 2a 00
        E 360 99 24 7f
        E 0 99 2a 7f
        E 120 89 24 00
        E 0 89 2a 00
        E 360 99 2a 5c
        E 120 89 2a 00
        E 360 99 26 7f
        E 0 99 2a 79
        E 120 89 26 00
        E 0 89 2a 00
        E 360 99 2a 56
        E 120 89 2a 00
        E 120 99 24 7f
        E 120 89 24 00
        E 120 99 24 7e
        E 0 99 2a 71
        E 120 89 24 00
        E 0 89 2a 00
        E 360 99 2a 60
        E 120 89 2a 00
        E 120 99 24 7a
        E 120 89 24 00
        E 120 99 26 72
        E 0 99 2e 7b
        E 120 89 26 00
        E 0 89 2e 00
        E 120 99 26 7f
        E 120 89 26 00
        E 0 99 26 5f
        E 120 89 26 00
        E 0 99 26 7f
        E 120 89 26 00
        E 120 99 24 7a
        E 120 89 24 00
        E 120 99 2c 52
        E 0 99 26 70
        E 0 99 24 7f
        E 120 89 2c 00
        E 0 89 26 00
        E 0 89 24 00
        E 4200 99 24 7f
        E 120 89 24 00
        E 120 99 24 7f
        E 120 89 24 00
        E 120 99 26 7d
        E 0 99 39 7f
        E 120 89 26 00
        E 0 89 39 00
        E 840 99 26 66
        E 0 99 31 77
        E 120 89 26 00
        E 0 89 31 00
        E 360 99 26 7f
        E 120 89 26 00
        E 360 99 2d 7e
        E 120 89 2d 00
        E 120 99 26 7b
        E 120 89 26 00
        E 120 99 26 7c
        E 120 89 26 00
        E 120 99 24 79
        E 120 89 24 00
        E 120 99 24 70
        E 0 99 39 7f
        E 120 89 24 00
        E 0 89 39 00
        E 360 99 2a 60
        E 120 89 2a 00
        E 360 99 26 7f
        E 0 99 31 7f
        E 120 89 26 00
        E 0 89 31 00
        E 360 99 2a 5a
        E 120 89 2a 00
        E 360 99 2a 7d
        E 120 89 2a 00
        E 360 99 2a 5b
        E 120 89 2a 00
        E 360 99 24 7e
        E 0 99 31 7f
        E 120 89 24 00
        E 0 89 31 00
        E 360 99 2e 66
        E 120 89 2e 00
        E 360 99 24 7f
        E 0 99 39 7f
        E 120 89 24 00
        E 0 89 39 00
        E 360 99 2a 60
        E 120 89 2a 00
        E 360 99 26 7d
        E 0 99 2a 7f
        E 120 89 26 00
        E 0 89 2a 00
        E 360 99 2a 5d
        E 120 89 2a 00
        E 360 99 24 72
        E 0 99 31 7b
        E 120 89 24 00
        E 0 89 31 00
        E 360 99 2a 57
        E 120 89 2a 00
        E 360 99 24 7b
        E 0 99 39 78
        E 120 89 24 00
        E 0 89 39 00
        E 360 99 2a 5b
        E 120 89 2a 00
        E 360 99 31 7b
        E 0 99 24 77
        E 120 89 31 00
        E 0 89 24 00
        E 360 99 24 79
        E 120 89 24 00
        E 120 99 24 79
        E 120 89 24 00
        E 120 99 26 74
        E 120 89 26 00
        E 360 99 2a 57
        E 120 89 2a 00
        E 360 99 2a 7c
        E 120 89 2a 00
        E 360 99 2a 57
        E 120 89 2a 00
        E 360 99 2a 78
        E 0 99 26 7e
        E 120 89 2a 00
        E 0 89 26 00
        E 360 99 2a 58
        E 120 89 2a 00
        E 360 99 24 7f
        E 0 99 2a 7f
        E 120 89 24 00
        E 0 89 2a 00
        E 360 99 2a 51
        E 120 89 2a 00
        E 360 99 26 74
        E 0 99 31 7f
        E 0 99 2a 68
        E 120 89 26 00
        E 0 89 31 00
        E 0 89 2a 00
        E 360 99 2a 58
        E 120 89 2a 00
        E 360 99 2a 7f
        E 120 89 2a 00
        E 360 99 2a 5b
        E 120 89 2a 00
        E 360 99 26 74
        E 0 99 2a 75
        E 120 89 26 00
        E 0 89 2a 00
        E 360 99 2e 5c
        E 120 89 2e 00
        E 360 99 24 78
        E 120 89 24 00
        E 360 99 24 7f
        E 120 89 24 00
        E 120 99 24 79
        E 120 89 24 00
        E 120 99 26 7d
        E 0 99 31 7f
        E 120 89 26 00
        E 0 89 31 00
        E 360 99 2a 5a
        E 120 89 2a 00
        E 360 99 2a 6e
        E 120 89 2a 00
        E 360 99 2a 5a
        E 120 89 2a 00
        E 360 99 39 79
        E 0 99 24 7e
        E 120 89 39 00
        E 0 89 24 00
        E 360 99 2a 5e
        E 120 89 2a 00
        E 360 99 31 73
        E 0 99 24 79
        E 120 89 31 00
        E 0 89 24 00
        E 360 99 2a 55
        E 120 89 2a 00
        E 360 99 26 7f
        E 0 99 2a 77
        E 120 89 26 00
        E 0 89 2a 00
        E 360 99 2a 56
        E 120 89 2a 00
        E 360 99 24 7f
        E 0 99 39 7d
        E 120 89 24 00
        E 0 89 39 00
        E 840 99 39 7f
        E 0 99 24 7f
        E 120 89 39 00
        E 0 89 24 00
        E 840 99 2a 7e
        E 0 99 24 69
        E 0 99 31 7f
        E 120 89 2a 00
        E 0 89 24 00
        E 0 89 31 00
        E 360 99 2a 57
        E 120 89 2a 00
        E 360 99 2a 75
        E 0 99 26 7f
        E 120 89 2a 00
        E 0 89 26 00
        E 360 99 2a 52
        E 120 89 2a 00
        E 120 99 24 77
        E 120 89 24 00
        E 120 99 2a 7f
        E 0 99 24 7e
        E 120 89 2a 00
        E 0 89 24 00
        E 360 99 2a 55
        E 120 89 2a 00
        E 360 99 26 7f
        E 0 99 2e 75
        E 120 89 26 00
        E 0 89 2e 00
        E 120 99 2d 7d
        E 120 89 2d 00
        E 0 99 2d 6e
        E 120 89 2d 00
        E 0 99 2b 72
        E 120 89 2b 00
        E 120 99 29 78
        E 120 89 29 00
        E 120 99 24 7c
        E 0 99 31 73
        E 120 89 24 00
        E 0 89 31 00
        E 360 99 2a 5c
        E 120 89 2a 00
        E 360 99 26 7e
        E 0 99 2a 78
        E 120 89 26 00
        E 0 89 2a 00
        E 360 99 2a 64
        E 120 89 2a 00
        E 120 99 24 77
        E 120 89 24 00
        E 120 99 24 7f
        E 0 99 2a 7d
        E 120 89 24 00
        E 0 89 2a 00
        E 360 99 2e 57
        E 120 89 2e 00
        E 120 99 24 7f
        E 120 89 24 00
        E 120 99 26 70
        E 0 99 2a 7f
        E 120 89 26 00
        E 0 89 2a 00
        E 360 99 2e 5e
        E 120 89 2e 00
        E 360 99 24 79
        E 0 99 2a 7e
        E 120 89 24 00
        E 0 89 2a 00
        E 360 99 2a 59
        E 120 89 2a 00
        E 360 99 26 7f
        E 0 99 2a 7d
        E 120 89 26 00
        E 0 89 2a 00
        E 360 99 2a 65
        E 120 89 2a 00
        E 120 99 24 7f
        E 120 89 24 00
        E 120 99 24 79
        E 0 99 2a 7f
        E 120 89 24 00
        E 0 89 2a 00
        E 360 99 2a 55
        E 120 89 2a 00
        E 360 99 26 76
        E 0 99 2a 7f
        E 120 89 26 00
        E 0 89 2a 00
        E 360 99 2e 56
        E 120 89 2e 00
        E 360 99 31 77
        E 0 99 24 76
        E 120 89 31 00
        E 0 89 24 00
        E 360 99 2a 5d
        E 120 89 2a 00
        E 360 99 2a 7e
        E 0 99 26 7c
        E 120 89 2a 00
        E 0 89 26 00
        E 360 99 2a 61
        E 120 89 2a 00
        E 120 99 24 7f
        E 120 89 24 00
        E 120 99 2a 7f
        E 0 99 24 7f
        E 120 89 2a 00
        E 0 89 24 00
        E 360 99 2a 5e
        E 120 89 2a 00
        e 360 99 39 7e
        E 0 99 24 7f
        e 120 89 39 00
        E 0 89 24 00
        E 840 99 31 7c
        E 0 99 24 7f
        E 120 89 31 00
        E 0 89 24 00
        E 360 99 2a 57
        E 120 89 2a 00
        E 360 99 2a 7f
        E 0 99 26 7b
        E 120 89 2a 00
        E 0 89 26 00
        E 360 99 2a 51
        E 120 89 2a 00
        E 120 99 24 7c
        E 120 89 24 00
        E 120 99 2e 78
        E 0 99 24 7d
        E 120 89 2e 00
        E 0 89 24 00
        E 600 99 24 7b
        E 120 89 24 00
        E 0 99 24 78
        E 120 89 24 00
        E 0 99 39 78
        E 0 99 26 74
        E 120 89 39 00
        E 0 89 26 00
        E 120 99 24 6f
        E 120 89 24 00
        E 120 99 24 78
        E 120 89 24 00
        E 360 99 31 7b
        E 0 99 24 73
        E 120 89 31 00
        E 0 89 24 00
        E 360 99 2a 4e
        E 120 89 2a 00
        E 360 99 26 7d
        E 0 99 2a 77
        E 120 89 26 00
        E 0 89 2a 00
        E 360 99 2a 60
        E 120 89 2a 00
        E 120 99 24 6f
        E 120 89 24 00
        E 120 99 24 7f
        E 0 99 2a 7f
        E 120 89 24 00
        E 0 89 2a 00
        E 360 99 2a 4f
        E 120 89 2a 00
        E 360 99 26 7b
        E 0 99 2a 72
        E 120 89 26 00
        E 0 89 2a 00
        E 360 99 2e 56
        E 120 89 2e 00
        E 360 99 24 7f
        E 0 99 2a 79
        E 120 89 24 00
        E 0 89 2a 00
        E 360 99 2a 55
        E 120 89 2a 00
        E 360 99 26 7a
        E 0 99 2a 76
        E 120 89 26 00
        E 0 89 2a 00
        E 360 99 2a 5c
        E 120 89 2a 00
        E 120 99 24 7f
        E 120 89 24 00
        E 120 99 24 7f
        E 0 99 2a 75
        E 120 89 24 00
        E 0 89 2a 00
        E 360 99 2a 58
        E 120 89 2a 00
        E 360 99 26 7f
        E 0 99 39 7f
        E 120 89 26 00
        E 0 89 39 00
        E 360 99 2a 5a
        E 120 89 2a 00
        E 360 99 24 67
        E 0 99 31 7c
        E 120 89 24 00
        E 0 89 31 00
        E 360 99 2a 61
        E 120 89 2a 00
        E 360 99 26 79
        E 0 99 2a 76
        E 120 89 26 00
        E 0 89 2a 00
        E 360 99 2a 56
        E 120 89 2a 00
        E 120 99 24 7f
        E 120 89 24 00
        E 120 99 24 7f
        E 0 99 2a 79
        E 120 89 24 00
        E 0 89 2a 00
        E 360 99 2a 58
        E 120 89 2a 00
        E 360 99 24 7f
        E 0 99 39 75
        E 120 89 24 00
        E 0 89 39 00
        E 360 99 2a 59
        E 120 89 2a 00
        E 360 99 24 75
        E 0 99 31 7f
        E 120 89 24 00
        E 0 89 31 00
        E 360 99 2a 58
        E 120 89 2a 00
        E 360 99 26 7d
        E 0 99 2a 7c
        E 120 89 26 00
        E 0 89 2a 00
        E 360 99 2a 4e
        E 120 89 2a 00
        E 120 99 24 7e
        E 120 89 24 00
        E 120 99 24 7d
        E 0 99 2a 7e
        E 120 89 24 00
        E 0 89 2a 00
        E 360 99 2a 57
        E 120 89 2a 00
        E 360 99 26 77
        E 0 99 2a 7f
        E 120 89 26 00
        E 0 89 2a 00
        E 360 99 2a 55
        E 120 89 2a 00
        E 360 99 24 78
        E 0 99 2a 79
        E 120 89 24 00
        E 0 89 2a 00
        E 360 99 2a 53
        E 120 89 2a 00
        E 360 99 26 75
        E 0 99 2a 79
        E 120 89 26 00
        E 0 89 2a 00
        E 360 99 2a 5b
        E 120 89 2a 00
        E 120 99 24 75
        E 120 89 24 00
        E 120 99 24 77
        E 0 99 2a 7f
        E 120 89 24 00
        E 0 89 2a 00
        E 360 99 2a 5c
        E 120 89 2a 00
        E 120 99 24 7b
        E 120 89 24 00
        E 120 99 26 7c
        E 0 99 2e 7b
        E 120 89 26 00
        E 0 89 2e 00
        E 120 99 26 75
        E 120 89 26 00
        E 0 99 26 6c
        E 120 89 26 00
        E 0 99 26 7b
        E 120 89 26 00
        E 120 99 24 7c
        E 120 89 24 00
        E 120 99 2c 53
        E 0 99 26 7f
        E 0 99 24 7f
        E 120 89 2c 00
        E 0 89 26 00
        E 0 89 24 00
        E 4200 99 24 7f
        E 120 89 24 00
        E 120 99 24 7f
        E 120 89 24 00
        E 120 99 26 7f
        E 0 99 39 7e
        E 120 89 26 00
        E 0 89 39 00
        E 840 99 26 6f
        E 0 99 31 7f
        E 120 89 26 00
        E 0 89 31 00
        E 360 99 26 7b
        E 120 89 26 00
        E 360 99 2d 73
        E 120 89 2d 00
        E 120 99 26 7a
        E 120 89 26 00
        E 120 99 26 6f
        E 120 89 26 00
        E 120 99 24 7f
        E 120 89 24 00
        E 120 99 24 7d
        E 0 99 39 77
        E 120 89 24 00
        E 0 89 39 00
        E 360 99 2a 69
        E 120 89 2a 00
        E 360 99 26 7f
        E 0 99 31 73
        E 120 89 26 00
        E 0 89 31 00
        E 360 99 2a 67
        E 120 89 2a 00
        E 360 99 2a 75
        E 120 89 2a 00
        E 360 99 2a 5e
        E 120 89 2a 00
        E 360 99 24 7f
        E 0 99 31 79
        E 120 89 24 00
        E 0 89 31 00
        E 360 99 2e 66
        E 120 89 2e 00
        E 360 99 24 79
        E 0 99 39 7f
        E 120 89 24 00
        E 0 89 39 00
        E 360 99 2a 65
        E 120 89 2a 00
        E 360 99 26 74
        E 0 99 2a 7f
        E 120 89 26 00
        E 0 89 2a 00
        E 360 99 2a 53
        E 120 89 2a 00
        E 360 99 24 7c
        E 0 99 31 7d
        E 120 89 24 00
        E 0 89 31 00
        E 360 99 2a 52
        E 120 89 2a 00
        E 360 99 24 79
        E 0 99 39 78
        E 120 89 24 00
        E 0 89 39 00
        E 360 99 2a 51
        E 120 89 2a 00
        E 360 99 31 7c
        E 0 99 24 72
        E 120 89 31 00
        E 0 89 24 00
        E 360 99 24 7e
        E 120 89 24 00
        E 120 99 24 7a
        E 120 89 24 00
        E 120 99 26 7f
        E 120 89 26 00
        E 360 99 2a 57
        E 120 89 2a 00
        E 360 99 2a 7f
        E 120 89 2a 00
        E 360 99 2a 63
        E 120 89 2a 00
        E 360 99 2a 7e
        E 0 99 26 7a
        E 120 89 2a 00
        E 0 89 26 00
        E 360 99 2a 51
        E 120 89 2a 00
        E 360 99 24 78
        E 0 99 2a 7f
        E 120 89 24 00
        E 0 89 2a 00
        E 360 99 2a 4e
        E 120 89 2a 00
        E 360 99 26 6f
        E 0 99 31 75
        E 0 99 2a 79
        E 120 89 26 00
        E 0 89 31 00
        E 0 89 2a 00
        E 360 99 2a 59
        E 120 89 2a 00
        E 360 99 2a 7f
        E 120 89 2a 00
        E 360 99 2a 5e
        E 120 89 2a 00
        E 360 99 26 65
        E 0 99 2a 7f
        E 120 89 26 00
        E 0 89 2a 00
        E 360 99 2e 52
        E 120 89 2e 00
        E 360 99 24 7a
        E 120 89 24 00
        E 360 99 24 75
        E 120 89 24 00
        E 120 99 24 7f
        E 120 89 24 00
        E 120 99 26 7f
        E 0 99 31 7f
        E 120 89 26 00
        E 0 89 31 00
        E 360 99 2a 53
        E 120 89 2a 00
        E 360 99 2a 7f
        E 120 89 2a 00
        E 360 99 2a 56
        E 120 89 2a 00
        E 360 99 39 7a
        E 0 99 24 7e
        E 120 89 39 00
        E 0 89 24 00
        E 360 99 2a 5c
        E 120 89 2a 00
        E 360 99 31 72
        E 0 99 24 61
        E 120 89 31 00
        E 0 89 24 00
        E 360 99 2a 56
        E 120 89 2a 00
        E 360 99 26 7e
        E 0 99 2a 79
        E 120 89 26 00
        E 0 89 2a 00
        E 360 99 2a 5a
        E 120 89 2a 00
        E 360 99 24 76
        E 0 99 39 7f
        E 120 89 24 00
        E 0 89 39 00
        E 840 99 39 75
        E 0 99 24 79
        E 120 89 39 00
        E 0 89 24 00
        E 840 99 2a 7f
        E 0 99 24 72
        E 0 99 31 70
        E 120 89 2a 00
        E 0 89 24 00
        E 0 89 31 00
        E 360 99 2a 4f
        E 120 89 2a 00
        E 360 99 2a 6f
        E 0 99 26 73
        E 120 89 2a 00
        E 0 89 26 00
        E 360 99 2a 57
        E 120 89 2a 00
        E 120 99 24 7b
        E 120 89 24 00
        E 120 99 2a 70
        E 0 99 24 72
        E 120 89 2a 00
        E 0 89 24 00
        E 360 99 2a 52
        E 120 89 2a 00
        E 360 99 26 7d
        E 0 99 2e 7f
        E 120 89 26 00
        E 0 89 2e 00
        E 120 99 2d 76
        E 120 89 2d 00
        E 0 99 2d 7f
        E 120 89 2d 00
        E 0 99 2b 7f
        E 120 89 2b 00
        E 120 99 29 7f
        E 120 89 29 00
        E 120 99 24 71
        E 0 99 31 7b
        E 120 89 24 00
        E 0 89 31 00
        E 360 99 2a 4d
        E 120 89 2a 00
        E 360 99 26 7e
        E 0 99 2a 73
        E 120 89 26 00
        E 0 89 2a 00
        E 360 99 2a 58
        E 120 89 2a 00
        E 120 99 24 7e
        E 120 89 24 00
        E 120 99 24 78
        E 0 99 2a 76
        E 120 89 24 00
        E 0 89 2a 00
        E 360 99 2a 50
        E 120 89 2a 00
        E 360 99 24 7f
        E 0 99 39 76
        E 120 89 24 00
        E 0 89 39 00
        E 840 99 24 7f
        E 0 99 31 7b
        E 120 89 24 00
        E 0 89 31 00
        E 360 99 2a 4f
        E 120 89 2a 00
        E 360 99 2a 7c
        E 0 99 26 7f
        E 120 89 2a 00
        E 0 89 26 00
        E 360 99 2a 50
        E 120 89 2a 00
        E 120 99 24 7e
        E 120 89 24 00
        E 120 99 2a 6f
        E 0 99 24 7b
        E 120 89 2a 00
        E 0 89 24 00
        E 360 99 2a 5e
        E 120 89 2a 00
        E 360 99 2a 76
        E 0 99 26 7f
        E 120 89 2a 00
        E 0 89 26 00
        E 360 99 2a 51
        E 120 89 2a 00
        E 360 99 24 7f
        E 0 99 2a 72
        E 120 89 24 00
        E 0 89 2a 00
        E 360 99 2a 50
        E 120 89 2a 00
        E 360 99 26 7f
        E 0 99 2a 7d
        E 120 89 26 00
        E 0 89 2a 00
        E 360 99 2a 4f
        E 120 89 2a 00
        E 120 99 24 7f
        E 120 89 24 00
        E 120 99 24 7f
        E 0 99 2a 73
        E 120 89 24 00
        E 0 89 2a 00
        E 360 99 24 7f
        E 0 99 2a 5c
        E 120 89 24 00
        E 0 89 2a 00
        E 360 99 26 7f
        E 0 99 39 7f
        E 120 89 26 00
        E 0 89 39 00
        E 840 99 24 7f
        E 0 99 31 7c
        E 120 89 24 00
        E 0 89 31 00
        E 360 99 2a 4f
        E 120 89 2a 00
        E 360 99 26 7f
        E 0 99 2a 7f
        E 120 89 26 00
        E 0 89 2a 00
        E 360 99 2a 4f
        E 120 89 2a 00
        E 120 99 24 7f
        E 120 89 24 00
        E 120 99 24 78
        E 0 99 2a 7b
        E 120 89 24 00
        E 0 89 2a 00
        E 360 99 2a 59
        E 120 89 2a 00
        E 360 99 26 77
        E 0 99 2a 7c
        E 120 89 26 00
        E 0 89 2a 00
        E 360 99 2a 55
        E 120 89 2a 00
        E 360 99 24 7a
        E 120 89 24 00
        E 360 99 2a 51
        E 120 89 2a 00
        E 360 99 26 7c
        E 0 99 2a 7d
        E 120 89 26 00
        E 0 89 2a 00
        E 360 99 2a 4e
        E 120 89 2a 00
        E 120 99 24 7d
        E 120 89 24 00
        E 120 99 24 7f
        E 0 99 2a 76
        E 120 89 24 00
        E 0 89 2a 00
        E 360 99 2e 57
        E 120 89 2e 00
        E 120 99 24 7d
        E 120 89 24 00
        E 120 99 2b 7f
        E 120 89 2b 00
        E 600 99 24 76
        E 120 89 24 00
        E 120 99 24 7b
        E 0 99 31 7f
        E 120 89 24 00
        E 0 89 31 00
        E 7560 b0 7b 00
        CCINTERP 32
        CHASE_CC_TAKEOFFS 1
        GUID {75D261BA-D29A-4082-A2B1-F7B85931C21D}
        IGNTEMPO 0 120 4 4
        SRCCOLOR 582
        VELLANE 32 140 0
        CFGEDITVIEW 11563.678976 0.002978 65 12 0 -1 0 0 0 0.5
        KEYSNAP 0
        TRACKSEL 252
        EVTFILTER 0 -1 -1 -1 -1 0 0 0 0 -1 -1 -1 -1 0 -1 0 -1 -1
        CFGEDIT 1 1 0 1 0 0 1 1 1 1 1 0.125 48 91 1295 715 0 0 0 0 0 0 0 1 0 0.5 0 0 1 64
      >
    >
    <ITEM
      POSITION 505.71432400000026
      SNAPOFFS 0
      LENGTH 17.64705882352916
      LOOP 0
      ALLTAKES 0
      FADEIN 1 0 0 1 0 0 0
      FADEOUT 1 0 0 1 0 0 0
      MUTE 0 0
      SEL 0
      IGUID {E27E08DF-186C-4E7C-928E-2B3D6CC7DB66}
      IID 52
      NAME ""
      VOLPAN 1 0 1 -1
      SOFFS 0 0
      PLAYRATE 1 1 0 -1 0 0.0025
      CHANMODE 0
      GUID {FC7EE923-C88F-42FD-A173-30BEB22102A7}
      <SOURCE MIDI
        HASDATA 1 240 QN
        CCINTERP 32
        POOLEDEVTS {10975AD4-327C-46BB-B5FB-A24BE96E3962}
        e 0 b9 00 00
        e 0 b9 20 00
        e 0 c9 01 00
        e 960 90 00 01 1
        e 0 99 00 28 1
        e 0 99 07 78 1
        e 0 99 2a 64 1
        e 0 99 23 64 1
        e 30 80 00 00 2
        e 0 89 00 00 2
        e 0 89 07 00 2
        e 0 99 2a 00 2
        e 0 99 23 00 2
        e 90 99 2a 64 1
        e 30 99 2a 00 2
        e 90 99 2a 64 1
        e 0 99 25 64 1
        e 30 99 2a 00 2
        e 0 99 25 00 2
        e 90 99 2a 64 1
        e 30 99 2a 00 2
        e 30 99 23 64 1
        e 30 99 23 00 2
        e 30 99 23 64 1
        e 0 99 2a 64 1
        e 30 99 23 00 2
        e 0 99 2a 00 2
        e 90 99 2a 64 1
        e 30 99 2a 00 2
        e 90 99 2a 64 1
        e 0 99 25 64 1
        e 30 99 2a 00 2
        e 0 99 25 00 2
        e 90 99 2a 64 1
        e 30 99 2a 00 2
        e 90 99 2a 64 1
        e 0 99 23 64 1
        e 30 99 2a 00 2
        e 0 99 23 00 2
        e 90 99 2a 64 1
        e 30 99 2a 00 2
        e 90 99 2a 64 1
        e 0 99 25 64 1
        e 30 99 2a 00 2
        e 0 99 25 00 2
        e 90 99 2a 64 1
        e 30 99 2a 00 2
        e 30 99 23 64 1
        e 30 99 23 00 2
        e 30 99 23 64 1
        e 0 99 2a 64 1
        e 30 99 23 00 2
        e 0 99 2a 00 2
        e 90 99 2a 64 1
        e 30 99 2a 00 2
        e 90 99 2a 64 1
        e 0 99 25 64 1
        e 30 99 2a 00 2
        e 0 99 25 00 2
        e 90 99 2e 64 1
        e 30 99 2e 00 2
        e 90 99 2a 64 1
        e 0 99 23 64 1
        e 30 99 2a 00 2
        e 0 99 23 00 2
        e 90 99 2a 64 1
        e 30 99 2a 00 2
        e 90 99 2a 64 1
        e 0 99 25 64 1
        e 30 99 2a 00 2
        e 0 99 25 00 2
        e 90 99 2a 64 1
        e 30 99 2a 00 2
        e 30 99 23 64 1
        e 30 99 23 00 2
        e 30 99 2a 64 1
        e 0 99 23 64 1
        e 30 99 2a 00 2
        e 0 99 23 00 2
        e 90 99 2a 64 1
        e 30 99 2a 00 2
        e 90 99 25 64 1
        e 0 99 2a 64 1
        e 30 99 25 00 2
        e 0 99 2a 00 2
        e 90 99 2a 64 1
        e 30 99 2a 00 2
        e 90 99 2a 64 1
        e 0 99 23 64 1
        e 30 99 2a 00 2
        e 0 99 23 00 2
        e 90 99 2a 64 1
        e 30 99 2a 00 2
        e 90 99 25 64 1
        e 0 99 2a 64 1
        e 30 99 25 00 2
        e 0 99 2a 00 2
        e 90 99 2a 64 1
        e 30 99 2a 00 2
        e 30 99 23 64 1
        e 30 99 23 00 2
        e 30 99 2a 64 1
        e 0 99 23 64 1
        e 30 99 2a 00 2
        e 0 99 23 00 2
        e 90 99 2a 64 1
        e 30 99 2a 00 2
        e 30 99 2e 64 1
        e 30 99 2e 00 2
        e 30 99 2a 64 1
        e 0 99 25 64 1
        e 30 99 2a 00 2
        e 0 99 25 00 2
        e 90 99 23 64 1
        e 0 99 2a 64 1
        e 30 99 23 00 2
        e 0 99 2a 00 2
        E 90 b0 7b 00
        CCINTERP 32
        CHASE_CC_TAKEOFFS 1
        GUID {DF087C41-FCD5-4872-B702-C98319D64EE0}
        IGNTEMPO 0 120 4 4
        SRCCOLOR 619
        VELLANE 131 140 0
        CFGEDITVIEW 4328.717576 1.336548 57 12 0 -1 0 0 0 0.5
        KEYSNAP 0
        TRACKSEL 252
        EVTFILTER 0 -1 -1 -1 -1 0 0 0 0 -1 -1 -1 -1 0 -1 0 -1 -1
        CFGEDIT 1 1 0 1 0 0 1 1 1 1 1 0.125 80 123 1295 715 0 0 0 0 0 0 0 1 0 0.5 0 0 1 64
      >
    >
    <ITEM
      POSITION 526.89079458823528
      SNAPOFFS 0
      LENGTH 145.5919117647062
      LOOP 0
      ALLTAKES 0
      FADEIN 1 0 0 1 0 0 0
      FADEOUT 1 0 0 1 0 0 0
      MUTE 0 0
      SEL 0
      IGUID {6CD81821-B37C-4A52-B84C-5A0BB9BF327A}
      IID 52
      NAME ""
      VOLPAN 1 0 1 -1
      SOFFS 0 0
      PLAYRATE 1 1 0 -1 0 0.0025
      CHANMODE 0
      GUID {179F8824-9BD2-4E78-9010-4D3C5E71E0A4}
      <SOURCE MIDI
        HASDATA 1 240 QN
        CCINTERP 32
        POOLEDEVTS {F57045FA-E25D-42B9-8C98-1514623F5C32}
        e 0 99 23 64 1
        e 0 99 2a 64 1
        e 0 99 40 64 1
        e 30 99 23 00 2
        e 0 99 2a 00 2
        e 0 99 40 00 3
        e 90 99 2a 64 1
        e 30 99 2a 00 2
        e 30 99 3d 64 1
        e 30 99 3d 00 2
        e 30 99 2a 64 1
        e 0 99 25 64 1
        e 0 99 3e 64 1
        e 30 99 2a 00 2
        e 0 99 25 00 2
        e 0 99 3e 00 2
        e 90 99 2a 64 1
        e 30 99 2a 00 2
        e 30 99 3d 64 1
        e 0 99 23 64 1
        e 30 99 3d 00 2
        e 0 99 23 00 2
        e 30 99 23 64 1
        e 0 99 40 64 1
        e 0 99 2a 64 1
        e 30 99 23 00 2
        e 0 99 40 00 2
        e 0 99 2a 00 2
        e 90 99 40 64 1
        e 0 99 2a 64 1
        e 30 99 40 00 2
        e 0 99 2a 00 2
        e 90 99 3e 64 1
        e 0 99 2a 64 1
        e 0 99 25 64 1
        e 30 99 3e 00 2
        e 0 99 2a 00 2
        e 0 99 25 00 2
        e 90 99 2a 64 1
        e 0 99 3f 64 1
        e 30 99 2a 00 2
        e 0 99 3f 00 1
        e 30 99 3d 64 1
        e 30 99 3d 00 2
        e 30 99 23 64 1
        e 0 99 2a 64 1
        e 30 99 23 00 2
        e 0 99 2a 00 2
        e 90 99 3f 64 1
        e 0 99 2a 64 1
        e 30 99 3f 00 2
        e 0 99 2a 00 2
        e 90 99 2a 64 1
        e 0 99 25 64 1
        e 0 99 3e 64 1
        e 30 99 2a 00 2
        e 0 99 25 00 2
        e 0 99 3e 00 2
        e 90 99 2a 64 1
        e 0 99 3f 64 1
        e 30 99 2a 00 2
        e 0 99 3f 00 2
        e 30 99 3d 64 1
        e 0 99 23 64 1
        e 30 99 3d 00 1
        e 0 99 23 00 2
        e 30 99 23 64 1
        e 0 99 40 64 1
        e 0 99 2a 64 1
        e 30 99 23 00 2
        e 0 99 40 00 2
        e 0 99 2a 00 2
        e 90 99 40 64 1
        e 0 99 2a 64 1
        e 30 99 40 00 2
        e 0 99 2a 00 2
        e 90 99 25 64 1
        e 0 99 2a 64 1
        e 0 99 3e 64 1
        e 30 99 25 00 2
        e 0 99 2a 00 2
        e 0 99 3e 00 2
        e 90 99 2e 64 1
        e 0 99 3f 64 1
        e 30 99 2e 00 2
        e 0 99 3f 00 1
        e 30 99 3d 64 1
        e 30 99 3d 00 2
        e 30 99 2a 64 1
        e 0 99 3f 64 1
        e 0 99 23 64 1
        e 30 99 2a 00 2
        e 0 99 3f 00 2
        e 0 99 23 00 2
        e 90 99 2a 64 1
        e 30 99 2a 00 2
        e 90 99 25 64 1
        e 0 99 2a 64 1
        e 0 99 3e 64 1
        e 30 99 25 00 2
        e 0 99 2a 00 2
        e 0 99 3e 00 2
        e 90 99 2a 64 1
        e 30 99 2a 00 2
        e 30 99 23 64 1
        e 0 99 3d 64 1
        e 30 99 23 00 2
        e 0 99 3d 00 2
        e 30 99 2a 64 1
        e 0 99 23 64 1
        e 0 99 40 64 1
        e 30 99 2a 00 2
        e 0 99 23 00 2
        e 0 99 40 00 2
        e 90 99 40 64 1
        e 0 99 2a 64 1
        e 30 99 40 00 2
        e 0 99 2a 00 2
        e 90 99 25 64 1
        e 0 99 3e 64 1
        e 0 99 2a 64 1
        e 30 99 25 00 2
        e 0 99 3e 00 2
        e 0 99 2a 00 2
        e 90 99 3d 64 1
        e 0 99 3f 64 1
        e 0 99 2a 64 1
        e 30 99 3d 00 2
        e 0 99 3f 00 2
        e 0 99 2a 00 2
        e 30 99 3d 64 1
        e 30 99 3d 00 2
        e 30 99 2a 64 1
        e 0 99 23 64 1
        e 30 99 2a 00 2
        e 0 99 23 00 2
        e 90 99 40 64 1
        e 0 99 2a 64 1
        e 30 99 40 00 2
        e 0 99 2a 00 2
        e 90 99 2a 64 1
        e 0 99 3e 64 1
        e 0 99 25 64 1
        e 30 99 2a 00 2
        e 0 99 3e 00 2
        e 0 99 25 00 2
        e 90 99 2a 64 1
        e 0 99 3f 64 1
        e 30 99 2a 00 2
        e 0 99 3f 00 2
        e 30 99 23 64 1
        e 0 99 3d 64 1
        e 30 99 23 00 2
        e 0 99 3d 00 2
        e 30 99 23 64 1
        e 0 99 2a 64 1
        e 30 99 23 00 2
        e 0 99 2a 00 2
        e 30 99 3d 64 1
        e 30 99 3d 00 2
        e 30 99 2a 64 1
        e 0 99 3e 64 1
        e 30 99 2a 00 2
        e 0 99 3e 00 2
        e 90 99 2a 64 1
        e 0 99 25 64 1
        e 30 99 2a 00 2
        e 0 99 25 00 2
        e 30 99 3d 64 1
        e 30 99 3d 00 3
        e 30 99 2e 64 1
        e 0 99 3e 64 1
        e 30 99 2e 00 2
        e 0 99 3e 00 2
        e 90 99 40 64 1
        e 0 99 2a 64 1
        e 0 99 23 64 1
        e 30 99 40 00 3
        e 0 99 2a 00 2
        e 0 99 23 00 2
        e 90 99 2a 64 1
        e 30 99 2a 00 2
        e 30 99 3d 64 1
        e 30 99 3d 00 1
        e 30 99 25 64 1
        e 0 99 2a 64 1
        e 0 99 3e 64 1
        e 30 99 25 00 2
        e 0 99 2a 00 2
        e 0 99 3e 00 2
        e 90 99 2a 64 1
        e 30 99 2a 00 2
        e 30 99 3d 64 1
        e 0 99 23 64 1
        e 30 99 3d 00 2
        e 0 99 23 00 2
        e 30 99 2a 64 1
        e 0 99 23 64 1
        e 0 99 3f 64 1
        e 30 99 2a 00 2
        e 0 99 23 00 2
        e 0 99 3f 00 1
        e 90 99 2a 64 1
        e 0 99 40 64 1
        e 30 99 2a 00 2
        e 0 99 40 00 2
        e 90 99 25 64 1
        e 0 99 3e 64 1
        e 0 99 2a 64 1
        e 30 99 25 00 2
        e 0 99 3e 00 3
        e 0 99 2a 00 2
        e 90 99 2a 64 1
        e 0 99 3f 64 1
        e 30 99 2a 00 2
        e 0 99 3f 00 2
        e 30 99 3d 64 1
        e 30 99 3d 00 2
        e 30 99 2a 64 1
        e 0 99 23 64 1
        e 30 99 2a 00 2
        e 0 99 23 00 2
        e 90 99 40 64 1
        e 0 99 2a 64 1
        e 30 99 40 00 2
        e 0 99 2a 00 2
        e 90 99 25 64 1
        e 0 99 2a 64 1
        e 0 99 3e 64 1
        e 30 99 25 00 2
        e 0 99 2a 00 2
        e 0 99 3e 00 1
        e 90 99 2a 64 1
        e 30 99 2a 00 2
        e 30 99 23 64 1
        e 0 99 3d 64 1
        e 30 99 23 00 2
        e 0 99 3d 00 3
        e 30 99 3f 64 1
        e 0 99 2a 64 1
        e 0 99 23 64 1
        e 30 99 3f 00 2
        e 0 99 2a 00 2
        e 0 99 23 00 2
        e 90 99 2a 64 1
        e 0 99 40 64 1
        e 30 99 2a 00 2
        e 0 99 40 00 2
        e 90 99 2a 64 1
        e 0 99 3e 64 1
        e 0 99 25 64 1
        e 30 99 2a 00 2
        e 0 99 3e 00 2
        e 0 99 25 00 2
        e 90 99 3f 64 1
        e 0 99 2e 64 1
        e 30 99 3f 00 2
        e 0 99 2e 00 2
        e 30 99 3d 64 1
        e 30 99 3d 00 3
        e 30 99 2a 64 1
        e 0 99 40 64 1
        e 0 99 23 64 1
        e 30 99 2a 00 2
        e 0 99 40 00 2
        e 0 99 23 00 2
        e 30 99 40 64 1
        e 30 99 40 00 2
        e 30 99 2a 64 1
        e 0 99 3d 64 1
        e 30 99 2a 00 2
        e 0 99 3d 00 2
        e 90 99 25 64 1
        e 0 99 2a 64 1
        e 0 99 3e 64 1
        e 30 99 25 00 2
        e 0 99 2a 00 2
        e 0 99 3e 00 2
        e 90 99 3f 64 1
        e 0 99 2a 64 1
        e 30 99 3f 00 2
        e 0 99 2a 00 2
        e 30 99 23 64 1
        e 0 99 3d 64 1
        e 30 99 23 00 2
        e 0 99 3d 00 2
        e 30 99 23 64 1
        e 0 99 3f 64 1
        e 0 99 2a 64 1
        e 30 99 23 00 2
        e 0 99 3f 00 2
        e 0 99 2a 00 2
        e 90 99 40 64 1
        e 0 99 2a 64 1
        e 30 99 40 00 2
        e 0 99 2a 00 2
        e 90 99 3e 64 1
        e 0 99 25 64 1
        e 0 99 2a 64 1
        e 30 99 3e 00 2
        e 0 99 25 00 2
        e 0 99 2a 00 2
        e 90 99 2a 64 1
        e 0 99 3f 64 1
        e 30 99 2a 00 2
        e 0 99 3f 00 2
        e 30 99 3d 64 1
        e 30 99 3d 00 2
        e 30 99 3f 64 1
        e 0 99 23 64 1
        e 0 99 2a 64 1
        e 30 99 3f 00 2
        e 0 99 23 00 2
        e 0 99 2a 00 2
        e 90 99 3f 64 1
        e 0 99 2a 64 1
        e 30 99 3f 00 2
        e 0 99 2a 00 2
        e 90 99 2a 64 1
        e 0 99 25 64 1
        e 0 99 3e 64 1
        e 30 99 2a 00 2
        e 0 99 25 00 2
        e 0 99 3e 00 2
        e 90 99 3f 64 1
        e 0 99 2a 64 1
        e 30 99 3f 00 2
        e 0 99 2a 00 2
        e 30 99 23 64 1
        e 0 99 3d 64 1
        e 30 99 23 00 2
        e 0 99 3d 00 2
        e 30 99 40 64 1
        e 0 99 23 64 1
        e 0 99 2a 64 1
        e 30 99 40 00 2
        e 0 99 23 00 2
        e 0 99 2a 00 2
        e 90 99 2a 64 1
        e 0 99 40 64 1
        e 30 99 2a 00 2
        e 0 99 40 00 2
        e 30 99 2e 64 1
        e 30 99 2e 00 2
        e 30 99 25 64 1
        e 0 99 3e 64 1
        e 0 99 2a 64 1
        e 30 99 25 00 2
        e 0 99 3e 00 2
        e 0 99 2a 00 2
        e 30 99 3d 64 1
        e 30 99 3d 00 2
        e 30 99 2f 64 1
        e 30 99 2f 00 2
        e 30 99 2b 64 1
        e 30 99 2b 00 2
        e 30 99 40 64 1
        e 0 99 46 64 1
        e 0 99 2a 64 5
        e 0 99 23 64 5
        e 30 99 40 00 2
        e 0 99 46 00 2
        e 0 99 2a 00 6
        e 0 99 23 00 6
        e 90 99 2a 64 5
        e 30 99 2a 00 6
        e 30 99 3d 64 1
        e 30 99 3d 00 2
        e 30 99 46 64 1
        e 0 99 3e 64 1
        e 0 99 2a 64 5
        e 0 99 25 64 5
        e 30 99 46 00 2
        e 0 99 3e 00 1
        e 0 99 2a 00 6
        e 0 99 25 00 6
        e 90 99 3f 64 1
        e 0 99 2a 64 5
        e 30 99 3f 00 2
        e 0 99 2a 00 6
        e 30 99 3d 64 1
        e 0 99 23 64 5
        e 30 99 3d 00 1
        e 0 99 23 00 6
        e 30 99 46 64 1
        e 0 99 2a 64 5
        e 0 99 23 64 5
        e 30 99 46 00 2
        e 0 99 2a 00 6
        e 0 99 23 00 6
        e 30 99 3f 64 1
        e 30 99 3f 00 2
        e 30 99 3f 64 1
        e 0 99 2a 64 5
        e 30 99 3f 00 2
        e 0 99 2a 00 6
        e 30 99 3d 64 1
        e 30 99 3d 00 2
        e 30 99 3e 64 1
        e 0 99 46 64 1
        e 0 99 25 64 5
        e 0 99 2a 64 5
        e 30 99 3e 00 2
        e 0 99 46 00 2
        e 0 99 25 00 6
        e 0 99 2a 00 6
        e 90 99 3f 64 1
        e 0 99 2a 64 5
        e 30 99 3f 00 2
        e 0 99 2a 00 6
        e 30 99 3f 64 1
        e 30 99 3f 00 2
        e 30 99 46 64 1
        e 0 99 40 64 1
        e 0 99 23 64 5
        e 0 99 2a 64 5
        e 30 99 46 00 2
        e 0 99 40 00 1
        e 0 99 23 00 6
        e 0 99 2a 00 6
        e 90 99 3f 64 1
        e 0 99 2a 64 5
        e 30 99 3f 00 2
        e 0 99 2a 00 6
        e 30 99 2a 64 1
        e 0 99 3d 64 1
        e 30 99 2a 00 2
        e 0 99 3d 00 2
        e 30 99 3e 64 1
        e 0 99 46 64 1
        e 0 99 2a 64 5
        e 0 99 25 64 5
        e 30 99 3e 00 2
        e 0 99 46 00 2
        e 0 99 2a 00 6
        e 0 99 25 00 6
        e 90 99 3f 64 1
        e 0 99 2a 64 5
        e 30 99 3f 00 2
        e 0 99 2a 00 6
        e 30 99 3d 64 1
        e 0 99 23 64 5
        e 30 99 3d 00 1
        e 0 99 23 00 6
        e 30 99 46 64 1
        e 0 99 3f 64 1
        e 0 99 23 64 5
        e 0 99 2a 64 5
        e 30 99 46 00 2
        e 0 99 3f 00 2
        e 0 99 23 00 6
        e 0 99 2a 00 6
        e 30 99 3f 64 1
        e 30 99 3f 00 2
        e 30 99 3f 64 1
        e 0 99 2a 64 5
        e 30 99 3f 00 1
        e 0 99 2a 00 6
        e 30 99 3d 64 1
        e 30 99 3d 00 2
        e 30 99 46 64 1
        e 0 99 3e 64 1
        e 0 99 25 64 5
        e 0 99 2a 64 5
        e 30 99 46 00 2
        e 0 99 3e 00 3
        e 0 99 25 00 6
        e 0 99 2a 00 6
        e 30 99 2a 64 1
        e 0 99 3d 64 1
        e 30 99 2a 00 2
        e 0 99 3d 00 2
        e 30 99 3f 64 1
        e 0 99 2e 64 5
        e 30 99 3f 00 2
        e 0 99 2e 00 6
        e 30 99 3f 64 1
        e 30 99 3f 00 2
        e 30 99 40 64 1
        e 0 99 46 64 1
        e 0 99 2a 64 5
        e 0 99 23 64 5
        e 30 99 40 00 2
        e 0 99 46 00 2
        e 0 99 2a 00 6
        e 0 99 23 00 6
        e 90 99 2a 64 5
        e 30 99 2a 00 6
        e 30 99 3d 64 1
        e 30 99 3d 00 2
        e 30 99 46 64 1
        e 0 99 3e 64 1
        e 0 99 2a 64 5
        e 0 99 25 64 5
        e 30 99 46 00 2
        e 0 99 3e 00 2
        e 0 99 2a 00 6
        e 0 99 25 00 6
        e 90 99 3f 64 1
        e 0 99 2a 64 5
        e 30 99 3f 00 2
        e 0 99 2a 00 6
        e 30 99 3d 64 1
        e 0 99 23 64 5
        e 30 99 3d 00 3
        e 0 99 23 00 6
        e 30 99 3f 64 1
        e 0 99 46 64 1
        e 0 99 23 64 5
        e 0 99 2a 64 5
        e 30 99 3f 00 2
        e 0 99 46 00 2
        e 0 99 23 00 6
        e 0 99 2a 00 6
        e 30 99 3f 64 1
        e 30 99 3f 00 1
        e 30 99 3f 64 1
        e 0 99 2a 64 5
        e 30 99 3f 00 2
        e 0 99 2a 00 6
        e 30 99 3d 64 1
        e 30 99 3d 00 2
        e 30 99 25 64 1
        e 0 99 3e 64 1
        e 0 99 2a 64 1
        e 0 99 46 64 1
        e 30 99 25 00 2
        e 0 99 3e 00 2
        e 0 99 2a 00 2
        e 0 99 46 00 2
        e 90 99 2a 64 1
        e 0 99 40 64 1
        e 30 99 2a 00 2
        e 0 99 40 00 2
        e 30 99 2a 64 1
        e 30 99 2a 00 2
        e 30 99 23 64 1
        e 0 99 40 64 1
        e 0 99 2a 64 1
        e 0 99 46 64 1
        e 30 99 23 00 2
        e 0 99 40 00 3
        e 0 99 2a 00 2
        e 0 99 46 00 2
        e 90 99 3f 64 1
        e 0 99 2a 64 5
        e 30 99 3f 00 2
        e 0 99 2a 00 6
        e 30 99 3d 64 1
        e 30 99 3d 00 2
        e 30 99 3e 64 1
        e 0 99 46 64 1
        e 0 99 25 64 5
        e 0 99 2a 64 5
        e 30 99 3e 00 2
        e 0 99 46 00 2
        e 0 99 25 00 6
        e 0 99 2a 00 6
        e 90 99 3f 64 1
        e 0 99 2a 64 5
        e 30 99 3f 00 2
        e 0 99 2a 00 6
        e 30 99 3d 64 1
        e 0 99 23 64 5
        e 30 99 3d 00 3
        e 0 99 23 00 6
        e 30 99 46 64 1
        e 0 99 2a 64 5
        e 0 99 23 64 5
        e 30 99 46 00 2
        e 0 99 2a 00 6
        e 0 99 23 00 6
        e 30 99 40 64 1
        e 30 99 40 00 2
        e 30 99 2a 64 5
        e 30 99 2a 00 6
        e 30 99 3d 64 1
        e 30 99 3d 00 1
        e 30 99 3e 64 1
        e 0 99 46 64 1
        e 0 99 2a 64 5
        e 0 99 25 64 5
        e 30 99 3e 00 2
        e 0 99 46 00 2
        e 0 99 2a 00 6
        e 0 99 25 00 6
        e 30 99 3d 64 1
        e 30 99 3d 00 2
        e 30 99 3f 64 1
        e 0 99 2e 64 5
        e 30 99 3f 00 2
        e 0 99 2e 00 6
        e 90 99 46 64 1
        e 0 99 40 64 1
        e 0 99 23 64 5
        e 0 99 2a 64 5
        e 30 99 46 00 2
        e 0 99 40 00 3
        e 0 99 23 00 6
        e 0 99 2a 00 6
        e 90 99 2a 64 5
        e 30 99 2a 00 6
        e 30 99 3f 64 1
        e 30 99 3f 00 2
        e 30 99 46 64 1
        e 0 99 3e 64 1
        e 0 99 25 64 5
        e 0 99 2a 64 5
        e 30 99 46 00 2
        e 0 99 3e 00 2
        e 0 99 25 00 6
        e 0 99 2a 00 6
        e 90 99 3f 64 1
        e 0 99 2a 64 5
        e 30 99 3f 00 2
        e 0 99 2a 00 6
        e 30 99 3d 64 1
        e 0 99 23 64 5
        e 30 99 3d 00 2
        e 0 99 23 00 6
        e 30 99 46 64 1
        e 0 99 23 64 5
        e 0 99 2a 64 5
        e 30 99 46 00 2
        e 0 99 23 00 6
        e 0 99 2a 00 6
        e 30 99 3d 64 1
        e 30 99 3d 00 2
        e 30 99 40 64 1
        e 0 99 2a 64 5
        e 30 99 40 00 2
        e 0 99 2a 00 6
        e 90 99 3e 64 1
        e 0 99 46 64 1
        e 0 99 2a 64 5
        e 0 99 25 64 5
        e 30 99 3e 00 2
        e 0 99 46 00 2
        e 0 99 2a 00 6
        e 0 99 25 00 6
        e 90 99 3f 64 1
        e 0 99 2a 64 5
        e 30 99 3f 00 2
        e 0 99 2a 00 6
        e 30 99 2a 64 1
        e 0 99 3d 64 1
        e 30 99 2a 00 2
        e 0 99 3d 00 2
        e 30 99 46 64 1
        e 0 99 3d 64 1
        e 0 99 23 64 5
        e 0 99 2a 64 5
        e 30 99 46 00 2
        e 0 99 3d 00 2
        e 0 99 23 00 6
        e 0 99 2a 00 6
        e 30 99 3d 64 1
        e 30 99 3d 00 2
        e 30 99 3f 64 1
        e 0 99 2a 64 5
        e 30 99 3f 00 2
        e 0 99 2a 00 6
        e 30 99 3d 64 1
        e 30 99 3d 00 2
        e 30 99 46 64 1
        e 0 99 3e 64 1
        e 0 99 2a 64 5
        e 0 99 25 64 5
        e 30 99 46 00 2
        e 0 99 3e 00 2
        e 0 99 2a 00 6
        e 0 99 25 00 6
        e 90 99 40 64 1
        e 0 99 2a 64 5
        e 30 99 40 00 2
        e 0 99 2a 00 6
        e 30 99 40 64 1
        e 0 99 23 64 5
        e 30 99 40 00 2
        e 0 99 23 00 6
        e 30 99 46 64 1
        e 0 99 2a 64 5
        e 0 99 23 64 5
        e 30 99 46 00 2
        e 0 99 2a 00 6
        e 0 99 23 00 6
        e 30 99 3f 64 1
        e 30 99 3f 00 2
        e 30 99 3d 64 1
        e 0 99 2a 64 5
        e 30 99 3d 00 2
        e 0 99 2a 00 6
        e 90 99 46 64 1
        e 0 99 3e 64 1
        e 0 99 25 64 5
        e 0 99 2a 64 5
        e 30 99 46 00 2
        e 0 99 3e 00 2
        e 0 99 25 00 6
        e 0 99 2a 00 6
        e 30 99 2a 64 1
        e 30 99 2a 00 2
        e 30 99 3f 64 1
        e 0 99 2e 64 5
        e 30 99 3f 00 3
        e 0 99 2e 00 6
        e 30 99 3d 64 1
        e 30 99 3d 00 2
        e 30 99 46 64 1
        e 0 99 23 64 5
        e 0 99 2a 64 5
        e 30 99 46 00 2
        e 0 99 23 00 6
        e 0 99 2a 00 6
        e 30 99 40 64 1
        e 30 99 40 00 2
        e 30 99 40 64 1
        e 0 99 2a 64 5
        e 30 99 40 00 2
        e 0 99 2a 00 6
        e 30 99 3d 64 1
        e 30 99 3d 00 2
        e 30 99 46 64 1
        e 0 99 3f 64 1
        e 0 99 25 64 5
        e 0 99 2a 64 5
        e 30 99 46 00 2
        e 0 99 3f 00 2
        e 0 99 25 00 6
        e 0 99 2a 00 6
        e 90 99 2a 64 5
        e 30 99 2a 00 6
        e 30 99 3e 64 1
        e 0 99 23 64 5
        e 30 99 3e 00 2
        e 0 99 23 00 6
        e 30 99 46 64 1
        e 0 99 23 64 5
        e 0 99 2a 64 5
        e 30 99 46 00 2
        e 0 99 23 00 6
        e 0 99 2a 00 6
        e 30 99 3f 64 1
        e 30 99 3f 00 2
        e 30 99 3d 64 1
        e 0 99 2a 64 5
        e 30 99 3d 00 2
        e 0 99 2a 00 6
        e 90 99 46 64 1
        e 0 99 3f 64 1
        e 0 99 25 64 5
        e 0 99 2a 64 5
        e 30 99 46 00 2
        e 0 99 3f 00 1
        e 0 99 25 00 6
        e 0 99 2a 00 6
        e 30 99 2a 64 1
        e 0 99 3d 64 1
        e 30 99 2a 00 2
        e 0 99 3d 00 2
        e 30 99 3e 64 1
        e 0 99 2a 64 5
        e 30 99 3e 00 2
        e 0 99 2a 00 6
        e 30 99 3d 64 1
        e 30 99 3d 00 3
        e 30 99 37 64 1
        e 0 99 40 64 1
        e 0 99 23 64 1
        e 30 99 37 00 2
        e 0 99 40 00 3
        e 0 99 23 00 2
        e 90 99 23 64 1
        e 0 99 39 64 1
        e 0 99 40 64 1
        e 30 99 23 00 2
        e 0 99 39 00 2
        e 0 99 40 00 2
        e 810 99 2a 64 1
        e 0 99 40 64 1
        e 0 99 23 64 1
        e 30 99 2a 00 2
        e 0 99 40 00 3
        e 0 99 23 00 2
        e 90 99 2a 64 1
        e 30 99 2a 00 2
        e 30 99 3d 64 1
        e 30 99 3d 00 2
        e 30 99 3e 64 1
        e 0 99 25 64 1
        e 0 99 2a 64 1
        e 30 99 3e 00 2
        e 0 99 25 00 2
        e 0 99 2a 00 2
        e 90 99 2a 64 1
        e 30 99 2a 00 2
        e 30 99 23 64 1
        e 0 99 3d 64 1
        e 30 99 23 00 2
        e 0 99 3d 00 2
        e 30 99 40 64 1
        e 0 99 23 64 1
        e 0 99 2a 64 1
        e 30 99 40 00 2
        e 0 99 23 00 2
        e 0 99 2a 00 2
        e 90 99 40 64 1
        e 0 99 2a 64 1
        e 30 99 40 00 2
        e 0 99 2a 00 2
        e 90 99 3e 64 1
        e 0 99 2a 64 1
        e 0 99 25 64 1
        e 30 99 3e 00 2
        e 0 99 2a 00 2
        e 0 99 25 00 2
        e 90 99 2a 64 1
        e 0 99 3f 64 1
        e 30 99 2a 00 2
        e 0 99 3f 00 1
        e 30 99 3d 64 1
        e 30 99 3d 00 2
        e 30 99 2a 64 1
        e 0 99 23 64 1
        e 30 99 2a 00 2
        e 0 99 23 00 2
        e 90 99 3f 64 1
        e 0 99 2a 64 1
        e 30 99 3f 00 2
        e 0 99 2a 00 2
        e 90 99 3e 64 1
        e 0 99 2a 64 1
        e 0 99 25 64 1
        e 30 99 3e 00 2
        e 0 99 2a 00 2
        e 0 99 25 00 2
        e 90 99 2a 64 1
        e 0 99 3f 64 1
        e 30 99 2a 00 2
        e 0 99 3f 00 2
        e 30 99 23 64 1
        e 0 99 3d 64 1
        e 30 99 23 00 2
        e 0 99 3d 00 1
        e 30 99 40 64 1
        e 0 99 23 64 1
        e 0 99 2a 64 1
        e 30 99 40 00 2
        e 0 99 23 00 2
        e 0 99 2a 00 2
        e 90 99 2a 64 1
        e 0 99 40 64 1
        e 30 99 2a 00 2
        e 0 99 40 00 2
        e 90 99 25 64 1
        e 0 99 3e 64 1
        e 0 99 2a 64 1
        e 30 99 25 00 2
        e 0 99 3e 00 2
        e 0 99 2a 00 2
        e 90 99 2e 64 1
        e 0 99 3f 64 1
        e 30 99 2e 00 2
        e 0 99 3f 00 1
        e 30 99 3d 64 1
        e 30 99 3d 00 2
        e 30 99 2a 64 1
        e 0 99 23 64 1
        e 0 99 3f 64 1
        e 30 99 2a 00 2
        e 0 99 23 00 2
        e 0 99 3f 00 2
        e 90 99 2a 64 1
        e 30 99 2a 00 2
        e 90 99 2a 64 1
        e 0 99 25 64 1
        e 0 99 3e 64 1
        e 30 99 2a 00 2
        e 0 99 25 00 2
        e 0 99 3e 00 2
        e 90 99 2a 64 1
        e 30 99 2a 00 2
        e 30 99 3d 64 1
        e 0 99 23 64 1
        e 30 99 3d 00 2
        e 0 99 23 00 2
        e 30 99 40 64 1
        e 0 99 2a 64 1
        e 0 99 23 64 1
        e 30 99 40 00 2
        e 0 99 2a 00 2
        e 0 99 23 00 2
        e 90 99 2a 64 1
        e 0 99 40 64 1
        e 30 99 2a 00 2
        e 0 99 40 00 2
        e 90 99 3e 64 1
        e 0 99 25 64 1
        e 0 99 2a 64 1
        e 30 99 3e 00 2
        e 0 99 25 00 2
        e 0 99 2a 00 2
        e 90 99 3d 64 1
        e 0 99 3f 64 1
        e 0 99 2a 64 1
        e 30 99 3d 00 2
        e 0 99 3f 00 2
        e 0 99 2a 00 2
        e 30 99 3d 64 1
        e 30 99 3d 00 2
        e 30 99 23 64 1
        e 0 99 2a 64 1
        e 30 99 23 00 2
        e 0 99 2a 00 2
        e 90 99 2a 64 1
        e 0 99 40 64 1
        e 30 99 2a 00 2
        e 0 99 40 00 2
        e 90 99 2a 64 1
        e 0 99 3e 64 1
        e 0 99 25 64 1
        e 30 99 2a 00 2
        e 0 99 3e 00 2
        e 0 99 25 00 2
        e 90 99 3f 64 1
        e 0 99 2a 64 1
        e 30 99 3f 00 2
        e 0 99 2a 00 2
        e 30 99 23 64 1
        e 0 99 3d 64 1
        e 30 99 23 00 2
        e 0 99 3d 00 2
        e 30 99 2a 64 1
        e 0 99 23 64 1
        e 30 99 2a 00 2
        e 0 99 23 00 2
        e 30 99 3d 64 1
        e 30 99 3d 00 2
        e 30 99 3e 64 1
        e 0 99 2a 64 1
        e 30 99 3e 00 2
        e 0 99 2a 00 2
        e 90 99 25 64 1
        e 0 99 2a 64 1
        e 30 99 25 00 2
        e 0 99 2a 00 2
        e 30 99 3d 64 1
        e 30 99 3d 00 3
        e 30 99 2e 64 1
        e 0 99 3e 64 1
        e 30 99 2e 00 2
        e 0 99 3e 00 2
        e 90 99 40 64 1
        e 0 99 23 64 1
        e 0 99 2a 64 1
        e 30 99 40 00 3
        e 0 99 23 00 2
        e 0 99 2a 00 2
        e 90 99 2a 64 1
        e 30 99 2a 00 2
        e 30 99 3d 64 1
        e 30 99 3d 00 1
        e 30 99 3e 64 1
        e 0 99 25 64 1
        e 0 99 2a 64 1
        e 30 99 3e 00 2
        e 0 99 25 00 2
        e 0 99 2a 00 2
        e 90 99 2a 64 1
        e 30 99 2a 00 2
        e 30 99 23 64 1
        e 0 99 3d 64 1
        e 30 99 23 00 2
        e 0 99 3d 00 2
        e 30 99 23 64 1
        e 0 99 2a 64 1
        e 0 99 3f 64 1
        e 30 99 23 00 2
        e 0 99 2a 00 2
        e 0 99 3f 00 1
        e 90 99 40 64 1
        e 0 99 2a 64 1
        e 30 99 40 00 2
        e 0 99 2a 00 2
        e 90 99 25 64 1
        e 0 99 3e 64 1
        e 0 99 2a 64 1
        e 30 99 25 00 2
        e 0 99 3e 00 3
        e 0 99 2a 00 2
        e 90 99 3f 64 1
        e 0 99 2a 64 1
        e 30 99 3f 00 2
        e 0 99 2a 00 2
        e 30 99 3d 64 1
        e 30 99 3d 00 2
        e 30 99 23 64 1
        e 0 99 2a 64 1
        e 30 99 23 00 2
        e 0 99 2a 00 2
        e 90 99 40 64 1
        e 0 99 2a 64 1
        e 30 99 40 00 2
        e 0 99 2a 00 2
        e 90 99 3e 64 1
        e 0 99 25 64 1
        e 0 99 2a 64 1
        e 30 99 3e 00 1
        e 0 99 25 00 2
        e 0 99 2a 00 2
        e 90 99 2a 64 1
        e 30 99 2a 00 2
        e 30 99 3d 64 1
        e 0 99 23 64 1
        e 30 99 3d 00 3
        e 0 99 23 00 2
        e 30 99 23 64 1
        e 0 99 3f 64 1
        e 0 99 2a 64 1
        e 30 99 23 00 2
        e 0 99 3f 00 2
        e 0 99 2a 00 2
        e 90 99 2a 64 1
        e 0 99 40 64 1
        e 30 99 2a 00 2
        e 0 99 40 00 2
        e 90 99 2a 64 1
        e 0 99 3e 64 1
        e 0 99 25 64 1
        e 30 99 2a 00 2
        e 0 99 3e 00 2
        e 0 99 25 00 2
        e 90 99 2e 64 1
        e 0 99 3f 64 1
        e 30 99 2e 00 2
        e 0 99 3f 00 2
        e 30 99 3d 64 1
        e 30 99 3d 00 3
        e 30 99 40 64 1
        e 0 99 23 64 1
        e 0 99 2a 64 1
        e 30 99 40 00 2
        e 0 99 23 00 2
        e 0 99 2a 00 2
        e 30 99 40 64 1
        e 30 99 40 00 2
        e 30 99 3d 64 1
        e 0 99 2a 64 1
        e 30 99 3d 00 2
        e 0 99 2a 00 2
        e 90 99 3e 64 1
        e 0 99 2a 64 1
        e 0 99 25 64 1
        e 30 99 3e 00 2
        e 0 99 2a 00 2
        e 0 99 25 00 2
        e 90 99 3f 64 1
        e 0 99 2a 64 1
        e 30 99 3f 00 2
        e 0 99 2a 00 2
        e 30 99 3d 64 1
        e 0 99 23 64 1
        e 30 99 3d 00 2
        e 0 99 23 00 2
        e 30 99 3f 64 1
        e 0 99 2a 64 1
        e 0 99 23 64 1
        e 30 99 3f 00 2
        e 0 99 2a 00 2
        e 0 99 23 00 2
        e 90 99 2a 64 1
        e 0 99 40 64 1
        e 30 99 2a 00 2
        e 0 99 40 00 2
        e 90 99 2a 64 1
        e 0 99 25 64 1
        e 0 99 3e 64 1
        e 30 99 2a 00 2
        e 0 99 25 00 2
        e 0 99 3e 00 2
        e 90 99 2a 64 1
        e 0 99 3f 64 1
        e 30 99 2a 00 2
        e 0 99 3f 00 2
        e 30 99 3d 64 1
        e 30 99 3d 00 2
        e 30 99 23 64 1
        e 0 99 3f 64 1
        e 0 99 2a 64 1
        e 30 99 23 00 2
        e 0 99 3f 00 2
        e 0 99 2a 00 2
        e 90 99 3f 64 1
        e 0 99 2a 64 1
        e 30 99 3f 00 2
        e 0 99 2a 00 2
        e 90 99 2a 64 1
        e 0 99 3e 64 1
        e 0 99 25 64 1
        e 30 99 2a 00 2
        e 0 99 3e 00 2
        e 0 99 25 00 2
        e 90 99 2a 64 1
        e 0 99 3f 64 1
        e 30 99 2a 00 2
        e 0 99 3f 00 2
        e 30 99 23 64 1
        e 0 99 3d 64 1
        e 30 99 23 00 2
        e 0 99 3d 00 2
        e 30 99 40 64 1
        e 0 99 2a 64 1
        e 0 99 23 64 1
        e 30 99 40 00 2
        e 0 99 2a 00 2
        e 0 99 23 00 2
        e 90 99 2a 64 1
        e 0 99 40 64 1
        e 30 99 2a 00 2
        e 0 99 40 00 2
        e 30 99 2e 64 1
        e 30 99 2e 00 2
        e 30 99 3e 64 1
        e 0 99 2a 64 1
        e 0 99 25 64 1
        e 30 99 3e 00 2
        e 0 99 2a 00 2
        e 0 99 25 00 2
        e 30 99 3d 64 1
        e 30 99 3d 00 2
        e 30 99 2f 64 1
        e 30 99 2f 00 2
        e 30 99 2b 64 1
        e 30 99 2b 00 2
        e 30 99 46 64 1
        e 0 99 40 64 1
        e 0 99 2a 64 5
        e 0 99 23 64 5
        e 30 99 46 00 2
        e 0 99 40 00 2
        e 0 99 2a 00 6
        e 0 99 23 00 6
        e 90 99 2a 64 5
        e 30 99 2a 00 6
        e 30 99 3d 64 1
        e 30 99 3d 00 2
        e 30 99 46 64 1
        e 0 99 3e 64 1
        e 0 99 25 64 5
        e 0 99 2a 64 5
        e 30 99 46 00 2
        e 0 99 3e 00 1
        e 0 99 25 00 6
        e 0 99 2a 00 6
        e 90 99 3f 64 1
        e 0 99 2a 64 5
        e 30 99 3f 00 2
        e 0 99 2a 00 6
        e 30 99 3d 64 1
        e 0 99 23 64 5
        e 30 99 3d 00 1
        e 0 99 23 00 6
        e 30 99 46 64 1
        e 0 99 2a 64 5
        e 0 99 23 64 5
        e 30 99 46 00 2
        e 0 99 2a 00 6
        e 0 99 23 00 6
        e 30 99 3f 64 1
        e 30 99 3f 00 2
        e 30 99 3f 64 1
        e 0 99 2a 64 5
        e 30 99 3f 00 2
        e 0 99 2a 00 6
        e 30 99 3d 64 1
        e 30 99 3d 00 2
        e 30 99 3e 64 1
        e 0 99 46 64 1
        e 0 99 25 64 5
        e 0 99 2a 64 5
        e 30 99 3e 00 2
        e 0 99 46 00 2
        e 0 99 25 00 6
        e 0 99 2a 00 6
        e 90 99 3f 64 1
        e 0 99 2a 64 5
        e 30 99 3f 00 2
        e 0 99 2a 00 6
        e 30 99 3f 64 1
        e 30 99 3f 00 2
        e 30 99 46 64 1
        e 0 99 40 64 1
        e 0 99 23 64 5
        e 0 99 2a 64 5
        e 30 99 46 00 2
        e 0 99 40 00 1
        e 0 99 23 00 6
        e 0 99 2a 00 6
        e 90 99 3f 64 1
        e 0 99 2a 64 5
        e 30 99 3f 00 2
        e 0 99 2a 00 6
        e 30 99 2a 64 1
        e 0 99 3d 64 1
        e 30 99 2a 00 2
        e 0 99 3d 00 2
        e 30 99 3e 64 1
        e 0 99 46 64 1
        e 0 99 25 64 5
        e 0 99 2a 64 5
        e 30 99 3e 00 2
        e 0 99 46 00 2
        e 0 99 25 00 6
        e 0 99 2a 00 6
        e 90 99 3f 64 1
        e 0 99 2a 64 5
        e 30 99 3f 00 2
        e 0 99 2a 00 6
        e 30 99 3d 64 1
        e 0 99 23 64 5
        e 30 99 3d 00 1
        e 0 99 23 00 6
        e 30 99 46 64 1
        e 0 99 3f 64 1
        e 0 99 23 64 5
        e 0 99 2a 64 5
        e 30 99 46 00 2
        e 0 99 3f 00 2
        e 0 99 23 00 6
        e 0 99 2a 00 6
        e 30 99 3f 64 1
        e 30 99 3f 00 2
        e 30 99 3f 64 1
        e 0 99 2a 64 5
        e 30 99 3f 00 1
        e 0 99 2a 00 6
        e 30 99 3d 64 1
        e 30 99 3d 00 2
        e 30 99 3e 64 1
        e 0 99 46 64 1
        e 0 99 2a 64 5
        e 0 99 25 64 5
        e 30 99 3e 00 3
        e 0 99 46 00 2
        e 0 99 2a 00 6
        e 0 99 25 00 6
        e 30 99 3d 64 1
        e 0 99 2a 64 1
        e 30 99 3d 00 2
        e 0 99 2a 00 2
        e 30 99 3f 64 1
        e 0 99 2e 64 5
        e 30 99 3f 00 2
        e 0 99 2e 00 6
        e 30 99 3f 64 1
        e 30 99 3f 00 2
        e 30 99 40 64 1
        e 0 99 46 64 1
        e 0 99 23 64 5
        e 0 99 2a 64 5
        e 30 99 40 00 2
        e 0 99 46 00 2
        e 0 99 23 00 6
        e 0 99 2a 00 6
        e 90 99 2a 64 5
        e 30 99 2a 00 6
        e 30 99 3d 64 1
        e 30 99 3d 00 2
        e 30 99 3e 64 1
        e 0 99 46 64 1
        e 0 99 2a 64 5
        e 0 99 25 64 5
        e 30 99 3e 00 2
        e 0 99 46 00 2
        e 0 99 2a 00 6
        e 0 99 25 00 6
        e 90 99 3f 64 1
        e 0 99 2a 64 5
        e 30 99 3f 00 2
        e 0 99 2a 00 6
        e 30 99 3d 64 1
        e 0 99 23 64 5
        e 30 99 3d 00 3
        e 0 99 23 00 6
        e 30 99 3f 64 1
        e 0 99 46 64 1
        e 0 99 2a 64 5
        e 0 99 23 64 5
        e 30 99 3f 00 2
        e 0 99 46 00 2
        e 0 99 2a 00 6
        e 0 99 23 00 6
        e 30 99 3f 64 1
        e 30 99 3f 00 1
        e 30 99 3f 64 1
        e 0 99 2a 64 5
        e 30 99 3f 00 2
        e 0 99 2a 00 6
        e 30 99 3d 64 1
        e 30 99 3d 00 2
        e 30 99 2a 64 1
        e 0 99 25 64 1
        e 0 99 3e 64 1
        e 0 99 46 64 1
        e 30 99 2a 00 2
        e 0 99 25 00 2
        e 0 99 3e 00 2
        e 0 99 46 00 2
        e 90 99 40 64 1
        e 0 99 2a 64 1
        e 30 99 40 00 2
        e 0 99 2a 00 2
        e 30 99 2a 64 1
        e 30 99 2a 00 2
        e 30 99 40 64 1
        e 0 99 46 64 1
        e 0 99 2a 64 1
        e 0 99 23 64 1
        e 30 99 40 00 3
        e 0 99 46 00 2
        e 0 99 2a 00 2
        e 0 99 23 00 2
        e 90 99 3f 64 1
        e 0 99 2a 64 5
        e 30 99 3f 00 2
        e 0 99 2a 00 6
        e 30 99 3d 64 1
        e 30 99 3d 00 2
        e 30 99 46 64 1
        e 0 99 3e 64 1
        e 0 99 2a 64 5
        e 0 99 25 64 5
        e 30 99 46 00 2
        e 0 99 3e 00 2
        e 0 99 2a 00 6
        e 0 99 25 00 6
        e 90 99 3f 64 1
        e 0 99 2a 64 5
        e 30 99 3f 00 2
        e 0 99 2a 00 6
        e 30 99 3d 64 1
        e 0 99 23 64 5
        e 30 99 3d 00 3
        e 0 99 23 00 6
        e 30 99 46 64 1
        e 0 99 23 64 5
        e 0 99 2a 64 5
        e 30 99 46 00 2
        e 0 99 23 00 6
        e 0 99 2a 00 6
        e 30 99 40 64 1
        e 30 99 40 00 2
        e 30 99 2a 64 5
        e 30 99 2a 00 6
        e 30 99 3d 64 1
        e 30 99 3d 00 1
        e 30 99 46 64 1
        e 0 99 3e 64 1
        e 0 99 25 64 5
        e 0 99 2a 64 5
        e 30 99 46 00 2
        e 0 99 3e 00 2
        e 0 99 25 00 6
        e 0 99 2a 00 6
        e 30 99 3d 64 1
        e 30 99 3d 00 2
        e 30 99 3f 64 1
        e 0 99 2e 64 5
        e 30 99 3f 00 2
        e 0 99 2e 00 6
        e 90 99 40 64 1
        e 0 99 46 64 1
        e 0 99 23 64 5
        e 0 99 2a 64 5
        e 30 99 40 00 3
        e 0 99 46 00 2
        e 0 99 23 00 6
        e 0 99 2a 00 6
        e 90 99 2a 64 5
        e 30 99 2a 00 6
        e 30 99 3f 64 1
        e 30 99 3f 00 2
        e 30 99 46 64 1
        e 0 99 3e 64 1
        e 0 99 25 64 5
        e 0 99 2a 64 5
        e 30 99 46 00 2
        e 0 99 3e 00 2
        e 0 99 25 00 6
        e 0 99 2a 00 6
        e 90 99 3f 64 1
        e 0 99 2a 64 5
        e 30 99 3f 00 2
        e 0 99 2a 00 6
        e 30 99 3d 64 1
        e 0 99 23 64 5
        e 30 99 3d 00 2
        e 0 99 23 00 6
        e 30 99 46 64 1
        e 0 99 23 64 5
        e 0 99 2a 64 5
        e 30 99 46 00 2
        e 0 99 23 00 6
        e 0 99 2a 00 6
        e 30 99 3d 64 1
        e 30 99 3d 00 2
        e 30 99 40 64 1
        e 0 99 2a 64 5
        e 30 99 40 00 2
        e 0 99 2a 00 6
        e 90 99 3e 64 1
        e 0 99 46 64 1
        e 0 99 25 64 5
        e 0 99 2a 64 5
        e 30 99 3e 00 2
        e 0 99 46 00 2
        e 0 99 25 00 6
        e 0 99 2a 00 6
        e 90 99 3f 64 1
        e 0 99 2a 64 5
        e 30 99 3f 00 2
        e 0 99 2a 00 6
        e 30 99 2a 64 1
        e 0 99 3d 64 1
        e 30 99 2a 00 2
        e 0 99 3d 00 2
        e 30 99 46 64 1
        e 0 99 3d 64 1
        e 0 99 23 64 5
        e 0 99 2a 64 5
        e 30 99 46 00 2
        e 0 99 3d 00 2
        e 0 99 23 00 6
        e 0 99 2a 00 6
        e 30 99 3d 64 1
        e 30 99 3d 00 2
        e 30 99 3f 64 1
        e 0 99 2a 64 5
        e 30 99 3f 00 2
        e 0 99 2a 00 6
        e 30 99 3d 64 1
        e 30 99 3d 00 2
        e 30 99 46 64 1
        e 0 99 3e 64 1
        e 0 99 25 64 5
        e 0 99 2a 64 5
        e 30 99 46 00 2
        e 0 99 3e 00 2
        e 0 99 25 00 6
        e 0 99 2a 00 6
        e 90 99 40 64 1
        e 0 99 2a 64 5
        e 30 99 40 00 2
        e 0 99 2a 00 6
        e 30 99 40 64 1
        e 0 99 23 64 5
        e 30 99 40 00 2
        e 0 99 23 00 6
        e 30 99 46 64 1
        e 0 99 23 64 5
        e 0 99 2a 64 5
        e 30 99 46 00 2
        e 0 99 23 00 6
        e 0 99 2a 00 6
        e 30 99 3f 64 1
        e 30 99 3f 00 2
        e 30 99 3d 64 1
        e 0 99 2a 64 5
        e 30 99 3d 00 2
        e 0 99 2a 00 6
        e 90 99 46 64 1
        e 0 99 3e 64 1
        e 0 99 2a 64 5
        e 0 99 25 64 5
        e 30 99 46 00 2
        e 0 99 3e 00 2
        e 0 99 2a 00 6
        e 0 99 25 00 6
        e 30 99 2a 64 1
        e 30 99 2a 00 2
        e 30 99 3f 64 1
        e 0 99 2e 64 5
        e 30 99 3f 00 3
        e 0 99 2e 00 6
        e 30 99 3d 64 1
        e 30 99 3d 00 2
        e 30 99 46 64 1
        e 0 99 23 64 5
        e 0 99 2a 64 5
        e 30 99 46 00 2
        e 0 99 23 00 6
        e 0 99 2a 00 6
        e 30 99 40 64 1
        e 30 99 40 00 2
        e 30 99 40 64 1
        e 0 99 2a 64 5
        e 30 99 40 00 2
        e 0 99 2a 00 6
        e 30 99 3d 64 1
        e 30 99 3d 00 2
        e 30 99 46 64 1
        e 0 99 3f 64 1
        e 0 99 25 64 5
        e 0 99 2a 64 5
        e 30 99 46 00 2
        e 0 99 3f 00 2
        e 0 99 25 00 6
        e 0 99 2a 00 6
        e 90 99 2a 64 5
        e 30 99 2a 00 6
        e 30 99 3e 64 1
        e 0 99 23 64 5
        e 30 99 3e 00 2
        e 0 99 23 00 6
        e 30 99 46 64 1
        e 0 99 2a 64 5
        e 0 99 23 64 5
        e 30 99 46 00 2
        e 0 99 2a 00 6
        e 0 99 23 00 6
        e 30 99 3f 64 1
        e 30 99 3f 00 2
        e 30 99 3d 64 1
        e 0 99 2a 64 5
        e 30 99 3d 00 2
        e 0 99 2a 00 6
        e 90 99 46 64 1
        e 0 99 3f 64 1
        e 0 99 25 64 5
        e 0 99 2a 64 5
        e 30 99 46 00 2
        e 0 99 3f 00 1
        e 0 99 25 00 6
        e 0 99 2a 00 6
        e 30 99 2a 64 1
        e 0 99 3d 64 1
        e 30 99 2a 00 2
        e 0 99 3d 00 2
        e 30 99 3e 64 1
        e 0 99 2a 64 5
        e 30 99 3e 00 2
        e 0 99 2a 00 6
        e 30 99 3d 64 1
        e 30 99 3d 00 3
        e 30 99 40 64 1
        e 0 99 23 64 1
        e 0 99 37 64 1
        e 30 99 40 00 3
        e 0 99 23 00 2
        e 0 99 37 00 2
        e 90 99 23 64 1
        e 0 99 40 64 1
        e 0 99 39 64 1
        e 30 99 23 00 2
        e 0 99 40 00 2
        e 0 99 39 00 2
        e 810 99 39 64 1
        e 0 99 40 64 1
        e 0 99 46 64 1
        e 0 99 2a 64 1
        e 0 99 23 64 1
        e 30 99 39 00 2
        e 0 99 40 00 2
        e 0 99 46 00 2
        e 0 99 2a 00 2
        e 0 99 23 00 2
        e 90 99 2a 64 1
        e 30 99 2a 00 2
        e 30 99 3d 64 1
        e 30 99 3d 00 2
        e 30 99 3e 64 1
        e 0 99 25 64 1
        e 0 99 2a 64 1
        e 0 99 46 64 1
        e 30 99 3e 00 1
        e 0 99 25 00 2
        e 0 99 2a 00 2
        e 0 99 46 00 2
        e 90 99 3f 64 1
        e 0 99 2a 64 1
        e 30 99 3f 00 2
        e 0 99 2a 00 2
        e 30 99 3d 64 1
        e 0 99 23 64 1
        e 30 99 3d 00 1
        e 0 99 23 00 2
        e 30 99 46 64 1
        e 0 99 2a 64 1
        e 0 99 23 64 1
        e 30 99 46 00 2
        e 0 99 2a 00 2
        e 0 99 23 00 2
        e 30 99 3f 64 1
        e 30 99 3f 00 2
        e 30 99 3f 64 1
        e 0 99 2a 64 1
        e 30 99 3f 00 2
        e 0 99 2a 00 2
        e 30 99 3d 64 1
        e 30 99 3d 00 2
        e 30 99 46 64 1
        e 0 99 25 64 1
        e 0 99 3e 64 1
        e 0 99 2a 64 1
        e 30 99 46 00 2
        e 0 99 25 00 2
        e 0 99 3e 00 2
        e 0 99 2a 00 2
        e 90 99 2a 64 1
        e 0 99 3f 64 1
        e 30 99 2a 00 2
        e 0 99 3f 00 2
        e 30 99 3f 64 1
        e 30 99 3f 00 2
        e 30 99 46 64 1
        e 0 99 2a 64 1
        e 0 99 23 64 1
        e 0 99 40 64 1
        e 30 99 46 00 2
        e 0 99 2a 00 2
        e 0 99 23 00 2
        e 0 99 40 00 1
        e 90 99 3f 64 1
        e 0 99 2a 64 1
        e 30 99 3f 00 2
        e 0 99 2a 00 2
        e 30 99 3d 64 1
        e 0 99 2a 64 1
        e 30 99 3d 00 2
        e 0 99 2a 00 2
        e 30 99 3e 64 1
        e 0 99 2a 64 1
        e 0 99 46 64 1
        e 0 99 25 64 1
        e 30 99 3e 00 2
        e 0 99 2a 00 2
        e 0 99 46 00 2
        e 0 99 25 00 2
        e 90 99 2a 64 1
        e 0 99 3f 64 1
        e 30 99 2a 00 2
        e 0 99 3f 00 2
        e 30 99 3d 64 1
        e 0 99 23 64 1
        e 30 99 3d 00 1
        e 0 99 23 00 2
        e 30 99 2a 64 1
        e 0 99 46 64 1
        e 0 99 23 64 1
        e 0 99 3f 64 1
        e 30 99 2a 00 2
        e 0 99 46 00 2
        e 0 99 23 00 2
        e 0 99 3f 00 2
        e 30 99 3f 64 1
        e 30 99 3f 00 2
        e 30 99 2a 64 1
        e 0 99 3f 64 1
        e 30 99 2a 00 2
        e 0 99 3f 00 1
        e 30 99 3d 64 1
        e 30 99 3d 00 2
        e 30 99 3e 64 1
        e 0 99 2a 64 1
        e 0 99 46 64 1
        e 0 99 25 64 1
        e 30 99 3e 00 3
        e 0 99 2a 00 2
        e 0 99 46 00 2
        e 0 99 25 00 2
        e 30 99 3d 64 1
        e 0 99 2a 64 1
        e 30 99 3d 00 2
        e 0 99 2a 00 2
        e 30 99 3f 64 1
        e 0 99 2e 64 1
        e 30 99 3f 00 2
        e 0 99 2e 00 2
        e 30 99 3f 64 1
        e 30 99 3f 00 2
        e 30 99 46 64 1
        e 0 99 2a 64 1
        e 0 99 40 64 1
        e 0 99 23 64 1
        e 30 99 46 00 2
        e 0 99 2a 00 2
        e 0 99 40 00 2
        e 0 99 23 00 2
        e 90 99 2a 64 1
        e 30 99 2a 00 2
        e 30 99 3d 64 1
        e 30 99 3d 00 2
        e 30 99 25 64 1
        e 0 99 3e 64 1
        e 0 99 46 64 1
        e 0 99 2a 64 1
        e 30 99 25 00 2
        e 0 99 3e 00 2
        e 0 99 46 00 2
        e 0 99 2a 00 2
        e 90 99 3f 64 1
        e 0 99 2a 64 1
        e 30 99 3f 00 2
        e 0 99 2a 00 2
        e 30 99 3d 64 1
        e 0 99 23 64 1
        e 30 99 3d 00 3
        e 0 99 23 00 2
        e 30 99 23 64 1
        e 0 99 2a 64 1
        e 0 99 46 64 1
        e 0 99 3f 64 1
        e 30 99 23 00 2
        e 0 99 2a 00 2
        e 0 99 46 00 2
        e 0 99 3f 00 2
        e 30 99 3f 64 1
        e 30 99 3f 00 1
        e 30 99 3f 64 1
        e 0 99 2a 64 1
        e 30 99 3f 00 2
        e 0 99 2a 00 2
        e 30 99 3d 64 1
        e 30 99 3d 00 2
        e 30 99 25 64 1
        e 0 99 2a 64 1
        e 0 99 3e 64 1
        e 0 99 46 64 1
        e 30 99 25 00 2
        e 0 99 2a 00 2
        e 0 99 3e 00 2
        e 0 99 46 00 2
        e 90 99 2a 64 1
        e 0 99 40 64 1
        e 30 99 2a 00 2
        e 0 99 40 00 2
        e 30 99 2a 64 1
        e 30 99 2a 00 2
        e 30 99 23 64 1
        e 0 99 2a 64 1
        e 0 99 40 64 1
        e 0 99 46 64 1
        e 30 99 23 00 2
        e 0 99 2a 00 2
        e 0 99 40 00 3
        e 0 99 46 00 2
        e 90 99 2a 64 1
        e 0 99 3f 64 1
        e 30 99 2a 00 2
        e 0 99 3f 00 2
        e 30 99 3d 64 1
        e 30 99 3d 00 2
        e 30 99 25 64 1
        e 0 99 46 64 1
        e 0 99 2a 64 1
        e 0 99 3e 64 1
        e 30 99 25 00 2
        e 0 99 46 00 2
        e 0 99 2a 00 2
        e 0 99 3e 00 2
        e 90 99 2a 64 1
        e 0 99 3f 64 1
        e 30 99 2a 00 2
        e 0 99 3f 00 2
        e 30 99 23 64 1
        e 0 99 3d 64 1
        e 30 99 23 00 2
        e 0 99 3d 00 3
        e 30 99 2a 64 1
        e 0 99 23 64 1
        e 0 99 46 64 1
        e 30 99 2a 00 2
        e 0 99 23 00 2
        e 0 99 46 00 2
        e 30 99 40 64 1
        e 30 99 40 00 2
        e 30 99 2a 64 1
        e 30 99 2a 00 2
        e 30 99 3d 64 1
        e 30 99 3d 00 1
        e 30 99 46 64 1
        e 0 99 3e 64 1
        e 0 99 2a 64 1
        e 0 99 25 64 1
        e 30 99 46 00 2
        e 0 99 3e 00 2
        e 0 99 2a 00 2
        e 0 99 25 00 2
        e 30 99 3d 64 1
        e 30 99 3d 00 2
        e 30 99 2e 64 1
        e 0 99 3f 64 1
        e 30 99 2e 00 2
        e 0 99 3f 00 2
        e 90 99 40 64 1
        e 0 99 23 64 1
        e 0 99 2a 64 1
        e 0 99 46 64 1
        e 0 99 39 64 1
        e 30 99 40 00 3
        e 0 99 23 00 2
        e 0 99 2a 00 2
        e 0 99 46 00 2
        e 0 99 39 00 2
        e 90 99 2a 64 1
        e 30 99 2a 00 2
        e 30 99 3f 64 1
        e 30 99 3f 00 2
        e 30 99 3e 64 1
        e 0 99 25 64 1
        e 0 99 2a 64 1
        e 0 99 46 64 1
        e 30 99 3e 00 2
        e 0 99 25 00 2
        e 0 99 2a 00 2
        e 0 99 46 00 2
        e 90 99 2a 64 1
        e 0 99 3f 64 1
        e 30 99 2a 00 2
        e 0 99 3f 00 2
        e 30 99 23 64 1
        e 0 99 3d 64 1
        e 30 99 23 00 2
        e 0 99 3d 00 2
        e 30 99 23 64 1
        e 0 99 46 64 1
        e 0 99 2a 64 1
        e 30 99 23 00 2
        e 0 99 46 00 2
        e 0 99 2a 00 2
        e 30 99 3d 64 1
        e 30 99 3d 00 2
        e 30 99 2a 64 1
        e 0 99 40 64 1
        e 30 99 2a 00 2
        e 0 99 40 00 2
        e 90 99 25 64 1
        e 0 99 46 64 1
        e 0 99 2a 64 1
        e 0 99 3e 64 1
        e 30 99 25 00 2
        e 0 99 46 00 2
        e 0 99 2a 00 2
        e 0 99 3e 00 2
        e 90 99 2a 64 1
        e 0 99 3f 64 1
        e 30 99 2a 00 2
        e 0 99 3f 00 2
        e 30 99 2a 64 1
        e 0 99 3d 64 1
        e 30 99 2a 00 2
        e 0 99 3d 00 2
        e 30 99 2a 64 1
        e 0 99 46 64 1
        e 0 99 3d 64 1
        e 0 99 23 64 1
        e 30 99 2a 00 2
        e 0 99 46 00 2
        e 0 99 3d 00 2
        e 0 99 23 00 2
        e 30 99 3d 64 1
        e 30 99 3d 00 2
        e 30 99 3f 64 1
        e 0 99 2a 64 1
        e 30 99 3f 00 2
        e 0 99 2a 00 2
        e 30 99 3d 64 1
        e 30 99 3d 00 2
        e 30 99 3e 64 1
        e 0 99 25 64 1
        e 0 99 46 64 1
        e 0 99 2a 64 1
        e 30 99 3e 00 2
        e 0 99 25 00 2
        e 0 99 46 00 2
        e 0 99 2a 00 2
        e 90 99 2a 64 1
        e 0 99 40 64 1
        e 30 99 2a 00 2
        e 0 99 40 00 2
        e 30 99 23 64 1
        e 0 99 40 64 1
        e 30 99 23 00 2
        e 0 99 40 00 2
        e 30 99 46 64 1
        e 0 99 2a 64 1
        e 0 99 23 64 1
        e 30 99 46 00 2
        e 0 99 2a 00 2
        e 0 99 23 00 2
        e 30 99 3f 64 1
        e 30 99 3f 00 2
        e 30 99 3d 64 1
        e 0 99 2a 64 1
        e 30 99 3d 00 2
        e 0 99 2a 00 2
        e 90 99 46 64 1
        e 0 99 2a 64 1
        e 0 99 3e 64 1
        e 0 99 25 64 1
        e 30 99 46 00 2
        e 0 99 2a 00 2
        e 0 99 3e 00 2
        e 0 99 25 00 2
        e 30 99 2a 64 1
        e 30 99 2a 00 2
        e 30 99 3f 64 1
        e 0 99 2e 64 1
        e 30 99 3f 00 3
        e 0 99 2e 00 2
        e 30 99 3d 64 1
        e 30 99 3d 00 2
        e 30 99 46 64 1
        e 0 99 31 64 1
        e 0 99 23 64 1
        e 0 99 2a 64 1
        e 30 99 46 00 2
        e 0 99 31 00 2
        e 0 99 23 00 2
        e 0 99 2a 00 2
        e 30 99 40 64 1
        e 30 99 40 00 2
        e 30 99 40 64 1
        e 0 99 2a 64 1
        e 30 99 40 00 2
        e 0 99 2a 00 2
        e 30 99 3d 64 1
        e 30 99 3d 00 2
        e 30 99 3f 64 1
        e 0 99 46 64 1
        e 0 99 25 64 1
        e 0 99 2a 64 1
        e 30 99 3f 00 2
        e 0 99 46 00 2
        e 0 99 25 00 2
        e 0 99 2a 00 2
        e 90 99 2a 64 1
        e 30 99 2a 00 2
        e 30 99 23 64 1
        e 0 99 3e 64 1
        e 30 99 23 00 2
        e 0 99 3e 00 2
        e 30 99 2a 64 1
        e 0 99 46 64 1
        e 0 99 23 64 1
        e 30 99 2a 00 2
        e 0 99 46 00 2
        e 0 99 23 00 2
        e 30 99 3f 64 1
        e 30 99 3f 00 2
        e 30 99 3d 64 1
        e 0 99 2a 64 1
        e 30 99 3d 00 2
        e 0 99 2a 00 2
        e 90 99 25 64 1
        e 0 99 3f 64 1
        e 0 99 46 64 1
        e 0 99 2a 64 1
        e 30 99 25 00 2
        e 0 99 3f 00 1
        e 0 99 46 00 2
        e 0 99 2a 00 2
        e 30 99 3d 64 1
        e 0 99 2a 64 1
        e 30 99 3d 00 2
        e 0 99 2a 00 2
        e 30 99 3e 64 1
        e 0 99 2a 64 1
        e 30 99 3e 00 2
        e 0 99 2a 00 2
        e 30 99 3d 64 1
        e 30 99 3d 00 3
        e 30 99 46 64 1
        e 0 99 23 64 1
        e 0 99 2a 64 1
        e 0 99 40 64 1
        e 30 99 46 00 2
        e 0 99 23 00 2
        e 0 99 2a 00 2
        e 0 99 40 00 2
        e 90 99 2a 64 1
        e 30 99 2a 00 2
        e 30 99 3d 64 1
        e 30 99 3d 00 2
        e 30 99 25 64 1
        e 0 99 3e 64 1
        e 0 99 46 64 1
        e 0 99 2a 64 1
        e 30 99 25 00 2
        e 0 99 3e 00 1
        e 0 99 46 00 2
        e 0 99 2a 00 2
        e 90 99 3f 64 1
        e 0 99 2a 64 1
        e 30 99 3f 00 2
        e 0 99 2a 00 2
        e 30 99 3d 64 1
        e 0 99 23 64 1
        e 30 99 3d 00 1
        e 0 99 23 00 2
        e 30 99 2a 64 1
        e 0 99 23 64 1
        e 0 99 46 64 1
        e 30 99 2a 00 2
        e 0 99 23 00 2
        e 0 99 46 00 2
        e 30 99 3f 64 1
        e 30 99 3f 00 2
        e 30 99 3f 64 1
        e 0 99 2a 64 1
        e 30 99 3f 00 2
        e 0 99 2a 00 2
        e 30 99 3d 64 1
        e 30 99 3d 00 2
        e 30 99 2a 64 1
        e 0 99 25 64 1
        e 0 99 3e 64 1
        e 0 99 46 64 1
        e 30 99 2a 00 2
        e 0 99 25 00 2
        e 0 99 3e 00 2
        e 0 99 46 00 2
        e 90 99 2a 64 1
        e 0 99 3f 64 1
        e 30 99 2a 00 2
        e 0 99 3f 00 2
        e 30 99 3f 64 1
        e 30 99 3f 00 2
        e 30 99 46 64 1
        e 0 99 40 64 1
        e 0 99 39 64 1
        e 0 99 2a 64 1
        e 0 99 23 64 1
        e 30 99 46 00 2
        e 0 99 40 00 3
        e 0 99 39 00 2
        e 0 99 2a 00 2
        e 0 99 23 00 2
        e 90 99 2a 64 1
        e 30 99 2a 00 2
        e 30 99 3f 64 1
        e 30 99 3f 00 2
        e 30 99 2a 64 1
        e 0 99 46 64 1
        e 0 99 25 64 1
        e 0 99 3e 64 1
        e 30 99 2a 00 2
        e 0 99 46 00 2
        e 0 99 25 00 2
        e 0 99 3e 00 2
        e 90 99 2a 64 1
        e 0 99 3f 64 1
        e 30 99 2a 00 2
        e 0 99 3f 00 2
        e 30 99 23 64 1
        e 0 99 3d 64 1
        e 30 99 23 00 2
        e 0 99 3d 00 2
        e 30 99 46 64 1
        e 0 99 23 64 1
        e 0 99 2a 64 1
        e 30 99 46 00 2
        e 0 99 23 00 2
        e 0 99 2a 00 2
        e 30 99 3d 64 1
        e 30 99 3d 00 2
        e 30 99 2a 64 1
        e 0 99 40 64 1
        e 30 99 2a 00 2
        e 0 99 40 00 2
        e 90 99 2a 64 1
        e 0 99 25 64 1
        e 0 99 46 64 1
        e 0 99 3e 64 1
        e 30 99 2a 00 2
        e 0 99 25 00 2
        e 0 99 46 00 2
        e 0 99 3e 00 2
        e 90 99 2a 64 1
        e 0 99 3f 64 1
        e 30 99 2a 00 2
        e 0 99 3f 00 2
        E 331 b0 7b 00
        CCINTERP 32
        CHASE_CC_TAKEOFFS 1
        GUID {3F215453-ADBD-450D-9EA8-F7D576F921C8}
        IGNTEMPO 0 120 4 4
        SRCCOLOR 624
        VELLANE 131 140 0
        CFGEDITVIEW -9385.563353 0.032242 59 12 0 -1 0 0 0 0.5
        KEYSNAP 0
        TRACKSEL 252
        EVTFILTER 0 -1 -1 -1 -1 0 0 0 0 -1 -1 -1 -1 0 -1 0 -1 -1
        CFGEDIT 1 1 0 1 0 0 1 1 1 1 1 0.125 80 123 1295 715 0 0 0 0 0 0 0 1 0 0.5 0 0 1 64
      >
    >
  >
  <TRACK {EC274334-4352-40B8-B3FF-9F2888ABDBF3}
    NAME "Electric Bass"
    PEAKCOL 16576
    BEAT -1
    AUTOMODE 0
    VOLPAN 1 0 -1 -1 1
    MUTESOLO 0 0 0
    IPHASE 0
    PLAYOFFS 0 1
    ISBUS 0 0
    BUSCOMP 0 0 0 0 0
    SHOWINMIX 1 0.6667 0.5 1 0.5 -1 -1 -1
    SEL 0
    REC 0 0 1 0 0 0 0 0
    VU 2
    TRACKHEIGHT 0 0 0 0 0 0
    INQ 0 0 0 0.5 100 0 0 100
    NCHAN 2
    FX 1
    TRACKID {EC274334-4352-40B8-B3FF-9F2888ABDBF3}
    PERF 0
    MIDIOUT -1
    MAINSEND 1 0
    <ITEM
      POSITION 0
      SNAPOFFS 0
      LENGTH 276
      LOOP 1
      ALLTAKES 0
      FADEIN 1 0 0 1 0 0 0
      FADEOUT 1 0 0 1 0 0 0
      MUTE 0 0
      SEL 0
      IGUID {3BD25CDB-4C5B-42B7-8D1B-A05387D88578}
      IID 44
      NAME ""
      VOLPAN 1 0 1 -1
      SOFFS 0 0
      PLAYRATE 1 1 0 -1 0 0.0025
      CHANMODE 0
      GUID {4B2C33C3-DEAF-4C58-BC59-4CFABAA66F9E}
      <SOURCE MIDI
        HASDATA 1 960 QN
        CCINTERP 32
        POOLEDEVTS {A15A44F2-12B9-4F84-B453-9DF2BFFC9A01}
        E 0 ca 21 00
        E 3840 9a 1d 79
        E 1560 9a 1d 00
        E 120 9a 1d 67
        E 120 9a 1d 00
        E 120 9a 1d 71
        E 720 9a 1d 00
        E 0 9a 18 62
        E 120 9a 18 00
        E 0 9a 1a 62
        E 120 9a 1a 00
        E 0 9a 1d 6d
        E 240 9a 1d 00
        E 0 9a 18 5f
        E 120 9a 18 00
        E 120 9a 1c 72
        E 120 9a 1c 00
        E 120 9a 1d 62
        E 240 9a 1d 00
        E 0 9a 1a 7c
        E 1680 9a 1a 00
        E 0 9a 20 63
        E 120 9a 20 00
        E 0 9a 21 65
        E 120 9a 21 00
        E 0 9a 26 74
        E 720 9a 26 00
        E 0 9a 21 62
        E 120 9a 21 00
        E 120 9a 26 7a
        E 240 9a 26 00
        E 0 9a 21 60
        E 120 9a 21 00
        E 120 9a 24 6b
        E 240 9a 24 00
        E 0 9a 26 63
        E 240 9a 26 00
        E 0 9a 1f 72
        E 1560 9a 1f 00
        E 120 9a 1f 66
        E 120 9a 1f 00
        E 120 9a 1f 7a
        E 1320 9a 1f 00
        E 120 9a 1d 65
        E 120 9a 1d 00
        E 120 9a 1f 61
        E 120 9a 1f 00
        E 120 9a 24 72
        E 1560 9a 24 00
        E 120 9a 24 64
        E 120 9a 24 00
        E 120 9a 24 74
        E 840 9a 24 00
        E 120 9a 1f 76
        E 120 9a 1f 00
        E 120 9a 21 60
        E 120 9a 21 00
        E 120 9a 24 64
        E 240 9a 24 00
        E 0 9a 1f 61
        E 240 9a 1f 00
        E 0 9a 1d 70
        E 1320 9a 1d 00
        E 360 9a 23 60
        E 120 9a 23 00
        E 0 9a 24 63
        E 120 9a 24 00
        E 0 9a 29 73
        E 600 9a 29 00
        E 120 9a 24 64
        E 120 9a 24 00
        E 120 9a 29 73
        E 240 9a 29 00
        E 0 9a 24 60
        E 120 9a 24 00
        E 120 9a 28 6b
        E 120 9a 28 00
        E 0 9a 29 64
        E 360 9a 29 00
        E 0 9a 26 79
        E 1440 9a 26 00
        E 240 9a 21 69
        E 120 9a 21 00
        E 120 9a 24 75
        E 240 9a 24 00
        E 0 9a 26 75
        E 120 9a 26 00
        E 120 9a 26 71
        E 120 9a 26 00
        E 120 9a 26 74
        E 480 9a 26 00
        E 0 9a 24 74
        E 240 9a 24 00
        E 0 9a 21 6d
        E 240 9a 21 00
        E 0 9a 1d 61
        E 240 9a 1d 00
        E 0 9a 1f 79
        E 1560 9a 1f 00
        E 120 9a 1f 63
        E 120 9a 1f 00
        E 120 9a 1f 77
        E 600 9a 1f 00
        E 120 9a 1a 70
        E 240 9a 1a 00
        E 0 9a 1d 60
        E 120 9a 1d 00
        E 120 9a 1f 73
        E 240 9a 1f 00
        E 0 9a 1d 5f
        E 240 9a 1d 00
        E 0 9a 1a 5f
        E 120 9a 1a 00
        E 120 9a 24 77
        E 1560 9a 24 00
        E 120 9a 24 63
        E 120 9a 24 00
        E 120 9a 24 74
        E 1680 9a 24 00
        E 0 9a 1f 72
        E 120 9a 1f 00
        E 120 9a 30 79
        E 1680 9a 30 00
        E 240 9a 1d 77
        E 1440 9a 1d 00
        E 0 9a 1c 69
        E 240 9a 1c 00
        E 0 9a 1d 5f
        E 120 9a 1d 00
        E 120 9a 21 71
        E 1080 9a 21 00
        E 120 9a 1c 6e
        E 120 9a 1c 00
        E 120 9a 1f 5f
        E 240 9a 1f 00
        E 0 9a 21 61
        E 240 9a 21 00
        E 0 9a 26 6f
        E 1560 9a 26 00
        E 120 9a 21 5d
        E 120 9a 21 00
        E 120 9a 26 7b
        E 240 9a 26 00
        E 0 9a 21 63
        E 120 9a 21 00
        E 120 9a 24 5e
        E 120 9a 24 00
        E 120 9a 26 71
        E 240 9a 26 00
        E 240 9a 26 77
        E 240 9a 26 00
        E 0 9a 24 61
        E 240 9a 24 00
        E 0 9a 21 64
        E 120 9a 21 00
        E 120 9a 1f 77
        E 1680 9a 1f 00
        E 0 9a 1a 61
        E 120 9a 1a 00
        E 120 9a 1f 76
        E 720 9a 1f 00
        E 0 9a 1a 63
        E 120 9a 1a 00
        E 120 9a 1f 71
        E 240 9a 1f 00
        E 0 9a 1a 61
        E 120 9a 1a 00
        E 120 9a 1d 6e
        E 240 9a 1d 00
        E 0 9a 1f 61
        E 240 9a 1f 00
        E 0 9a 1b 74
        E 1440 9a 1b 00
        E 240 9a 1b 63
        E 120 9a 1b 00
        E 120 9a 1b 75
        E 720 9a 1b 00
        E 240 9a 1b 76
        E 240 9a 1b 00
        E 0 9a 1a 64
        E 240 9a 1a 00
        E 0 9a 1b 5f
        E 240 9a 1b 00
        E 0 9a 1d 62
        E 240 9a 1d 00
        E 0 9a 1f 73
        E 1440 9a 1f 00
        E 0 9a 1e 6a
        E 240 9a 1e 00
        E 0 9a 1f 63
        E 240 9a 1f 00
        E 0 9a 22 78
        E 600 9a 22 00
        E 120 9a 22 77
        E 240 9a 22 00
        E 0 9a 1d 61
        E 240 9a 1d 00
        E 0 9a 1f 64
        E 120 9a 1f 00
        E 120 9a 22 72
        E 240 9a 22 00
        E 0 9a 1d 60
        E 120 9a 1d 00
        E 120 9a 24 73
        E 1560 9a 24 00
        E 120 9a 24 66
        E 120 9a 24 00
        E 120 9a 24 75
        E 1560 9a 24 00
        E 0 9a 2a 71
        E 120 9a 2a 00
        E 0 9a 2b 67
        E 120 9a 2b 00
        E 120 9a 30 72
        E 3240 9a 30 00
        E 600 9a 1d 75
        E 1320 9a 1d 00
        E 120 9a 1c 67
        E 240 9a 1c 00
        E 0 9a 1d 61
        E 120 9a 1d 00
        E 120 9a 21 6f
        E 1080 9a 21 00
        E 120 9a 1c 6d
        E 240 9a 1c 00
        E 0 9a 1f 61
        E 240 9a 1f 00
        E 0 9a 21 5f
        E 120 9a 21 00
        E 120 9a 26 6f
        E 1560 9a 26 00
        E 120 9a 21 6d
        E 240 9a 21 00
        E 0 9a 24 61
        E 120 9a 24 00
        E 120 9a 26 67
        E 120 9a 26 00
        E 360 9a 26 66
        E 480 9a 26 00
        E 0 9a 24 6c
        E 240 9a 24 00
        E 0 9a 21 65
        E 240 9a 21 00
        E 0 9a 1d 61
        E 120 9a 1d 00
        E 120 9a 1f 77
        E 1560 9a 1f 00
        E 120 9a 1f 60
        E 120 9a 1f 00
        E 120 9a 1f 76
        E 720 9a 1f 00
        E 0 9a 1a 63
        E 240 9a 1a 00
        E 0 9a 1f 75
        E 240 9a 1f 00
        E 0 9a 1a 60
        E 120 9a 1a 00
        E 120 9a 1d 6b
        E 240 9a 1d 00
        E 0 9a 1f 63
        E 240 9a 1f 00
        E 0 9a 1b 79
        E 1440 9a 1b 00
        E 240 9a 1b 6a
        E 120 9a 1b 00
        E 120 9a 1b 77
        E 720 9a 1b 00
        E 240 9a 1b 75
        E 240 9a 1b 00
        E 0 9a 1a 62
        E 240 9a 1a 00
        E 0 9a 1b 5c
        E 240 9a 1b 00
        E 0 9a 1d 62
        E 240 9a 1d 00
        E 0 9a 1f 73
        E 1440 9a 1f 00
        E 0 9a 1e 68
        E 240 9a 1e 00
        E 0 9a 1f 62
        E 240 9a 1f 00
        E 0 9a 22 77
        E 960 9a 22 00
        E 240 9a 1d 6e
        E 240 9a 1d 00
        E 0 9a 1f 61
        E 120 9a 1f 00
        E 120 9a 22 60
        E 120 9a 22 00
        E 120 9a 24 6e
        E 1560 9a 24 00
        E 120 9a 24 5f
        E 120 9a 24 00
        E 120 9a 24 6a
        E 600 9a 24 00
        E 120 9a 1f 63
        E 120 9a 1f 00
        E 120 9a 21 65
        E 240 9a 21 00
        E 0 9a 24 65
        E 240 9a 24 00
        E 0 9a 21 65
        E 240 9a 21 00
        E 0 9a 1f 6b
        E 120 9a 1f 00
        E 120 9a 1d 79
        E 1200 9a 1d 00
        E 480 9a 23 66
        E 120 9a 23 00
        E 0 9a 24 63
        E 120 9a 24 00
        E 0 9a 29 73
        E 600 9a 29 00
        E 120 9a 24 63
        E 120 9a 24 00
        E 120 9a 29 6e
        E 120 9a 29 00
        E 120 9a 28 7a
        E 600 9a 28 00
        E 120 9a 26 7c
        E 1560 9a 26 00
        E 120 9a 21 65
        E 120 9a 21 00
        E 120 9a 26 6d
        E 240 9a 26 00
        E 0 9a 21 60
        E 120 9a 21 00
        E 120 9a 24 62
        E 120 9a 24 00
        E 120 9a 26 71
        E 360 9a 26 00
        E 120 9a 24 6f
        E 240 9a 24 00
        E 0 9a 21 60
        E 240 9a 21 00
        E 0 9a 1d 60
        E 120 9a 1d 00
        E 120 9a 1f 71
        E 1560 9a 1f 00
        E 120 9a 1f 65
        E 120 9a 1f 00
        E 120 9a 1f 72
        E 600 9a 1f 00
        E 120 9a 1f 74
        E 240 9a 1f 00
        E 0 9a 1a 63
        E 240 9a 1a 00
        E 0 9a 1d 61
        E 240 9a 1d 00
        E 0 9a 1f 6a
        E 120 9a 1f 00
        E 120 9a 1d 5d
        E 120 9a 1d 00
        E 120 9a 22 73
        E 1320 9a 22 00
        E 120 9a 21 63
        E 240 9a 21 00
        E 0 9a 22 65
        E 120 9a 22 00
        E 120 9a 24 73
        E 1080 9a 24 00
        E 120 9a 1f 6a
        E 240 9a 1f 00
        E 0 9a 21 61
        E 120 9a 21 00
        E 120 9a 24 6a
        E 120 9a 24 00
        E 120 9a 24 78
        E 840 9a 24 00
        E 120 9a 30 77
        E 240 9a 30 00
        E 0 9a 32 77
        E 240 9a 32 00
        E 0 9a 30 77
        E 240 9a 30 00
        E 240 9a 1d 7c
        E 1560 9a 1d 00
        E 120 9a 1d 65
        E 120 9a 1d 00
        E 120 9a 1d 74
        E 480 9a 1d 00
        E 240 9a 23 64
        E 120 9a 23 00
        E 0 9a 24 63
        E 120 9a 24 00
        E 0 9a 29 6f
        E 120 9a 29 00
        E 120 9a 28 78
        E 480 9a 28 00
        E 0 9a 29 61
        E 240 9a 29 00
        E 0 9a 26 7b
        E 1560 9a 26 00
        E 120 9a 21 61
        E 120 9a 21 00
        E 120 9a 26 77
        E 240 9a 26 00
        E 0 9a 21 5c
        E 120 9a 21 00
        E 120 9a 24 63
        E 120 9a 24 00
        E 120 9a 26 70
        E 240 9a 26 00
        E 240 9a 26 79
        E 240 9a 26 00
        E 0 9a 24 5f
        E 240 9a 24 00
        E 0 9a 21 61
        E 120 9a 21 00
        E 120 9a 1f 72
        E 1560 9a 1f 00
        E 120 9a 1f 67
        E 120 9a 1f 00
        E 120 9a 1f 79
        E 480 9a 1f 00
        E 240 9a 1f 78
        E 240 9a 1f 00
        E 0 9a 1a 60
        E 240 9a 1a 00
        E 0 9a 1d 61
        E 240 9a 1d 00
        E 0 9a 1f 6d
        E 240 9a 1f 00
        E 0 9a 1d 60
        E 120 9a 1d 00
        E 120 9a 22 7b
        E 960 9a 22 00
        E 240 9a 1d 72
        E 240 9a 1d 00
        E 0 9a 21 5f
        E 120 9a 21 00
        E 120 9a 22 5f
        E 120 9a 22 00
        E 120 9a 24 6b
        E 1560 9a 24 00
        E 120 9a 24 67
        E 120 9a 24 00
        E 120 9a 24 71
        E 1440 9a 24 00
        E 0 9a 1f 6b
        E 240 9a 1f 00
        E 0 9a 24 65
        E 120 9a 24 00
        E 120 9a 24 71
        E 4800 8a 24 00
        E 960 9a 1d 77
        E 1440 9a 1d 00
        E 0 9a 1c 69
        E 240 9a 1c 00
        E 0 9a 1d 5f
        E 120 9a 1d 00
        E 120 9a 21 71
        E 1080 9a 21 00
        E 120 9a 1c 6e
        E 120 9a 1c 00
        E 120 9a 1f 5f
        E 120 9a 21 61
        E 120 9a 1f 00
        E 120 9a 21 00
        E 120 9a 26 6f
        E 1560 9a 26 00
        E 120 9a 21 5d
        E 120 9a 21 00
        E 120 9a 26 7b
        E 240 9a 26 00
        E 0 9a 21 63
        E 120 9a 21 00
        E 120 9a 24 5e
        E 120 9a 24 00
        E 120 9a 26 71
        E 240 9a 26 00
        E 240 9a 26 77
        E 240 9a 26 00
        E 0 9a 24 61
        E 240 9a 24 00
        E 0 9a 21 64
        E 120 9a 21 00
        E 120 9a 1f 77
        E 1680 9a 1f 00
        E 0 9a 1a 61
        E 120 9a 1a 00
        E 120 9a 1f 76
        E 720 9a 1f 00
        E 0 9a 1a 63
        E 120 9a 1a 00
        E 120 9a 1f 71
        E 240 9a 1f 00
        E 0 9a 1a 61
        E 120 9a 1a 00
        E 120 9a 1d 6e
        E 240 9a 1d 00
        E 0 9a 1f 61
        E 240 9a 1f 00
        E 0 9a 1b 74
        E 1440 9a 1b 00
        E 240 9a 1b 63
        E 120 9a 1b 00
        E 120 9a 1b 75
        E 720 9a 1b 00
        E 240 9a 1b 76
        E 240 9a 1b 00
        E 0 9a 1a 64
        E 240 9a 1a 00
        E 0 9a 1b 5f
        E 240 9a 1b 00
        E 0 9a 1d 62
        E 240 9a 1d 00
        E 0 9a 1f 73
        E 1440 9a 1f 00
        E 0 9a 1e 6a
        E 240 9a 1e 00
        E 0 9a 1f 63
        E 240 9a 1f 00
        E 0 9a 22 78
        E 600 9a 22 00
        E 120 9a 22 77
        E 240 9a 22 00
        E 0 9a 1d 61
        E 240 9a 1d 00
        E 0 9a 1f 64
        E 120 9a 1f 00
        E 120 9a 22 72
        E 240 9a 22 00
        E 0 9a 1d 60
        E 120 9a 1d 00
        E 120 9a 24 73
        E 1560 9a 24 00
        E 120 9a 24 66
        E 120 9a 24 00
        E 120 9a 24 75
        E 1560 9a 24 00
        E 0 9a 2a 71
        E 120 9a 2b 67
        E 120 9a 2a 00
        E 0 9a 2b 00
        E 120 9a 30 72
        E 3240 9a 30 00
        E 600 9a 1d 75
        E 1320 9a 1d 00
        E 120 9a 1c 67
        E 240 9a 1c 00
        E 0 9a 1d 61
        E 120 9a 1d 00
        E 120 9a 21 6f
        E 1080 9a 21 00
        E 120 9a 1c 6d
        E 240 9a 1c 00
        E 0 9a 1f 61
        E 240 9a 1f 00
        E 0 9a 21 5f
        E 120 9a 21 00
        E 120 9a 26 6f
        E 1560 9a 26 00
        E 120 9a 21 6d
        E 240 9a 21 00
        E 0 9a 24 61
        E 120 9a 24 00
        E 120 9a 26 67
        E 120 9a 26 00
        E 360 9a 24 6f
        E 0 9a 26 66
        E 120 9a 24 00
        E 360 9a 26 00
        E 0 9a 24 6c
        E 240 9a 24 00
        E 0 9a 21 65
        E 240 9a 21 00
        E 0 9a 1d 61
        E 120 9a 1d 00
        E 120 9a 1f 77
        E 1560 9a 1f 00
        E 120 9a 1f 60
        E 120 9a 1f 00
        E 120 9a 1f 76
        E 720 9a 1f 00
        E 0 9a 1a 63
        E 240 9a 1a 00
        E 0 9a 1f 75
        E 240 9a 1f 00
        E 0 9a 1a 60
        E 120 9a 1a 00
        E 120 9a 1d 6b
        E 240 9a 1d 00
        E 0 9a 1f 63
        E 240 9a 1f 00
        E 0 9a 1b 79
        E 1440 9a 1b 00
        E 240 9a 1b 6a
        E 120 9a 1b 00
        E 120 9a 1b 77
        E 720 9a 1b 00
        E 240 9a 1b 75
        E 240 9a 1b 00
        E 0 9a 1a 62
        E 240 9a 1a 00
        E 0 9a 1b 5c
        E 240 9a 1b 00
        E 0 9a 1d 62
        E 240 9a 1d 00
        E 0 9a 1f 73
        E 1440 9a 1f 00
        E 0 9a 1e 68
        E 240 9a 1e 00
        E 0 9a 1f 62
        E 240 9a 1f 00
        E 0 9a 22 77
        E 960 9a 22 00
        E 240 9a 1d 6e
        E 240 9a 1f 61
        E 120 9a 1d 00
        E 0 9a 1f 00
        E 120 9a 22 60
        E 120 9a 22 00
        E 120 9a 24 6e
        E 1560 9a 24 00
        E 120 9a 24 5f
        E 120 9a 24 00
        E 120 9a 24 6a
        E 600 9a 24 00
        E 120 9a 1f 63
        E 120 9a 1f 00
        E 120 9a 21 65
        E 240 9a 21 00
        E 0 9a 24 65
        E 240 9a 24 00
        E 0 9a 21 65
        E 240 9a 21 00
        E 0 9a 1f 6b
        E 120 9a 1f 00
        E 120 9a 1d 79
        E 1200 9a 1d 00
        E 480 9a 23 66
        E 0 9a 24 63
        E 120 9a 23 00
        E 120 9a 24 00
        E 0 9a 29 73
        E 600 9a 29 00
        E 120 9a 24 63
        E 120 9a 24 00
        E 120 9a 29 6e
        E 120 9a 29 00
        E 120 9a 28 7a
        E 600 9a 28 00
        E 120 9a 26 7c
        E 1560 9a 26 00
        E 120 9a 21 65
        E 120 9a 21 00
        E 120 9a 26 6d
        E 240 9a 26 00
        E 0 9a 21 60
        E 120 9a 21 00
        E 120 9a 24 62
        E 120 9a 24 00
        E 120 9a 26 71
        E 360 9a 26 00
        E 120 9a 24 6f
        E 240 9a 24 00
        E 0 9a 21 60
        E 240 9a 21 00
        E 0 9a 1d 60
        E 120 9a 1d 00
        E 120 9a 1f 71
        E 1560 9a 1f 00
        E 120 9a 1f 65
        E 120 9a 1f 00
        E 120 9a 1f 72
        E 600 9a 1f 00
        E 120 9a 1f 74
        E 240 9a 1f 00
        E 0 9a 1a 63
        E 240 9a 1a 00
        E 0 9a 1d 61
        E 240 9a 1d 00
        E 0 9a 1f 6a
        E 120 9a 1f 00
        E 120 9a 1d 5d
        E 120 9a 1d 00
        E 120 9a 22 73
        E 1320 9a 22 00
        E 120 9a 21 63
        E 120 9a 21 00
        E 0 9a 22 65
        E 240 9a 22 00
        E 120 9a 24 73
        E 1080 9a 24 00
        E 120 9a 1f 6a
        E 240 9a 1f 00
        E 0 9a 21 61
        E 120 9a 21 00
        E 120 9a 24 6a
        E 120 9a 24 00
        E 120 9a 24 78
        E 840 9a 24 00
        E 120 9a 30 77
        E 240 9a 30 00
        E 0 9a 32 77
        E 240 9a 32 00
        E 0 9a 30 77
        E 240 9a 30 00
        E 240 9a 1d 7c
        E 1560 9a 1d 00
        E 120 9a 1d 65
        E 120 9a 1d 00
        E 120 9a 1d 74
        E 480 9a 1d 00
        E 240 9a 23 64
        E 120 9a 23 00
        E 0 9a 24 63
        E 120 9a 24 00
        E 0 9a 29 6f
        E 120 9a 29 00
        E 120 9a 28 78
        E 480 9a 28 00
        E 0 9a 29 61
        E 240 9a 29 00
        E 0 9a 26 7b
        E 1560 9a 26 00
        E 120 9a 21 61
        E 120 9a 21 00
        E 120 9a 26 77
        E 240 9a 26 00
        E 0 9a 21 5c
        E 120 9a 21 00
        E 120 9a 24 63
        E 120 9a 24 00
        E 120 9a 26 70
        E 240 9a 26 00
        E 240 9a 26 79
        E 240 9a 26 00
        E 0 9a 24 5f
        E 240 9a 24 00
        E 0 9a 21 61
        E 120 9a 21 00
        E 120 9a 1f 72
        E 1560 9a 1f 00
        E 120 9a 1f 67
        E 120 9a 1f 00
        E 120 9a 1f 79
        E 480 9a 1f 00
        E 240 9a 1f 78
        E 240 9a 1f 00
        E 0 9a 1a 60
        E 240 9a 1a 00
        E 0 9a 1d 61
        E 240 9a 1d 00
        E 0 9a 1f 6d
        E 240 9a 1f 00
        E 0 9a 1d 60
        E 120 9a 1d 00
        E 120 9a 22 7b
        E 960 9a 22 00
        E 240 9a 1d 72
        E 240 9a 1d 00
        E 0 9a 21 5f
        E 120 9a 21 00
        E 120 9a 22 5f
        E 120 9a 22 00
        E 120 9a 24 6b
        E 1560 9a 24 00
        E 120 9a 24 67
        E 120 9a 24 00
        E 120 9a 24 71
        E 1440 9a 24 00
        E 0 9a 1f 6b
        E 240 9a 1f 00
        E 0 9a 24 65
        E 120 9a 24 00
        E 120 9a 1d 79
        E 1680 9a 1d 00
        E 0 9a 18 62
        E 120 9a 18 00
        E 0 9a 1c 62
        E 120 9a 1c 00
        E 0 9a 1d 71
        E 840 9a 1d 00
        E 120 9a 1c 74
        E 600 9a 1c 00
        E 120 9a 1d 61
        E 0 9a 1c 63
        E 120 9a 1d 00
        E 120 9a 1c 00
        E 0 9a 1a 71
        E 1560 9a 1a 00
        E 120 9a 20 60
        E 120 9a 20 00
        E 0 9a 21 63
        E 120 9a 21 00
        E 0 9a 26 71
        E 480 9a 26 00
        E 240 9a 26 75
        E 240 9a 26 00
        E 0 9a 21 5d
        E 240 9a 21 00
        E 0 9a 24 61
        E 120 9a 24 00
        E 120 9a 26 6a
        E 240 9a 26 00
        E 0 9a 21 69
        E 120 9a 21 00
        E 120 9a 1f 73
        E 1560 9a 1f 00
        E 120 9a 1f 63
        E 120 9a 1f 00
        E 120 9a 1f 71
        E 840 9a 1f 00
        E 120 9a 21 7b
        E 600 9a 21 00
        E 120 9a 1f 61
        E 120 9a 1f 00
        E 0 9a 21 62
        E 120 9a 21 00
        E 0 9a 22 77
        E 1560 9a 22 00
        E 120 9a 22 62
        E 120 9a 22 00
        E 120 9a 24 6e
        E 960 9a 24 00
        E 240 9a 1f 76
        E 240 9a 1f 00
        E 0 9a 22 5f
        E 240 9a 22 00
        E 0 9a 24 65
        E 240 9a 24 00
        E 0 9a 18 75
        E 1080 9a 18 00
        E 120 9a 18 74
        E 120 9a 18 00
        E 120 9a 24 73
        E 120 9a 24 00
        E 0 9a 26 73
        E 120 9a 26 00
        E 0 9a 24 73
        E 120 9a 24 00
        E 1080 9a 1d 79
        E 480 9a 1d 00
        E 1440 9a 1c 7d
        E 480 9a 1c 00
        E 1440 9a 1a 7d
        E 360 9a 1a 00
        E 1560 9a 26 7d
        E 360 9a 26 00
        E 1560 9a 1f 7c
        E 240 9a 1f 00
        E 1680 9a 1f 7d
        E 240 9a 1f 00
        E 1680 9a 22 78
        E 240 9a 22 00
        E 1680 9a 24 71
        E 240 9a 24 00
        E 1440 9a 18 63
        E 240 9a 18 00
        E 0 9a 24 62
        E 120 9a 24 00
        E 120 9a 24 6c
        E 240 9a 24 00
        E 0 9a 18 70
        E 240 9a 18 00
        E 1200 9a 1d 7b
        E 360 9a 1d 00
        E 1560 9a 28 79
        E 480 9a 28 00
        E 1440 9a 26 76
        E 240 9a 26 00
        E 1440 9a 20 67
        E 240 9a 20 00
        E 0 9a 21 66
        E 240 9a 21 00
        E 0 9a 26 63
        E 120 9a 26 00
        E 120 9a 21 6d
        E 240 9a 21 00
        E 1200 9a 1f 7a
        E 360 9a 1f 00
        E 1560 9a 1f 76
        E 240 9a 1f 00
        E 1680 9a 22 77
        E 480 9a 22 00
        E 1440 9a 24 7b
        E 360 9a 24 00
        E 840 9a 24 72
        E 240 9a 24 00
        E 0 9a 18 5e
        E 120 9a 18 00
        E 120 9a 18 64
        E 120 9a 18 00
        E 120 9a 24 73
        E 120 9a 24 00
        E 120 9a 24 6d
        E 120 9a 24 00
        E 120 9a 18 74
        E 120 9a 18 00
        E 360 9a 1d 77
        E 1560 9a 1d 00
        E 120 9a 1d 64
        E 120 9a 1d 00
        E 120 9a 29 71
        E 720 9a 29 00
        E 0 9a 24 63
        E 120 9a 24 00
        E 120 9a 29 6e
        E 120 9a 29 00
        E 120 9a 28 7c
        E 600 9a 28 00
        E 120 9a 26 7b
        E 1560 9a 26 00
        E 120 9a 20 65
        E 240 9a 20 00
        E 0 9a 21 63
        E 240 9a 21 00
        E 0 9a 26 67
        E 240 9a 26 00
        E 0 9a 21 64
        E 120 9a 21 00
        E 120 9a 1f 6e
        E 240 9a 1f 00
        E 0 9a 1d 72
        E 240 9a 1d 00
        E 0 9a 1a 61
        E 120 9a 1a 00
        E 120 9a 1d 67
        E 120 9a 1d 00
        E 360 9a 1f 7a
        E 1560 9a 1f 00
        E 120 9a 1a 65
        E 120 9a 1a 00
        E 120 9a 1f 77
        E 240 9a 1f 00
        E 0 9a 1a 61
        E 120 9a 1a 00
        E 120 9a 1d 61
        E 120 9a 1d 00
        E 120 9a 1f 77
        E 240 9a 1f 00
        E 240 9a 1f 7a
        E 240 9a 1f 00
        E 0 9a 1d 63
        E 120 9a 1d 00
        E 120 9a 1a 63
        E 120 9a 1a 00
        E 120 9a 22 7c
        E 1440 9a 22 00
        E 0 9a 21 5e
        E 120 9a 21 00
        E 120 9a 22 68
        E 120 9a 22 00
        E 120 9a 24 72
        E 960 9a 24 00
        E 240 9a 1e 69
        E 120 9a 1e 00
        E 0 9a 1f 63
        E 120 9a 1f 00
        E 0 9a 24 6b
        E 240 9a 24 00
        E 0 9a 1f 63
        E 240 9a 1f 00
        E 0 9a 18 73
        E 480 9a 18 00
        E 120 9a 18 6e
        E 240 9a 18 00
        E 120 9a 24 72
        E 120 9a 24 00
        E 120 9a 24 6e
        E 240 9a 24 00
        E 0 9a 18 72
        E 120 9a 18 00
        E 360 9a 1d 79
        E 1200 9a 1d 00
        E 480 9a 23 61
        E 120 9a 23 00
        E 0 9a 24 62
        E 120 9a 24 00
        E 0 9a 29 74
        E 480 9a 29 00
        E 240 9a 24 61
        E 240 9a 24 00
        E 0 9a 29 65
        E 120 9a 29 00
        E 120 9a 28 75
        E 480 9a 28 00
        E 0 9a 29 63
        E 120 9a 29 00
        E 120 9a 26 7c
        E 1440 9a 26 00
        E 240 9a 21 6c
        E 120 9a 21 00
        E 120 9a 29 69
        E 240 9a 29 00
        E 0 9a 21 60
        E 240 9a 21 00
        E 0 9a 28 70
        E 240 9a 21 5b
        E 120 9a 28 00
        E 0 9a 21 00
        E 120 9a 26 72
        E 240 9a 26 00
        E 0 9a 24 64
        E 240 9a 24 00
        E 0 9a 21 64
        E 240 9a 21 00
        E 0 9a 1d 5f
        E 120 9a 1d 00
        E 120 9a 1f 77
        E 1680 9a 1f 00
        E 0 9a 1d 61
        E 120 9a 1d 00
        E 120 9a 1f 6e
        E 240 9a 1f 00
        E 0 9a 1d 5e
        E 120 9a 1d 00
        E 120 9a 1f 75
        E 600 9a 1f 00
        E 120 9a 21 74
        E 360 9a 21 00
        E 120 9a 1f 61
        E 120 9a 1f 00
        E 120 9a 22 78
        E 1080 9a 22 00
        E 120 9a 21 6c
        E 240 9a 21 00
        E 0 9a 22 62
        E 240 9a 22 00
        E 0 9a 21 5e
        E 120 9a 21 00
        E 120 9a 24 77
        E 1080 9a 24 00
        E 120 9a 1f 6d
        E 240 9a 1f 00
        E 0 9a 21 5f
        E 240 9a 21 00
        E 0 9a 24 63
        E 240 9a 24 00
        E 0 9a 18 71
        E 1560 9a 18 00
        E 120 9a 1e 67
        E 120 9a 1e 00
        E 0 9a 1f 65
        E 120 9a 1f 00
        E 0 9a 24 6c
        E 1920 9a 24 00
        E 0 9a 30 73
        E 240 9a 30 00
        E 0 9a 32 73
        E 720 9a 32 00
        E 0 9a 30 73
        E 600 9a 30 00
        E 360 9a 1d 79
        E 3720 9a 1d 00
        E 3960 b0 7b 00
        CCINTERP 32
        CHASE_CC_TAKEOFFS 1
        GUID {4D5C495A-310C-444E-B011-C84D159FF2B0}
        IGNTEMPO 0 120 4 4
        SRCCOLOR 612
        VELLANE 129 140 0
        CFGEDITVIEW 105780.001568 0.102748 77 12 0 -1 0 0 0 0.5
        KEYSNAP 0
        TRACKSEL 252
        EVTFILTER 0 -1 -1 -1 -1 0 0 0 0 -1 -1 -1 -1 0 -1 0 -1 -1
        CFGEDIT 1 1 0 1 0 0 1 1 1 1 1 0.125 64 107 1295 715 0 0 0 0 0 0 0 1 0 0.5 0 0 1 64
      >
    >
    <ITEM
      POSITION 276
      SNAPOFFS 0
      LENGTH 229.7143240000002
      LOOP 0
      ALLTAKES 0
      FADEIN 1 0 0 1 0 0 0
      FADEOUT 1 0 0 1 0 0 0
      MUTE 0 0
      SEL 0
      IGUID {15CF4CEF-7058-4261-8837-9F9F64A9E250}
      IID 17
      NAME ""
      VOLPAN 1 0 1 -1
      SOFFS 0 0
      PLAYRATE 1 1 0 -1 0 0.0025
      CHANMODE 0
      GUID {1280CA75-7CC3-430E-9EC1-99E9CD96DA5A}
      <SOURCE MIDI
        HASDATA 1 960 QN
        CCINTERP 32
        POOLEDEVTS {CD82611F-FD5B-4C96-B8B7-159A8EA25E54}
        e 0 ca 21 00
        e 3840 9a 1d 68
        e 3840 8a 1d 00
        e 0 9a 29 69
        e 3840 8a 29 00
        e 0 9a 1d 67
        e 3840 8a 1d 00
        e 0 9a 22 63
        e 3840 8a 22 00
        e 0 9a 1d 64
        e 3840 8a 1d 00
        e 0 9a 24 63
        e 3840 8a 24 00
        e 30720 9a 1d 76
        e 3835 8a 1d 00
        e 5 9a 21 68
        e 1915 8a 21 00
        e 5 9a 2d 6e
        e 1915 8a 2d 00
        e 5 9a 22 6f
        e 2875 8a 22 00
        e 5 9a 21 67
        e 955 8a 21 00
        e 5 9a 1f 6e
        e 3835 8a 1f 00
        e 5 9a 1a 68
        e 1675 8a 1a 00
        e 5 9a 1a 6d
        e 235 8a 1a 00
        e 5 9a 18 70
        e 1915 8a 18 00
        e 5 9a 22 6e
        e 2875 8a 22 00
        e 5 9a 21 6b
        e 955 8a 21 00
        e 5 9a 1f 6e
        e 1915 8a 1f 00
        e 5 9a 2b 70
        e 955 8a 2b 00
        e 5 9a 1f 73
        e 955 8a 1f 00
        e 5 9a 24 6c
        e 1915 8a 24 00
        e 5 9a 18 6b
        e 1915 8a 18 00
        e 5 9a 1d 77
        e 1915 8a 1d 00
        e 5 9a 24 70
        e 955 8a 24 00
        e 5 9a 18 69
        e 235 8a 18 00
        e 5 9a 24 72
        e 235 8a 24 00
        e 5 9a 18 71
        e 475 8a 18 00
        e 5 9a 1d 6a
        e 1675 8a 1d 00
        e 5 9a 1d 69
        e 235 8a 1d 00
        e 5 9a 1d 6b
        e 955 8a 1d 00
        e 5 9a 1c 77
        e 955 8a 1c 00
        e 5 9a 1a 75
        e 1435 8a 1a 00
        e 5 9a 1a 65
        e 235 8a 1a 00
        e 5 9a 1a 6d
        e 235 8a 1a 00
        e 5 9a 1a 62
        e 715 8a 1a 00
        e 5 9a 21 75
        e 235 8a 21 00
        e 5 9a 26 72
        e 475 8a 26 00
        e 5 9a 24 72
        e 235 8a 24 00
        e 5 9a 26 76
        e 235 8a 26 00
        e 5 9a 1f 73
        e 1675 8a 1f 00
        e 5 9a 1a 68
        e 235 8a 1a 00
        e 5 9a 1f 69
        e 955 8a 1f 00
        e 5 9a 21 72
        e 955 8a 21 00
        e 5 9a 22 72
        e 1435 8a 22 00
        e 5 9a 22 6b
        e 475 8a 22 00
        e 5 9a 24 71
        e 955 8a 24 00
        e 5 9a 18 6e
        e 715 8a 18 00
        e 5 9a 24 6d
        e 235 8a 24 00
        e 5 9a 1d 68
        e 1675 8a 1d 00
        e 5 9a 1d 6d
        e 235 8a 1d 00
        e 5 9a 1d 6d
        e 955 8a 1d 00
        e 5 9a 1c 6e
        e 475 8a 1c 00
        e 5 9a 1f 6e
        e 235 8a 1f 00
        e 5 9a 21 72
        e 235 8a 21 00
        e 5 9a 1a 6f
        e 1195 8a 1a 00
        e 5 9a 21 73
        e 235 8a 21 00
        e 5 9a 24 72
        e 235 8a 24 00
        e 5 9a 21 79
        e 235 8a 21 00
        e 5 9a 26 73
        e 235 8a 26 00
        e 5 9a 26 6a
        e 235 8a 26 00
        e 5 9a 21 69
        e 235 8a 21 00
        e 5 9a 26 66
        e 235 8a 26 00
        e 5 9a 1a 6b
        e 475 8a 1a 00
        e 5 9a 21 6b
        e 235 8a 21 00
        e 5 9a 1a 6e
        e 235 8a 1a 00
        e 5 9a 1f 70
        e 1675 8a 1f 00
        e 5 9a 1e 71
        e 235 8a 1e 00
        e 5 9a 1f 6d
        e 955 8a 1f 00
        e 5 9a 21 73
        e 955 8a 21 00
        e 5 9a 22 6b
        e 1195 8a 22 00
        e 5 9a 1f 6c
        e 235 8a 1f 00
        e 5 9a 22 70
        e 235 8a 22 00
        e 5 9a 1d 72
        e 235 8a 1d 00
        e 5 9a 24 6e
        e 955 8a 24 00
        e 5 9a 18 73
        e 955 8a 18 00
        e 5 9a 1d 6b
        e 955 8a 1d 00
        e 5 9a 1e 69
        e 235 8a 1e 00
        e 5 9a 1f 6f
        e 235 8a 1f 00
        e 5 9a 21 78
        e 235 8a 21 00
        e 5 9a 26 6e
        e 235 8a 26 00
        e 5 9a 24 6c
        e 715 8a 24 00
        e 5 9a 24 72
        e 235 8a 24 00
        e 5 9a 18 6a
        e 715 8a 18 00
        e 5 9a 1f 6a
        e 235 8a 1f 00
        e 5 9a 1d 6d
        e 475 8a 1d 00
        e 4325 9a 1a 72
        e 2875 8a 1a 00
        e 965 9a 1f 6c
        e 1915 8a 1f 00
        e 5 9a 21 6d
        e 955 8a 21 00
        e 5 9a 22 70
        e 475 8a 22 00
        e 1445 9a 24 6f
        e 955 8a 24 00
        e 5 9a 18 72
        e 955 8a 18 00
        e 965 9a 1d 6e
        e 2875 8a 1d 00
        e 965 9a 1a 6d
        e 2875 8a 1a 00
        e 965 9a 1f 75
        e 1915 8a 1f 00
        e 5 9a 21 68
        e 955 8a 21 00
        e 5 9a 22 68
        e 475 8a 22 00
        e 1445 9a 24 70
        e 955 8a 24 00
        e 5 9a 18 6e
        e 955 8a 18 00
        e 5 9a 1d 71
        e 1195 8a 1d 00
        e 5 9a 1d 6b
        e 235 8a 1d 00
        e 5 9a 1f 6c
        e 235 8a 1f 00
        e 5 9a 24 75
        e 235 8a 24 00
        e 5 9a 18 6d
        e 1435 8a 18 00
        e 5 9a 1a 69
        e 475 8a 1a 00
        e 5 9a 1d 74
        e 1195 8a 1d 00
        e 485 9a 1d 77
        e 235 8a 1d 00
        e 5 9a 1d 69
        e 955 8a 1d 00
        e 5 9a 1c 70
        e 955 8a 1c 00
        e 5 9a 1a 73
        e 1195 8a 1a 00
        e 5 9a 26 6f
        e 235 8a 26 00
        e 5 9a 21 6f
        e 235 8a 21 00
        e 5 9a 24 6b
        e 235 8a 24 00
        e 5 9a 26 6e
        e 235 8a 26 00
        e 245 9a 1a 75
        e 475 8a 1a 00
        e 5 9a 21 6c
        e 475 8a 21 00
        e 5 9a 26 7d
        e 475 8a 26 00
        e 5 9a 1f 69
        e 1435 8a 1f 00
        e 245 9a 1f 69
        e 235 8a 1f 00
        e 5 9a 1f 6e
        e 955 8a 1f 00
        e 5 9a 21 6d
        e 955 8a 21 00
        e 5 9a 22 75
        e 1435 8a 22 00
        e 5 9a 22 6c
        e 235 8a 22 00
        e 5 9a 23 70
        e 235 8a 23 00
        e 5 9a 24 71
        e 955 8a 24 00
        e 5 9a 18 6f
        e 715 8a 18 00
        e 5 9a 24 71
        e 235 8a 24 00
        e 5 9a 1d 6e
        e 1195 8a 1d 00
        e 5 9a 26 6e
        e 235 8a 26 00
        e 5 9a 24 72
        e 235 8a 24 00
        e 5 9a 1f 73
        e 235 8a 1f 00
        e 5 9a 1d 6e
        e 715 8a 1d 00
        e 5 9a 24 6a
        e 235 8a 24 00
        e 5 9a 1c 6d
        e 955 8a 1c 00
        e 5 9a 1a 69
        e 1675 8a 1a 00
        e 5 9a 1a 6c
        e 235 8a 1a 00
        e 5 9a 1a 6e
        e 715 8a 1a 00
        e 5 9a 21 6d
        e 235 8a 21 00
        e 5 9a 26 6d
        e 475 8a 26 00
        e 5 9a 21 73
        e 235 8a 21 00
        e 5 9a 1a 6b
        e 235 8a 1a 00
        e 5 9a 1f 72
        e 1435 8a 1f 00
        e 5 9a 21 6f
        e 475 8a 21 00
        e 5 9a 1f 71
        e 955 8a 1f 00
        e 5 9a 21 6d
        e 955 8a 21 00
        e 5 9a 22 6e
        e 1195 8a 22 00
        e 5 9a 1d 71
        e 235 8a 1d 00
        e 5 9a 22 70
        e 475 8a 22 00
        e 5 9a 24 6c
        e 955 8a 24 00
        e 5 9a 18 6e
        e 955 8a 18 00
        e 5 9a 1d 72
        e 1195 8a 1d 00
        e 5 9a 1f 67
        e 235 8a 1f 00
        e 5 9a 21 6e
        e 235 8a 21 00
        e 5 9a 26 6d
        e 235 8a 26 00
        e 5 9a 24 6e
        e 715 8a 24 00
        e 5 9a 24 6b
        e 235 8a 24 00
        e 5 9a 1f 6a
        e 235 8a 1f 00
        e 5 9a 21 67
        e 235 8a 21 00
        e 5 9a 24 78
        e 475 8a 24 00
        e 5 9a 1d 6e
        e 475 8a 1d 00
        e 4325 9a 1a 69
        e 2875 8a 1a 00
        e 965 9a 1f 6f
        e 1915 8a 1f 00
        e 5 9a 21 72
        e 955 8a 21 00
        e 5 9a 22 6c
        e 475 8a 22 00
        e 1445 9a 24 67
        e 955 8a 24 00
        e 5 9a 18 75
        e 955 8a 18 00
        e 965 9a 1d 77
        e 2875 8a 1d 00
        e 965 9a 1a 6f
        e 2875 8a 1a 00
        e 965 9a 1f 6e
        e 1915 8a 1f 00
        e 5 9a 21 6e
        e 955 8a 21 00
        e 5 9a 22 73
        e 475 8a 22 00
        e 1445 9a 24 6c
        e 955 8a 24 00
        e 5 9a 18 6e
        e 955 8a 18 00
        e 5 9a 1d 68
        e 1195 8a 1d 00
        e 5 9a 1f 6e
        e 235 8a 1f 00
        e 5 9a 21 71
        e 235 8a 21 00
        e 5 9a 26 6f
        e 235 8a 26 00
        e 5 9a 24 6e
        e 1195 8a 24 00
        e 5 9a 26 6a
        e 235 8a 26 00
        e 5 9a 1f 6c
        e 235 8a 1f 00
        e 5 9a 21 6e
        e 235 8a 21 00
        e 5 9a 1d 71
        e 1915 8a 1d 00
        e 5 9a 1d 6f
        e 475 8a 1d 00
        e 5 9a 1f 6f
        e 235 8a 1f 00
        e 5 9a 20 70
        e 235 8a 20 00
        e 5 9a 21 6a
        e 955 8a 21 00
        e 5 9a 22 75
        e 1675 8a 22 00
        e 5 9a 22 6c
        e 235 8a 22 00
        e 5 9a 24 6b
        e 1675 8a 24 00
        e 5 9a 21 6e
        e 235 8a 21 00
        e 5 9a 26 77
        e 235 8a 26 00
        e 5 9a 26 70
        e 235 8a 26 00
        e 5 9a 24 6d
        e 235 8a 24 00
        e 5 9a 26 75
        e 235 8a 26 00
        e 5 9a 26 74
        e 235 8a 26 00
        e 5 9a 28 6e
        e 235 8a 28 00
        e 5 9a 21 71
        e 475 8a 21 00
        e 5 9a 1a 6f
        e 715 8a 1a 00
        e 5 9a 1a 66
        e 235 8a 1a 00
        e 5 9a 21 70
        e 715 8a 21 00
        e 5 9a 20 72
        e 235 8a 20 00
        e 5 9a 22 6e
        e 1435 8a 22 00
        e 5 9a 2c 6e
        e 235 8a 2c 00
        e 5 9a 22 6b
        e 235 8a 22 00
        e 5 9a 24 6e
        e 1435 8a 24 00
        e 5 9a 2d 6f
        e 475 8a 2d 00
        e 5 9a 2e 6e
        e 475 8a 2e 00
        e 5 9a 2b 68
        e 235 8a 2b 00
        e 5 9a 29 6d
        e 475 8a 29 00
        e 5 9a 28 6a
        e 235 8a 28 00
        e 5 9a 22 68
        e 715 8a 22 00
        e 5 9a 29 6e
        e 715 8a 29 00
        e 5 9a 29 6d
        e 955 8a 29 00
        e 5 9a 1d 6e
        e 7675 8a 1d 00
        E 5 b0 7b 00
        CCINTERP 32
        CHASE_CC_TAKEOFFS 1
        GUID {2D9D6983-5293-4345-9881-D93492DD4132}
        IGNTEMPO 0 120 4 4
        SRCCOLOR 584
        VELLANE -1 140 0
        CFGEDITVIEW -314880 0.000534 73 12 0 -1 0 0 0 0.5
        KEYSNAP 0
        TRACKSEL 252
        EVTFILTER 0 -1 -1 -1 -1 0 0 0 0 -1 -1 -1 -1 0 -1 0 -1 -1
        CFGEDIT 1 1 0 1 0 0 1 1 1 1 1 0.125 48 91 1295 715 0 0 0 0 0 0 0 1 0 0.5 0 0 1 64
      >
    >
    <ITEM
      POSITION 505.71432400000026
      SNAPOFFS 0
      LENGTH 17.64705882352916
      LOOP 0
      ALLTAKES 0
      FADEIN 1 0 0 1 0 0 0
      FADEOUT 1 0 0 1 0 0 0
      MUTE 0 0
      SEL 0
      IGUID {9E380736-4D1D-4B5E-96FE-EED3E0DACF59}
      IID 54
      NAME ""
      VOLPAN 1 0 1 -1
      SOFFS 0 0
      PLAYRATE 1 1 0 -1 0 0.0025
      CHANMODE 0
      GUID {0E6B1074-FF06-453F-8AE4-A90B3AC74369}
      <SOURCE MIDI
        HASDATA 1 240 QN
        CCINTERP 32
        POOLEDEVTS {CB2A9168-1FDE-4C4D-933B-D50DC8EBB6F3}
        e 0 ba 00 79
        e 0 ba 20 00
        e 0 ca 21 00
        e 960 9a 21 72 12
        <x 1 0
          /yEBAA==
        >
        e 749 9a 21 00 -15
        e 90 9a 23 7a
        e 120 9a 23 00 -4
        e 0 9a 1c 70 3
        e 840 9a 1c 00 -1
        e 120 9a 26 67 1
        e 720 9a 26 00 -1
        e 120 9a 2a 6d -3
        e 120 9a 2a 00 -8
        e 0 9a 28 6f 4
        e 750 9a 28 00 7
        E 210 b0 7b 00
        CCINTERP 32
        CHASE_CC_TAKEOFFS 1
        GUID {27F1AA6A-B251-4653-BFEB-2C28BD55EE68}
        IGNTEMPO 0 120 4 4
        SRCCOLOR 621
        VELLANE 131 140 0
        CFGEDITVIEW -14787.227663 0.030606 87 12 0 -1 0 0 0 0.5
        KEYSNAP 0
        TRACKSEL 252
        EVTFILTER 0 -1 -1 -1 -1 0 0 0 0 -1 -1 -1 -1 0 -1 0 -1 -1
        CFGEDIT 1 1 0 1 0 0 1 1 1 1 1 0.125 80 123 1295 715 0 0 0 0 0 0 0 1 0 0.5 0 0 1 64
      >
    >
    <ITEM
      POSITION 526.89079458823528
      SNAPOFFS 0
      LENGTH 145.59191176470608
      LOOP 0
      ALLTAKES 0
      FADEIN 1 0 0 1 0 0 0
      FADEOUT 1 0 0 1 0 0 0
      MUTE 0 0
      SEL 0
      IGUID {3B8E53A5-975A-4DAD-93A4-D39A21104460}
      IID 54
      NAME ""
      VOLPAN 1 0 1 -1
      SOFFS 0 0
      PLAYRATE 1 1 0 -1 0 0.0025
      CHANMODE 0
      GUID {E6458125-CEE6-4751-8C83-24CEE74FBE62}
      <SOURCE MIDI
        HASDATA 1 240 QN
        CCINTERP 32
        POOLEDEVTS {CBF6429E-DC84-4606-8228-EF31790F2A43}
        e 0 9a 21 7c 1
        e 240 9a 21 00 8
        e 180 9a 21 6e 6
        e 30 9a 21 00 -3
        e 30 9a 21 72 -3
        e 30 9a 21 00 3
        e 90 9a 21 7f -3
        e 150 9a 21 00 3
        e 90 9a 21 6f -2
        e 120 9a 21 00 -6
        e 0 9a 1a 7c 4
        e 270 9a 1a 00 -9
        e 150 9a 21 72 -6
        e 30 9a 21 00 -12
        e 30 9a 26 6c -6
        e 480 9a 26 00 5
        e 0 9a 1c 7d 1
        e 30 9a 1c 00 -2
        e 90 9a 1c 75 -8
        e 180 9a 1c 00 14
        e 120 9a 23 73 1
        e 30 9a 23 00 -6
        e 30 9a 28 7b -1
        e 360 9a 28 00 -13
        e 120 9a 21 76 1
        e 30 9a 21 00 -5
        e 90 9a 21 7e -1
        e 270 9a 21 00 -13
        e 30 9a 1c 71 14
        e 30 9a 1c 00 9
        e 30 9a 21 69 4
        e 180 9a 21 00 -5
        e 60 9a 20 6d
        e 240 9a 20 00 -2
        e 0 9a 1e 70 8
        e 30 9a 1e 00 6
        e 90 9a 1e 69 1
        e 120 9a 1e 00 12
        e 180 9a 25 71 -7
        e 30 9a 25 00 -7
        e 30 9a 2a 77 -9
        e 360 9a 2a 00 2
        e 120 9a 25 7a 1
        e 30 9a 25 00 -13
        e 90 9a 25 72 -8
        e 270 9a 25 00 6
        e 30 9a 20 75 -8
        e 30 9a 20 00 -14
        e 30 9a 25 73 -11
        e 30 9a 25 00 -24
        e 90 9a 25 7f -8
        e 270 9a 25 00 1
        e 90 9a 23 78 4
        e 30 9a 23 00 -1
        e 90 9a 23 77 2
        e 270 9a 23 00 3
        e 30 9a 1e 72 12
        e 30 9a 1e 00 6
        e 30 9a 23 73 -3
        e 30 9a 23 00 -11
        e 90 9a 23 6d -2
        e 360 9a 23 00 4
        e 0 9a 1c 73 2
        e 30 9a 1c 00 -4
        e 90 9a 1c 66 -9
        e 270 9a 1c 00 -12
        e 30 9a 23 70 2
        e 30 9a 23 00 -7
        e 30 9a 28 73 -1
        e 30 9a 28 00 -5
        e 90 9a 28 77 -1
        e 240 9a 28 00 -2
        e 120 9a 21 71 2
        e 30 9a 21 00 -7
        e 90 9a 21 77 1
        e 270 9a 21 00 5
        e 30 9a 1c 72 -3
        e 30 9a 1c 00 -10
        e 30 9a 21 77 -11
        e 30 9a 21 00 -26
        e 90 9a 21 72 -6
        e 240 9a 21 00 9
        e 120 9a 23 75 1
        e 30 9a 23 00 -16
        e 90 9a 23 76 -2
        e 240 9a 23 00 -14
        e 0 9a 23 76 4
        e 600 9a 23 00 -7
        e 0 9a 1c 76 1
        e 30 9a 1c 00 -4
        e 90 9a 1c 67 2
        e 240 9a 1c 00 -8
        e 60 9a 23 69 5
        e 30 9a 23 00 -2
        e 30 9a 28 68 2
        e 30 9a 28 00 -4
        e 90 9a 28 77 -13
        e 240 9a 28 00 -12
        e 120 9a 21 77 1
        e 30 9a 21 00 -12
        e 90 9a 21 6f -7
        e 300 9a 21 00 -14
        e 0 9a 1c 78 4
        e 30 9a 1c 00 1
        e 30 9a 21 75 -12
        e 30 9a 21 00 -23
        e 90 9a 21 72 -8
        e 300 9a 21 00 2
        e 60 9a 23 78 6
        e 30 9a 23 00
        e 90 9a 23 78 10
        e 240 9a 23 00 -8
        e 0 9a 1c 74 -4
        e 240 9a 1c 00 -9
        e 0 9a 28 74
        e 270 9a 28 00
        e 90 9a 25 6c 1
        e 30 9a 25 00 -3
        e 90 9a 25 68 1
        e 90 9a 25 00 -3
        e 30 9a 25 6c 6
        e 60 9a 25 00 -14
        e 60 9a 2a 6c
        e 150 9a 2a 00 -15
        e 30 9a 25 71 6
        e 30 9a 25 00 -9
        e 30 9a 21 74 -6
        e 30 9a 21 00 -19
        e 90 9a 1e 78 -3
        e 180 9a 1e 00 -9
        e 60 9a 23 74 1
        e 30 9a 23 00 -12
        e 90 9a 23 7d -6
        e 240 9a 23 00 -7
        e 60 9a 23 75 1
        e 30 9a 23 00 -9
        e 30 9a 1c 76 -9
        e 90 9a 1c 00 4
        e 30 9a 28 7f -14
        e 300 9a 28 00 -14
        e 60 9a 21 78 1
        e 30 9a 21 00 -8
        e 90 9a 21 72 2
        e 270 9a 21 00 -14
        e 60 9a 21 72 11
        e 30 9a 21 00 -8
        e 30 9a 26 6e -9
        e 30 9a 26 00 -23
        e 90 9a 28 7f -14
        e 300 9a 28 00 11
        e 30 9a 21 70 3
        e 300 9a 21 00 11
        e 60 9a 21 70 -3
        e 30 9a 21 00 -10
        e 30 9a 23 72 -7
        e 30 9a 23 00 -16
        e 30 9a 25 75 -8
        e 330 9a 25 00 -14
        e 30 9a 23 72 -2
        e 30 9a 23 00 -7
        e 30 9a 25 6b -2
        e 30 9a 25 00 -12
        e 30 9a 26 74 1
        e 480 9a 26 00 3
        e 0 9a 1c 6f 5
        e 150 9a 1c 00 10
        e 30 9a 28 6b -13
        e 300 9a 28 00 -6
        e 0 9a 21 68 2
        e 30 9a 21 00
        e 90 9a 21 72 -2
        e 150 9a 21 00 4
        e 150 9a 21 73 13
        e 30 9a 21 00 5
        e 30 9a 26 68 4
        e 30 9a 26 00 -12
        e 90 9a 28 68 8
        e 120 9a 28 00 -4
        e 0 9a 1c 73 6
        e 60 9a 1c 00 -15
        e 60 9a 21 77 4
        e 390 9a 21 00 -1
        e 60 9a 1f 78 14
        e 420 9a 1f 00 -13
        e 30 9a 21 72 10
        e 180 9a 21 00 -9
        e 0 9a 1a 76 1
        e 30 9a 1a 00 -8
        e 90 9a 1a 73 -9
        e 270 9a 1a 00 -5
        e 90 9a 1c 76 2
        e 30 9a 1c 00 -4
        e 90 9a 1c 75 -5
        e 240 9a 1c 00 -5
        e 120 9a 1c 6e 1
        e 30 9a 1c 00 -12
        e 90 9a 1e 6e -6
        e 120 9a 1e 00 7
        e 120 9a 1e 6f -3
        e 510 9a 1e 00 3
        e 90 9a 1a 6e 10
        e 270 9a 1a 00 10
        e 90 9a 21 6e -14
        e 30 9a 21 00 10
        e 210 9a 21 76 -7
        e 300 9a 21 00 -15
        e 60 9a 1a 73 2
        e 270 9a 1a 00 -9
        e 60 9a 1e 6d 12
        e 30 9a 1e 00 7
        e 210 9a 1e 6f -15
        e 30 9a 1e 00 -29
        e 0 9a 1e 70 5
        e 30 9a 1e 00 -5
        e 90 9a 25 71 5
        e 210 9a 25 00 11
        e 30 9a 23 7d 4
        e 30 9a 23 00 -5
        e 90 9a 23 7a 1
        e 240 9a 23 00 -3
        e 60 9a 23 6e 3
        e 30 9a 23 00 -9
        e 30 9a 1c 6d -4
        e 30 9a 1c 00 -5
        e 90 9a 28 72 -1
        e 270 9a 28 00 -3
        e 90 9a 21 73 1
        e 720 9a 21 00 6
        e 240 9a 21 71 1
        e 30 9a 21 00 -9
        e 90 9a 21 72 -1
        e 210 9a 21 00
        e 30 9a 21 6c -2
        e 30 9a 21 00 -5
        e 30 9a 23 63 -5
        e 30 9a 23 00 -14
        e 30 9a 25 71 -4
        e 420 9a 25 00 5
        e 60 9a 26 76 4
        e 360 9a 26 00 10
        e 60 9a 26 6e -1
        e 30 9a 26 00 -13
        e 30 9a 28 7e 1
        e 240 9a 28 00
        e 0 9a 1c 6f 8
        e 210 9a 1c 00 -15
        e 30 9a 21 77 10
        e 30 9a 21 00 2
        e 90 9a 21 6d 1
        e 240 9a 21 00 -2
        e 60 9a 21 7a 10
        e 30 9a 21 00 -3
        e 30 9a 1a 72 3
        e 30 9a 1a 00 12
        e 90 9a 1c 70 -4
        e 270 9a 1c 00 -11
        e 90 9a 21 72 1
        e 300 9a 21 00 -2
        e 60 9a 1f 72
        e 360 9a 1f 00 12
        e 60 9a 21 68
        e 30 9a 21 00 -4
        e 90 9a 21 78 -4
        e 30 9a 21 00 -15
        e 30 9a 1a 78 1
        e 300 9a 1a 00 -13
        e 120 9a 1a 67 10
        e 30 9a 1a 00 3
        e 30 9a 1c 72 10
        e 360 9a 1c 00 -12
        e 120 9a 1c 6e 1
        e 30 9a 1c 00 -13
        e 90 9a 1e 6f 1
        e 120 9a 1e 00 -1
        e 120 9a 1e 74 7
        e 570 9a 1e 00 -8
        e 60 9a 1a 77 -5
        e 240 9a 1a 00 4
        e 90 9a 21 71 -13
        e 360 9a 21 00 10
        e 120 9a 21 7a -12
        e 30 9a 21 00 9
        e 90 9a 1a 78 1
        e 240 9a 1a 00 12
        e 120 9a 1e 72 -14
        e 180 9a 1e 00 5
        e 0 9a 21 70 -3
        e 30 9a 21 00 -21
        e 0 9a 25 71 14
        e 30 9a 25 00 -4
        e 120 9a 2a 72 -14
        e 240 9a 2a 00 -1
        e 0 9a 23 6c 3
        e 30 9a 23 00 -3
        e 90 9a 23 6e -2
        e 120 9a 23 00 10
        e 180 9a 23 79 2
        e 30 9a 23 00 -15
        e 30 9a 1c 73 -3
        e 0 9a 1a 78 -2
        e 30 9a 1c 00 -3
        e 0 9a 1a 00 -15
        e 90 9a 28 74 -2
        e 360 9a 28 00 -11
        e 0 9a 21 7a 1
        e 30 9a 21 00 -3
        e 90 9a 21 74 -7
        e 270 9a 21 00 -11
        e 60 9a 21 6c -13
        e 30 9a 21 00 -22
        e 0 9a 26 6d 7
        e 30 9a 26 00 -10
        e 90 9a 28 73 9
        e 330 9a 28 00 1
        e 30 9a 26 75 1
        e 90 9a 26 00 7
        e 30 9a 23 6d 1
        e 90 9a 23 00 7
        e 210 9a 23 6e
        e 30 9a 23 00 -8
        e 30 9a 1c 78 -4
        e 0 9a 1a 7d -3
        e 30 9a 1a 00 -21
        e 60 9a 1c 00 13
        e 30 9a 28 72 -10
        e 360 9a 28 00 6
        e 0 9a 21 74 1
        e 330 9a 21 00 12
        e 30 9a 20 7e -7
        e 120 9a 20 00 7
        e 0 9a 1e 78 -5
        e 270 9a 1e 00 -2
        e 90 9a 1e 79 -11
        e 30 9a 1e 00 -12
        e 90 9a 23 78 1
        e 360 9a 23 00
        e 60 9a 23 72 -1
        e 30 9a 23 00 -16
        e 30 9a 1c 75 -6
        e 90 9a 1c 00 10
        e 30 9a 28 76 -3
        e 360 9a 28 00 8
        e 0 9a 21 77 1
        e 390 9a 21 00 -8
        e 30 9a 21 7c 8
        e 30 9a 21 00 3
        e 30 9a 26 64 -1
        e 30 9a 26 00 -15
        e 90 9a 28 6d 5
        e 360 9a 28 00 11
        e 0 9a 21 70 2
        e 1050 9a 21 00 -12
        E 151 b0 7b 00
        CCINTERP 32
        CHASE_CC_TAKEOFFS 1
        GUID {41F87DD0-1F04-40B3-897A-46EE0AA6870F}
        IGNTEMPO 0 120 4 4
        SRCCOLOR 625
        VELLANE 131 140 0
        CFGEDITVIEW -2338.314421 0.170753 87 12 0 -1 0 0 0 0.5
        KEYSNAP 0
        TRACKSEL 252
        EVTFILTER 0 -1 -1 -1 -1 0 0 0 0 -1 -1 -1 -1 0 -1 0 -1 -1
        CFGEDIT 1 1 0 1 0 0 1 1 1 1 1 0.125 80 123 1295 715 0 0 0 0 0 0 0 1 0 0.5 0 0 1 64
      >
    >
  >
  <TRACK {DBEB41BE-0A2A-4EB0-8828-D0D21A9D3240}
    NAME String
    PEAKCOL 16576
    BEAT -1
    AUTOMODE 0
    VOLPAN 1 0 -1 -1 1
    MUTESOLO 0 0 0
    IPHASE 0
    PLAYOFFS 0 1
    ISBUS 0 0
    BUSCOMP 0 0 0 0 0
    SHOWINMIX 1 0.6667 0.5 1 0.5 -1 -1 -1
    SEL 0
    REC 0 0 1 0 0 0 0 0
    VU 2
    TRACKHEIGHT 0 0 0 0 0 0
    INQ 0 0 0 0.5 100 0 0 100
    NCHAN 2
    MIDIBANKPROGFN "C:\Users\Samuel\AppData\Roaming\REAPER\Data\GM.reabank"
    FX 1
    TRACKID {DBEB41BE-0A2A-4EB0-8828-D0D21A9D3240}
    PERF 0
    MIDIOUT -1
    MAINSEND 1 0
    <ITEM
      POSITION 0
      SNAPOFFS 0
      LENGTH 276
      LOOP 1
      ALLTAKES 0
      FADEIN 1 0 0 1 0 0 0
      FADEOUT 1 0 0 1 0 0 0
      MUTE 0 0
      SEL 0
      IGUID {2677FBCC-7184-42BB-95D9-2E3EA4F205C2}
      IID 45
      NAME ""
      VOLPAN 1 0 1 -1
      SOFFS 0 0
      PLAYRATE 1 1 0 -1 0 0.0025
      CHANMODE 0
      GUID {5C0C035F-BC06-4A5C-A466-5A5D7D629569}
      <SOURCE MIDI
        HASDATA 1 960 QN
        CCINTERP 32
        POOLEDEVTS {5D87EDAC-22DF-4830-BB5C-493A46D5541A}
        E 0 cb 31 00
        E 3840 9b 48 7f
        E 2760 9b 48 00
        E 0 9b 49 74
        E 120 9b 49 00
        E 0 9b 4a 72
        E 480 9b 4a 00
        E 0 9b 45 67
        E 120 9b 45 00
        E 120 9b 48 7b
        E 720 9b 48 00
        E 0 9b 4a 67
        E 240 9b 4a 00
        E 0 9b 45 7b
        E 1200 9b 45 00
        E 720 9b 41 64
        E 120 9b 41 00
        E 0 9b 40 69
        E 120 9b 40 00
        E 0 9b 3e 6e
        E 240 9b 3e 00
        E 0 9b 40 6d
        E 240 9b 40 00
        E 0 9b 41 68
        E 240 9b 41 00
        E 0 9b 43 67
        E 240 9b 43 00
        E 0 9b 44 6c
        E 120 9b 44 00
        E 0 9b 45 6b
        E 1320 9b 45 00
        E 0 9b 48 69
        E 240 9b 48 00
        E 0 9b 43 7a
        E 1440 9b 43 00
        E 480 9b 41 68
        E 240 9b 41 00
        E 0 9b 44 7a
        E 120 9b 44 00
        E 0 9b 45 75
        E 1080 9b 45 00
        E 0 9b 48 6a
        E 360 9b 48 00
        E 0 9b 4a 6d
        E 240 9b 4a 00
        E 0 9b 44 69
        E 120 9b 44 00
        E 0 9b 45 71
        E 360 9b 45 00
        E 0 9b 43 7f
        E 1080 9b 43 00
        E 480 9b 48 7e
        E 2760 9b 48 00
        E 0 9b 49 79
        E 120 9b 49 00
        E 0 9b 4a 7c
        E 360 9b 4a 00
        E 0 9b 45 65
        E 240 9b 45 00
        E 120 9b 48 78
        E 600 9b 48 00
        E 120 9b 4a 78
        E 120 9b 4a 00
        E 360 9b 44 70
        E 120 9b 44 00
        E 0 9b 43 69
        E 120 9b 43 00
        E 0 9b 41 67
        E 120 9b 41 00
        E 120 9b 43 77
        E 240 9b 43 00
        E 0 9b 41 73
        E 720 9b 41 00
        E 240 9b 41 66
        E 120 9b 41 00
        E 0 9b 40 6a
        E 120 9b 40 00
        E 0 9b 3e 6a
        E 240 9b 3e 00
        E 0 9b 40 70
        E 240 9b 40 00
        E 0 9b 41 68
        E 240 9b 41 00
        E 0 9b 43 66
        E 240 9b 43 00
        E 0 9b 44 6b
        E 120 9b 44 00
        E 0 9b 45 71
        E 1080 9b 48 6d
        E 120 9b 45 00
        E 240 9b 48 00
        E 0 9b 47 69
        E 120 9b 47 00
        E 0 9b 48 6a
        E 240 9b 48 00
        E 0 9b 43 73
        E 1320 9b 43 00
        E 120 9b 41 76
        E 480 9b 41 00
        E 0 9b 44 69
        E 120 9b 44 00
        E 0 9b 45 71
        E 1080 9b 45 00
        E 0 9b 48 73
        E 480 9b 48 00
        E 0 9b 46 6b
        E 120 9b 46 00
        E 0 9b 45 6d
        E 120 9b 45 00
        E 0 9b 44 7f
        E 1680 9b 44 00
        E 67440 9b 4f 37
        E 1440 9b 4f 00
        E 15840 9b 4f 37
        E 1800 9b 4f 00
        E 6960 9b 45 5c
        E 840 9b 45 00
        E 0 9b 43 5d
        E 960 9b 43 00
        E 0 9b 41 51
        E 840 9b 41 00
        E 120 9b 3e 5b
        E 1920 9b 3e 00
        E 0 9b 4a 5a
        E 960 9b 4a 00
        E 0 9b 48 5e
        E 840 9b 48 00
        E 120 9b 46 5f
        E 1920 9b 46 00
        E 480 9b 46 51
        E 480 9b 46 00
        E 0 9b 45 58
        E 480 9b 45 00
        E 0 9b 46 5a
        E 2400 9b 46 00
        E 960 9b 45 5d
        E 480 9b 45 00
        E 0 9b 43 53
        E 480 9b 46 5f
        E 120 9b 43 00
        E 3720 9b 46 00
        E 0 9b 48 59
        E 3720 9b 48 00
        E 3960 9b 51 5f
        E 3360 9b 51 00
        E 0 9b 4f 53
        E 240 9b 4f 00
        E 0 9b 4d 51
        E 240 9b 4d 00
        E 0 9b 4a 5d
        E 960 9b 4a 00
        E 0 9b 4c 5c
        E 960 9b 4c 00
        E 0 9b 4d 62
        E 1560 9b 4d 00
        E 360 9b 46 5f
        E 3360 9b 46 00
        E 0 9b 45 53
        E 480 9b 46 60
        E 120 9b 45 00
        E 1320 9b 46 00
        E 0 9b 48 5a
        E 480 9b 48 00
        E 0 9b 4a 5c
        E 960 9b 4a 00
        E 0 9b 46 61
        E 480 9b 46 00
        E 0 9b 45 5e
        E 480 9b 45 00
        E 0 9b 43 5f
        E 1920 9b 43 00
        E 0 9b 41 5d
        E 1680 9b 41 00
        E 240 9b 41 5b
        E 1680 9b 41 00
        E 0 9b 43 4d
        E 120 9b 41 4d
        E 120 9b 43 00
        E 0 9b 41 00
        E 0 9b 40 58
        E 1200 9b 40 00
        E 240 9b 48 50
        E 120 9b 48 00
        E 0 9b 4a 50
        E 0 9b 4d 4c
        E 0 9b 4c 4e
        E 120 9b 4a 00
        E 0 9b 4f 4d
        E 120 9b 4d 00
        E 0 9b 4c 00
        E 0 9b 4f 00
        E 0 9b 51 50
        E 0 9b 52 50
        E 120 9b 51 00
        E 0 9b 52 00
        E 0 9b 54 5f
        E 2400 9b 54 00
        E 0 9b 59 55
        E 480 9b 59 00
        E 0 9b 58 5d
        E 480 9b 58 00
        E 0 9b 54 5c
        E 480 9b 54 00
        E 0 9b 51 60
        E 960 9b 51 00
        E 480 9b 4f 59
        E 480 9b 4d 5b
        E 120 9b 4f 00
        E 360 9b 4d 00
        E 0 9b 4c 53
        E 480 9b 4c 00
        E 0 9b 4a 51
        E 480 9b 4a 00
        E 0 9b 48 59
        E 480 9b 48 00
        E 0 9b 46 5c
        E 3840 9b 46 00
        E 0 9b 41 5f
        E 1560 9b 41 00
        E 0 9b 40 49
        E 240 9b 40 00
        E 0 9b 41 4b
        E 120 9b 41 00
        E 0 9b 43 58
        E 1920 9b 43 00
        E 0 9b 3c 5a
        E 1680 9b 3c 00
        E 115440 b0 7b 00
        CCINTERP 32
        CHASE_CC_TAKEOFFS 1
        GUID {9596FD0E-1863-453B-8AAA-C385081377F6}
        IGNTEMPO 0 120 4 4
        SRCCOLOR 614
        VELLANE 129 140 0
      >
    >
    <ITEM
      POSITION 276.00000000000011
      SNAPOFFS 0
      LENGTH 229.71432400000015
      LOOP 0
      ALLTAKES 0
      FADEIN 1 0 0 1 0 0 0
      FADEOUT 1 0 0 1 0 0 0
      MUTE 0 0
      SEL 0
      IGUID {A4E734C0-1A8D-4804-A56E-1395C9BDEF8F}
      IID 18
      NAME ""
      VOLPAN 1 0 1 -1
      SOFFS 0 0
      PLAYRATE 1 1 0 -1 0 0.0025
      CHANMODE 0
      GUID {48B84A05-E30E-4068-933A-A319A6E4D429}
      <SOURCE MIDI
        HASDATA 1 960 QN
        CCINTERP 32
        POOLEDEVTS {7F07C0B5-8652-46BA-929C-CCD8AE35D81D}
        E 0 cb 31 00
        E 3840 9b 3c 4c
        E 0 9b 48 4b
        E 1920 9b 3c 00
        E 0 9b 48 00
        E 0 9b 39 4b
        E 0 9b 45 4c
        E 480 9b 45 00
        E 0 9b 3c 4f
        E 0 9b 48 4e
        E 480 9b 39 00
        E 0 9b 3c 00
        E 0 9b 48 00
        E 0 9b 41 4f
        E 0 9b 4d 50
        E 480 9b 41 00
        E 0 9b 4d 00
        E 0 9b 45 50
        E 0 9b 39 4f
        E 480 9b 45 00
        E 0 9b 39 00
        E 0 9b 3a 55
        E 0 9b 46 4c
        E 960 9b 3a 00
        E 0 9b 46 00
        E 0 9b 49 4f
        E 0 9b 3d 4f
        E 960 9b 49 00
        E 0 9b 3d 00
        E 0 9b 43 4f
        E 0 9b 4f 4e
        E 960 9b 43 00
        E 0 9b 4f 00
        E 0 9b 4d 54
        E 0 9b 41 4e
        E 960 9b 4d 00
        E 0 9b 41 00
        E 0 9b 3c 4e
        E 0 9b 48 4e
        E 1920 9b 3c 00
        E 0 9b 48 00
        E 0 9b 39 4e
        E 0 9b 45 4e
        E 480 9b 39 00
        E 0 9b 45 00
        E 0 9b 48 4e
        E 0 9b 3c 4e
        E 480 9b 48 00
        E 0 9b 3c 00
        E 0 9b 41 50
        E 0 9b 4d 57
        E 480 9b 41 00
        E 0 9b 4d 00
        E 0 9b 45 51
        E 0 9b 39 51
        E 480 9b 45 00
        E 0 9b 39 00
        E 0 9b 46 4c
        E 0 9b 3a 55
        E 960 9b 46 00
        E 0 9b 3a 00
        E 0 9b 49 55
        E 0 9b 3d 51
        E 960 9b 49 00
        E 0 9b 3d 00
        E 0 9b 43 50
        E 0 9b 4f 4f
        E 960 9b 43 00
        E 0 9b 4f 00
        E 0 9b 4d 4f
        E 0 9b 41 4f
        E 960 9b 4d 00
        E 0 9b 41 00
        E 0 9b 45 4c
        E 0 9b 51 4f
        E 1440 9b 45 00
        E 0 9b 51 00
        E 0 9b 4f 4f
        E 0 9b 43 4f
        E 480 9b 4f 00
        E 0 9b 43 00
        E 0 9b 4d 5e
        E 0 9b 41 4f
        E 480 9b 4d 00
        E 0 9b 41 00
        E 0 9b 48 4e
        E 0 9b 3c 4e
        E 480 9b 48 00
        E 0 9b 3c 00
        E 0 9b 39 51
        E 0 9b 45 4f
        E 480 9b 39 00
        E 0 9b 45 00
        E 0 9b 35 51
        E 0 9b 41 4f
        E 480 9b 41 00
        E 0 9b 41 4c
        E 2880 9b 35 00
        E 480 9b 41 00
        E 31200 9b 41 46
        E 0 9b 45 2a
        E 3840 9b 41 00
        E 0 9b 43 3e
        E 0 9b 48 46
        E 3840 9b 45 00
        E 0 9b 43 00
        E 0 9b 48 00
        E 0 9b 41 46
        E 0 9b 4a 43
        E 0 9b 46 3e
        E 2880 9b 46 00
        E 0 9b 45 48
        E 960 9b 41 00
        E 0 9b 45 00
        E 0 9b 43 4b
        E 0 9b 46 46
        E 480 9b 4a 00
        E 3360 9b 43 00
        E 0 9b 46 00
        E 0 9b 3e 4c
        E 0 9b 45 46
        E 0 9b 41 46
        E 1920 9b 3e 00
        E 0 9b 3c 4e
        E 1920 9b 45 00
        E 0 9b 3c 00
        E 0 9b 3e 4b
        E 0 9b 3a 3e
        E 2880 9b 3a 00
        E 0 9b 39 4e
        E 960 9b 41 00
        E 0 9b 3e 00
        E 0 9b 39 00
        E 0 9b 37 4b
        E 0 9b 3a 46
        E 0 9b 3e 4b
        E 1920 9b 3a 00
        E 0 9b 3b 4e
        E 0 9b 41 47
        E 1920 9b 3e 00
        E 0 9b 3b 00
        E 0 9b 3a 46
        E 0 9b 3c 46
        E 1920 9b 41 00
        E 0 9b 40 48
        E 1440 9b 37 00
        E 0 9b 3a 00
        E 0 9b 3c 00
        E 480 9b 40 00
        E 0 9b 41 4c
        E 0 9b 35 4b
        E 0 9b 39 4b
        E 0 9b 3c 46
        E 1920 8b 41 00
        E 0 8b 35 00
        E 0 8b 39 00
        E 0 8b 3c 00
        E 0 9b 35 6b
        E 240 9b 35 00
        E 0 9b 37 64
        E 240 9b 37 00
        E 0 9b 39 64
        E 240 9b 39 00
        E 0 9b 3c 5b
        E 240 9b 3c 00
        E 0 9b 43 57
        E 240 9b 43 00
        E 0 9b 45 64
        E 240 9b 45 00
        E 0 9b 46 5b
        E 240 9b 46 00
        E 0 9b 4a 64
        E 240 9b 4a 00
        E 0 9b 48 64
        E 2400 9b 48 00
        E 0 9b 4a 5b
        E 480 9b 4a 00
        E 0 9b 48 5b
        E 480 9b 48 00
        E 0 9b 45 57
        E 2880 9b 45 00
        E 0 9b 4a 5b
        E 480 9b 4a 00
        E 0 9b 48 5e
        E 480 9b 48 00
        E 0 9b 46 4f
        E 3360 9b 46 00
        E 0 9b 48 54
        E 0 9b 3c 4f
        E 960 9b 48 00
        E 0 9b 3c 00
        E 0 9b 3e 54
        E 0 9b 4a 57
        E 1920 9b 3e 00
        E 0 9b 4a 00
        E 0 9b 40 4f
        E 0 9b 4c 4e
        E 1920 9b 40 00
        E 0 9b 4c 00
        E 0 9b 3c 4f
        E 0 9b 45 4e
        E 0 9b 48 4c
        E 0 9b 39 4e
        E 2400 9b 3c 00
        E 0 9b 48 00
        E 0 9b 39 00
        E 0 9b 3e 57
        E 0 9b 4a 5e
        E 240 9b 45 00
        E 240 9b 3e 00
        E 0 9b 4a 00
        E 0 9b 48 5e
        E 0 9b 3c 4e
        E 480 9b 48 00
        E 0 9b 3c 00
        E 0 9b 45 4e
        E 0 9b 39 51
        E 2880 9b 45 00
        E 0 9b 39 00
        E 0 9b 4a 57
        E 0 9b 3e 51
        E 480 9b 4a 00
        E 0 9b 3c 54
        E 0 9b 48 5b
        E 240 9b 3e 00
        E 240 9b 3c 00
        E 0 9b 48 00
        E 0 9b 46 47
        E 0 9b 3a 4f
        E 3360 9b 46 00
        E 0 9b 3a 00
        E 0 9b 48 51
        E 0 9b 3c 54
        E 960 9b 48 00
        E 0 9b 3c 00
        E 0 9b 3e 4e
        E 0 9b 4a 51
        E 1920 9b 3e 00
        E 0 9b 4a 00
        E 0 9b 4c 4b
        E 0 9b 48 4c
        E 0 9b 40 4b
        E 0 9b 3c 4b
        E 1920 9b 4c 00
        E 0 9b 40 00
        E 0 9b 4d 50
        E 0 9b 41 4e
        E 0 9b 45 4c
        E 0 9b 39 4e
        E 0 9b 35 4e
        E 1440 9b 48 00
        E 0 9b 3c 00
        E 0 9b 4d 00
        E 0 9b 41 00
        E 0 9b 45 00
        E 0 9b 39 00
        E 0 9b 35 00
        E 472 9b 52 76
        E 152 9b 52 00
        E 0 9b 51 51
        E 136 9b 51 00
        E 0 9b 4f 54
        E 200 9b 4f 00
        E 0 9b 4d 57
        E 160 9b 4d 00
        E 0 9b 4c 51
        E 160 9b 4c 00
        E 0 9b 4a 50
        E 160 9b 4a 00
        E 0 9b 48 57
        E 160 9b 48 00
        E 0 9b 46 76
        E 160 9b 46 00
        E 0 9b 45 50
        E 160 9b 45 00
        E 0 9b 43 50
        E 160 9b 43 00
        E 0 9b 41 4e
        E 160 9b 41 00
        E 0 9b 40 51
        E 160 9b 40 00
        E 0 9b 41 6b
        E 320 9b 41 00
        E 4480 9b 3e 77
        E 0 9b 32 6b
        E 2880 9b 3e 00
        E 0 9b 32 00
        E 960 9b 3e 57
        E 0 9b 3a 60
        E 0 9b 2e 5b
        E 1920 9b 3e 00
        E 0 9b 3a 00
        E 0 9b 2e 00
        E 0 9b 39 5b
        E 0 9b 2d 4f
        E 960 9b 39 00
        E 0 9b 2d 00
        E 0 9b 37 50
        E 0 9b 3a 51
        E 480 9b 37 00
        E 0 9b 3a 00
        E 1440 9b 40 4f
        E 0 9b 3c 4e
        E 0 9b 30 4e
        E 720 9b 40 00
        E 0 9b 3c 00
        E 0 9b 30 00
        E 240 9b 40 4f
        E 0 9b 3c 4e
        E 0 9b 30 4e
        E 720 9b 40 00
        E 0 9b 3c 00
        E 0 9b 30 00
        E 1200 9b 41 4f
        E 0 9b 45 54
        E 0 9b 39 4f
        E 0 9b 35 4f
        E 2880 9b 41 00
        E 0 9b 45 00
        E 0 9b 39 00
        E 0 9b 35 00
        E 960 9b 32 64
        E 0 9b 3e 5b
        E 2880 9b 32 00
        E 0 9b 3e 00
        E 960 9b 3a 46
        E 0 9b 32 51
        E 0 9b 2e 55
        E 0 9b 3e 51
        E 1920 9b 3a 00
        E 0 9b 32 00
        E 0 9b 2e 00
        E 0 9b 3e 00
        E 0 9b 39 51
        E 0 9b 2d 50
        E 960 9b 39 00
        E 0 9b 2d 00
        E 0 9b 3a 51
        E 0 9b 2e 50
        E 480 9b 3a 00
        E 0 9b 2e 00
        E 1440 9b 3c 4e
        E 0 9b 30 50
        E 720 9b 3c 00
        E 0 9b 30 00
        E 240 9b 3c 4e
        E 0 9b 30 50
        E 720 9b 3c 00
        E 0 9b 30 00
        E 240 9b 41 4b
        E 0 9b 45 4c
        E 0 9b 39 4e
        E 0 9b 35 4c
        E 1680 9b 45 00
        E 240 9b 41 00
        E 0 9b 39 00
        E 0 9b 35 00
        E 0 9b 3a 41
        E 0 9b 40 47
        E 0 9b 43 47
        E 0 9b 37 46
        E 1440 9b 40 00
        E 0 9b 43 00
        E 480 9b 3a 00
        E 0 9b 37 00
        E 0 9b 45 4f
        E 2400 9b 45 00
        E 0 9b 4a 5b
        E 480 9b 4a 00
        E 0 9b 48 5e
        E 480 9b 48 00
        E 0 9b 45 51
        E 2880 9b 4a 54
        E 240 9b 45 00
        E 240 9b 4a 00
        E 0 9b 48 5b
        E 480 9b 48 00
        E 0 9b 46 4f
        E 3360 9b 46 00
        E 0 9b 48 5b
        E 960 9b 48 00
        E 0 9b 4a 4e
        E 0 9b 46 4f
        E 1680 9b 46 00
        E 240 9b 4a 00
        E 0 9b 4c 4b
        E 0 9b 48 4c
        E 1680 9b 48 00
        E 240 9b 4c 00
        E 0 9b 48 48
        E 0 9b 4d 47
        E 2400 9b 48 00
        E 0 9b 4d 00
        E 0 9b 4a 51
        E 480 9b 4a 00
        E 0 9b 48 51
        E 480 9b 48 00
        E 0 9b 45 4f
        E 2880 9b 4a 57
        E 480 9b 45 00
        E 0 9b 4a 00
        E 0 9b 48 54
        E 480 9b 48 00
        E 0 9b 46 4c
        E 3360 9b 46 00
        E 0 9b 48 57
        E 960 9b 48 00
        E 0 9b 46 47
        E 0 9b 4a 4e
        E 1920 9b 46 00
        E 0 9b 4a 00
        E 0 9b 48 4f
        E 0 9b 4c 4c
        E 1440 9b 4c 00
        E 240 9b 48 00
        E 240 9b 48 4e
        E 0 9b 45 4e
        E 0 9b 41 4c
        E 0 9b 35 4e
        E 0 9b 39 4c
        E 1440 9b 48 00
        E 0 9b 45 00
        E 0 9b 41 00
        E 0 9b 35 00
        E 0 9b 39 00
        E 480 9b 52 76
        E 160 9b 52 00
        E 0 9b 51 4f
        E 160 9b 51 00
        E 0 9b 4f 54
        E 160 9b 4f 00
        E 0 9b 4d 54
        E 160 9b 4d 00
        E 0 9b 4c 51
        E 160 9b 4c 00
        E 0 9b 4a 4f
        E 160 9b 4a 00
        E 0 9b 48 51
        E 160 9b 48 00
        E 0 9b 46 76
        E 160 9b 46 00
        E 0 9b 45 51
        E 160 9b 45 00
        E 0 9b 43 50
        E 160 9b 43 00
        E 0 9b 41 51
        E 160 9b 41 00
        E 0 9b 40 5b
        E 160 9b 40 00
        E 0 9b 41 77
        E 320 9b 41 00
        E 4480 9b 3e 77
        E 0 9b 32 6b
        E 2880 9b 3e 00
        E 0 9b 32 00
        E 960 9b 3e 57
        E 0 9b 3a 60
        E 0 9b 2e 5b
        E 1920 9b 3e 00
        E 0 9b 3a 00
        E 0 9b 2e 00
        E 0 9b 39 5b
        E 0 9b 2d 4f
        E 960 9b 39 00
        E 0 9b 2d 00
        E 0 9b 37 50
        E 0 9b 3a 51
        E 480 9b 37 00
        E 0 9b 3a 00
        E 1440 9b 40 4f
        E 0 9b 3c 4e
        E 0 9b 30 4e
        E 720 9b 40 00
        E 0 9b 3c 00
        E 0 9b 30 00
        E 240 9b 40 4f
        E 0 9b 3c 4e
        E 0 9b 30 4e
        E 720 9b 40 00
        E 0 9b 3c 00
        E 0 9b 30 00
        E 1200 9b 41 4f
        E 0 9b 45 54
        E 0 9b 39 4f
        E 0 9b 35 4f
        E 2880 9b 41 00
        E 0 9b 45 00
        E 0 9b 39 00
        E 0 9b 35 00
        E 960 9b 32 64
        E 0 9b 3e 5b
        E 2880 9b 32 00
        E 0 9b 3e 00
        E 960 9b 3a 46
        E 0 9b 32 51
        E 0 9b 2e 55
        E 0 9b 3e 51
        E 1920 9b 3a 00
        E 0 9b 32 00
        E 0 9b 2e 00
        E 0 9b 3e 00
        E 0 9b 39 51
        E 0 9b 2d 50
        E 960 9b 39 00
        E 0 9b 2d 00
        E 0 9b 3a 51
        E 0 9b 2e 50
        E 480 9b 3a 00
        E 0 9b 2e 00
        E 1440 9b 3c 4e
        E 0 9b 30 50
        E 720 9b 3c 00
        E 0 9b 30 00
        E 240 9b 3c 4e
        E 0 9b 30 50
        E 720 9b 3c 00
        E 0 9b 30 00
        E 240 9b 41 4b
        E 0 9b 45 4c
        E 0 9b 39 4e
        E 0 9b 35 4c
        E 1680 9b 45 00
        E 240 9b 41 00
        E 0 9b 39 00
        E 0 9b 35 00
        E 0 9b 3a 41
        E 0 9b 40 47
        E 0 9b 43 47
        E 0 9b 37 46
        E 1440 9b 40 00
        E 0 9b 43 00
        E 480 9b 3a 00
        E 0 9b 37 00
        E 0 9b 41 4b
        E 0 9b 35 46
        E 3600 9b 35 00
        E 240 9b 41 00
        E 0 9b 3e 4e
        E 0 9b 4a 47
        E 0 9b 46 3f
        E 0 9b 3a 2d
        E 1920 9b 3e 00
        E 0 9b 4a 00
        E 0 9b 4c 44
        E 0 9b 3c 46
        E 0 9b 48 44
        E 1920 9b 46 00
        E 0 9b 3a 00
        E 0 9b 4c 00
        E 0 9b 3c 00
        E 0 9b 48 00
        E 0 9b 3e 4c
        E 0 9b 4a 4e
        E 0 9b 45 4b
        E 1920 9b 3e 00
        E 0 9b 4a 00
        E 0 9b 48 4e
        E 0 9b 3c 4c
        E 1920 9b 45 00
        E 0 9b 3a 47
        E 0 9b 46 44
        E 240 9b 48 00
        E 0 9b 3c 00
        E 1680 9b 3a 00
        E 0 9b 46 00
        E 0 9b 40 44
        E 0 9b 43 44
        E 0 9b 3c 4c
        E 1440 9b 40 00
        E 480 9b 43 00
        E 0 9b 3c 00
        E 0 9b 3e 3b
        E 0 9b 46 3f
        E 0 9b 41 42
        E 0 9b 3a 3a
        E 480 9b 3a 00
        E 1200 9b 46 00
        E 240 9b 3e 00
        E 0 9b 41 00
        E 0 9b 40 44
        E 0 9b 43 44
        E 0 9b 3c 3e
        E 1920 9b 40 00
        E 0 9b 43 00
        E 0 9b 39 44
        E 0 9b 35 09
        E 0 9b 41 47
        E 4320 9b 3c 00
        E 0 9b 39 00
        E 0 9b 35 00
        E 0 9b 41 00
        E 3360 b0 7b 00
        CCINTERP 32
        CHASE_CC_TAKEOFFS 1
        GUID {1ADDAC40-D53F-4DB4-9EA8-18C9C6049654}
        IGNTEMPO 0 120 4 4
        SRCCOLOR 586
        VELLANE -1 140 0
        CFGEDITVIEW -314880 0.000534 73 12 0 -1 0 0 0 0.5
        KEYSNAP 0
        TRACKSEL 252
        EVTFILTER 0 -1 -1 -1 -1 0 0 0 0 -1 -1 -1 -1 0 -1 0 -1 -1
        CFGEDIT 1 1 0 1 0 0 1 1 1 1 1 0.125 48 91 1295 715 0 0 0 0 0 0 0 1 0 0.5 0 0 1 64
      >
    >
  >
  <TRACK {0BE89EB5-5B5E-4C89-834F-330A800B8E5A}
    NAME "Hyper Canvas"
    PEAKCOL 16576
    BEAT -1
    AUTOMODE 0
    VOLPAN 1 0 -1 -1 1
    MUTESOLO 0 0 0
    IPHASE 0
    PLAYOFFS 0 1
    ISBUS 0 0
    BUSCOMP 0 0 0 0 0
    SHOWINMIX 1 0.6667 0.5 1 0.5 -1 -1 -1
    SEL 0
    REC 0 5088 1 0 0 0 0 0
    VU 2
    TRACKHEIGHT 88 0 0 0 0 0
    INQ 0 0 0 0.5 100 0 0 100
    NCHAN 2
    FX 1
    TRACKID {0BE89EB5-5B5E-4C89-834F-330A800B8E5A}
    PERF 0
    AUXRECV 0 0 1 0 0 0 0 0 0 -1:U 0 -1 ''
    AUXRECV 1 0 1 0 0 0 0 0 0 -1:U 0 -1 ''
    AUXRECV 2 0 1 0 0 0 0 0 0 -1:U 0 -1 ''
    AUXRECV 3 0 1 0 0 0 0 0 0 -1:U 0 -1 ''
    MIDIOUT -1
    MAINSEND 1 0
    <FXCHAIN
      WNDRECT 24 52 655 408
      SHOW 0
      LASTSEL 0
      DOCKED 0
      BYPASS 0 0 0
      <VST "VSTi: Hyper Canvas (x86) (EDIROL) (8 out)" "Hyper Canvas.dll" 0 "" 1213286221<5653544851474D687970657263616E76> ""
        TUdRSO9e7f4AAAAACAAAAAEAAAAAAAAAAgAAAAAAAAAEAAAAAAAAAAgAAAAAAAAAEAAAAAAAAAAgAAAAAAAAAEAAAAAAAAAAgAAAAAAAAAAIAQAAAAAAAAAAEAA=
        776t3g3wrd4AAEg/AAB+PwAAfj8AAH4/AABwPwAAXD8AAEg/AAB+PwAASD8AAH4/AAB+PwAAfj8AAEg/AABIPwAASD8AAEg/AAAAPwAAAD8AAAA/AACgPgAAND8AAAA/
        AAAAPwAAAD8AAAA/AAAAPwAAAD8AAAA/AAAAPwAAAD8AAAA/AAAAPwAAAAAAAAAAAAAAAAAAAAAAAAAAAAAAAAAAAAAAAAAAAAAAAAAAAAAAAAAAAAAAAAAAAAAAAAAA
        AAAAAAAAAAAAAKA+AACgPgAAoD4AAKA+AACgPgAAoD4AAKA+AACgPgAAoD4AAAAAAAAAAAAAAAAAAKA+AACgPgAAoD4AAKA+
        SHlwZXIgQ2FudmFzAEh5cGVyIENhbnZhcwAQAAAA
      >
      PRESETNAME "Hyper Canvas"
      FLOATPOS 0 0 0 0
      FXID {B05DD897-B798-4661-8D61-F8FA178EC6EB}
      WAK 0 0
    >
  >
  <EXTENSIONS
  >
>
