<REAPER_PROJECT 0.1 "6.70/win64" 1668716367
  <NOTES 0 2
  >
  RIPPLE 0
  GROUPOVERRIDE 0 0 0
  AUTOXFADE 129
  ENVATTACH 3
  POOLEDENVATTACH 0
  MIXERUIFLAGS 11 48
  PEAKGAIN 1
  FEEDBACK 0
  PANLAW 1
  PROJOFFS 0 0 0
  MAXPROJLEN 0 600
  GRID 3199 8 2 8 1 0 0 0
  TIMEMODE 1 5 -1 30 0 0 -1
  VIDEO_CONFIG 0 0 256
  PANMODE 3
  CURSOR 262.4
  ZOOM 9.13579078940061 2084 0
  VZOOMEX 5 108
  USE_REC_CFG 0
  RECMODE 1
  SMPTESYNC 0 30 100 40 1000 300 0 0 1 0 0
  LOOP 0
  LOOPGRAN 0 4
  RECORD_PATH "" ""
  <RECORD_CFG
    ZXZhdxgAAA==
  >
  <APPLYFX_CFG
  >
  RENDER_FILE ""
  RENDER_PATTERN ""
  RENDER_FMT 0 2 0
  RENDER_1X 0
  RENDER_RANGE 1 0 0 18 1000
  RENDER_RESAMPLE 3 0 1
  RENDER_ADDTOPROJ 0
  RENDER_STEMS 0
  RENDER_DITHER 0
  TIMELOCKMODE 0
  TEMPOENVLOCKMODE 1
  ITEMMIX 1
  DEFPITCHMODE 589824 0
  TAKELANE 1
  SAMPLERATE 44100 0 0
  <RENDER_CFG
    ZXZhdxgAAA==
  >
  LOCK 1
  <METRONOME 6 2
    VOL 0.25 0.125
    FREQ 800 1600 1
    BEATLEN 4
    SAMPLES "" ""
    PATTERN 2863311530 2863311529
    MULT 1
  >
  GLOBAL_AUTO -1
  TEMPO 120 4 4
  PLAYRATE 1 0 0.25 4
  SELECTION 243.2 243.2
  SELECTION2 243.2 243.2
  MASTERAUTOMODE 0
  MASTERTRACKHEIGHT 0 0
  MASTERPEAKCOL 16576
  MASTERMUTESOLO 0
  MASTERTRACKVIEW 0 0.6667 0.5 0.5 0 -1 0 0 0 0 -1 -1 0
  MASTERHWOUT 0 0 1 0 0 0 0 -1
  MASTER_NCH 2 2
  MASTER_VOLUME 1 0 -1 -1 1
  MASTER_PANMODE 3
  MASTER_FX 1
  MASTER_SEL 0
  <MASTERPLAYSPEEDENV
    EGUID {3BEBB821-4D42-4A0E-954A-28D50402A825}
    ACT 0 -1
    VIS 0 1 1
    LANEHEIGHT 0 0
    ARM 0
    DEFSHAPE 0 -1 -1
  >
  <TEMPOENVEX
    EGUID {4E57606F-6B62-4F36-978A-457577DC7294}
    ACT 1 -1
    VIS 1 0 1
    LANEHEIGHT 0 0
    ARM 0
    DEFSHAPE 1 -1 -1
    PT 0.000000000000 75.0000000000 1 262148 0 1
  >
  <PROJBAY
  >
  <TRACK {937EE361-A51C-4A3E-AAB3-40DC4298BC76}
    NAME GM
    PEAKCOL 16576
    BEAT -1
    AUTOMODE 0
    VOLPAN 1 0 -1 -1 1
    MUTESOLO 0 0 0
    IPHASE 0
    PLAYOFFS 0 1
    ISBUS 0 0
    BUSCOMP 0 0 0 0 0
    SHOWINMIX 1 0.6667 0.5 1 0.5 -1 -1 -1
    SEL 0
    REC 0 0 1 0 0 0 0 0
    VU 2
    TRACKHEIGHT 0 0 0 0 0 0
    INQ 0 0 0 0.5 100 0 0 100
    NCHAN 2
    FX 1
    TRACKID {937EE361-A51C-4A3E-AAB3-40DC4298BC76}
    PERF 0
    AUXRECV 1 0 1 0 0 0 0 0 0 -1:U 0 -1 ''
    AUXRECV 2 0 1 0 0 0 0 0 0 -1:U 0 -1 ''
    AUXRECV 3 0 1 0 0 0 0 0 0 -1:U 0 -1 ''
    AUXRECV 4 0 1 0 0 0 0 0 0 -1:U 0 -1 ''
    AUXRECV 5 0 1 0 0 0 0 0 0 -1:U 0 -1 ''
    AUXRECV 6 0 1 0 0 0 0 0 0 -1:U 0 -1 ''
    AUXRECV 7 0 1 0 0 0 0 0 0 -1:U 0 -1 ''
    MIDIOUT 0
    MAINSEND 1 0
  >
  <TRACK {9B558EFD-9484-4283-9EBB-DD8800DA3C99}
    NAME GUIA
    PEAKCOL 16576
    BEAT -1
    AUTOMODE 0
    VOLPAN 1 0 -1 -1 1
    MUTESOLO 0 0 0
    IPHASE 0
    PLAYOFFS 0 1
    ISBUS 0 0
    BUSCOMP 0 0 0 0 0
    SHOWINMIX 1 0.6667 0.5 1 0.5 0 -1 0
    SEL 0
    REC 0 0 1 0 0 0 0 0
    VU 2
    TRACKHEIGHT 0 0 0 0 0 0
    INQ 0 0 0 0.5 100 0 0 100
    NCHAN 2
    FX 1
    TRACKID {9B558EFD-9484-4283-9EBB-DD8800DA3C99}
    PERF 0
    MIDIOUT -1
    MAINSEND 1 0
    <ITEM
      POSITION 0
      SNAPOFFS 0
      LENGTH 387.2
      LOOP 1
      ALLTAKES 0
      FADEIN 1 0 0 1 0 0 0
      FADEOUT 1 0 0 1 0 0 0
      MUTE 0 0
      SEL 0
      IGUID {CD6EA2C9-0DDC-418B-A92D-7383B70373A9}
      IID 27
      NAME "GUIA - Voz Da Verdade - Além Do Rio Azul - E-grudado"
      VOLPAN 1 0 1 -1
      SOFFS 0 0
      PLAYRATE 1 1 0 -1 0 0.0025
      CHANMODE 0
      GUID {EB072A1C-3F6A-4063-B1FD-CBBCD86639B6}
      <SOURCE MIDI
        HASDATA 1 960 QN
        CCINTERP 32
        POOLEDEVTS {C40FD96C-7CD8-4D70-A9EE-5D060F0AAD57}
        <X 0 0 0 0 3 GUIA
          /wNHVUlB
        >
        <X 3840 0 0 0 6 Introdução
          /wZJbnRyb2R1w6fDo28=
        >
        <X 23040 0 0 0 6 Verso
          /wZWZXJzbw==
        >
        <X 38400 0 0 0 6 Verso
          /wZWZXJzbw==
        >
        <X 38400 0 0 0 6 "Pré Refrão"
          /wZQcsOpIFJlZnLDo28=
        >
        <X 26880 0 0 0 6 Refrão
          /wZSZWZyw6Nv
        >
        <X 61440 0 0 0 6 Ministração
          /wZNaW5pc3RyYcOnw6Nv
        >
        <X 38400 0 0 0 6 Verso
          /wZWZXJzbw==
        >
        <X 38400 0 0 0 6 "Pré Refrão"
          /wZQcsOpIFJlZnLDo28=
        >
        <X 26880 0 0 0 6 Refrão
          /wZSZWZyw6Nv
        >
        <X 61440 0 0 0 6 Ponte
          /wZQb250ZQ==
        >
        <X 38400 0 0 0 6 "Parte 2"
          /wZQYXJ0ZSAy
        >
        <X 53760 0 0 0 6 Final
          /wZGaW5hbA==
        >
        <X 7680 0 0 0 6 Fim
          /wZGaW0=
        >
        <X 7679 0 0 0 3 GUIA
          /wNHVUlB
        >
        <X 0 0 0 0 6 "Uma Nova História - Bm"
          /wZVbWEgTm92YSBIaXN0w7NyaWEgLSBCbQ==
        >
        E 1 b0 7b 00
        CCINTERP 32
        CHASE_CC_TAKEOFFS 1
        GUID {A2FBF64F-1D32-43B9-A42C-58134F1F8B5E}
        IGNTEMPO 0 120 4 4
        SRCCOLOR 166
      >
    >
  >
  <TRACK {DB83E891-4A4A-48BC-B5AC-75FC3041B303}
    NAME CLICK
    PEAKCOL 16576
    BEAT -1
    AUTOMODE 0
    VOLPAN 1 0 -1 -1 1
    MUTESOLO 0 0 0
    IPHASE 0
    PLAYOFFS 0 1
    ISBUS 0 0
    BUSCOMP 0 0 0 0 0
    SHOWINMIX 1 0.6667 0.5 1 0.5 0 -1 0
    SEL 0
    REC 0 0 1 0 0 0 0 0
    VU 2
    TRACKHEIGHT 0 0 0 0 0 0
    INQ 0 0 0 0.5 100 0 0 100
    NCHAN 2
    FX 1
    TRACKID {DB83E891-4A4A-48BC-B5AC-75FC3041B303}
    PERF 0
    MIDIOUT -1
    MAINSEND 1 0
    <ITEM
      POSITION 0
      SNAPOFFS 0
      LENGTH 381.6
      LOOP 1
      ALLTAKES 0
      FADEIN 1 0 0 1 0 0 0
      FADEOUT 1 0 0 1 0 0 0
      MUTE 0 0
      SEL 0
      IGUID {5C12650C-E9DD-4FD9-A942-6219C0D7FBAA}
      IID 28
      NAME "CLICK - Voz Da Verdade - Além Do Rio Azul - E-grudado"
      VOLPAN 1 0 1 -1
      SOFFS 0 0
      PLAYRATE 1 1 0 -1 0 0.0025
      CHANMODE 0
      GUID {75370A65-ED97-48E7-97F7-B56D1D70CD74}
      <SOURCE MIDI
        HASDATA 1 960 QN
        CCINTERP 32
        POOLEDEVTS {AD21B963-73EB-4864-BBD3-2A39EE80FD39}
        <X 0 0 0 0 3 CLICK
          /wNDTElDSw==
        >
        E 0 b9 00 00
        E 0 b9 20 00
        E 0 c9 00 00
        E 0 99 22 7f
        E 120 89 22 00
        E 840 99 21 7f
        E 120 89 21 00
        E 840 99 21 7f
        E 120 89 21 00
        E 840 99 21 7f
        E 120 89 21 00
        E 840 99 22 7f
        E 120 89 22 00
        E 840 99 21 7f
        E 120 89 21 00
        E 840 99 21 7f
        E 120 89 21 00
        E 840 99 21 7f
        E 120 89 21 00
        E 840 99 22 7f
        E 120 89 22 00
        E 840 99 21 7f
        E 120 89 21 00
        E 840 99 21 7f
        E 120 89 21 00
        E 840 99 21 7f
        E 120 89 21 00
        E 840 99 22 7f
        E 120 89 22 00
        E 840 99 21 7f
        E 120 89 21 00
        E 840 99 21 7f
        E 120 89 21 00
        E 840 99 21 7f
        E 120 89 21 00
        E 840 99 22 7f
        E 120 89 22 00
        E 840 99 21 7f
        E 120 89 21 00
        E 840 99 21 7f
        E 120 89 21 00
        E 840 99 21 7f
        E 120 89 21 00
        E 840 99 22 7f
        E 120 89 22 00
        E 840 99 21 7f
        E 120 89 21 00
        E 840 99 21 7f
        E 120 89 21 00
        E 840 99 21 7f
        E 120 89 21 00
        E 840 99 22 7f
        E 120 89 22 00
        E 840 99 21 7f
        E 120 89 21 00
        E 840 99 21 7f
        E 120 89 21 00
        E 840 99 21 7f
        E 120 89 21 00
        E 840 99 22 7f
        E 120 89 22 00
        E 840 99 21 7f
        E 120 89 21 00
        E 840 99 21 7f
        E 120 89 21 00
        E 840 99 21 7f
        E 120 89 21 00
        E 840 99 22 7f
        E 120 89 22 00
        E 840 99 21 7f
        E 120 89 21 00
        E 840 99 21 7f
        E 120 89 21 00
        E 840 99 21 7f
        E 120 89 21 00
        E 840 99 22 7f
        E 120 89 22 00
        E 840 99 21 7f
        E 120 89 21 00
        E 840 99 21 7f
        E 120 89 21 00
        E 840 99 21 7f
        E 120 89 21 00
        E 840 99 22 7f
        E 120 89 22 00
        E 840 99 21 7f
        E 120 89 21 00
        E 840 99 21 7f
        E 120 89 21 00
        E 840 99 21 7f
        E 120 89 21 00
        E 840 99 22 7f
        E 120 89 22 00
        E 840 99 21 7f
        E 120 89 21 00
        E 840 99 21 7f
        E 120 89 21 00
        E 840 99 21 7f
        E 120 89 21 00
        E 840 99 22 7f
        E 120 89 22 00
        E 840 99 21 7f
        E 120 89 21 00
        E 840 99 21 7f
        E 120 89 21 00
        E 840 99 21 7f
        E 120 89 21 00
        E 840 99 22 7f
        E 120 89 22 00
        E 840 99 21 7f
        E 120 89 21 00
        E 840 99 21 7f
        E 120 89 21 00
        E 840 99 21 7f
        E 120 89 21 00
        E 840 99 22 7f
        E 120 89 22 00
        E 840 99 21 7f
        E 120 89 21 00
        E 840 99 21 7f
        E 120 89 21 00
        E 840 99 21 7f
        E 120 89 21 00
        E 840 99 22 7f
        E 120 89 22 00
        E 840 99 21 7f
        E 120 89 21 00
        E 840 99 21 7f
        E 120 89 21 00
        E 840 99 21 7f
        E 120 89 21 00
        E 840 99 22 7f
        E 120 89 22 00
        E 840 99 21 7f
        E 120 89 21 00
        E 840 99 21 7f
        E 120 89 21 00
        E 840 99 21 7f
        E 120 89 21 00
        E 840 99 22 7f
        E 120 89 22 00
        E 840 99 21 7f
        E 120 89 21 00
        E 840 99 21 7f
        E 120 89 21 00
        E 840 99 21 7f
        E 120 89 21 00
        E 840 99 22 7f
        E 120 89 22 00
        E 840 99 21 7f
        E 120 89 21 00
        E 840 99 21 7f
        E 120 89 21 00
        E 840 99 21 7f
        E 120 89 21 00
        E 840 99 22 7f
        E 120 89 22 00
        E 840 99 21 7f
        E 120 89 21 00
        E 840 99 21 7f
        E 120 89 21 00
        E 840 99 21 7f
        E 120 89 21 00
        E 840 99 22 7f
        E 120 89 22 00
        E 840 99 21 7f
        E 120 89 21 00
        E 840 99 21 7f
        E 120 89 21 00
        E 840 99 21 7f
        E 120 89 21 00
        E 840 99 22 7f
        E 120 89 22 00
        E 840 99 21 7f
        E 120 89 21 00
        E 840 99 21 7f
        E 120 89 21 00
        E 840 99 21 7f
        E 120 89 21 00
        E 840 99 22 7f
        E 120 89 22 00
        E 840 99 21 7f
        E 120 89 21 00
        E 840 99 21 7f
        E 120 89 21 00
        E 840 99 21 7f
        E 120 89 21 00
        E 840 99 22 7f
        E 120 89 22 00
        E 840 99 21 7f
        E 120 89 21 00
        E 840 99 21 7f
        E 120 89 21 00
        E 840 99 21 7f
        E 120 89 21 00
        E 840 99 22 7f
        E 120 89 22 00
        E 840 99 21 7f
        E 120 89 21 00
        E 840 99 21 7f
        E 120 89 21 00
        E 840 99 21 7f
        E 120 89 21 00
        E 840 99 22 7f
        E 120 89 22 00
        E 840 99 21 7f
        E 120 89 21 00
        E 840 99 21 7f
        E 120 89 21 00
        E 840 99 21 7f
        E 120 89 21 00
        E 840 99 22 7f
        E 120 89 22 00
        E 840 99 21 7f
        E 120 89 21 00
        E 840 99 21 7f
        E 120 89 21 00
        E 840 99 21 7f
        E 120 89 21 00
        E 840 99 22 7f
        E 120 89 22 00
        E 840 99 21 7f
        E 120 89 21 00
        E 840 99 21 7f
        E 120 89 21 00
        E 840 99 21 7f
        E 120 89 21 00
        E 840 99 22 7f
        E 120 89 22 00
        E 840 99 21 7f
        E 120 89 21 00
        E 840 99 21 7f
        E 120 89 21 00
        E 840 99 21 7f
        E 120 89 21 00
        E 840 99 22 7f
        E 120 89 22 00
        E 840 99 21 7f
        E 120 89 21 00
        E 840 99 21 7f
        E 120 89 21 00
        E 840 99 21 7f
        E 120 89 21 00
        E 840 99 22 7f
        E 120 89 22 00
        E 840 99 21 7f
        E 120 89 21 00
        E 840 99 21 7f
        E 120 89 21 00
        E 840 99 21 7f
        E 120 89 21 00
        E 840 99 22 7f
        E 120 89 22 00
        E 840 99 21 7f
        E 120 89 21 00
        E 840 99 21 7f
        E 120 89 21 00
        E 840 99 21 7f
        E 120 89 21 00
        E 840 99 22 7f
        E 120 89 22 00
        E 840 99 21 7f
        E 120 89 21 00
        E 840 99 21 7f
        E 120 89 21 00
        E 840 99 21 7f
        E 120 89 21 00
        E 840 99 22 7f
        E 120 89 22 00
        E 840 99 21 7f
        E 120 89 21 00
        E 840 99 21 7f
        E 120 89 21 00
        E 840 99 21 7f
        E 120 89 21 00
        E 840 99 22 7f
        E 120 89 22 00
        E 840 99 21 7f
        E 120 89 21 00
        E 840 99 21 7f
        E 120 89 21 00
        E 840 99 21 7f
        E 120 89 21 00
        E 840 99 22 7f
        E 120 89 22 00
        E 840 99 21 7f
        E 120 89 21 00
        E 840 99 21 7f
        E 120 89 21 00
        E 840 99 21 7f
        E 120 89 21 00
        E 840 99 22 7f
        E 120 89 22 00
        E 840 99 21 7f
        E 120 89 21 00
        E 840 99 21 7f
        E 120 89 21 00
        E 840 99 21 7f
        E 120 89 21 00
        E 840 99 22 7f
        E 120 89 22 00
        E 840 99 21 7f
        E 120 89 21 00
        E 840 99 21 7f
        E 120 89 21 00
        E 840 99 21 7f
        E 120 89 21 00
        E 840 99 22 7f
        E 120 89 22 00
        E 840 99 21 7f
        E 120 89 21 00
        E 840 99 21 7f
        E 120 89 21 00
        E 840 99 21 7f
        E 120 89 21 00
        E 840 99 22 7f
        E 120 89 22 00
        E 840 99 21 7f
        E 120 89 21 00
        E 840 99 21 7f
        E 120 89 21 00
        E 840 99 21 7f
        E 120 89 21 00
        E 840 99 22 7f
        E 120 89 22 00
        E 840 99 21 7f
        E 120 89 21 00
        E 840 99 21 7f
        E 120 89 21 00
        E 840 99 21 7f
        E 120 89 21 00
        E 840 99 22 7f
        E 120 89 22 00
        E 840 99 21 7f
        E 120 89 21 00
        E 840 99 21 7f
        E 120 89 21 00
        E 840 99 21 7f
        E 120 89 21 00
        E 840 99 22 7f
        E 120 89 22 00
        E 840 99 21 7f
        E 120 89 21 00
        E 840 99 21 7f
        E 120 89 21 00
        E 840 99 21 7f
        E 120 89 21 00
        E 840 99 22 7f
        E 120 89 22 00
        E 840 99 21 7f
        E 120 89 21 00
        E 840 99 21 7f
        E 120 89 21 00
        E 840 99 21 7f
        E 120 89 21 00
        E 840 99 22 7f
        E 120 89 22 00
        E 840 99 21 7f
        E 120 89 21 00
        E 840 99 21 7f
        E 120 89 21 00
        E 840 99 21 7f
        E 120 89 21 00
        E 840 99 22 7f
        E 120 89 22 00
        E 840 99 21 7f
        E 120 89 21 00
        E 840 99 21 7f
        E 120 89 21 00
        E 840 99 21 7f
        E 120 89 21 00
        E 840 99 22 7f
        E 120 89 22 00
        E 840 99 21 7f
        E 120 89 21 00
        E 840 99 21 7f
        E 120 89 21 00
        E 840 99 21 7f
        E 120 89 21 00
        E 840 99 22 7f
        E 120 89 22 00
        E 840 99 21 7f
        E 120 89 21 00
        E 840 99 21 7f
        E 120 89 21 00
        E 840 99 21 7f
        E 120 89 21 00
        E 840 99 22 7f
        E 120 89 22 00
        E 840 99 21 7f
        E 120 89 21 00
        E 840 99 21 7f
        E 120 89 21 00
        E 840 99 21 7f
        E 120 89 21 00
        E 840 99 22 7f
        E 120 89 22 00
        E 840 99 21 7f
        E 120 89 21 00
        E 840 99 21 7f
        E 120 89 21 00
        E 840 99 21 7f
        E 120 89 21 00
        E 840 99 22 7f
        E 120 89 22 00
        E 840 99 21 7f
        E 120 89 21 00
        E 840 99 21 7f
        E 120 89 21 00
        E 840 99 21 7f
        E 120 89 21 00
        E 840 99 22 7f
        E 120 89 22 00
        E 840 99 21 7f
        E 120 89 21 00
        E 840 99 21 7f
        E 120 89 21 00
        E 840 99 21 7f
        E 120 89 21 00
        E 840 99 22 7f
        E 120 89 22 00
        E 840 99 21 7f
        E 120 89 21 00
        E 840 99 21 7f
        E 120 89 21 00
        E 840 99 21 7f
        E 120 89 21 00
        E 840 99 22 7f
        E 120 89 22 00
        E 840 99 21 7f
        E 120 89 21 00
        E 840 99 21 7f
        E 120 89 21 00
        E 840 99 21 7f
        E 120 89 21 00
        E 840 99 22 7f
        E 120 89 22 00
        E 840 99 21 7f
        E 120 89 21 00
        E 840 99 21 7f
        E 120 89 21 00
        E 840 99 21 7f
        E 120 89 21 00
        E 840 99 22 7f
        E 120 89 22 00
        E 840 99 21 7f
        E 120 89 21 00
        E 840 99 21 7f
        E 120 89 21 00
        E 840 99 21 7f
        E 120 89 21 00
        E 840 99 22 7f
        E 120 89 22 00
        E 840 99 21 7f
        E 120 89 21 00
        E 840 99 21 7f
        E 120 89 21 00
        E 840 99 21 7f
        E 120 89 21 00
        E 840 99 22 7f
        E 120 89 22 00
        E 840 99 21 7f
        E 120 89 21 00
        E 840 99 21 7f
        E 120 89 21 00
        E 840 99 21 7f
        E 120 89 21 00
        E 840 99 22 7f
        E 120 89 22 00
        E 840 99 21 7f
        E 120 89 21 00
        E 840 99 21 7f
        E 120 89 21 00
        E 840 99 21 7f
        E 120 89 21 00
        E 840 99 22 7f
        E 120 89 22 00
        E 840 99 21 7f
        E 120 89 21 00
        E 840 99 21 7f
        E 120 89 21 00
        E 840 99 21 7f
        E 120 89 21 00
        E 840 99 22 7f
        E 120 89 22 00
        E 840 99 21 7f
        E 120 89 21 00
        E 840 99 21 7f
        E 120 89 21 00
        E 840 99 21 7f
        E 120 89 21 00
        E 840 99 22 7f
        E 120 89 22 00
        E 840 99 21 7f
        E 120 89 21 00
        E 840 99 21 7f
        E 120 89 21 00
        E 840 99 21 7f
        E 120 89 21 00
        E 840 99 22 7f
        E 120 89 22 00
        E 840 99 21 7f
        E 120 89 21 00
        E 840 99 21 7f
        E 120 89 21 00
        E 840 99 21 7f
        E 120 89 21 00
        E 840 99 22 7f
        E 120 89 22 00
        E 840 99 21 7f
        E 120 89 21 00
        E 840 99 21 7f
        E 120 89 21 00
        E 840 99 21 7f
        E 120 89 21 00
        E 840 99 22 7f
        E 120 89 22 00
        E 840 99 21 7f
        E 120 89 21 00
        E 840 99 21 7f
        E 120 89 21 00
        E 840 99 21 7f
        E 120 89 21 00
        E 840 99 22 7f
        E 120 89 22 00
        E 840 99 21 7f
        E 120 89 21 00
        E 840 99 21 7f
        E 120 89 21 00
        E 840 99 21 7f
        E 120 89 21 00
        E 840 99 22 7f
        E 120 89 22 00
        E 840 99 21 7f
        E 120 89 21 00
        E 840 99 21 7f
        E 120 89 21 00
        E 840 99 21 7f
        E 120 89 21 00
        E 840 99 22 7f
        E 120 89 22 00
        E 840 99 21 7f
        E 120 89 21 00
        E 840 99 21 7f
        E 120 89 21 00
        E 840 99 21 7f
        E 120 89 21 00
        E 840 99 22 7f
        E 120 89 22 00
        E 840 99 21 7f
        E 120 89 21 00
        E 840 99 21 7f
        E 120 89 21 00
        E 840 99 21 7f
        E 120 89 21 00
        E 840 99 22 7f
        E 120 89 22 00
        E 840 99 21 7f
        E 120 89 21 00
        E 840 99 21 7f
        E 120 89 21 00
        E 840 99 21 7f
        E 120 89 21 00
        E 840 99 22 7f
        E 120 89 22 00
        E 840 99 21 7f
        E 120 89 21 00
        E 840 99 21 7f
        E 120 89 21 00
        E 840 99 21 7f
        E 120 89 21 00
        E 840 99 22 7f
        E 120 89 22 00
        E 840 99 21 7f
        E 120 89 21 00
        E 840 99 21 7f
        E 120 89 21 00
        E 840 99 21 7f
        E 120 89 21 00
        E 840 99 22 7f
        E 120 89 22 00
        E 840 99 21 7f
        E 120 89 21 00
        E 840 99 21 7f
        E 120 89 21 00
        E 840 99 21 7f
        E 120 89 21 00
        E 840 99 22 7f
        E 120 89 22 00
        E 840 99 21 7f
        E 120 89 21 00
        E 840 99 21 7f
        E 120 89 21 00
        E 840 99 21 7f
        E 120 89 21 00
        E 840 99 22 7f
        E 120 89 22 00
        E 840 99 21 7f
        E 120 89 21 00
        E 840 99 21 7f
        E 120 89 21 00
        E 840 99 21 7f
        E 120 89 21 00
        E 840 99 22 7f
        E 120 89 22 00
        E 840 99 21 7f
        E 120 89 21 00
        E 840 99 21 7f
        E 120 89 21 00
        E 840 99 21 7f
        E 120 89 21 00
        E 840 99 22 7f
        E 120 89 22 00
        E 840 99 21 7f
        E 120 89 21 00
        E 840 99 21 7f
        E 120 89 21 00
        E 840 99 21 7f
        E 120 89 21 00
        E 840 99 22 7f
        E 120 89 22 00
        E 840 99 21 7f
        E 120 89 21 00
        E 840 99 21 7f
        E 120 89 21 00
        E 840 99 21 7f
        E 120 89 21 00
        E 840 99 22 7f
        E 120 89 22 00
        E 840 99 21 7f
        E 120 89 21 00
        E 840 99 21 7f
        E 120 89 21 00
        E 840 99 21 7f
        E 120 89 21 00
        E 840 99 22 7f
        E 120 89 22 00
        E 840 99 21 7f
        E 120 89 21 00
        E 840 99 21 7f
        E 120 89 21 00
        E 840 99 21 7f
        E 120 89 21 00
        E 840 99 22 7f
        E 120 89 22 00
        E 840 99 21 7f
        E 120 89 21 00
        E 840 99 21 7f
        E 120 89 21 00
        E 840 99 21 7f
        E 120 89 21 00
        E 840 99 22 7f
        E 120 89 22 00
        E 840 99 21 7f
        E 120 89 21 00
        E 840 99 21 7f
        E 120 89 21 00
        E 840 99 21 7f
        E 120 89 21 00
        E 840 99 22 7f
        E 120 89 22 00
        E 840 99 21 7f
        E 120 89 21 00
        E 840 99 21 7f
        E 120 89 21 00
        E 840 99 21 7f
        E 120 89 21 00
        E 840 99 22 7f
        E 120 89 22 00
        E 840 99 21 7f
        E 120 89 21 00
        E 840 99 21 7f
        E 120 89 21 00
        E 840 99 21 7f
        E 120 89 21 00
        E 840 99 22 7f
        E 120 89 22 00
        E 840 99 21 7f
        E 120 89 21 00
        E 840 99 21 7f
        E 120 89 21 00
        E 840 99 21 7f
        E 120 89 21 00
        E 840 99 22 7f
        E 120 89 22 00
        E 840 99 21 7f
        E 120 89 21 00
        E 840 99 21 7f
        E 120 89 21 00
        E 840 99 21 7f
        E 120 89 21 00
        E 840 99 22 7f
        E 120 89 22 00
        E 840 99 21 7f
        E 120 89 21 00
        E 840 99 21 7f
        E 120 89 21 00
        E 840 99 21 7f
        E 120 89 21 00
        E 840 99 22 7f
        E 120 89 22 00
        E 840 99 21 7f
        E 120 89 21 00
        E 840 99 21 7f
        E 120 89 21 00
        E 840 99 21 7f
        E 120 89 21 00
        E 840 99 22 7f
        E 120 89 22 00
        E 840 99 21 7f
        E 120 89 21 00
        E 840 99 21 7f
        E 120 89 21 00
        E 840 99 21 7f
        E 120 89 21 00
        E 840 99 22 7f
        E 120 89 22 00
        E 840 99 21 7f
        E 120 89 21 00
        E 840 99 21 7f
        E 120 89 21 00
        E 840 99 21 7f
        E 120 89 21 00
        E 840 99 22 7f
        E 120 89 22 00
        E 840 99 21 7f
        E 120 89 21 00
        E 840 99 21 7f
        E 120 89 21 00
        E 840 99 21 7f
        E 120 89 21 00
        E 840 99 22 7f
        E 120 89 22 00
        E 840 99 21 7f
        E 120 89 21 00
        E 840 99 21 7f
        E 120 89 21 00
        E 840 99 21 7f
        E 120 89 21 00
        E 840 99 22 7f
        E 120 89 22 00
        E 840 99 21 7f
        E 120 89 21 00
        E 840 99 21 7f
        E 120 89 21 00
        E 840 99 21 7f
        E 120 89 21 00
        E 840 99 22 7f
        E 120 89 22 00
        E 840 99 21 7f
        E 120 89 21 00
        E 840 99 21 7f
        E 120 89 21 00
        E 840 99 21 7f
        E 120 89 21 00
        E 840 99 22 7f
        E 120 89 22 00
        E 840 99 21 7f
        E 120 89 21 00
        E 840 99 21 7f
        E 120 89 21 00
        E 840 99 21 7f
        E 120 89 21 00
        E 840 99 22 7f
        E 120 89 22 00
        E 840 99 21 7f
        E 120 89 21 00
        E 840 99 21 7f
        E 120 89 21 00
        E 840 99 21 7f
        E 120 89 21 00
        E 840 99 22 7f
        E 120 89 22 00
        E 840 99 21 7f
        E 120 89 21 00
        E 840 99 21 7f
        E 120 89 21 00
        E 840 99 21 7f
        E 120 89 21 00
        E 840 99 22 7f
        E 120 89 22 00
        E 840 99 21 7f
        E 120 89 21 00
        E 840 99 21 7f
        E 120 89 21 00
        E 840 99 21 7f
        E 120 89 21 00
        E 840 99 22 7f
        E 120 89 22 00
        E 840 99 21 7f
        E 120 89 21 00
        E 840 99 21 7f
        E 120 89 21 00
        E 840 99 21 7f
        E 120 89 21 00
        E 840 99 22 7f
        E 120 89 22 00
        E 840 99 21 7f
        E 120 89 21 00
        E 840 99 21 7f
        E 120 89 21 00
        E 840 99 21 7f
        E 120 89 21 00
        E 840 99 22 7f
        E 120 89 22 00
        E 840 99 21 7f
        E 120 89 21 00
        E 840 99 21 7f
        E 120 89 21 00
        E 840 99 21 7f
        E 120 89 21 00
        E 840 99 22 7f
        E 120 89 22 00
        E 840 99 21 7f
        E 120 89 21 00
        E 840 99 21 7f
        E 120 89 21 00
        E 840 99 21 7f
        E 120 89 21 00
        E 840 99 22 7f
        E 120 89 22 00
        E 840 99 21 7f
        E 120 89 21 00
        E 840 99 21 7f
        E 120 89 21 00
        E 840 99 21 7f
        E 120 89 21 00
        E 840 99 22 7f
        E 120 89 22 00
        E 840 99 21 7f
        E 120 89 21 00
        E 840 99 21 7f
        E 120 89 21 00
        E 840 99 21 7f
        E 120 89 21 00
        E 840 99 22 7f
        E 120 89 22 00
        E 840 99 21 7f
        E 120 89 21 00
        E 840 99 21 7f
        E 120 89 21 00
        E 840 99 21 7f
        E 120 89 21 00
        E 840 99 22 7f
        E 120 89 22 00
        E 840 99 21 7f
        E 120 89 21 00
        E 840 99 21 7f
        E 120 89 21 00
        E 840 99 21 7f
        E 120 89 21 00
        E 840 99 22 7f
        E 120 89 22 00
        E 840 99 21 7f
        E 120 89 21 00
        E 840 99 21 7f
        E 120 89 21 00
        E 840 99 21 7f
        E 120 89 21 00
        E 840 99 22 7f
        E 120 89 22 00
        E 840 99 21 7f
        E 120 89 21 00
        E 840 99 21 7f
        E 120 89 21 00
        E 840 99 21 7f
        E 120 89 21 00
        E 840 99 22 7f
        E 120 89 22 00
        E 840 99 21 7f
        E 120 89 21 00
        E 840 99 21 7f
        E 120 89 21 00
        E 840 99 21 7f
        E 120 89 21 00
        E 840 99 22 7f
        E 120 89 22 00
        E 840 99 21 7f
        E 120 89 21 00
        E 840 99 21 7f
        E 120 89 21 00
        E 840 99 21 7f
        E 120 89 21 00
        E 840 99 22 7f
        E 120 89 22 00
        E 840 99 21 7f
        E 120 89 21 00
        E 840 99 21 7f
        E 120 89 21 00
        E 840 99 21 7f
        E 120 89 21 00
        E 840 99 22 7f
        E 120 89 22 00
        E 840 99 21 7f
        E 120 89 21 00
        E 840 99 21 7f
        E 120 89 21 00
        E 840 99 21 7f
        E 120 89 21 00
        E 840 99 22 7f
        E 120 89 22 00
        E 840 99 21 7f
        E 120 89 21 00
        E 840 99 21 7f
        E 120 89 21 00
        E 840 99 21 7f
        E 120 89 21 00
        E 840 99 22 7f
        E 120 89 22 00
        E 840 99 21 7f
        E 120 89 21 00
        E 840 99 21 7f
        E 120 89 21 00
        E 840 99 21 7f
        E 120 89 21 00
        E 840 99 22 7f
        E 120 89 22 00
        E 840 99 21 7f
        E 120 89 21 00
        E 840 99 21 7f
        E 120 89 21 00
        E 840 99 21 7f
        E 120 89 21 00
        E 840 99 22 7f
        E 120 89 22 00
        E 840 99 21 7f
        E 120 89 21 00
        E 840 99 21 7f
        E 120 89 21 00
        E 840 99 21 7f
        E 120 89 21 00
        E 840 99 22 7f
        E 120 89 22 00
        E 840 99 21 7f
        E 120 89 21 00
        E 840 99 21 7f
        E 120 89 21 00
        E 840 99 21 7f
        E 120 89 21 00
        E 840 99 22 7f
        E 120 89 22 00
        E 840 99 21 7f
        E 120 89 21 00
        E 840 99 21 7f
        E 120 89 21 00
        E 840 99 21 7f
        E 120 89 21 00
        E 840 99 22 7f
        E 120 89 22 00
        E 840 99 21 7f
        E 120 89 21 00
        E 840 99 21 7f
        E 120 89 21 00
        E 840 99 21 7f
        E 120 89 21 00
        E 840 99 22 7f
        E 120 89 22 00
        E 840 b0 7b 00
        CCINTERP 32
        CHASE_CC_TAKEOFFS 1
        GUID {F386DA83-92B5-4027-AB73-9B842968953E}
        IGNTEMPO 0 120 4 4
        SRCCOLOR 168
        VELLANE 131 94 0
        CFGEDITVIEW 0 0.000706 91 12 0 -1 0 0 0 0.5
        KEYSNAP 0
        TRACKSEL 258
        EVTFILTER 0 -1 -1 -1 -1 0 0 0 0 -1 -1 -1 -1 0 -1 0 -1 -1
        CFGEDIT 1 1 0 1 0 0 1 1 1 1 1 0.125 32 75 817 715 0 0 0 0 0 0 0 1 0 0.5 0 0 1 64
      >
    >
  >
  <TRACK {D488CB79-9212-47B9-9F66-B845222EC17A}
    NAME DRUMS
    PEAKCOL 16576
    BEAT -1
    AUTOMODE 0
    VOLPAN 1 0 -1 -1 1
    MUTESOLO 0 0 0
    IPHASE 0
    PLAYOFFS 0 1
    ISBUS 0 0
    BUSCOMP 0 0 0 0 0
    SHOWINMIX 1 0.6667 0.5 1 0.5 0 -1 0
    SEL 0
    REC 0 0 1 0 0 0 0 0
    VU 2
    TRACKHEIGHT 0 0 0 0 0 0
    INQ 0 0 0 0.5 100 0 0 100
    NCHAN 2
    FX 1
    TRACKID {D488CB79-9212-47B9-9F66-B845222EC17A}
    PERF 0
    MIDIOUT -1
    MAINSEND 1 0
    <ITEM
      POSITION 0
      SNAPOFFS 0
      LENGTH 387.2
      LOOP 1
      ALLTAKES 0
      FADEIN 1 0 0 1 0 0 0
      FADEOUT 1 0 0 1 0 0 0
      MUTE 0 0
      SEL 0
      IGUID {765FCF9B-31D7-44E5-8B59-5EDB0F8F4BD1}
      IID 29
      NAME "DRUMS - Voz Da Verdade - Além Do Rio Azul - E-grudado"
      VOLPAN 1 0 1 -1
      SOFFS 0 0
      PLAYRATE 1 1 0 -1 0 0.0025
      CHANMODE 0
      GUID {A476EFF3-13E5-4F7C-AEB6-4FE41D8BD7F7}
      <SOURCE MIDI
        HASDATA 1 960 QN
        CCINTERP 32
        POOLEDEVTS {562C939B-6F88-4385-8CDB-37883D2E43AD}
        <X 0 0 0 0 3 DRUMS
          /wNEUlVNUw==
        >
        E 0 b9 20 00
        E 0 c9 00 00
        E 25440 99 32 62
        E 116 99 32 00
        E 364 99 30 64
        E 116 99 30 00
        E 124 99 2f 62
        E 116 99 2f 00
        E 124 99 2d 61
        E 116 99 2d 00
        E 124 99 2b 5f
        E 116 99 2b 00
        E 124 99 24 75
        E 0 99 2a 62
        E 0 99 31 71
        E 116 99 24 00
        E 0 99 2a 00
        E 0 99 31 00
        E 364 99 2a 3d
        E 116 99 2a 00
        E 364 99 26 70
        E 0 99 2a 5f
        E 116 99 26 00
        E 0 99 2a 00
        E 364 99 2a 33
        E 116 99 2a 00
        E 364 99 24 73
        E 0 99 2a 5e
        E 116 99 24 00
        E 0 99 2a 00
        E 364 99 24 74
        E 0 99 2a 32
        E 116 99 24 00
        E 0 99 2a 00
        E 364 99 26 78
        E 0 99 2a 5c
        E 116 99 26 00
        E 0 99 2a 00
        E 364 99 2a 37
        E 116 99 2a 00
        E 364 99 24 73
        E 0 99 2a 62
        E 114 99 24 00
        E 2 99 2a 00
        E 364 99 2a 43
        E 116 99 2a 00
        E 364 99 26 73
        E 0 99 2a 64
        E 116 99 26 00
        E 0 99 2a 00
        E 364 99 2a 43
        E 116 99 2a 00
        E 364 99 24 72
        E 0 99 2a 5f
        E 116 99 24 00
        E 0 99 2a 00
        E 364 99 24 70
        E 0 99 2a 45
        E 116 99 24 00
        E 0 99 2a 00
        E 364 99 26 77
        E 0 99 2a 5f
        E 116 99 26 00
        E 0 99 2a 00
        E 364 99 2a 44
        E 116 99 2a 00
        E 364 99 24 73
        E 0 99 2a 62
        E 116 99 24 00
        E 0 99 2a 00
        E 364 99 2a 3b
        E 116 99 2a 00
        E 364 99 26 78
        E 0 99 2a 5f
        E 116 99 26 00
        E 0 99 2a 00
        E 364 99 2a 37
        E 116 99 2a 00
        E 364 99 24 72
        E 0 99 2a 61
        E 116 99 24 00
        E 0 99 2a 00
        E 364 99 24 79
        E 0 99 2a 35
        E 116 99 24 00
        E 0 99 2a 00
        E 364 99 26 73
        E 0 99 2a 63
        E 116 99 26 00
        E 0 99 2a 00
        E 364 99 2a 39
        E 116 99 2a 00
        E 364 99 24 70
        E 0 99 2a 61
        E 114 99 24 00
        E 2 99 2a 00
        E 364 99 2a 45
        E 116 99 2a 00
        E 364 99 26 6d
        E 0 99 2a 62
        E 116 99 26 00
        E 0 99 2a 00
        E 364 99 2a 3f
        E 116 99 2a 00
        E 364 99 24 72
        E 0 99 2a 5d
        E 116 99 24 00
        E 0 99 2a 00
        E 124 99 26 72
        E 116 99 26 00
        E 124 99 24 72
        E 0 99 2a 44
        E 116 99 24 00
        E 0 99 2a 00
        E 364 99 26 73
        E 0 99 2a 60
        E 116 99 26 00
        E 0 99 2a 00
        E 364 99 2a 45
        E 116 99 2a 00
        E 364 99 24 6e
        E 0 99 2a 5e
        E 116 99 24 00
        E 0 99 2a 00
        E 364 99 2a 3d
        E 116 99 2a 00
        E 364 99 26 74
        E 0 99 2a 61
        E 116 99 26 00
        E 0 99 2a 00
        E 364 99 2a 37
        E 116 99 2a 00
        E 364 99 24 70
        E 0 99 2a 64
        E 116 99 24 00
        E 0 99 2a 00
        E 364 99 24 74
        E 0 99 2a 30
        E 116 99 24 00
        E 0 99 2a 00
        E 364 99 26 79
        E 0 99 2a 62
        E 116 99 26 00
        E 0 99 2a 00
        E 364 99 2a 3d
        E 116 99 2a 00
        E 364 99 24 6e
        E 0 99 2a 5f
        E 114 99 24 00
        E 2 99 2a 00
        E 364 99 2a 45
        E 116 99 2a 00
        E 364 99 26 74
        E 0 99 2a 60
        E 116 99 26 00
        E 0 99 2a 00
        E 364 99 2a 43
        E 116 99 2a 00
        E 364 99 24 73
        E 0 99 2a 66
        E 116 99 24 00
        E 0 99 2a 00
        E 364 99 24 6e
        E 0 99 2a 46
        E 116 99 24 00
        E 0 99 2a 00
        E 364 99 26 6f
        E 0 99 2a 60
        E 116 99 26 00
        E 0 99 2a 00
        E 364 99 2a 43
        E 116 99 2a 00
        E 364 99 24 76
        E 0 99 2a 63
        E 116 99 24 00
        E 0 99 2a 00
        E 364 99 2a 3e
        E 116 99 2a 00
        E 364 99 26 76
        E 0 99 2a 61
        E 116 99 26 00
        E 0 99 2a 00
        E 364 99 2a 37
        E 116 99 2a 00
        E 364 99 24 6d
        E 0 99 2a 61
        E 116 99 24 00
        E 0 99 2a 00
        E 364 99 24 73
        E 0 99 2a 33
        E 116 99 24 00
        E 0 99 2a 00
        E 364 99 26 76
        E 0 99 2a 5f
        E 116 99 26 00
        E 0 99 2a 00
        E 364 99 2a 3d
        E 116 99 2a 00
        E 364 99 24 76
        E 0 99 2a 62
        E 116 99 2a 00
        E 2 99 24 00
        E 362 99 2a 41
        E 116 99 2a 00
        E 124 99 24 72
        E 116 99 24 00
        E 124 99 26 7b
        E 0 99 2a 63
        E 116 99 26 00
        E 0 99 2a 00
        E 124 99 24 79
        E 116 99 24 00
        E 124 99 24 76
        E 0 99 2a 44
        E 116 99 24 00
        E 0 99 2a 00
        E 364 99 24 72
        E 0 99 2a 5f
        E 116 99 24 00
        E 0 99 2a 00
        E 364 99 2a 42
        E 116 99 2a 00
        E 364 99 26 78
        E 0 99 2a 60
        E 116 99 26 00
        E 0 99 2a 00
        E 364 99 2a 45
        E 116 99 2a 00
        E 124 99 26 6f
        E 116 99 26 00
        E 124 99 24 74
        E 0 99 2a 5d
        E 116 99 24 00
        E 0 99 2a 00
        E 364 99 2a 3b
        E 116 99 2a 00
        E 364 99 26 7b
        E 0 99 2a 62
        E 116 99 26 00
        E 0 99 2a 00
        E 364 99 24 73
        E 0 99 2a 34
        E 116 99 24 00
        E 0 99 2a 00
        E 364 99 24 71
        E 0 99 2a 62
        E 116 99 24 00
        E 0 99 2a 00
        E 364 99 2a 37
        E 116 99 2a 00
        E 364 99 26 70
        E 0 99 2a 5e
        E 116 99 26 00
        E 0 99 2a 00
        E 364 99 2a 37
        E 116 99 2a 00
        E 364 99 24 72
        E 0 99 2a 60
        E 116 99 24 00
        E 0 99 2a 00
        E 364 99 2e 63
        E 116 99 2e 00
        E 364 99 26 77
        E 0 99 32 5e
        E 114 99 32 00
        E 2 99 26 00
        E 124 99 30 61
        E 116 99 30 00
        E 124 99 24 73
        E 0 99 2f 67
        E 116 99 24 00
        E 0 99 2f 00
        E 124 99 2d 5f
        E 116 99 2d 00
        E 124 99 24 74
        E 0 99 31 7b
        E 116 99 24 00
        E 0 99 31 00
        E 364 99 24 73
        E 0 99 39 73
        E 0 99 37 75
        E 116 99 24 00
        E 0 99 37 00
        E 2 99 39 00
        E 842 99 2d 61
        E 116 99 2d 00
        E 124 99 2b 5a
        E 116 99 2b 00
        E 124 99 24 78
        E 0 99 31 71
        E 116 99 24 00
        E 0 99 31 00
        E 364 99 2a 3c
        E 116 99 2a 00
        E 364 99 26 78
        E 0 99 2a 62
        E 116 99 26 00
        E 0 99 2a 00
        E 364 99 2a 33
        E 116 99 2a 00
        E 364 99 24 75
        E 0 99 2a 5f
        E 116 99 24 00
        E 0 99 2a 00
        E 364 99 24 79
        E 0 99 2a 30
        E 116 99 24 00
        E 0 99 2a 00
        E 364 99 26 72
        E 0 99 2a 5f
        E 116 99 26 00
        E 0 99 2a 00
        E 364 99 2a 3d
        E 116 99 2a 00
        E 364 99 24 72
        E 0 99 2a 5c
        E 114 99 24 00
        E 2 99 2a 00
        E 364 99 2a 42
        E 116 99 2a 00
        E 364 99 26 73
        E 0 99 2a 62
        E 116 99 26 00
        E 0 99 2a 00
        E 364 99 2a 46
        E 116 99 2a 00
        E 364 99 24 72
        E 0 99 2a 64
        E 116 99 24 00
        E 0 99 2a 00
        E 124 99 26 76
        E 116 99 26 00
        E 124 99 24 75
        E 0 99 2a 49
        E 116 99 24 00
        E 0 99 2a 00
        E 364 99 26 75
        E 0 99 2a 61
        E 116 99 26 00
        E 0 99 2a 00
        E 364 99 2a 40
        E 116 99 2a 00
        E 364 99 24 75
        E 0 99 2a 61
        E 116 99 24 00
        E 0 99 2a 00
        E 364 99 2a 3a
        E 116 99 2a 00
        E 364 99 26 73
        E 0 99 2a 62
        E 116 99 26 00
        E 0 99 2a 00
        E 364 99 2a 36
        E 116 99 2a 00
        E 364 99 24 71
        E 0 99 2a 63
        E 116 99 24 00
        E 0 99 2a 00
        E 364 99 24 73
        E 0 99 2a 35
        E 116 99 24 00
        E 0 99 2a 00
        E 364 99 26 76
        E 0 99 2a 61
        E 116 99 26 00
        E 0 99 2a 00
        E 364 99 2a 3b
        E 116 99 2a 00
        E 364 99 24 78
        E 0 99 2a 63
        E 114 99 24 00
        E 2 99 2a 00
        E 364 99 2a 44
        E 116 99 2a 00
        E 364 99 26 78
        E 0 99 2a 60
        E 116 99 26 00
        E 0 99 2a 00
        E 364 99 2a 3f
        E 116 99 2a 00
        E 364 99 24 6e
        E 0 99 2a 60
        E 116 99 24 00
        E 0 99 2a 00
        E 364 99 24 72
        E 0 99 2a 47
        E 116 99 24 00
        E 0 99 2a 00
        E 364 99 26 6c
        E 0 99 2a 60
        E 116 99 26 00
        E 0 99 2a 00
        E 364 99 2a 47
        E 116 99 2a 00
        E 124 99 2e 64
        E 116 99 2e 00
        E 124 99 24 7a
        E 0 99 2a 5e
        E 116 99 24 00
        E 0 99 2a 00
        E 364 99 2a 3b
        E 116 99 2a 00
        E 364 99 26 72
        E 0 99 2a 63
        E 116 99 26 00
        E 0 99 2a 00
        E 364 99 2a 34
        E 116 99 2a 00
        E 364 99 24 6c
        E 0 99 2a 5b
        E 116 99 24 00
        E 0 99 2a 00
        E 364 99 24 77
        E 0 99 2a 39
        E 116 99 24 00
        E 0 99 2a 00
        E 364 99 26 74
        E 0 99 2a 60
        E 116 99 26 00
        E 0 99 2a 00
        E 364 99 2a 3b
        E 116 99 2a 00
        E 364 99 24 78
        E 0 99 2a 63
        E 114 99 24 00
        E 2 99 2a 00
        E 364 99 2a 48
        E 116 99 2a 00
        E 364 99 26 74
        E 0 99 2a 5d
        E 116 99 26 00
        E 0 99 2a 00
        E 364 99 2a 45
        E 116 99 2a 00
        E 364 99 24 72
        E 0 99 2a 60
        E 116 99 24 00
        E 0 99 2a 00
        E 364 99 24 70
        E 0 99 2a 48
        E 116 99 24 00
        E 0 99 2a 00
        E 364 99 26 74
        E 0 99 2a 62
        E 116 99 26 00
        E 0 99 2a 00
        E 364 99 2a 41
        E 116 99 2a 00
        E 364 99 24 73
        E 0 99 2a 5d
        E 116 99 24 00
        E 0 99 2a 00
        E 364 99 2a 38
        E 116 99 2a 00
        E 364 99 26 7c
        E 0 99 2a 5f
        E 116 99 26 00
        E 0 99 2a 00
        E 364 99 2a 35
        E 116 99 2a 00
        E 364 99 24 74
        E 0 99 2a 59
        E 116 99 24 00
        E 0 99 2a 00
        E 364 99 24 74
        E 0 99 2a 34
        E 116 99 24 00
        E 0 99 2a 00
        E 364 99 26 74
        E 0 99 2a 5e
        E 116 99 26 00
        E 0 99 2a 00
        E 364 99 2a 39
        E 116 99 2a 00
        E 364 99 24 78
        E 0 99 2a 5b
        E 116 99 2a 00
        E 2 99 24 00
        E 362 99 2a 47
        E 116 99 2a 00
        E 124 99 24 70
        E 116 99 24 00
        E 124 99 26 6f
        E 0 99 2a 63
        E 116 99 26 00
        E 0 99 2a 00
        E 124 99 24 77
        E 116 99 24 00
        E 124 99 24 73
        E 0 99 2a 44
        E 116 99 24 00
        E 0 99 2a 00
        E 364 99 24 73
        E 0 99 2a 61
        E 116 99 24 00
        E 0 99 2a 00
        E 124 99 26 73
        E 116 99 26 00
        E 124 99 2a 3e
        E 116 99 2a 00
        E 364 99 26 77
        E 0 99 2a 64
        E 116 99 26 00
        E 0 99 2a 00
        E 364 99 2a 40
        E 116 99 2a 00
        E 364 99 24 72
        E 0 99 2a 63
        E 116 99 24 00
        E 0 99 2a 00
        E 364 99 2a 3c
        E 116 99 2a 00
        E 364 99 26 77
        E 0 99 2a 61
        E 116 99 26 00
        E 0 99 2a 00
        E 364 99 2a 34
        E 116 99 2a 00
        E 364 99 24 7d
        E 0 99 2a 61
        E 116 99 24 00
        E 0 99 2a 00
        E 364 99 24 75
        E 0 99 2a 35
        E 116 99 24 00
        E 0 99 2a 00
        E 364 99 26 74
        E 0 99 2a 61
        E 116 99 26 00
        E 0 99 2a 00
        E 364 99 2a 3b
        E 116 99 2a 00
        E 364 99 24 71
        E 0 99 2e 5f
        E 114 99 24 00
        E 2 99 2e 00
        E 364 99 32 5d
        E 116 99 32 00
        E 124 99 30 67
        E 112 99 30 00
        E 128 99 26 75
        E 0 99 32 5c
        E 116 99 26 00
        E 2 99 32 00
        E 362 99 32 60
        E 116 99 32 00
        E 364 99 24 78
        E 0 99 30 62
        E 116 99 24 00
        E 0 99 30 00
        E 124 99 2f 62
        E 116 99 2f 00
        E 124 99 24 77
        E 0 99 30 65
        E 116 99 24 00
        E 0 99 30 00
        E 364 99 26 79
        E 0 99 30 66
        E 116 99 26 00
        E 0 99 30 00
        E 124 99 2f 60
        E 116 99 2f 00
        E 124 99 2d 60
        E 116 99 2d 00
        E 124 99 2b 5f
        E 116 99 2b 00
        E 124 99 24 72
        E 0 99 31 71
        E 116 99 24 00
        E 0 99 31 00
        E 364 99 2a 3c
        E 116 99 2a 00
        E 364 99 26 75
        E 0 99 2a 5d
        E 116 99 26 00
        E 0 99 2a 00
        E 364 99 2a 33
        E 116 99 2a 00
        E 364 99 24 73
        E 0 99 2a 61
        E 116 99 24 00
        E 0 99 2a 00
        E 364 99 24 74
        E 0 99 2a 34
        E 116 99 24 00
        E 0 99 2a 00
        E 364 99 26 74
        E 0 99 2a 5f
        E 116 99 26 00
        E 0 99 2a 00
        E 364 99 2a 3c
        E 116 99 2a 00
        E 364 99 24 74
        E 0 99 2a 5f
        E 114 99 24 00
        E 2 99 2a 00
        E 364 99 2a 43
        E 116 99 2a 00
        E 364 99 26 73
        E 0 99 2a 60
        E 116 99 26 00
        E 0 99 2a 00
        E 364 99 2a 41
        E 116 99 2a 00
        E 364 99 24 76
        E 0 99 2a 61
        E 116 99 24 00
        E 0 99 2a 00
        E 124 99 26 75
        E 112 99 26 00
        E 128 99 24 75
        E 0 99 2a 45
        E 116 99 24 00
        E 0 99 2a 00
        E 364 99 26 7e
        E 0 99 2a 5f
        E 116 99 26 00
        E 0 99 2a 00
        E 364 99 2a 42
        E 116 99 2a 00
        E 364 99 24 73
        E 0 99 2a 62
        E 116 99 24 00
        E 0 99 2a 00
        E 364 99 2a 41
        E 116 99 2a 00
        E 364 99 26 76
        E 0 99 2a 5d
        E 116 99 26 00
        E 0 99 2a 00
        E 364 99 2a 34
        E 116 99 2a 00
        E 364 99 24 77
        E 0 99 2a 60
        E 116 99 24 00
        E 0 99 2a 00
        E 364 99 24 70
        E 0 99 2a 35
        E 116 99 24 00
        E 0 99 2a 00
        E 364 99 26 70
        E 0 99 2a 61
        E 116 99 26 00
        E 0 99 2a 00
        E 364 99 2a 37
        E 116 99 2a 00
        E 364 99 24 73
        E 0 99 2a 5b
        E 114 99 24 00
        E 2 99 2a 00
        E 364 99 2a 43
        E 116 99 2a 00
        E 364 99 26 78
        E 0 99 2a 5e
        E 116 99 26 00
        E 0 99 2a 00
        E 364 99 2a 48
        E 116 99 2a 00
        E 364 99 24 74
        E 0 99 2a 61
        E 116 99 24 00
        E 0 99 2a 00
        E 364 99 24 74
        E 0 99 2a 47
        E 116 99 24 00
        E 0 99 2a 00
        E 364 99 26 76
        E 0 99 2a 5e
        E 116 99 26 00
        E 0 99 2a 00
        E 364 99 2a 43
        E 116 99 2a 00
        E 364 99 24 75
        E 0 99 2a 60
        E 116 99 24 00
        E 0 99 2a 00
        E 364 99 2a 3e
        E 116 99 2a 00
        E 364 99 26 76
        E 0 99 2a 5b
        E 116 99 26 00
        E 0 99 2a 00
        E 364 99 2a 35
        E 116 99 2a 00
        E 364 99 24 73
        E 0 99 2a 5f
        E 116 99 24 00
        E 0 99 2a 00
        E 364 99 24 6d
        E 0 99 2a 35
        E 116 99 24 00
        E 0 99 2a 00
        E 364 99 26 78
        E 0 99 2a 61
        E 116 99 26 00
        E 0 99 2a 00
        E 364 99 2a 3b
        E 116 99 2a 00
        E 364 99 24 6b
        E 0 99 2a 61
        E 114 99 24 00
        E 2 99 2a 00
        E 364 99 2a 3f
        E 116 99 2a 00
        E 364 99 26 71
        E 0 99 2a 5b
        E 116 99 26 00
        E 0 99 2a 00
        E 364 99 2a 45
        E 116 99 2a 00
        E 364 99 24 6f
        E 0 99 2a 5f
        E 116 99 24 00
        E 0 99 2a 00
        E 364 99 24 73
        E 0 99 2a 43
        E 116 99 24 00
        E 0 99 2a 00
        E 364 99 26 7d
        E 0 99 2e 60
        E 116 99 26 00
        E 0 99 2e 00
        E 124 99 30 61
        E 116 99 30 00
        E 124 99 2f 62
        E 116 99 2f 00
        E 124 99 2d 59
        E 112 99 2d 00
        E 128 99 26 75
        E 0 99 24 73
        E 0 99 31 72
        E 116 99 26 00
        E 0 99 24 00
        E 0 99 31 00
        E 364 99 30 5c
        E 116 99 30 00
        E 364 99 24 6e
        E 116 99 24 00
        E 124 99 2f 62
        E 116 99 2f 00
        E 604 99 24 6e
        E 0 99 2d 61
        E 116 99 24 00
        E 0 99 2d 00
        E 604 99 2b 64
        E 116 99 2b 00
        E 124 99 24 70
        E 0 99 30 62
        E 116 99 24 00
        E 0 99 30 00
        E 124 99 2f 62
        E 116 99 2f 00
        E 124 99 2d 60
        E 118 99 2d 00
        E 122 99 2b 5b
        E 116 99 2b 00
        E 124 99 24 71
        E 0 99 2e 63
        E 0 99 31 77
        E 114 99 24 00
        E 2 99 2e 00
        E 0 99 31 00
        E 844 99 26 79
        E 0 99 2e 63
        E 116 99 26 00
        E 0 99 2e 00
        E 604 99 24 73
        E 116 99 24 00
        E 124 99 24 76
        E 0 99 2e 5f
        E 116 99 24 00
        E 0 99 2e 00
        E 364 99 24 6f
        E 116 99 24 00
        E 364 99 26 73
        E 0 99 2e 64
        E 116 99 26 00
        E 0 99 2e 00
        E 124 99 24 79
        E 116 99 24 00
        E 124 99 24 72
        E 118 99 24 00
        E 362 99 24 73
        E 0 99 2e 60
        E 116 99 24 00
        E 0 99 2e 00
        E 844 99 26 70
        E 0 99 2e 64
        E 116 99 26 00
        E 0 99 2e 00
        E 604 99 24 73
        E 116 99 24 00
        E 124 99 24 70
        E 0 99 2e 63
        E 116 99 24 00
        E 0 99 2e 00
        E 364 99 24 72
        E 116 99 24 00
        E 364 99 26 7b
        E 0 99 2e 61
        E 116 99 26 00
        E 0 99 2e 00
        E 124 99 24 74
        E 114 99 24 00
        E 126 99 24 6c
        E 116 99 24 00
        E 364 99 24 73
        E 0 99 2e 60
        E 114 99 24 00
        E 2 99 2e 00
        E 844 99 26 74
        E 0 99 2e 65
        E 116 99 26 00
        E 0 99 2e 00
        E 604 99 24 6a
        E 116 99 24 00
        E 124 99 24 76
        E 0 99 2e 66
        E 116 99 24 00
        E 0 99 2e 00
        E 364 99 24 73
        E 116 99 24 00
        E 364 99 26 6d
        E 0 99 2e 5c
        E 116 99 26 00
        E 0 99 2e 00
        E 124 99 24 71
        E 116 99 24 00
        E 124 99 24 70
        E 118 99 24 00
        E 362 99 24 74
        E 0 99 2e 5b
        E 116 99 24 00
        E 0 99 2e 00
        E 844 99 26 79
        E 0 99 2e 61
        E 116 99 26 00
        E 0 99 2e 00
        E 604 99 24 70
        E 116 99 24 00
        E 124 99 24 73
        E 0 99 2e 63
        E 116 99 24 00
        E 0 99 2e 00
        E 364 99 24 70
        E 116 99 24 00
        E 364 99 26 71
        E 0 99 2e 5f
        E 116 99 26 00
        E 0 99 2e 00
        E 124 99 24 7e
        E 114 99 24 00
        E 126 99 24 73
        E 116 99 24 00
        E 364 99 24 72
        E 0 99 2e 63
        E 114 99 24 00
        E 2 99 2e 00
        E 844 99 26 75
        E 0 99 2e 61
        E 116 99 26 00
        E 0 99 2e 00
        E 604 99 24 71
        E 116 99 24 00
        E 124 99 24 73
        E 0 99 2e 63
        E 116 99 24 00
        E 0 99 2e 00
        E 364 99 24 72
        E 116 99 24 00
        E 364 99 26 76
        E 0 99 2e 5f
        E 116 99 26 00
        E 0 99 2e 00
        E 124 99 24 77
        E 116 99 24 00
        E 124 99 24 74
        E 118 99 24 00
        E 362 99 24 76
        E 0 99 2e 63
        E 116 99 24 00
        E 0 99 2e 00
        E 844 99 26 77
        E 0 99 2e 60
        E 116 99 26 00
        E 0 99 2e 00
        E 604 99 24 73
        E 116 99 24 00
        E 124 99 24 77
        E 0 99 2e 5d
        E 116 99 24 00
        E 0 99 2e 00
        E 364 99 24 70
        E 116 99 24 00
        E 364 99 26 77
        E 0 99 2e 61
        E 116 99 26 00
        E 0 99 2e 00
        E 124 99 24 6d
        E 114 99 24 00
        E 126 99 24 74
        E 116 99 24 00
        E 364 99 24 6f
        E 0 99 2e 62
        E 114 99 24 00
        E 2 99 2e 00
        E 844 99 26 77
        E 0 99 2e 60
        E 116 99 26 00
        E 0 99 2e 00
        E 604 99 24 74
        E 116 99 24 00
        E 124 99 24 76
        E 0 99 2e 61
        E 116 99 24 00
        E 0 99 2e 00
        E 364 99 24 74
        E 116 99 24 00
        E 364 99 26 6d
        E 0 99 2e 5e
        E 116 99 26 00
        E 0 99 2e 00
        E 124 99 24 6f
        E 116 99 24 00
        E 124 99 24 71
        E 118 99 24 00
        E 362 99 24 78
        E 0 99 37 7b
        E 116 99 24 00
        E 0 99 37 00
        E 364 99 26 7b
        E 0 99 37 77
        E 114 99 26 00
        E 2 99 37 00
        E 364 99 26 79
        E 0 99 37 7d
        E 116 99 26 00
        E 0 99 37 00
        E 364 99 24 71
        E 0 99 37 7d
        E 116 99 24 00
        E 0 99 37 00
        E 364 99 26 71
        E 0 99 37 71
        E 116 99 26 00
        E 0 99 37 00
        E 364 99 24 6e
        E 0 99 37 7e
        E 116 99 24 00
        E 0 99 37 00
        E 364 99 26 77
        E 0 99 37 74
        E 0 99 31 73
        E 116 99 26 00
        E 0 99 37 00
        E 0 99 31 00
        E 124 99 26 70
        E 116 99 26 00
        E 124 99 26 74
        E 0 99 37 74
        E 116 99 26 00
        E 0 99 37 00
        E 124 99 26 78
        E 116 99 26 00
        E 124 99 24 75
        E 0 99 2e 63
        E 0 99 39 75
        E 114 99 24 00
        E 2 99 2e 00
        E 0 99 39 00
        E 844 99 26 71
        E 0 99 2e 60
        E 116 99 26 00
        E 0 99 2e 00
        E 604 99 24 73
        E 116 99 24 00
        E 124 99 24 75
        E 0 99 2e 64
        E 116 99 24 00
        E 0 99 2e 00
        E 364 99 24 75
        E 116 99 24 00
        E 364 99 26 6e
        E 0 99 2e 63
        E 116 99 26 00
        E 0 99 2e 00
        E 124 99 24 74
        E 116 99 24 00
        E 124 99 24 75
        E 118 99 24 00
        E 362 99 24 70
        E 0 99 2e 5c
        E 116 99 24 00
        E 0 99 2e 00
        E 844 99 26 78
        E 0 99 2e 64
        E 116 99 26 00
        E 0 99 2e 00
        E 604 99 24 72
        E 116 99 24 00
        E 124 99 24 77
        E 0 99 2e 64
        E 116 99 24 00
        E 0 99 2e 00
        E 364 99 24 74
        E 116 99 24 00
        E 364 99 26 76
        E 0 99 2e 66
        E 116 99 26 00
        E 0 99 2e 00
        E 124 99 24 7a
        E 114 99 24 00
        E 126 99 24 73
        E 116 99 24 00
        E 364 99 24 72
        E 0 99 2e 5f
        E 114 99 24 00
        E 2 99 2e 00
        E 844 99 26 77
        E 0 99 2e 64
        E 116 99 26 00
        E 0 99 2e 00
        E 604 99 24 70
        E 116 99 24 00
        E 124 99 24 77
        E 0 99 2e 61
        E 116 99 24 00
        E 0 99 2e 00
        E 364 99 24 77
        E 116 99 24 00
        E 364 99 26 75
        E 0 99 2e 5e
        E 116 99 26 00
        E 0 99 2e 00
        E 124 99 24 75
        E 116 99 24 00
        E 124 99 24 76
        E 118 99 24 00
        E 362 99 24 74
        E 0 99 2e 5e
        E 116 99 24 00
        E 0 99 2e 00
        E 844 99 26 72
        E 0 99 2e 5e
        E 116 99 26 00
        E 0 99 2e 00
        E 604 99 24 74
        E 116 99 24 00
        E 124 99 24 73
        E 0 99 2e 64
        E 116 99 24 00
        E 0 99 2e 00
        E 364 99 24 78
        E 116 99 24 00
        E 364 99 26 75
        E 0 99 2e 61
        E 116 99 26 00
        E 0 99 2e 00
        E 124 99 24 72
        E 114 99 24 00
        E 126 99 24 6f
        E 116 99 24 00
        E 364 99 24 72
        E 0 99 2e 65
        E 114 99 24 00
        E 2 99 2e 00
        E 844 99 26 74
        E 0 99 2e 60
        E 116 99 26 00
        E 0 99 2e 00
        E 604 99 24 73
        E 116 99 24 00
        E 124 99 24 6f
        E 0 99 2e 63
        E 116 99 24 00
        E 0 99 2e 00
        E 364 99 24 7c
        E 116 99 24 00
        E 364 99 26 75
        E 0 99 2e 5b
        E 116 99 26 00
        E 0 99 2e 00
        E 124 99 24 71
        E 116 99 24 00
        E 124 99 24 6d
        E 118 99 24 00
        E 362 99 24 76
        E 0 99 2e 61
        E 116 99 24 00
        E 0 99 2e 00
        E 844 99 26 76
        E 0 99 2e 62
        E 116 99 26 00
        E 0 99 2e 00
        E 604 99 24 71
        E 116 99 24 00
        E 124 99 24 77
        E 0 99 2e 60
        E 116 99 24 00
        E 0 99 2e 00
        E 364 99 24 6e
        E 116 99 24 00
        E 364 99 26 76
        E 0 99 2e 5e
        E 116 99 26 00
        E 0 99 2e 00
        E 124 99 24 75
        E 114 99 24 00
        E 126 99 24 74
        E 116 99 24 00
        E 364 99 24 7b
        E 0 99 2e 61
        E 114 99 24 00
        E 2 99 2e 00
        E 844 99 26 75
        E 0 99 2e 5f
        E 116 99 26 00
        E 0 99 2e 00
        E 604 99 24 79
        E 116 99 24 00
        E 124 99 24 70
        E 0 99 2e 69
        E 116 99 24 00
        E 0 99 2e 00
        E 364 99 24 71
        E 116 99 24 00
        E 364 99 26 7c
        E 0 99 2e 63
        E 0 99 32 64
        E 116 99 26 00
        E 0 99 2e 00
        E 0 99 32 00
        E 124 99 24 76
        E 0 99 30 64
        E 116 99 24 00
        E 0 99 30 00
        E 124 99 24 72
        E 0 99 2f 5e
        E 116 99 2f 00
        E 2 99 24 00
        E 122 99 2d 65
        E 116 99 2d 00
        E 124 99 24 74
        E 0 99 31 78
        E 116 99 24 00
        E 0 99 31 00
        E 1324 99 35 78
        E 116 99 35 00
        E 124 99 35 73
        E 116 99 35 00
        E 124 99 35 74
        E 116 99 35 00
        E 364 99 33 61
        E 118 99 33 00
        E 362 99 33 5a
        E 116 99 33 00
        E 844 99 24 75
        E 0 99 2a 62
        E 0 99 31 71
        E 116 99 24 00
        E 0 99 2a 00
        E 0 99 31 00
        E 364 99 2a 3d
        E 116 99 2a 00
        E 364 99 26 70
        E 0 99 2a 5f
        E 116 99 26 00
        E 0 99 2a 00
        E 364 99 2a 33
        E 116 99 2a 00
        E 364 99 24 73
        E 0 99 2a 5e
        E 116 99 24 00
        E 0 99 2a 00
        E 364 99 24 74
        E 0 99 2a 32
        E 116 99 24 00
        E 0 99 2a 00
        E 364 99 26 78
        E 0 99 2a 5c
        E 116 99 26 00
        E 0 99 2a 00
        E 364 99 2a 37
        E 116 99 2a 00
        E 364 99 24 73
        E 0 99 2a 62
        E 114 99 24 00
        E 2 99 2a 00
        E 364 99 2a 43
        E 116 99 2a 00
        E 364 99 26 73
        E 0 99 2a 64
        E 116 99 26 00
        E 0 99 2a 00
        E 364 99 2a 43
        E 116 99 2a 00
        E 364 99 24 72
        E 0 99 2a 5f
        E 116 99 24 00
        E 0 99 2a 00
        E 364 99 24 70
        E 0 99 2a 45
        E 116 99 24 00
        E 0 99 2a 00
        E 364 99 26 77
        E 0 99 2a 5f
        E 116 99 26 00
        E 0 99 2a 00
        E 364 99 2a 44
        E 116 99 2a 00
        E 364 99 24 73
        E 0 99 2a 62
        E 116 99 24 00
        E 0 99 2a 00
        E 364 99 2a 3b
        E 116 99 2a 00
        E 364 99 26 78
        E 0 99 2a 5f
        E 116 99 26 00
        E 0 99 2a 00
        E 364 99 2a 37
        E 116 99 2a 00
        E 364 99 24 72
        E 0 99 2a 61
        E 116 99 24 00
        E 0 99 2a 00
        E 364 99 24 79
        E 0 99 2a 35
        E 116 99 24 00
        E 0 99 2a 00
        E 364 99 26 73
        E 0 99 2a 63
        E 116 99 26 00
        E 0 99 2a 00
        E 364 99 2a 39
        E 116 99 2a 00
        E 364 99 24 70
        E 0 99 2a 61
        E 114 99 24 00
        E 2 99 2a 00
        E 364 99 2a 45
        E 116 99 2a 00
        E 364 99 26 6d
        E 0 99 2a 62
        E 116 99 26 00
        E 0 99 2a 00
        E 364 99 2a 3f
        E 116 99 2a 00
        E 364 99 24 72
        E 0 99 2a 5d
        E 116 99 24 00
        E 0 99 2a 00
        E 124 99 26 72
        E 116 99 26 00
        E 124 99 24 72
        E 0 99 2a 44
        E 116 99 24 00
        E 0 99 2a 00
        E 364 99 26 73
        E 0 99 2a 60
        E 116 99 26 00
        E 0 99 2a 00
        E 364 99 2a 45
        E 116 99 2a 00
        E 364 99 24 6e
        E 0 99 2a 5e
        E 116 99 24 00
        E 0 99 2a 00
        E 364 99 2a 3d
        E 116 99 2a 00
        E 364 99 26 74
        E 0 99 2a 61
        E 116 99 26 00
        E 0 99 2a 00
        E 364 99 2a 37
        E 116 99 2a 00
        E 364 99 24 70
        E 0 99 2a 64
        E 116 99 24 00
        E 0 99 2a 00
        E 364 99 24 74
        E 0 99 2a 30
        E 116 99 24 00
        E 0 99 2a 00
        E 364 99 26 79
        E 0 99 2a 62
        E 116 99 26 00
        E 0 99 2a 00
        E 364 99 2a 3d
        E 116 99 2a 00
        E 364 99 24 6e
        E 0 99 2a 5f
        E 114 99 24 00
        E 2 99 2a 00
        E 364 99 2a 45
        E 116 99 2a 00
        E 364 99 26 74
        E 0 99 2a 60
        E 116 99 26 00
        E 0 99 2a 00
        E 364 99 2a 43
        E 116 99 2a 00
        E 364 99 24 73
        E 0 99 2a 66
        E 116 99 24 00
        E 0 99 2a 00
        E 364 99 24 6e
        E 0 99 2a 46
        E 116 99 24 00
        E 0 99 2a 00
        E 364 99 26 6f
        E 0 99 2a 60
        E 116 99 26 00
        E 0 99 2a 00
        E 364 99 2a 43
        E 116 99 2a 00
        E 364 99 24 76
        E 0 99 2a 63
        E 116 99 24 00
        E 0 99 2a 00
        E 364 99 2a 3e
        E 116 99 2a 00
        E 364 99 26 76
        E 0 99 2a 61
        E 116 99 26 00
        E 0 99 2a 00
        E 364 99 2a 37
        E 116 99 2a 00
        E 364 99 24 6d
        E 0 99 2a 61
        E 116 99 24 00
        E 0 99 2a 00
        E 364 99 24 73
        E 0 99 2a 33
        E 116 99 24 00
        E 0 99 2a 00
        E 364 99 26 76
        E 0 99 2a 5f
        E 116 99 26 00
        E 0 99 2a 00
        E 364 99 2a 3d
        E 116 99 2a 00
        E 364 99 24 76
        E 0 99 2a 62
        E 116 99 2a 00
        E 2 99 24 00
        E 362 99 2a 41
        E 116 99 2a 00
        E 124 99 24 72
        E 116 99 24 00
        E 124 99 26 7b
        E 0 99 2a 63
        E 116 99 26 00
        E 0 99 2a 00
        E 124 99 24 79
        E 116 99 24 00
        E 124 99 24 76
        E 0 99 2a 44
        E 116 99 24 00
        E 0 99 2a 00
        E 364 99 24 72
        E 0 99 2a 5f
        E 116 99 24 00
        E 0 99 2a 00
        E 364 99 2a 42
        E 116 99 2a 00
        E 364 99 26 78
        E 0 99 2a 60
        E 116 99 26 00
        E 0 99 2a 00
        E 364 99 2a 45
        E 116 99 2a 00
        E 124 99 26 6f
        E 116 99 26 00
        E 124 99 24 74
        E 0 99 2a 5d
        E 116 99 24 00
        E 0 99 2a 00
        E 364 99 2a 3b
        E 116 99 2a 00
        E 364 99 26 7b
        E 0 99 2a 62
        E 116 99 26 00
        E 0 99 2a 00
        E 364 99 24 73
        E 0 99 2a 34
        E 116 99 24 00
        E 0 99 2a 00
        E 364 99 24 71
        E 0 99 2a 62
        E 116 99 24 00
        E 0 99 2a 00
        E 364 99 2a 37
        E 116 99 2a 00
        E 364 99 26 70
        E 0 99 2a 5e
        E 116 99 26 00
        E 0 99 2a 00
        E 364 99 2a 37
        E 116 99 2a 00
        E 364 99 24 72
        E 0 99 2a 60
        E 116 99 24 00
        E 0 99 2a 00
        E 364 99 2e 63
        E 116 99 2e 00
        E 364 99 26 77
        E 0 99 32 5e
        E 114 99 32 00
        E 2 99 26 00
        E 124 99 30 61
        E 116 99 30 00
        E 124 99 24 73
        E 0 99 2f 67
        E 116 99 24 00
        E 0 99 2f 00
        E 124 99 2d 5f
        E 116 99 2d 00
        E 124 99 24 74
        E 0 99 31 7b
        E 116 99 24 00
        E 0 99 31 00
        E 364 99 24 73
        E 0 99 39 73
        E 0 99 37 75
        E 116 99 24 00
        E 0 99 37 00
        E 2 99 39 00
        E 842 99 2d 61
        E 116 99 2d 00
        E 124 99 2b 5a
        E 116 99 2b 00
        E 124 99 24 78
        E 0 99 31 71
        E 116 99 24 00
        E 0 99 31 00
        E 364 99 2a 3c
        E 116 99 2a 00
        E 364 99 26 78
        E 0 99 2a 62
        E 116 99 26 00
        E 0 99 2a 00
        E 364 99 2a 33
        E 116 99 2a 00
        E 364 99 24 75
        E 0 99 2a 5f
        E 116 99 24 00
        E 0 99 2a 00
        E 364 99 24 79
        E 0 99 2a 30
        E 116 99 24 00
        E 0 99 2a 00
        E 364 99 26 72
        E 0 99 2a 5f
        E 116 99 26 00
        E 0 99 2a 00
        E 364 99 2a 3d
        E 116 99 2a 00
        E 364 99 24 72
        E 0 99 2a 5c
        E 114 99 24 00
        E 2 99 2a 00
        E 364 99 2a 42
        E 116 99 2a 00
        E 364 99 26 73
        E 0 99 2a 62
        E 116 99 26 00
        E 0 99 2a 00
        E 364 99 2a 46
        E 116 99 2a 00
        E 364 99 24 72
        E 0 99 2a 64
        E 116 99 24 00
        E 0 99 2a 00
        E 124 99 26 76
        E 116 99 26 00
        E 124 99 24 75
        E 0 99 2a 49
        E 116 99 24 00
        E 0 99 2a 00
        E 364 99 26 75
        E 0 99 2a 61
        E 116 99 26 00
        E 0 99 2a 00
        E 364 99 2a 40
        E 116 99 2a 00
        E 364 99 24 75
        E 0 99 2a 61
        E 116 99 24 00
        E 0 99 2a 00
        E 364 99 2a 3a
        E 116 99 2a 00
        E 364 99 26 73
        E 0 99 2a 62
        E 116 99 26 00
        E 0 99 2a 00
        E 364 99 2a 36
        E 116 99 2a 00
        E 364 99 24 71
        E 0 99 2a 63
        E 116 99 24 00
        E 0 99 2a 00
        E 364 99 24 73
        E 0 99 2a 35
        E 116 99 24 00
        E 0 99 2a 00
        E 364 99 26 76
        E 0 99 2a 61
        E 116 99 26 00
        E 0 99 2a 00
        E 364 99 2a 3b
        E 116 99 2a 00
        E 364 99 24 78
        E 0 99 2a 63
        E 114 99 24 00
        E 2 99 2a 00
        E 364 99 2a 44
        E 116 99 2a 00
        E 364 99 26 78
        E 0 99 2a 60
        E 116 99 26 00
        E 0 99 2a 00
        E 364 99 2a 3f
        E 116 99 2a 00
        E 364 99 24 6e
        E 0 99 2a 60
        E 116 99 24 00
        E 0 99 2a 00
        E 364 99 24 72
        E 0 99 2a 47
        E 116 99 24 00
        E 0 99 2a 00
        E 364 99 26 6c
        E 0 99 2a 60
        E 116 99 26 00
        E 0 99 2a 00
        E 364 99 2a 47
        E 116 99 2a 00
        E 124 99 2e 64
        E 116 99 2e 00
        E 124 99 24 7a
        E 0 99 2a 5e
        E 116 99 24 00
        E 0 99 2a 00
        E 364 99 2a 3b
        E 116 99 2a 00
        E 364 99 26 72
        E 0 99 2a 63
        E 116 99 26 00
        E 0 99 2a 00
        E 364 99 2a 34
        E 116 99 2a 00
        E 364 99 24 6c
        E 0 99 2a 5b
        E 116 99 24 00
        E 0 99 2a 00
        E 364 99 24 77
        E 0 99 2a 39
        E 116 99 24 00
        E 0 99 2a 00
        E 364 99 26 74
        E 0 99 2a 60
        E 116 99 26 00
        E 0 99 2a 00
        E 364 99 2a 3b
        E 116 99 2a 00
        E 364 99 24 78
        E 0 99 2a 63
        E 114 99 24 00
        E 2 99 2a 00
        E 364 99 2a 48
        E 116 99 2a 00
        E 364 99 26 74
        E 0 99 2a 5d
        E 116 99 26 00
        E 0 99 2a 00
        E 364 99 2a 45
        E 116 99 2a 00
        E 364 99 24 72
        E 0 99 2a 60
        E 116 99 24 00
        E 0 99 2a 00
        E 364 99 24 70
        E 0 99 2a 48
        E 116 99 24 00
        E 0 99 2a 00
        E 364 99 26 74
        E 0 99 2a 62
        E 116 99 26 00
        E 0 99 2a 00
        E 364 99 2a 41
        E 116 99 2a 00
        E 364 99 24 73
        E 0 99 2a 5d
        E 116 99 24 00
        E 0 99 2a 00
        E 364 99 2a 38
        E 116 99 2a 00
        E 364 99 26 7c
        E 0 99 2a 5f
        E 116 99 26 00
        E 0 99 2a 00
        E 364 99 2a 35
        E 116 99 2a 00
        E 364 99 24 74
        E 0 99 2a 59
        E 116 99 24 00
        E 0 99 2a 00
        E 364 99 24 74
        E 0 99 2a 34
        E 116 99 24 00
        E 0 99 2a 00
        E 364 99 26 74
        E 0 99 2a 5e
        E 116 99 26 00
        E 0 99 2a 00
        E 364 99 2a 39
        E 116 99 2a 00
        E 364 99 24 78
        E 0 99 2a 5b
        E 116 99 2a 00
        E 2 99 24 00
        E 362 99 2a 47
        E 116 99 2a 00
        E 124 99 24 70
        E 116 99 24 00
        E 124 99 26 6f
        E 0 99 2a 63
        E 116 99 26 00
        E 0 99 2a 00
        E 124 99 24 77
        E 116 99 24 00
        E 124 99 24 73
        E 0 99 2a 44
        E 116 99 24 00
        E 0 99 2a 00
        E 364 99 24 73
        E 0 99 2a 61
        E 116 99 24 00
        E 0 99 2a 00
        E 124 99 26 73
        E 116 99 26 00
        E 124 99 2a 3e
        E 116 99 2a 00
        E 364 99 26 77
        E 0 99 2a 64
        E 116 99 26 00
        E 0 99 2a 00
        E 364 99 2a 40
        E 116 99 2a 00
        E 364 99 24 72
        E 0 99 2a 63
        E 116 99 24 00
        E 0 99 2a 00
        E 364 99 2a 3c
        E 116 99 2a 00
        E 364 99 26 77
        E 0 99 2a 61
        E 116 99 26 00
        E 0 99 2a 00
        E 364 99 2a 34
        E 116 99 2a 00
        E 364 99 24 7d
        E 0 99 2a 61
        E 116 99 24 00
        E 0 99 2a 00
        E 364 99 24 75
        E 0 99 2a 35
        E 116 99 24 00
        E 0 99 2a 00
        E 364 99 26 74
        E 0 99 2a 61
        E 116 99 26 00
        E 0 99 2a 00
        E 364 99 2a 3b
        E 116 99 2a 00
        E 364 99 24 71
        E 0 99 2e 5f
        E 114 99 24 00
        E 2 99 2e 00
        E 364 99 32 5d
        E 116 99 32 00
        E 124 99 30 67
        E 112 99 30 00
        E 128 99 26 75
        E 0 99 32 5c
        E 116 99 26 00
        E 2 99 32 00
        E 362 99 32 60
        E 116 99 32 00
        E 364 99 24 78
        E 0 99 30 62
        E 116 99 24 00
        E 0 99 30 00
        E 124 99 2f 62
        E 116 99 2f 00
        E 124 99 24 77
        E 0 99 30 65
        E 116 99 24 00
        E 0 99 30 00
        E 364 99 26 79
        E 0 99 30 66
        E 116 99 26 00
        E 0 99 30 00
        E 124 99 2f 60
        E 116 99 2f 00
        E 124 99 2d 60
        E 116 99 2d 00
        E 124 99 2b 5f
        E 116 99 2b 00
        E 124 99 24 72
        E 0 99 31 71
        E 116 99 24 00
        E 0 99 31 00
        E 364 99 2a 3c
        E 116 99 2a 00
        E 364 99 26 75
        E 0 99 2a 5d
        E 116 99 26 00
        E 0 99 2a 00
        E 364 99 2a 33
        E 116 99 2a 00
        E 364 99 24 73
        E 0 99 2a 61
        E 116 99 24 00
        E 0 99 2a 00
        E 364 99 24 74
        E 0 99 2a 34
        E 116 99 24 00
        E 0 99 2a 00
        E 364 99 26 74
        E 0 99 2a 5f
        E 116 99 26 00
        E 0 99 2a 00
        E 364 99 2a 3c
        E 116 99 2a 00
        E 364 99 24 74
        E 0 99 2a 5f
        E 114 99 24 00
        E 2 99 2a 00
        E 364 99 2a 43
        E 116 99 2a 00
        E 364 99 26 73
        E 0 99 2a 60
        E 116 99 26 00
        E 0 99 2a 00
        E 364 99 2a 41
        E 116 99 2a 00
        E 364 99 24 76
        E 0 99 2a 61
        E 116 99 24 00
        E 0 99 2a 00
        E 124 99 26 75
        E 112 99 26 00
        E 128 99 24 75
        E 0 99 2a 45
        E 116 99 24 00
        E 0 99 2a 00
        E 364 99 26 7e
        E 0 99 2a 5f
        E 116 99 26 00
        E 0 99 2a 00
        E 364 99 2a 42
        E 116 99 2a 00
        E 364 99 24 73
        E 0 99 2a 62
        E 116 99 24 00
        E 0 99 2a 00
        E 364 99 2a 41
        E 116 99 2a 00
        E 364 99 26 76
        E 0 99 2a 5d
        E 116 99 26 00
        E 0 99 2a 00
        E 364 99 2a 34
        E 116 99 2a 00
        E 364 99 24 77
        E 0 99 2a 60
        E 116 99 24 00
        E 0 99 2a 00
        E 364 99 24 70
        E 0 99 2a 35
        E 116 99 24 00
        E 0 99 2a 00
        E 364 99 26 70
        E 0 99 2a 61
        E 116 99 26 00
        E 0 99 2a 00
        E 364 99 2a 37
        E 116 99 2a 00
        E 364 99 24 73
        E 0 99 2a 5b
        E 114 99 24 00
        E 2 99 2a 00
        E 364 99 2a 43
        E 116 99 2a 00
        E 364 99 26 78
        E 0 99 2a 5e
        E 116 99 26 00
        E 0 99 2a 00
        E 364 99 2a 48
        E 116 99 2a 00
        E 364 99 24 74
        E 0 99 2a 61
        E 116 99 24 00
        E 0 99 2a 00
        E 364 99 24 74
        E 0 99 2a 47
        E 116 99 24 00
        E 0 99 2a 00
        E 364 99 26 76
        E 0 99 2a 5e
        E 116 99 26 00
        E 0 99 2a 00
        E 364 99 2a 43
        E 116 99 2a 00
        E 364 99 24 75
        E 0 99 2a 60
        E 116 99 24 00
        E 0 99 2a 00
        E 364 99 2a 3e
        E 116 99 2a 00
        E 364 99 26 76
        E 0 99 2a 5b
        E 116 99 26 00
        E 0 99 2a 00
        E 364 99 2a 35
        E 116 99 2a 00
        E 364 99 24 73
        E 0 99 2a 5f
        E 116 99 24 00
        E 0 99 2a 00
        E 364 99 24 6d
        E 0 99 2a 35
        E 116 99 24 00
        E 0 99 2a 00
        E 364 99 26 78
        E 0 99 2a 61
        E 116 99 26 00
        E 0 99 2a 00
        E 364 99 2a 3b
        E 116 99 2a 00
        E 364 99 24 6b
        E 0 99 2a 61
        E 114 99 24 00
        E 2 99 2a 00
        E 364 99 2a 3f
        E 116 99 2a 00
        E 364 99 26 71
        E 0 99 2a 5b
        E 116 99 26 00
        E 0 99 2a 00
        E 364 99 2a 45
        E 116 99 2a 00
        E 364 99 24 6f
        E 0 99 2a 5f
        E 116 99 24 00
        E 0 99 2a 00
        E 364 99 24 73
        E 0 99 2a 43
        E 116 99 24 00
        E 0 99 2a 00
        E 364 99 26 7d
        E 0 99 2e 60
        E 116 99 26 00
        E 0 99 2e 00
        E 124 99 30 61
        E 116 99 30 00
        E 124 99 2f 62
        E 116 99 2f 00
        E 124 99 2d 59
        E 112 99 2d 00
        E 128 99 26 75
        E 0 99 24 73
        E 0 99 31 72
        E 116 99 26 00
        E 0 99 24 00
        E 0 99 31 00
        E 364 99 30 5c
        E 116 99 30 00
        E 364 99 24 6e
        E 116 99 24 00
        E 124 99 2f 62
        E 116 99 2f 00
        E 604 99 24 6e
        E 0 99 2d 61
        E 116 99 24 00
        E 0 99 2d 00
        E 604 99 2b 64
        E 116 99 2b 00
        E 124 99 24 70
        E 0 99 30 62
        E 116 99 24 00
        E 0 99 30 00
        E 124 99 2f 62
        E 116 99 2f 00
        E 124 99 2d 60
        E 118 99 2d 00
        E 122 99 2b 5b
        E 116 99 2b 00
        E 124 99 24 71
        E 0 99 2e 63
        E 0 99 31 77
        E 114 99 24 00
        E 2 99 2e 00
        E 0 99 31 00
        E 844 99 26 79
        E 0 99 2e 63
        E 116 99 26 00
        E 0 99 2e 00
        E 604 99 24 73
        E 116 99 24 00
        E 124 99 24 76
        E 0 99 2e 5f
        E 116 99 24 00
        E 0 99 2e 00
        E 364 99 24 6f
        E 116 99 24 00
        E 364 99 26 73
        E 0 99 2e 64
        E 116 99 26 00
        E 0 99 2e 00
        E 124 99 24 79
        E 116 99 24 00
        E 124 99 24 72
        E 118 99 24 00
        E 362 99 24 73
        E 0 99 2e 60
        E 116 99 24 00
        E 0 99 2e 00
        E 844 99 26 70
        E 0 99 2e 64
        E 116 99 26 00
        E 0 99 2e 00
        E 604 99 24 73
        E 116 99 24 00
        E 124 99 24 70
        E 0 99 2e 63
        E 116 99 24 00
        E 0 99 2e 00
        E 364 99 24 72
        E 116 99 24 00
        E 364 99 26 7b
        E 0 99 2e 61
        E 116 99 26 00
        E 0 99 2e 00
        E 124 99 24 74
        E 114 99 24 00
        E 126 99 24 6c
        E 116 99 24 00
        E 364 99 24 73
        E 0 99 2e 60
        E 114 99 24 00
        E 2 99 2e 00
        E 844 99 26 74
        E 0 99 2e 65
        E 116 99 26 00
        E 0 99 2e 00
        E 604 99 24 6a
        E 116 99 24 00
        E 124 99 24 76
        E 0 99 2e 66
        E 116 99 24 00
        E 0 99 2e 00
        E 364 99 24 73
        E 116 99 24 00
        E 364 99 26 6d
        E 0 99 2e 5c
        E 116 99 26 00
        E 0 99 2e 00
        E 124 99 24 71
        E 116 99 24 00
        E 124 99 24 70
        E 118 99 24 00
        E 362 99 24 74
        E 0 99 2e 5b
        E 116 99 24 00
        E 0 99 2e 00
        E 844 99 26 79
        E 0 99 2e 61
        E 116 99 26 00
        E 0 99 2e 00
        E 604 99 24 70
        E 116 99 24 00
        E 124 99 24 73
        E 0 99 2e 63
        E 116 99 24 00
        E 0 99 2e 00
        E 364 99 24 70
        E 116 99 24 00
        E 364 99 26 71
        E 0 99 2e 5f
        E 116 99 26 00
        E 0 99 2e 00
        E 124 99 24 7e
        E 114 99 24 00
        E 126 99 24 73
        E 116 99 24 00
        E 364 99 24 72
        E 0 99 2e 63
        E 114 99 24 00
        E 2 99 2e 00
        E 844 99 26 75
        E 0 99 2e 61
        E 116 99 26 00
        E 0 99 2e 00
        E 604 99 24 71
        E 116 99 24 00
        E 124 99 24 73
        E 0 99 2e 63
        E 116 99 24 00
        E 0 99 2e 00
        E 364 99 24 72
        E 116 99 24 00
        E 364 99 26 76
        E 0 99 2e 5f
        E 116 99 26 00
        E 0 99 2e 00
        E 124 99 24 77
        E 116 99 24 00
        E 124 99 24 74
        E 118 99 24 00
        E 362 99 24 76
        E 0 99 2e 63
        E 116 99 24 00
        E 0 99 2e 00
        E 844 99 26 77
        E 0 99 2e 60
        E 116 99 26 00
        E 0 99 2e 00
        E 604 99 24 73
        E 116 99 24 00
        E 124 99 24 77
        E 0 99 2e 5d
        E 116 99 24 00
        E 0 99 2e 00
        E 364 99 24 70
        E 116 99 24 00
        E 364 99 26 77
        E 0 99 2e 61
        E 116 99 26 00
        E 0 99 2e 00
        E 124 99 24 6d
        E 114 99 24 00
        E 126 99 24 74
        E 116 99 24 00
        E 364 99 24 6f
        E 0 99 2e 62
        E 114 99 24 00
        E 2 99 2e 00
        E 844 99 26 77
        E 0 99 2e 60
        E 116 99 26 00
        E 0 99 2e 00
        E 604 99 24 74
        E 116 99 24 00
        E 124 99 24 76
        E 0 99 2e 61
        E 116 99 24 00
        E 0 99 2e 00
        E 364 99 24 74
        E 116 99 24 00
        E 364 99 26 6d
        E 0 99 2e 5e
        E 116 99 26 00
        E 0 99 2e 00
        E 124 99 24 6f
        E 116 99 24 00
        E 124 99 24 71
        E 118 99 24 00
        E 362 99 24 78
        E 0 99 37 7b
        E 116 99 24 00
        E 0 99 37 00
        E 364 99 26 7b
        E 0 99 37 77
        E 114 99 26 00
        E 2 99 37 00
        E 364 99 26 79
        E 0 99 37 7d
        E 116 99 26 00
        E 0 99 37 00
        E 364 99 24 71
        E 0 99 37 7d
        E 116 99 24 00
        E 0 99 37 00
        E 364 99 26 71
        E 0 99 37 71
        E 116 99 26 00
        E 0 99 37 00
        E 364 99 24 6e
        E 0 99 37 7e
        E 116 99 24 00
        E 0 99 37 00
        E 364 99 26 77
        E 0 99 37 74
        E 0 99 31 73
        E 116 99 26 00
        E 0 99 37 00
        E 0 99 31 00
        E 124 99 26 70
        E 116 99 26 00
        E 124 99 26 74
        E 0 99 37 74
        E 116 99 26 00
        E 0 99 37 00
        E 124 99 26 78
        E 116 99 26 00
        E 124 99 24 75
        E 0 99 2e 63
        E 0 99 39 75
        E 114 99 24 00
        E 2 99 2e 00
        E 0 99 39 00
        E 844 99 26 71
        E 0 99 2e 60
        E 116 99 26 00
        E 0 99 2e 00
        E 604 99 24 73
        E 116 99 24 00
        E 124 99 24 75
        E 0 99 2e 64
        E 116 99 24 00
        E 0 99 2e 00
        E 364 99 24 75
        E 116 99 24 00
        E 364 99 26 6e
        E 0 99 2e 63
        E 116 99 26 00
        E 0 99 2e 00
        E 124 99 24 74
        E 116 99 24 00
        E 124 99 24 75
        E 118 99 24 00
        E 362 99 24 70
        E 0 99 2e 5c
        E 116 99 24 00
        E 0 99 2e 00
        E 844 99 26 78
        E 0 99 2e 64
        E 116 99 26 00
        E 0 99 2e 00
        E 604 99 24 72
        E 116 99 24 00
        E 124 99 24 77
        E 0 99 2e 64
        E 116 99 24 00
        E 0 99 2e 00
        E 364 99 24 74
        E 116 99 24 00
        E 364 99 26 76
        E 0 99 2e 66
        E 116 99 26 00
        E 0 99 2e 00
        E 124 99 24 7a
        E 114 99 24 00
        E 126 99 24 73
        E 116 99 24 00
        E 364 99 24 72
        E 0 99 2e 5f
        E 114 99 24 00
        E 2 99 2e 00
        E 844 99 26 77
        E 0 99 2e 64
        E 116 99 26 00
        E 0 99 2e 00
        E 604 99 24 70
        E 116 99 24 00
        E 124 99 24 77
        E 0 99 2e 61
        E 116 99 24 00
        E 0 99 2e 00
        E 364 99 24 77
        E 116 99 24 00
        E 364 99 26 75
        E 0 99 2e 5e
        E 116 99 26 00
        E 0 99 2e 00
        E 124 99 24 75
        E 116 99 24 00
        E 124 99 24 76
        E 118 99 24 00
        E 362 99 24 74
        E 0 99 2e 5e
        E 116 99 24 00
        E 0 99 2e 00
        E 844 99 26 72
        E 0 99 2e 5e
        E 116 99 26 00
        E 0 99 2e 00
        E 604 99 24 74
        E 116 99 24 00
        E 124 99 24 73
        E 0 99 2e 64
        E 116 99 24 00
        E 0 99 2e 00
        E 364 99 24 78
        E 116 99 24 00
        E 364 99 26 75
        E 0 99 2e 61
        E 116 99 26 00
        E 0 99 2e 00
        E 124 99 24 72
        E 114 99 24 00
        E 126 99 24 6f
        E 116 99 24 00
        E 364 99 24 72
        E 0 99 2e 65
        E 114 99 24 00
        E 2 99 2e 00
        E 844 99 26 74
        E 0 99 2e 60
        E 116 99 26 00
        E 0 99 2e 00
        E 604 99 24 73
        E 116 99 24 00
        E 124 99 24 6f
        E 0 99 2e 63
        E 116 99 24 00
        E 0 99 2e 00
        E 364 99 24 7c
        E 116 99 24 00
        E 364 99 26 75
        E 0 99 2e 5b
        E 116 99 26 00
        E 0 99 2e 00
        E 124 99 24 71
        E 116 99 24 00
        E 124 99 24 6d
        E 118 99 24 00
        E 362 99 24 76
        E 0 99 2e 61
        E 116 99 24 00
        E 0 99 2e 00
        E 844 99 26 76
        E 0 99 2e 62
        E 116 99 26 00
        E 0 99 2e 00
        E 604 99 24 71
        E 116 99 24 00
        E 124 99 24 77
        E 0 99 2e 60
        E 116 99 24 00
        E 0 99 2e 00
        E 364 99 24 6e
        E 116 99 24 00
        E 364 99 26 76
        E 0 99 2e 5e
        E 116 99 26 00
        E 0 99 2e 00
        E 124 99 24 75
        E 114 99 24 00
        E 126 99 24 74
        E 116 99 24 00
        E 364 99 24 7b
        E 0 99 2e 61
        E 114 99 24 00
        E 2 99 2e 00
        E 844 99 26 75
        E 0 99 2e 5f
        E 116 99 26 00
        E 0 99 2e 00
        E 604 99 24 79
        E 116 99 24 00
        E 124 99 24 70
        E 0 99 2e 69
        E 116 99 24 00
        E 0 99 2e 00
        E 364 99 24 71
        E 116 99 24 00
        E 364 99 26 7c
        E 0 99 2e 63
        E 0 99 32 64
        E 116 99 26 00
        E 0 99 2e 00
        E 0 99 32 00
        E 124 99 24 76
        E 0 99 30 64
        E 116 99 24 00
        E 0 99 30 00
        E 124 99 24 72
        E 0 99 2f 5e
        E 116 99 2f 00
        E 2 99 24 00
        E 122 99 2d 65
        E 116 99 2d 00
        E 124 99 24 74
        E 0 99 31 78
        E 116 99 24 00
        E 0 99 31 00
        E 1324 99 35 78
        E 116 99 35 00
        E 124 99 35 73
        E 116 99 35 00
        E 124 99 35 74
        E 116 99 35 00
        E 364 99 33 61
        E 118 99 33 00
        E 362 99 33 5a
        E 116 99 33 00
        E 844 99 24 6a
        E 116 99 24 00
        E 364 99 2a 3b
        E 116 99 2a 00
        E 364 99 26 74
        E 0 99 2a 61
        E 116 99 26 00
        E 0 99 2a 00
        E 364 99 2a 33
        E 116 99 2a 00
        E 124 99 24 71
        E 116 99 24 00
        E 124 99 24 6e
        E 0 99 2a 63
        E 116 99 24 00
        E 0 99 2a 00
        E 364 99 2a 35
        E 116 99 2a 00
        E 364 99 26 7c
        E 0 99 2a 5f
        E 116 99 26 00
        E 0 99 2a 00
        E 364 99 2a 3c
        E 116 99 2a 00
        E 364 99 24 70
        E 0 99 2a 5c
        E 116 99 24 00
        E 0 99 2a 00
        E 364 99 2a 44
        E 116 99 2a 00
        E 364 99 26 72
        E 0 99 2a 5f
        E 116 99 26 00
        E 0 99 2a 00
        E 364 99 2a 43
        E 116 99 2a 00
        E 124 99 24 6c
        E 116 99 24 00
        E 124 99 24 71
        E 0 99 2a 62
        E 116 99 24 00
        E 0 99 2a 00
        E 364 99 2a 44
        E 116 99 2a 00
        E 364 99 26 7b
        E 0 99 31 77
        E 0 99 2a 61
        E 116 99 26 00
        E 0 99 31 00
        E 0 99 2a 00
        E 364 99 2a 44
        E 116 99 2a 00
        E 364 99 24 70
        E 0 99 39 72
        E 0 99 2a 60
        E 116 99 24 00
        E 0 99 39 00
        E 0 99 2a 00
        E 364 99 2a 3f
        E 116 99 2a 00
        E 364 99 26 75
        E 0 99 2a 65
        E 116 99 26 00
        E 0 99 2a 00
        E 364 99 2a 35
        E 116 99 2a 00
        E 124 99 24 73
        E 116 99 24 00
        E 124 99 24 74
        E 0 99 2a 60
        E 116 99 24 00
        E 0 99 2a 00
        E 364 99 2a 36
        E 116 99 2a 00
        E 364 99 26 76
        E 0 99 2a 60
        E 116 99 26 00
        E 0 99 2a 00
        E 364 99 2a 3a
        E 116 99 2a 00
        E 364 99 24 7c
        E 0 99 2a 5f
        E 116 99 24 00
        E 0 99 2a 00
        E 364 99 2a 42
        E 116 99 2a 00
        E 364 99 26 7b
        E 0 99 2a 60
        E 116 99 26 00
        E 0 99 2a 00
        E 364 99 2a 42
        E 116 99 2a 00
        E 124 99 24 74
        E 116 99 24 00
        E 124 99 24 70
        E 0 99 2a 67
        E 116 99 24 00
        E 0 99 2a 00
        E 364 99 2a 44
        E 116 99 2a 00
        E 364 99 26 73
        E 0 99 2a 61
        E 116 99 26 00
        E 0 99 2a 00
        E 364 99 2a 42
        E 116 99 2a 00
        E 364 99 24 70
        E 0 99 2a 5d
        E 116 99 24 00
        E 0 99 2a 00
        E 364 99 2a 41
        E 116 99 2a 00
        E 364 99 26 76
        E 0 99 2a 5e
        E 116 99 26 00
        E 0 99 2a 00
        E 364 99 2a 33
        E 116 99 2a 00
        E 124 99 24 75
        E 116 99 24 00
        E 124 99 24 73
        E 0 99 2a 60
        E 116 99 24 00
        E 0 99 2a 00
        E 364 99 2a 35
        E 116 99 2a 00
        E 364 99 26 79
        E 0 99 2a 5f
        E 116 99 26 00
        E 0 99 2a 00
        E 364 99 2a 3a
        E 116 99 2a 00
        E 364 99 24 75
        E 0 99 2a 61
        E 116 99 24 00
        E 0 99 2a 00
        E 364 99 24 74
        E 0 99 2a 43
        E 116 99 24 00
        E 0 99 2a 00
        E 364 99 26 76
        E 0 99 31 6d
        E 116 99 26 00
        E 0 99 31 00
        E 364 99 24 72
        E 116 99 24 00
        E 364 99 24 74
        E 0 99 39 76
        E 116 99 24 00
        E 0 99 39 00
        E 1808 99 2a 53
        E 116 99 2a 00
        E 840 99 2a 53
        E 116 99 2a 00
        E 844 99 2a 53
        E 116 99 2a 00
        E 848 99 2e 53
        E 116 99 2e 00
        e 844 99 33 53
        e 116 99 33 00
        E 3724 99 33 53
        E 116 99 33 00
        E 3720 99 2a 7e
        E 116 99 2a 00
        E 844 99 2a 7c
        E 116 99 2a 00
        E 844 99 2a 7f
        E 116 99 2a 00
        E 844 99 2a 7f
        E 116 99 2a 00
        E 844 99 33 53
        E 116 99 33 00
        E 844 99 2a 7e
        E 116 99 2a 00
        E 1804 99 2a 7f
        E 116 99 2a 00
        E 1804 99 2a 7b
        E 116 99 2a 00
        E 1804 99 2a 7f
        E 116 99 2a 00
        E 1804 99 2a 7d
        E 116 99 2a 00
        E 1804 99 2a 7f
        E 116 99 2a 00
        E 844 99 24 72
        E 114 99 24 00
        E 366 99 24 73
        E 0 99 26 75
        E 116 99 24 00
        E 0 99 26 00
        E 364 99 24 73
        E 0 99 26 72
        E 116 99 24 00
        E 0 99 26 00
        E 622 99 2f 60
        E 116 99 2f 00
        E 2 99 30 64
        E 94 99 32 62
        E 22 99 30 00
        E 90 99 32 00
        E 138 99 32 65
        E 116 99 32 00
        E 124 99 30 66
        E 116 99 30 00
        E 124 99 2f 62
        E 116 99 2f 00
        E 124 99 2d 5a
        E 116 99 2d 00
        E 124 99 2b 66
        E 116 99 2b 00
        E 124 99 29 5f
        E 116 99 29 00
        E 124 99 2b 60
        E 116 99 2b 00
        E 124 99 24 72
        E 0 99 2e 5f
        E 0 99 39 75
        E 114 99 24 00
        E 2 99 2e 00
        E 0 99 39 00
        E 844 99 26 77
        E 0 99 2e 5e
        E 116 99 26 00
        E 0 99 2e 00
        E 604 99 24 78
        E 116 99 24 00
        E 124 99 24 73
        E 0 99 2e 5f
        E 116 99 24 00
        E 0 99 2e 00
        E 364 99 24 73
        E 116 99 24 00
        E 364 99 26 70
        E 0 99 2e 63
        E 116 99 26 00
        E 0 99 2e 00
        E 124 99 24 70
        E 116 99 24 00
        E 124 99 24 6e
        E 118 99 24 00
        E 362 99 24 76
        E 0 99 2e 63
        E 116 99 24 00
        E 0 99 2e 00
        E 844 99 26 76
        E 0 99 2e 62
        E 116 99 26 00
        E 0 99 2e 00
        E 604 99 24 76
        E 116 99 24 00
        E 124 99 24 74
        E 0 99 2e 60
        E 116 99 24 00
        E 0 99 2e 00
        E 124 99 26 72
        E 116 99 26 00
        E 124 99 24 79
        E 116 99 24 00
        E 364 99 26 73
        E 0 99 2e 60
        E 116 99 26 00
        E 0 99 2e 00
        E 124 99 24 72
        E 114 99 24 00
        E 126 99 24 6e
        E 116 99 24 00
        E 364 99 24 76
        E 0 99 2e 60
        E 114 99 24 00
        E 2 99 2e 00
        E 844 99 26 74
        E 0 99 2e 5c
        E 116 99 26 00
        E 0 99 2e 00
        E 604 99 24 6e
        E 116 99 24 00
        E 124 99 24 74
        E 0 99 2e 62
        E 116 99 24 00
        E 0 99 2e 00
        E 364 99 24 74
        E 116 99 24 00
        E 364 99 26 77
        E 0 99 2e 64
        E 116 99 26 00
        E 0 99 2e 00
        E 124 99 24 77
        E 116 99 24 00
        E 124 99 24 71
        E 118 99 24 00
        E 362 99 24 73
        E 0 99 2e 62
        E 116 99 24 00
        E 0 99 2e 00
        E 844 99 26 73
        E 0 99 2e 5f
        E 116 99 26 00
        E 0 99 2e 00
        E 604 99 24 73
        E 116 99 24 00
        E 124 99 24 75
        E 0 99 2e 66
        E 116 99 24 00
        E 0 99 2e 00
        E 124 99 26 70
        E 112 99 26 00
        E 128 99 24 78
        E 116 99 24 00
        E 364 99 26 74
        E 0 99 2e 6a
        E 116 99 26 00
        E 0 99 2e 00
        E 124 99 24 76
        E 0 99 32 61
        E 114 99 24 00
        E 2 99 32 00
        E 124 99 24 6c
        E 0 99 30 61
        E 116 99 24 00
        E 0 99 30 00
        E 124 99 2f 61
        E 116 99 2f 00
        E 124 99 24 6f
        E 0 99 2e 64
        E 0 99 31 6d
        E 116 99 24 00
        E 0 99 2e 00
        E 0 99 31 00
        E 604 99 24 71
        E 116 99 24 00
        E 124 99 26 72
        E 0 99 2e 62
        E 116 99 26 00
        E 0 99 2e 00
        E 604 99 24 76
        E 116 99 24 00
        E 124 99 2e 5d
        E 116 99 2e 00
        E 364 99 24 6d
        E 116 99 24 00
        E 364 99 26 74
        E 0 99 2e 61
        E 116 99 26 00
        E 0 99 2e 00
        E 844 99 24 6f
        E 0 99 2e 66
        E 116 99 24 00
        E 0 99 2e 00
        E 604 99 24 72
        E 116 99 24 00
        E 124 99 26 72
        E 0 99 2e 65
        E 116 99 26 00
        E 0 99 2e 00
        E 604 99 24 75
        E 116 99 24 00
        E 124 99 2e 65
        E 116 99 2e 00
        E 364 99 24 70
        E 114 99 24 00
        E 366 99 26 71
        E 0 99 2e 65
        E 116 99 26 00
        E 0 99 2e 00
        E 604 99 26 75
        E 116 99 26 00
        E 124 99 24 70
        E 0 99 2e 62
        E 116 99 24 00
        E 0 99 2e 00
        E 604 99 24 7a
        E 116 99 24 00
        E 124 99 26 72
        E 0 99 2e 5e
        E 116 99 26 00
        E 0 99 2e 00
        E 604 99 24 71
        E 116 99 24 00
        E 124 99 2e 5c
        E 116 99 2e 00
        E 364 99 24 74
        E 116 99 24 00
        E 364 99 26 71
        E 0 99 2e 67
        E 116 99 26 00
        E 0 99 2e 00
        E 844 99 24 70
        E 0 99 2e 63
        E 116 99 24 00
        E 0 99 2e 00
        E 364 99 32 62
        E 116 99 32 00
        E 124 99 30 63
        E 116 99 30 00
        E 124 99 26 73
        E 0 99 2e 5d
        E 0 99 32 5f
        E 116 99 26 00
        E 0 99 2e 00
        E 0 99 32 00
        E 604 99 24 70
        E 0 99 30 62
        E 116 99 24 00
        E 0 99 30 00
        E 124 99 2e 60
        E 116 99 2e 00
        E 124 99 2f 60
        E 116 99 2f 00
        E 124 99 24 72
        E 0 99 30 62
        E 112 99 24 00
        E 4 99 30 00
        E 364 99 26 73
        E 0 99 2e 61
        E 0 99 2f 67
        E 116 99 26 00
        E 0 99 2e 00
        E 0 99 2f 00
        E 124 99 24 71
        E 0 99 2d 61
        E 116 99 24 00
        E 0 99 2d 00
        E 124 99 26 7a
        E 0 99 2b 5c
        E 116 99 26 00
        E 0 99 2b 00
        E 124 99 26 74
        E 0 99 2d 5f
        E 116 99 26 00
        E 0 99 2d 00
        E 124 99 24 6d
        E 0 99 2e 60
        E 0 99 31 73
        E 116 99 24 00
        E 0 99 2e 00
        E 0 99 31 00
        E 604 99 24 75
        E 116 99 24 00
        E 124 99 26 79
        E 0 99 2e 5d
        E 116 99 26 00
        E 0 99 2e 00
        E 604 99 24 79
        E 116 99 24 00
        E 124 99 2e 5c
        E 116 99 2e 00
        E 364 99 24 75
        E 116 99 24 00
        E 364 99 26 77
        E 0 99 2e 60
        E 116 99 26 00
        E 0 99 2e 00
        E 124 99 24 70
        E 116 99 24 00
        E 124 99 24 71
        E 116 99 24 00
        E 364 99 24 72
        E 0 99 2e 60
        E 116 99 24 00
        E 0 99 2e 00
        E 844 99 26 76
        E 0 99 2e 5c
        E 116 99 26 00
        E 0 99 2e 00
        E 604 99 24 77
        E 116 99 24 00
        E 124 99 24 71
        E 0 99 2e 5e
        E 0 99 32 61
        E 116 99 24 00
        E 0 99 2e 00
        E 0 99 32 00
        E 364 99 24 71
        E 0 99 30 62
        E 116 99 24 00
        E 0 99 30 00
        E 364 99 24 76
        E 0 99 26 77
        E 0 99 2e 5f
        E 0 99 2f 5f
        E 114 99 26 00
        E 2 99 24 00
        E 0 99 2e 00
        E 0 99 2f 00
        E 364 99 24 72
        E 0 99 31 73
        E 116 99 24 00
        E 0 99 31 00
        E 364 99 24 76
        E 0 99 39 71
        E 116 99 24 00
        E 0 99 39 00
        E 7564 99 31 77
        E 0 99 35 76
        E 116 99 31 00
        E 0 99 35 00
        E 7564 b0 7b 00
        CCINTERP 32
        CHASE_CC_TAKEOFFS 1
        GUID {099F0CF2-696A-4FE6-946D-163EE72F8A9B}
        IGNTEMPO 0 120 4 4
        SRCCOLOR 170
        VELLANE 131 94 0
        CFGEDITVIEW 375619.291998 0.038972 70 12 0 -1 0 0 0 0.5
        KEYSNAP 0
        TRACKSEL 258
        EVTFILTER 0 -1 -1 -1 -1 0 0 0 0 -1 -1 -1 -1 0 -1 0 -1 -1
        CFGEDIT 1 1 0 1 0 0 1 1 1 1 1 0.125 32 75 817 715 0 0 0 0 0 0 0 1 0 0.5 0 0 1 64
      >
    >
  >
  <TRACK {12FA2355-C901-47E0-B8F5-BA89298FF245}
    NAME PERCUSSION
    PEAKCOL 16576
    BEAT -1
    AUTOMODE 0
    VOLPAN 1 0 -1 -1 1
    MUTESOLO 0 0 0
    IPHASE 0
    PLAYOFFS 0 1
    ISBUS 0 0
    BUSCOMP 0 0 0 0 0
    SHOWINMIX 1 0.6667 0.5 1 0.5 0 -1 0
    SEL 0
    REC 0 0 1 0 0 0 0 0
    VU 2
    TRACKHEIGHT 0 0 0 0 0 0
    INQ 0 0 0 0.5 100 0 0 100
    NCHAN 2
    FX 1
    TRACKID {12FA2355-C901-47E0-B8F5-BA89298FF245}
    PERF 0
    MIDIOUT -1
    MAINSEND 1 0
    <ITEM
      POSITION 0
      SNAPOFFS 0
      LENGTH 387.2
      LOOP 1
      ALLTAKES 0
      FADEIN 1 0 0 1 0 0 0
      FADEOUT 1 0 0 1 0 0 0
      MUTE 0 0
      SEL 0
      IGUID {F4531790-6CAF-4993-8DD0-E1FCE992A5AB}
      IID 30
      NAME "PERCUSSION - Voz Da Verdade - Além Do Rio Azul - E-grudado"
      VOLPAN 1 0 1 -1
      SOFFS 0 0
      PLAYRATE 1 1 0 -1 0 0.0025
      CHANMODE 0
      GUID {B06AFCC3-F0E8-40D3-8560-2CE4FB4251F8}
      <SOURCE MIDI
        HASDATA 1 960 QN
        CCINTERP 32
        POOLEDEVTS {935D171E-09D4-43FE-9A35-B2E523EB3568}
        <X 0 0 0 0 3 PERCUSSION
          /wNQRVJDVVNTSU9O
        >
        E 0 c9 00 00
        E 130560 99 3e 20
        E 120 89 3e 00
        E 120 99 3e 0c
        E 120 89 3e 00
        E 120 99 3e 6b
        E 120 89 3e 00
        E 120 99 3e 23
        E 120 89 3e 00
        E 120 99 3e 2b
        E 120 89 3e 00
        E 120 99 3e 0d
        E 120 89 3e 00
        E 120 99 3f 60
        E 120 89 3f 00
        E 120 99 3f 4b
        E 120 89 3f 00
        E 120 99 3e 1f
        E 120 89 3e 00
        E 120 99 3e 0d
        E 120 89 3e 00
        E 120 99 3e 69
        E 120 89 3e 00
        E 120 99 40 5c
        E 120 89 40 00
        E 120 99 40 56
        E 120 89 40 00
        E 120 99 3e 1f
        E 120 89 3e 00
        E 120 99 3f 5a
        E 120 89 3f 00
        E 120 99 3f 54
        E 120 89 3f 00
        E 120 99 3e 21
        E 120 89 3e 00
        E 120 99 3e 0c
        E 120 89 3e 00
        E 120 99 3e 6f
        E 120 89 3e 00
        E 120 99 3e 23
        E 120 89 3e 00
        E 120 99 3e 2b
        E 120 89 3e 00
        E 120 99 3e 0d
        E 120 89 3e 00
        E 120 99 3f 5e
        E 120 89 3f 00
        E 120 99 3f 4c
        E 120 89 3f 00
        E 120 99 3e 1f
        E 120 89 3e 00
        E 120 99 3e 0d
        E 120 89 3e 00
        E 120 99 3e 6d
        E 120 89 3e 00
        E 120 99 40 60
        E 120 89 40 00
        E 120 99 40 56
        E 120 89 40 00
        E 120 99 3e 1e
        E 120 89 3e 00
        E 120 99 3f 56
        E 120 89 3f 00
        E 120 99 3f 53
        E 120 89 3f 00
        E 120 99 3e 20
        E 120 89 3e 00
        E 120 99 3e 0c
        E 120 89 3e 00
        E 120 99 3e 6b
        E 120 89 3e 00
        E 120 99 3e 23
        E 120 89 3e 00
        E 120 99 3e 2b
        E 120 89 3e 00
        E 120 99 3e 0d
        E 120 89 3e 00
        E 120 99 3f 60
        E 120 89 3f 00
        E 120 99 3f 4b
        E 120 89 3f 00
        E 120 99 3e 1f
        E 120 89 3e 00
        E 120 99 3e 0d
        E 120 89 3e 00
        E 120 99 3e 69
        E 120 89 3e 00
        E 120 99 40 5c
        E 120 89 40 00
        E 120 99 40 56
        E 120 89 40 00
        E 120 99 3e 1f
        E 120 89 3e 00
        E 120 99 3f 5a
        E 120 89 3f 00
        E 120 99 3f 54
        E 120 89 3f 00
        E 120 99 3e 21
        E 120 89 3e 00
        E 120 99 3e 0c
        E 120 89 3e 00
        E 120 99 3e 6f
        E 120 89 3e 00
        E 120 99 3e 23
        E 120 89 3e 00
        E 120 99 3e 2b
        E 120 89 3e 00
        E 120 99 3e 0d
        E 120 89 3e 00
        E 120 99 3f 5e
        E 120 89 3f 00
        E 120 99 3f 4c
        E 120 89 3f 00
        E 120 99 3e 1f
        E 120 89 3e 00
        E 120 99 3e 0d
        E 120 89 3e 00
        E 120 99 3e 6d
        E 120 89 3e 00
        E 120 99 40 60
        E 120 89 40 00
        E 120 99 40 56
        E 120 89 40 00
        E 120 99 3e 1e
        E 120 89 3e 00
        E 120 99 3f 56
        E 120 89 3f 00
        E 120 99 3f 53
        E 120 89 3f 00
        E 120 99 3e 20
        E 120 89 3e 00
        E 120 99 3e 0c
        E 120 89 3e 00
        E 120 99 3e 6b
        E 120 89 3e 00
        E 120 99 3e 23
        E 120 89 3e 00
        E 120 99 3e 2b
        E 120 89 3e 00
        E 120 99 3e 0d
        E 120 89 3e 00
        E 120 99 3f 60
        E 120 89 3f 00
        E 120 99 3f 4b
        E 120 89 3f 00
        E 120 99 3e 1f
        E 120 89 3e 00
        E 120 99 3e 0d
        E 120 89 3e 00
        E 120 99 3e 69
        E 120 89 3e 00
        E 120 99 40 5c
        E 120 89 40 00
        E 120 99 40 56
        E 120 89 40 00
        E 120 99 3e 1f
        E 120 89 3e 00
        E 120 99 3f 5a
        E 120 89 3f 00
        E 120 99 3f 54
        E 120 89 3f 00
        E 120 99 3e 21
        E 120 89 3e 00
        E 120 99 3e 0c
        E 120 89 3e 00
        E 120 99 3e 6f
        E 120 89 3e 00
        E 120 99 3e 23
        E 120 89 3e 00
        E 120 99 3e 2b
        E 120 89 3e 00
        E 120 99 3e 0d
        E 120 89 3e 00
        E 120 99 3f 5e
        E 120 89 3f 00
        E 120 99 3f 4c
        E 120 89 3f 00
        E 120 99 3e 1f
        E 120 89 3e 00
        E 120 99 3e 0d
        E 120 89 3e 00
        E 120 99 3e 6d
        E 120 89 3e 00
        E 120 99 40 60
        E 120 89 40 00
        E 120 99 40 56
        E 120 89 40 00
        E 120 99 3e 1e
        E 120 89 3e 00
        E 120 99 3f 56
        E 120 89 3f 00
        E 120 99 3f 53
        E 120 89 3f 00
        E 120 99 3e 20
        E 120 89 3e 00
        E 120 99 3e 0c
        E 120 89 3e 00
        E 120 99 3e 6b
        E 120 89 3e 00
        E 120 99 3e 23
        E 120 89 3e 00
        E 120 99 3e 2b
        E 120 89 3e 00
        E 120 99 3e 0d
        E 120 89 3e 00
        E 120 99 3f 60
        E 120 89 3f 00
        E 120 99 3f 4b
        E 120 89 3f 00
        E 120 99 3e 1f
        E 120 89 3e 00
        E 120 99 3e 0d
        E 120 89 3e 00
        E 120 99 3e 69
        E 120 89 3e 00
        E 120 99 40 5c
        E 120 89 40 00
        E 120 99 40 56
        E 120 89 40 00
        E 120 99 3e 1f
        E 120 89 3e 00
        E 120 99 3f 5a
        E 120 89 3f 00
        E 120 99 3f 54
        E 120 89 3f 00
        E 3960 99 3e 20
        E 120 89 3e 00
        E 120 99 3e 0c
        E 120 89 3e 00
        E 120 99 3e 6b
        E 120 89 3e 00
        E 120 99 3e 23
        E 120 89 3e 00
        E 120 99 3e 2b
        E 120 89 3e 00
        E 120 99 3e 0d
        E 120 89 3e 00
        E 120 99 3f 60
        E 120 89 3f 00
        E 120 99 3f 4b
        E 120 89 3f 00
        E 120 99 3e 1f
        E 120 89 3e 00
        E 120 99 3e 0d
        E 120 89 3e 00
        E 120 99 3e 69
        E 120 89 3e 00
        E 120 99 40 5c
        E 120 89 40 00
        E 120 99 40 56
        E 120 89 40 00
        E 120 99 3e 1f
        E 120 89 3e 00
        E 120 99 3f 5a
        E 120 89 3f 00
        E 120 99 3f 54
        E 120 89 3f 00
        E 120 99 3e 21
        E 120 89 3e 00
        E 120 99 3e 0c
        E 120 89 3e 00
        E 120 99 3e 6f
        E 120 89 3e 00
        E 120 99 3e 23
        E 120 89 3e 00
        E 120 99 3e 2b
        E 120 89 3e 00
        E 120 99 3e 0d
        E 120 89 3e 00
        E 120 99 3f 5e
        E 120 89 3f 00
        E 120 99 3f 4c
        E 120 89 3f 00
        E 120 99 3e 1f
        E 120 89 3e 00
        E 120 99 3e 0d
        E 120 89 3e 00
        E 120 99 3e 6d
        E 120 89 3e 00
        E 120 99 40 60
        E 120 89 40 00
        E 120 99 40 56
        E 120 89 40 00
        E 120 99 3e 1e
        E 120 89 3e 00
        E 120 99 3f 56
        E 120 89 3f 00
        E 120 99 3f 53
        E 120 89 3f 00
        E 120 99 3e 20
        E 120 89 3e 00
        E 120 99 3e 0c
        E 120 89 3e 00
        E 120 99 3e 6b
        E 120 89 3e 00
        E 120 99 3e 23
        E 120 89 3e 00
        E 120 99 3e 2b
        E 120 89 3e 00
        E 120 99 3e 0d
        E 120 89 3e 00
        E 120 99 3f 60
        E 120 89 3f 00
        E 120 99 3f 4b
        E 120 89 3f 00
        E 120 99 3e 1f
        E 120 89 3e 00
        E 120 99 3e 0d
        E 120 89 3e 00
        E 120 99 3e 69
        E 120 89 3e 00
        E 120 99 40 5c
        E 120 89 40 00
        E 120 99 40 56
        E 120 89 40 00
        E 120 99 3e 1f
        E 120 89 3e 00
        E 120 99 3f 5a
        E 120 89 3f 00
        E 120 99 3f 54
        E 120 89 3f 00
        E 120 99 3e 21
        E 120 89 3e 00
        E 120 99 3e 0c
        E 120 89 3e 00
        E 120 99 3e 6f
        E 120 89 3e 00
        E 120 99 3e 23
        E 120 89 3e 00
        E 120 99 3e 2b
        E 120 89 3e 00
        E 120 99 3e 0d
        E 120 89 3e 00
        E 120 99 3f 5e
        E 120 89 3f 00
        E 120 99 3f 4c
        E 120 89 3f 00
        E 2040 99 3e 20
        E 120 89 3e 00
        E 120 99 3e 0c
        E 120 89 3e 00
        E 120 99 3e 6b
        E 120 89 3e 00
        E 120 99 3e 23
        E 120 89 3e 00
        E 120 99 3e 2b
        E 120 89 3e 00
        E 120 99 3e 0d
        E 120 89 3e 00
        E 120 99 3f 60
        E 120 89 3f 00
        E 120 99 3f 4b
        E 120 89 3f 00
        E 120 99 3e 1f
        E 120 89 3e 00
        E 120 99 3e 0d
        E 120 89 3e 00
        E 120 99 3e 69
        E 120 89 3e 00
        E 120 99 40 5c
        E 120 89 40 00
        E 120 99 40 56
        E 120 89 40 00
        E 120 99 3e 1f
        E 120 89 3e 00
        E 120 99 3f 5a
        E 120 89 3f 00
        E 120 99 3f 54
        E 120 89 3f 00
        E 120 99 3e 21
        E 120 89 3e 00
        E 120 99 3e 0c
        E 120 89 3e 00
        E 120 99 3e 6f
        E 120 89 3e 00
        E 120 99 3e 23
        E 120 89 3e 00
        E 120 99 3e 2b
        E 120 89 3e 00
        E 120 99 3e 0d
        E 120 89 3e 00
        E 120 99 3f 5e
        E 120 89 3f 00
        E 120 99 3f 4c
        E 120 89 3f 00
        E 120 99 3e 1f
        E 120 89 3e 00
        E 120 99 3e 0d
        E 120 89 3e 00
        E 120 99 3e 6d
        E 120 89 3e 00
        E 120 99 40 60
        E 120 89 40 00
        E 120 99 40 56
        E 120 89 40 00
        E 120 99 3e 1e
        E 120 89 3e 00
        E 120 99 3f 56
        E 120 89 3f 00
        E 120 99 3f 53
        E 120 89 3f 00
        E 120 99 3e 20
        E 120 89 3e 00
        E 120 99 3e 0c
        E 120 89 3e 00
        E 120 99 3e 6b
        E 120 89 3e 00
        E 120 99 3e 23
        E 120 89 3e 00
        E 120 99 3e 2b
        E 120 89 3e 00
        E 120 99 3e 0d
        E 120 89 3e 00
        E 120 99 3f 60
        E 120 89 3f 00
        E 120 99 3f 4b
        E 120 89 3f 00
        E 120 99 3e 1f
        E 120 89 3e 00
        E 120 99 3e 0d
        E 120 89 3e 00
        E 120 99 3e 69
        E 120 89 3e 00
        E 120 99 40 5c
        E 120 89 40 00
        E 120 99 40 56
        E 120 89 40 00
        E 120 99 3e 1f
        E 120 89 3e 00
        E 120 99 3f 5a
        E 120 89 3f 00
        E 120 99 3f 54
        E 120 89 3f 00
        E 3960 99 3e 20
        E 120 89 3e 00
        E 120 99 3e 0c
        E 120 89 3e 00
        E 120 99 3e 6b
        E 120 89 3e 00
        E 120 99 3e 23
        E 120 89 3e 00
        E 120 99 3e 2b
        E 120 89 3e 00
        E 120 99 3e 0d
        E 120 89 3e 00
        E 120 99 3f 60
        E 120 89 3f 00
        E 120 99 3f 4b
        E 120 89 3f 00
        E 120 99 3e 1f
        E 120 89 3e 00
        E 120 99 3e 0d
        E 120 89 3e 00
        E 120 99 3e 69
        E 120 89 3e 00
        E 120 99 40 5c
        E 120 89 40 00
        E 120 99 40 56
        E 120 89 40 00
        E 120 99 3e 1f
        E 120 89 3e 00
        E 120 99 3f 5a
        E 120 89 3f 00
        E 120 99 3f 54
        E 120 89 3f 00
        E 120 99 3e 21
        E 120 89 3e 00
        E 120 99 3e 0c
        E 120 89 3e 00
        E 120 99 3e 6f
        E 120 89 3e 00
        E 120 99 3e 23
        E 120 89 3e 00
        E 120 99 3e 2b
        E 120 89 3e 00
        E 120 99 3e 0d
        E 120 89 3e 00
        E 120 99 3f 5e
        E 120 89 3f 00
        E 120 99 3f 4c
        E 120 89 3f 00
        E 120 99 3e 1f
        E 120 89 3e 00
        E 120 99 3e 0d
        E 120 89 3e 00
        E 120 99 3e 6d
        E 120 89 3e 00
        E 120 99 40 60
        E 120 89 40 00
        E 120 99 40 56
        E 120 89 40 00
        E 120 99 3e 1e
        E 120 89 3e 00
        E 120 99 3f 56
        E 120 89 3f 00
        E 120 99 3f 53
        E 120 89 3f 00
        E 120 99 3e 20
        E 120 89 3e 00
        E 120 99 3e 0c
        E 120 89 3e 00
        E 120 99 3e 6b
        E 120 89 3e 00
        E 120 99 3e 23
        E 120 89 3e 00
        E 120 99 3e 2b
        E 120 89 3e 00
        E 120 99 3e 0d
        E 120 89 3e 00
        E 120 99 3f 60
        E 120 89 3f 00
        E 120 99 3f 4b
        E 120 89 3f 00
        E 120 99 3e 1f
        E 120 89 3e 00
        E 120 99 3e 0d
        E 120 89 3e 00
        E 120 99 3e 69
        E 120 89 3e 00
        E 120 99 40 5c
        E 120 89 40 00
        E 120 99 40 56
        E 120 89 40 00
        E 120 99 3e 1f
        E 120 89 3e 00
        E 120 99 3f 5a
        E 120 89 3f 00
        E 120 99 3f 54
        E 120 89 3f 00
        E 120 99 3e 21
        E 120 89 3e 00
        E 120 99 3e 0c
        E 120 89 3e 00
        E 120 99 3e 6f
        E 120 89 3e 00
        E 120 99 3e 23
        E 120 89 3e 00
        E 120 99 3e 2b
        E 120 89 3e 00
        E 120 99 3e 0d
        E 120 89 3e 00
        E 120 99 3f 5e
        E 120 89 3f 00
        E 120 99 3f 4c
        E 120 89 3f 00
        E 120 99 3e 1f
        E 120 89 3e 00
        E 120 99 3e 0d
        E 120 89 3e 00
        E 120 99 3e 6d
        E 120 89 3e 00
        E 120 99 40 60
        E 120 89 40 00
        E 120 99 40 56
        E 120 89 40 00
        E 120 99 3e 1e
        E 120 89 3e 00
        E 120 99 3f 56
        E 120 89 3f 00
        E 120 99 3f 53
        E 120 89 3f 00
        E 120 99 3e 20
        E 120 89 3e 00
        E 120 99 3e 0c
        E 120 89 3e 00
        E 120 99 3e 6b
        E 120 89 3e 00
        E 120 99 3e 23
        E 120 89 3e 00
        E 120 99 3e 2b
        E 120 89 3e 00
        E 120 99 3e 0d
        E 120 89 3e 00
        E 120 99 3f 60
        E 120 89 3f 00
        E 120 99 3f 4b
        E 120 89 3f 00
        E 120 99 3e 1f
        E 120 89 3e 00
        E 120 99 3e 0d
        E 120 89 3e 00
        E 120 99 3e 69
        E 120 89 3e 00
        E 120 99 40 5c
        E 120 89 40 00
        E 120 99 40 56
        E 120 89 40 00
        E 120 99 3e 1f
        E 120 89 3e 00
        E 120 99 3f 5a
        E 120 89 3f 00
        E 120 99 3f 54
        E 120 89 3f 00
        E 120 99 3e 21
        E 120 89 3e 00
        E 120 99 3e 0c
        E 120 89 3e 00
        E 120 99 3e 6f
        E 120 89 3e 00
        E 120 99 3e 23
        E 120 89 3e 00
        E 120 99 3e 2b
        E 120 89 3e 00
        E 120 99 3e 0d
        E 120 89 3e 00
        E 120 99 3f 5e
        E 120 89 3f 00
        E 120 99 3f 4c
        E 120 89 3f 00
        E 120 99 3e 1f
        E 120 89 3e 00
        E 120 99 3e 0d
        E 120 89 3e 00
        E 120 99 3e 6d
        E 120 89 3e 00
        E 120 99 40 60
        E 120 89 40 00
        E 120 99 40 56
        E 120 89 40 00
        E 120 99 3e 1e
        E 120 89 3e 00
        E 120 99 3f 56
        E 120 89 3f 00
        E 120 99 3f 53
        E 120 89 3f 00
        E 120 99 3e 20
        E 120 89 3e 00
        E 120 99 3e 0c
        E 120 89 3e 00
        E 120 99 3e 6b
        E 120 89 3e 00
        E 120 99 3e 23
        E 120 89 3e 00
        E 120 99 3e 2b
        E 120 89 3e 00
        E 120 99 3e 0d
        E 120 89 3e 00
        E 120 99 3f 60
        E 120 89 3f 00
        E 120 99 3f 4b
        E 120 89 3f 00
        E 120 99 3e 1f
        E 120 89 3e 00
        E 120 99 3e 0d
        E 120 89 3e 00
        E 120 99 3e 69
        E 120 89 3e 00
        E 120 99 40 5c
        E 120 89 40 00
        E 120 99 40 56
        E 120 89 40 00
        E 120 99 3e 1f
        E 120 89 3e 00
        E 120 99 3f 5a
        E 120 89 3f 00
        E 120 99 3f 54
        E 120 89 3f 00
        E 120 99 3e 20
        E 120 89 3e 00
        E 120 99 3e 0c
        E 120 89 3e 00
        E 120 99 3e 6b
        E 120 89 3e 00
        E 120 99 3e 23
        E 120 89 3e 00
        E 120 99 3e 2b
        E 120 89 3e 00
        E 120 99 3e 0d
        E 120 89 3e 00
        E 120 99 3f 60
        E 120 89 3f 00
        E 120 99 3f 4b
        E 120 89 3f 00
        E 120 99 3e 1f
        E 120 89 3e 00
        E 120 99 3e 0d
        E 120 89 3e 00
        E 120 99 3e 69
        E 120 89 3e 00
        E 120 99 40 5c
        E 120 89 40 00
        E 120 99 40 56
        E 120 89 40 00
        E 120 99 3e 1f
        E 120 89 3e 00
        E 120 99 3f 5a
        E 120 89 3f 00
        E 120 99 3f 54
        E 120 89 3f 00
        E 120 99 3e 20
        E 120 89 3e 00
        E 120 99 3e 0c
        E 120 89 3e 00
        E 120 99 3e 6b
        E 120 89 3e 00
        E 120 99 3e 23
        E 120 89 3e 00
        E 120 99 3e 2b
        E 120 89 3e 00
        E 120 99 3e 0d
        E 120 89 3e 00
        E 120 99 3f 60
        E 120 89 3f 00
        E 120 99 3f 4b
        E 120 89 3f 00
        E 120 99 3e 1f
        E 120 89 3e 00
        E 120 99 3e 0d
        E 120 89 3e 00
        E 120 99 3e 69
        E 120 89 3e 00
        E 120 99 40 5c
        E 120 89 40 00
        E 120 99 40 56
        E 120 89 40 00
        E 120 99 3e 1f
        E 120 89 3e 00
        E 120 99 3f 5a
        E 120 89 3f 00
        E 120 99 3f 54
        E 120 89 3f 00
        E 3960 99 3e 20
        E 120 89 3e 00
        E 120 99 3e 0c
        E 120 89 3e 00
        E 120 99 3e 6b
        E 120 89 3e 00
        E 120 99 3e 23
        E 120 89 3e 00
        E 120 99 3e 2b
        E 120 89 3e 00
        E 120 99 3e 0d
        E 120 89 3e 00
        E 120 99 3f 60
        E 120 89 3f 00
        E 120 99 3f 4b
        E 120 89 3f 00
        E 120 99 3e 1f
        E 120 89 3e 00
        E 120 99 3e 0d
        E 120 89 3e 00
        E 120 99 3e 69
        E 120 89 3e 00
        E 120 99 40 5c
        E 120 89 40 00
        E 120 99 40 56
        E 120 89 40 00
        E 120 99 3e 1f
        E 120 89 3e 00
        E 120 99 3f 5a
        E 120 89 3f 00
        E 120 99 3f 54
        E 120 89 3f 00
        E 120 99 3e 21
        E 120 89 3e 00
        E 120 99 3e 0c
        E 120 89 3e 00
        E 120 99 3e 6f
        E 120 89 3e 00
        E 120 99 3e 23
        E 120 89 3e 00
        E 120 99 3e 2b
        E 120 89 3e 00
        E 120 99 3e 0d
        E 120 89 3e 00
        E 120 99 3f 5e
        E 120 89 3f 00
        E 120 99 3f 4c
        E 120 89 3f 00
        E 120 99 3e 1f
        E 120 89 3e 00
        E 120 99 3e 0d
        E 120 89 3e 00
        E 120 99 3e 6d
        E 120 89 3e 00
        E 120 99 40 60
        E 120 89 40 00
        E 120 99 40 56
        E 120 89 40 00
        E 120 99 3e 1e
        E 120 89 3e 00
        E 120 99 3f 56
        E 120 89 3f 00
        E 120 99 3f 53
        E 120 89 3f 00
        E 120 99 3e 20
        E 120 89 3e 00
        E 120 99 3e 0c
        E 120 89 3e 00
        E 120 99 3e 6b
        E 120 89 3e 00
        E 120 99 3e 23
        E 120 89 3e 00
        E 120 99 3e 2b
        E 120 89 3e 00
        E 120 99 3e 0d
        E 120 89 3e 00
        E 120 99 3f 60
        E 120 89 3f 00
        E 120 99 3f 4b
        E 120 89 3f 00
        E 120 99 3e 1f
        E 120 89 3e 00
        E 120 99 3e 0d
        E 120 89 3e 00
        E 120 99 3e 69
        E 120 89 3e 00
        E 120 99 40 5c
        E 120 89 40 00
        E 120 99 40 56
        E 120 89 40 00
        E 120 99 3e 1f
        E 120 89 3e 00
        E 120 99 3f 5a
        E 120 89 3f 00
        E 120 99 3f 54
        E 120 89 3f 00
        E 120 99 3e 21
        E 120 89 3e 00
        E 120 99 3e 0c
        E 120 89 3e 00
        E 120 99 3e 6f
        E 120 89 3e 00
        E 120 99 3e 23
        E 120 89 3e 00
        E 120 99 3e 2b
        E 120 89 3e 00
        E 120 99 3e 0d
        E 120 89 3e 00
        E 120 99 3f 5e
        E 120 89 3f 00
        E 120 99 3f 4c
        E 120 89 3f 00
        E 120 99 3e 1f
        E 120 89 3e 00
        E 120 99 3e 0d
        E 120 89 3e 00
        E 120 99 3e 6d
        E 120 89 3e 00
        E 120 99 40 60
        E 120 89 40 00
        E 120 99 40 56
        E 120 89 40 00
        E 120 99 3e 1e
        E 120 89 3e 00
        E 120 99 3f 56
        E 120 89 3f 00
        E 120 99 3f 53
        E 120 89 3f 00
        E 120 99 3e 20
        E 120 89 3e 00
        E 120 99 3e 0c
        E 120 89 3e 00
        E 120 99 3e 6b
        E 120 89 3e 00
        E 120 99 3e 23
        E 120 89 3e 00
        E 120 99 3e 2b
        E 120 89 3e 00
        E 120 99 3e 0d
        E 120 89 3e 00
        E 120 99 3f 60
        E 120 89 3f 00
        E 120 99 3f 4b
        E 120 89 3f 00
        E 120 99 3e 1f
        E 120 89 3e 00
        E 120 99 3e 0d
        E 120 89 3e 00
        E 120 99 3e 69
        E 120 89 3e 00
        E 120 99 40 5c
        E 120 89 40 00
        E 120 99 40 56
        E 120 89 40 00
        E 120 99 3e 1f
        E 120 89 3e 00
        E 120 99 3f 5a
        E 120 89 3f 00
        E 120 99 3f 54
        E 120 89 3f 00
        E 120 99 3e 21
        E 120 89 3e 00
        E 120 99 3e 0c
        E 120 89 3e 00
        E 120 99 3e 6f
        E 120 89 3e 00
        E 120 99 3e 23
        E 120 89 3e 00
        E 120 99 3e 2b
        E 120 89 3e 00
        E 120 99 3e 0d
        E 120 89 3e 00
        E 120 99 3f 5e
        E 120 89 3f 00
        E 120 99 3f 4c
        E 120 89 3f 00
        E 120 99 3e 1f
        E 120 89 3e 00
        E 120 99 3e 0d
        E 120 89 3e 00
        E 120 99 3e 6d
        E 120 89 3e 00
        E 120 99 40 60
        E 120 89 40 00
        E 120 99 40 56
        E 120 89 40 00
        E 120 99 3e 1e
        E 120 89 3e 00
        E 120 99 3f 56
        E 120 89 3f 00
        E 120 99 3f 53
        E 120 89 3f 00
        E 120 99 3e 20
        E 120 89 3e 00
        E 120 99 3e 0c
        E 120 89 3e 00
        E 120 99 3e 6b
        E 120 89 3e 00
        E 120 99 3e 23
        E 120 89 3e 00
        E 120 99 3e 2b
        E 120 89 3e 00
        E 120 99 3e 0d
        E 120 89 3e 00
        E 120 99 3f 60
        E 120 89 3f 00
        E 120 99 3f 4b
        E 120 89 3f 00
        E 120 99 3e 1f
        E 120 89 3e 00
        E 120 99 3e 0d
        E 120 89 3e 00
        E 120 99 3e 69
        E 120 89 3e 00
        E 120 99 40 5c
        E 120 89 40 00
        E 120 99 40 56
        E 120 89 40 00
        E 120 99 3e 1f
        E 120 89 3e 00
        E 120 99 3f 5a
        E 120 89 3f 00
        E 120 99 3f 54
        E 120 89 3f 00
        E 120 99 3e 20
        E 120 89 3e 00
        E 120 99 3e 0c
        E 120 89 3e 00
        E 120 99 3e 6b
        E 120 89 3e 00
        E 120 99 3e 23
        E 120 89 3e 00
        E 120 99 3e 2b
        E 120 89 3e 00
        E 120 99 3e 0d
        E 120 89 3e 00
        E 120 99 3f 60
        E 120 89 3f 00
        E 120 99 3f 4b
        E 120 89 3f 00
        E 120 99 3e 1f
        E 120 89 3e 00
        E 120 99 3e 0d
        E 120 89 3e 00
        E 120 99 3e 69
        E 120 89 3e 00
        E 120 99 40 5c
        E 120 89 40 00
        E 120 99 40 56
        E 120 89 40 00
        E 120 99 3e 1f
        E 120 89 3e 00
        E 120 99 3f 5a
        E 120 89 3f 00
        E 120 99 3f 54
        E 120 89 3f 00
        E 120 99 3e 20
        E 120 89 3e 00
        E 120 99 3e 0c
        E 120 89 3e 00
        E 120 99 3e 6b
        E 120 89 3e 00
        E 120 99 3e 23
        E 120 89 3e 00
        E 120 99 3e 2b
        E 120 89 3e 00
        E 120 99 3e 0d
        E 120 89 3e 00
        E 120 99 3f 60
        E 120 89 3f 00
        E 120 99 3f 4b
        E 120 89 3f 00
        E 120 99 3e 1f
        E 120 89 3e 00
        E 120 99 3e 0d
        E 120 89 3e 00
        E 120 99 3e 69
        E 120 89 3e 00
        E 120 99 40 5c
        E 120 89 40 00
        E 120 99 40 56
        E 120 89 40 00
        E 120 99 3e 1f
        E 120 89 3e 00
        E 120 99 3f 5a
        E 120 89 3f 00
        E 120 99 3f 54
        E 120 89 3f 00
        E 3960 99 3e 20
        E 120 89 3e 00
        E 120 99 3e 0c
        E 120 89 3e 00
        E 120 99 3e 6b
        E 120 89 3e 00
        E 120 99 3e 23
        E 120 89 3e 00
        E 120 99 3e 2b
        E 120 89 3e 00
        E 120 99 3e 0d
        E 120 89 3e 00
        E 120 99 3f 60
        E 120 89 3f 00
        E 120 99 3f 4b
        E 120 89 3f 00
        E 120 99 3e 1f
        E 120 89 3e 00
        E 120 99 3e 0d
        E 120 89 3e 00
        E 120 99 3e 69
        E 120 89 3e 00
        E 120 99 40 5c
        E 120 89 40 00
        E 120 99 40 56
        E 120 89 40 00
        E 120 99 3e 1f
        E 120 89 3e 00
        E 120 99 3f 5a
        E 120 89 3f 00
        E 120 99 3f 54
        E 120 89 3f 00
        E 120 99 3e 21
        E 120 89 3e 00
        E 120 99 3e 0c
        E 120 89 3e 00
        E 120 99 3e 6f
        E 120 89 3e 00
        E 120 99 3e 23
        E 120 89 3e 00
        E 120 99 3e 2b
        E 120 89 3e 00
        E 120 99 3e 0d
        E 120 89 3e 00
        E 120 99 3f 5e
        E 120 89 3f 00
        E 120 99 3f 4c
        E 120 89 3f 00
        E 120 99 3e 1f
        E 120 89 3e 00
        E 120 99 3e 0d
        E 120 89 3e 00
        E 120 99 3e 6d
        E 120 89 3e 00
        E 120 99 40 60
        E 120 89 40 00
        E 120 99 40 56
        E 120 89 40 00
        E 120 99 3e 1e
        E 120 89 3e 00
        E 120 99 3f 56
        E 120 89 3f 00
        E 120 99 3f 53
        E 120 89 3f 00
        E 120 99 3e 20
        E 120 89 3e 00
        E 120 99 3e 0c
        E 120 89 3e 00
        E 120 99 3e 6b
        E 120 89 3e 00
        E 120 99 3e 23
        E 120 89 3e 00
        E 120 99 3e 2b
        E 120 89 3e 00
        E 120 99 3e 0d
        E 120 89 3e 00
        E 120 99 3f 60
        E 120 89 3f 00
        E 120 99 3f 4b
        E 120 89 3f 00
        E 120 99 3e 1f
        E 120 89 3e 00
        E 120 99 3e 0d
        E 120 89 3e 00
        E 120 99 3e 69
        E 120 89 3e 00
        E 120 99 40 5c
        E 120 89 40 00
        E 120 99 40 56
        E 120 89 40 00
        E 120 99 3e 1f
        E 120 89 3e 00
        E 120 99 3f 5a
        E 120 89 3f 00
        E 120 99 3f 54
        E 120 89 3f 00
        E 120 99 3e 21
        E 120 89 3e 00
        E 120 99 3e 0c
        E 120 89 3e 00
        E 120 99 3e 6f
        E 120 89 3e 00
        E 120 99 3e 23
        E 120 89 3e 00
        E 120 99 3e 2b
        E 120 89 3e 00
        E 120 99 3e 0d
        E 120 89 3e 00
        E 120 99 3f 5e
        E 120 89 3f 00
        E 120 99 3f 4c
        E 120 89 3f 00
        E 120 99 3e 1f
        E 120 89 3e 00
        E 120 99 3e 0d
        E 120 89 3e 00
        E 120 99 3e 6d
        E 120 89 3e 00
        E 120 99 40 60
        E 120 89 40 00
        E 120 99 40 56
        E 120 89 40 00
        E 120 99 3e 1e
        E 120 89 3e 00
        E 120 99 3f 56
        E 120 89 3f 00
        E 120 99 3f 53
        E 120 89 3f 00
        E 120 99 3e 20
        E 120 89 3e 00
        E 120 99 3e 0c
        E 120 89 3e 00
        E 120 99 3e 6b
        E 120 89 3e 00
        E 120 99 3e 23
        E 120 89 3e 00
        E 120 99 3e 2b
        E 120 89 3e 00
        E 120 99 3e 0d
        E 120 89 3e 00
        E 120 99 3f 60
        E 120 89 3f 00
        E 120 99 3f 4b
        E 120 89 3f 00
        E 120 99 3e 1f
        E 120 89 3e 00
        E 120 99 3e 0d
        E 120 89 3e 00
        E 120 99 3e 69
        E 120 89 3e 00
        E 120 99 40 5c
        E 120 89 40 00
        E 120 99 40 56
        E 120 89 40 00
        E 120 99 3e 1f
        E 120 89 3e 00
        E 120 99 3f 5a
        E 120 89 3f 00
        E 120 99 3f 54
        E 120 89 3f 00
        E 120 99 3e 21
        E 120 89 3e 00
        E 120 99 3e 0c
        E 120 89 3e 00
        E 120 99 3e 6f
        E 120 89 3e 00
        E 120 99 3e 23
        E 120 89 3e 00
        E 120 99 3e 2b
        E 120 89 3e 00
        E 120 99 3e 0d
        E 120 89 3e 00
        E 120 99 3f 5e
        E 120 89 3f 00
        E 120 99 3f 4c
        E 120 89 3f 00
        E 120 99 3e 1f
        E 120 89 3e 00
        E 120 99 3e 0d
        E 120 89 3e 00
        E 120 99 3e 6d
        E 120 89 3e 00
        E 120 99 40 60
        E 120 89 40 00
        E 120 99 40 56
        E 120 89 40 00
        E 120 99 3e 1e
        E 120 89 3e 00
        E 120 99 3f 56
        E 120 89 3f 00
        E 120 99 3f 53
        E 120 89 3f 00
        E 3960 99 3e 20
        E 120 89 3e 00
        E 120 99 3e 0c
        E 120 89 3e 00
        E 120 99 3e 6b
        E 120 89 3e 00
        E 120 99 3e 23
        E 120 89 3e 00
        E 120 99 3e 2b
        E 120 89 3e 00
        E 120 99 3e 0d
        E 120 89 3e 00
        E 120 99 3f 60
        E 120 89 3f 00
        E 120 99 3f 4b
        E 120 89 3f 00
        E 120 99 3e 1f
        E 120 89 3e 00
        E 120 99 3e 0d
        E 120 89 3e 00
        E 120 99 3e 69
        E 120 89 3e 00
        E 120 99 40 5c
        E 120 89 40 00
        E 120 99 40 56
        E 120 89 40 00
        E 120 99 3e 1f
        E 120 89 3e 00
        E 120 99 3f 5a
        E 120 89 3f 00
        E 120 99 3f 54
        E 120 89 3f 00
        E 120 99 3e 21
        E 120 89 3e 00
        E 120 99 3e 0c
        E 120 89 3e 00
        E 120 99 3e 6f
        E 120 89 3e 00
        E 120 99 3e 23
        E 120 89 3e 00
        E 120 99 3e 2b
        E 120 89 3e 00
        E 120 99 3e 0d
        E 120 89 3e 00
        E 120 99 3f 5e
        E 120 89 3f 00
        E 120 99 3f 4c
        E 120 89 3f 00
        E 120 99 3e 1f
        E 120 89 3e 00
        E 120 99 3e 0d
        E 120 89 3e 00
        E 120 99 3e 6d
        E 120 89 3e 00
        E 120 99 40 60
        E 120 89 40 00
        E 120 99 40 56
        E 120 89 40 00
        E 120 99 3e 1e
        E 120 89 3e 00
        E 120 99 3f 56
        E 120 89 3f 00
        E 120 99 3f 53
        E 120 89 3f 00
        E 120 99 3e 20
        E 120 89 3e 00
        E 120 99 3e 0c
        E 120 89 3e 00
        E 120 99 3e 6b
        E 120 89 3e 00
        E 120 99 3e 23
        E 120 89 3e 00
        E 120 99 3e 2b
        E 120 89 3e 00
        E 120 99 3e 0d
        E 120 89 3e 00
        E 120 99 3f 60
        E 120 89 3f 00
        E 120 99 3f 4b
        E 120 89 3f 00
        E 120 99 3e 1f
        E 120 89 3e 00
        E 120 99 3e 0d
        E 120 89 3e 00
        E 120 99 3e 69
        E 120 89 3e 00
        E 120 99 40 5c
        E 120 89 40 00
        E 120 99 40 56
        E 120 89 40 00
        E 120 99 3e 1f
        E 120 89 3e 00
        E 120 99 3f 5a
        E 120 89 3f 00
        E 120 99 3f 54
        E 120 89 3f 00
        E 120 99 3e 21
        E 120 89 3e 00
        E 120 99 3e 0c
        E 120 89 3e 00
        E 120 99 3e 6f
        E 120 89 3e 00
        E 120 99 3e 23
        E 120 89 3e 00
        E 120 99 3e 2b
        E 120 89 3e 00
        E 120 99 3e 0d
        E 120 89 3e 00
        E 120 99 3f 5e
        E 120 89 3f 00
        E 120 99 3f 4c
        E 120 89 3f 00
        E 120 99 3e 1f
        E 120 89 3e 00
        E 120 99 3e 0d
        E 120 89 3e 00
        E 120 99 3e 6d
        E 120 89 3e 00
        E 120 99 40 60
        E 120 89 40 00
        E 120 99 40 56
        E 120 89 40 00
        E 120 99 3e 1e
        E 120 89 3e 00
        E 120 99 3f 56
        E 120 89 3f 00
        E 120 99 3f 53
        E 120 89 3f 00
        E 120 99 3e 20
        E 120 89 3e 00
        E 120 99 3e 0c
        E 120 89 3e 00
        E 120 99 3e 6b
        E 120 89 3e 00
        E 120 99 3e 23
        E 120 89 3e 00
        E 120 99 3e 2b
        E 120 89 3e 00
        E 120 99 3e 0d
        E 120 89 3e 00
        E 120 99 3f 60
        E 120 89 3f 00
        E 120 99 3f 4b
        E 120 89 3f 00
        E 120 99 3e 1f
        E 120 89 3e 00
        E 120 99 3e 0d
        E 120 89 3e 00
        E 120 99 3e 69
        E 120 89 3e 00
        E 120 99 40 5c
        E 120 89 40 00
        E 120 99 40 56
        E 120 89 40 00
        E 120 99 3e 1f
        E 120 89 3e 00
        E 120 99 3f 5a
        E 120 89 3f 00
        E 120 99 3f 54
        E 120 89 3f 00
        E 120 99 3e 21
        E 120 89 3e 00
        E 120 99 3e 0c
        E 120 89 3e 00
        E 120 99 3e 6f
        E 120 89 3e 00
        E 120 99 3e 23
        E 120 89 3e 00
        E 120 99 3e 2b
        E 120 89 3e 00
        E 120 99 3e 0d
        E 120 89 3e 00
        E 120 99 3f 5e
        E 120 89 3f 00
        E 120 99 3f 4c
        E 120 89 3f 00
        E 120 99 3e 1f
        E 120 89 3e 00
        E 120 99 3e 0d
        E 120 89 3e 00
        E 120 99 3e 6d
        E 120 89 3e 00
        E 120 99 40 60
        E 120 89 40 00
        E 120 99 40 56
        E 120 89 40 00
        E 120 99 3e 1e
        E 120 89 3e 00
        E 120 99 3f 56
        E 120 89 3f 00
        E 120 99 3f 53
        E 120 89 3f 00
        E 120 99 3e 20
        E 120 89 3e 00
        E 120 99 3e 0c
        E 120 89 3e 00
        E 120 99 3e 6b
        E 120 89 3e 00
        E 120 99 3e 23
        E 120 89 3e 00
        E 120 99 3e 2b
        E 120 89 3e 00
        E 120 99 3e 0d
        E 120 89 3e 00
        E 120 99 3f 60
        E 120 89 3f 00
        E 120 99 3f 4b
        E 120 89 3f 00
        E 120 99 3e 1f
        E 120 89 3e 00
        E 120 99 3e 0d
        E 120 89 3e 00
        E 120 99 3e 69
        E 120 89 3e 00
        E 120 99 40 5c
        E 120 89 40 00
        E 120 99 40 56
        E 120 89 40 00
        E 120 99 3e 1f
        E 120 89 3e 00
        E 120 99 3f 5a
        E 120 89 3f 00
        E 120 99 3f 54
        E 120 89 3f 00
        E 3960 99 3e 20
        E 120 89 3e 00
        E 120 99 3e 0c
        E 120 89 3e 00
        E 120 99 3e 6b
        E 120 89 3e 00
        E 120 99 3e 23
        E 120 89 3e 00
        E 120 99 3e 2b
        E 120 89 3e 00
        E 120 99 3e 0d
        E 120 89 3e 00
        E 120 99 3f 60
        E 120 89 3f 00
        E 120 99 3f 4b
        E 120 89 3f 00
        E 120 99 3e 1f
        E 120 89 3e 00
        E 120 99 3e 0d
        E 120 89 3e 00
        E 120 99 3e 69
        E 120 89 3e 00
        E 120 99 40 5c
        E 120 89 40 00
        E 120 99 40 56
        E 120 89 40 00
        E 120 99 3e 1f
        E 120 89 3e 00
        E 120 99 3f 5a
        E 120 89 3f 00
        E 120 99 3f 54
        E 120 89 3f 00
        E 120 99 3e 21
        E 120 89 3e 00
        E 120 99 3e 0c
        E 120 89 3e 00
        E 120 99 3e 6f
        E 120 89 3e 00
        E 120 99 3e 23
        E 120 89 3e 00
        E 120 99 3e 2b
        E 120 89 3e 00
        E 120 99 3e 0d
        E 120 89 3e 00
        E 120 99 3f 5e
        E 120 89 3f 00
        E 120 99 3f 4c
        E 120 89 3f 00
        E 120 99 3e 1f
        E 120 89 3e 00
        E 120 99 3e 0d
        E 120 89 3e 00
        E 120 99 3e 6d
        E 120 89 3e 00
        E 120 99 40 60
        E 120 89 40 00
        E 120 99 40 56
        E 120 89 40 00
        E 120 99 3e 1e
        E 120 89 3e 00
        E 120 99 3f 56
        E 120 89 3f 00
        E 120 99 3f 53
        E 120 89 3f 00
        E 120 99 3e 20
        E 120 89 3e 00
        E 120 99 3e 0c
        E 120 89 3e 00
        E 120 99 3e 6b
        E 120 89 3e 00
        E 120 99 3e 23
        E 120 89 3e 00
        E 120 99 3e 2b
        E 120 89 3e 00
        E 120 99 3e 0d
        E 120 89 3e 00
        E 120 99 3f 60
        E 120 89 3f 00
        E 120 99 3f 4b
        E 120 89 3f 00
        E 120 99 3e 1f
        E 120 89 3e 00
        E 120 99 3e 0d
        E 120 89 3e 00
        E 120 99 3e 69
        E 120 89 3e 00
        E 120 99 40 5c
        E 120 89 40 00
        E 120 99 40 56
        E 120 89 40 00
        E 120 99 3e 1f
        E 120 89 3e 00
        E 120 99 3f 5a
        E 120 89 3f 00
        E 120 99 3f 54
        E 120 89 3f 00
        E 120 99 3e 21
        E 120 89 3e 00
        E 120 99 3e 0c
        E 120 89 3e 00
        E 120 99 3e 6f
        E 120 89 3e 00
        E 120 99 3e 23
        E 120 89 3e 00
        E 120 99 3e 2b
        E 120 89 3e 00
        E 120 99 3e 0d
        E 120 89 3e 00
        E 120 99 3f 5e
        E 120 89 3f 00
        E 120 99 3f 4c
        E 120 89 3f 00
        E 2040 99 3e 20
        E 120 89 3e 00
        E 120 99 3e 0c
        E 120 89 3e 00
        E 120 99 3e 6b
        E 120 89 3e 00
        E 120 99 3e 23
        E 120 89 3e 00
        E 120 99 3e 2b
        E 120 89 3e 00
        E 120 99 3e 0d
        E 120 89 3e 00
        E 120 99 3f 60
        E 120 89 3f 00
        E 120 99 3f 4b
        E 120 89 3f 00
        E 120 99 3e 1f
        E 120 89 3e 00
        E 120 99 3e 0d
        E 120 89 3e 00
        E 120 99 3e 69
        E 120 89 3e 00
        E 120 99 40 5c
        E 120 89 40 00
        E 120 99 40 56
        E 120 89 40 00
        E 120 99 3e 1f
        E 120 89 3e 00
        E 120 99 3f 5a
        E 120 89 3f 00
        E 120 99 3f 54
        E 120 89 3f 00
        E 120 99 3e 21
        E 120 89 3e 00
        E 120 99 3e 0c
        E 120 89 3e 00
        E 120 99 3e 6f
        E 120 89 3e 00
        E 120 99 3e 23
        E 120 89 3e 00
        E 120 99 3e 2b
        E 120 89 3e 00
        E 120 99 3e 0d
        E 120 89 3e 00
        E 120 99 3f 5e
        E 120 89 3f 00
        E 120 99 3f 4c
        E 120 89 3f 00
        E 120 99 3e 1f
        E 120 89 3e 00
        E 120 99 3e 0d
        E 120 89 3e 00
        E 120 99 3e 6d
        E 120 89 3e 00
        E 120 99 40 60
        E 120 89 40 00
        E 120 99 40 56
        E 120 89 40 00
        E 120 99 3e 1e
        E 120 89 3e 00
        E 120 99 3f 56
        E 120 89 3f 00
        E 120 99 3f 53
        E 120 89 3f 00
        E 120 99 3e 20
        E 120 89 3e 00
        E 120 99 3e 0c
        E 120 89 3e 00
        E 120 99 3e 6b
        E 120 89 3e 00
        E 120 99 3e 23
        E 120 89 3e 00
        E 120 99 3e 2b
        E 120 89 3e 00
        E 120 99 3e 0d
        E 120 89 3e 00
        E 120 99 3f 60
        E 120 89 3f 00
        E 120 99 3f 4b
        E 120 89 3f 00
        E 120 99 3e 1f
        E 120 89 3e 00
        E 120 99 3e 0d
        E 120 89 3e 00
        E 120 99 3e 69
        E 120 89 3e 00
        E 120 99 40 5c
        E 120 89 40 00
        E 120 99 40 56
        E 120 89 40 00
        E 120 99 3e 1f
        E 120 89 3e 00
        E 120 99 3f 5a
        E 120 89 3f 00
        E 120 99 3f 54
        E 120 89 3f 00
        E 3960 99 3e 20
        E 120 89 3e 00
        E 120 99 3e 0c
        E 120 89 3e 00
        E 120 99 3e 6b
        E 120 89 3e 00
        E 120 99 3e 23
        E 120 89 3e 00
        E 120 99 3e 2b
        E 120 89 3e 00
        E 120 99 3e 0d
        E 120 89 3e 00
        E 120 99 3f 60
        E 120 89 3f 00
        E 120 99 3f 4b
        E 120 89 3f 00
        E 120 99 3e 1f
        E 120 89 3e 00
        E 120 99 3e 0d
        E 120 89 3e 00
        E 120 99 3e 69
        E 120 89 3e 00
        E 120 99 40 5c
        E 120 89 40 00
        E 120 99 40 56
        E 120 89 40 00
        E 120 99 3e 1f
        E 120 89 3e 00
        E 120 99 3f 5a
        E 120 89 3f 00
        E 120 99 3f 54
        E 120 89 3f 00
        E 120 99 3e 21
        E 120 89 3e 00
        E 120 99 3e 0c
        E 120 89 3e 00
        E 120 99 3e 6f
        E 120 89 3e 00
        E 120 99 3e 23
        E 120 89 3e 00
        E 120 99 3e 2b
        E 120 89 3e 00
        E 120 99 3e 0d
        E 120 89 3e 00
        E 120 99 3f 5e
        E 120 89 3f 00
        E 120 99 3f 4c
        E 120 89 3f 00
        E 120 99 3e 1f
        E 120 89 3e 00
        E 120 99 3e 0d
        E 120 89 3e 00
        E 120 99 3e 6d
        E 120 89 3e 00
        E 120 99 40 60
        E 120 89 40 00
        E 120 99 40 56
        E 120 89 40 00
        E 120 99 3e 1e
        E 120 89 3e 00
        E 120 99 3f 56
        E 120 89 3f 00
        E 120 99 3f 53
        E 120 89 3f 00
        E 120 99 3e 20
        E 120 89 3e 00
        E 120 99 3e 0c
        E 120 89 3e 00
        E 120 99 3e 6b
        E 120 89 3e 00
        E 120 99 3e 23
        E 120 89 3e 00
        E 120 99 3e 2b
        E 120 89 3e 00
        E 120 99 3e 0d
        E 120 89 3e 00
        E 120 99 3f 60
        E 120 89 3f 00
        E 120 99 3f 4b
        E 120 89 3f 00
        E 120 99 3e 1f
        E 120 89 3e 00
        E 120 99 3e 0d
        E 120 89 3e 00
        E 120 99 3e 69
        E 120 89 3e 00
        E 120 99 40 5c
        E 120 89 40 00
        E 120 99 40 56
        E 120 89 40 00
        E 120 99 3e 1f
        E 120 89 3e 00
        E 120 99 3f 5a
        E 120 89 3f 00
        E 120 99 3f 54
        E 120 89 3f 00
        E 120 99 3e 21
        E 120 89 3e 00
        E 120 99 3e 0c
        E 120 89 3e 00
        E 120 99 3e 6f
        E 120 89 3e 00
        E 120 99 3e 23
        E 120 89 3e 00
        E 120 99 3e 2b
        E 120 89 3e 00
        E 120 99 3e 0d
        E 120 89 3e 00
        E 120 99 3f 5e
        E 120 89 3f 00
        E 120 99 3f 4c
        E 120 89 3f 00
        E 120 99 3e 1f
        E 120 89 3e 00
        E 120 99 3e 0d
        E 120 89 3e 00
        E 120 99 3e 6d
        E 120 89 3e 00
        E 120 99 40 60
        E 120 89 40 00
        E 120 99 40 56
        E 120 89 40 00
        E 120 99 3e 1e
        E 120 89 3e 00
        E 120 99 3f 56
        E 120 89 3f 00
        E 120 99 3f 53
        E 120 89 3f 00
        E 120 99 3e 20
        E 120 89 3e 00
        E 120 99 3e 0c
        E 120 89 3e 00
        E 120 99 3e 6b
        E 120 89 3e 00
        E 120 99 3e 23
        E 120 89 3e 00
        E 120 99 3e 2b
        E 120 89 3e 00
        E 120 99 3e 0d
        E 120 89 3e 00
        E 120 99 3f 60
        E 120 89 3f 00
        E 120 99 3f 4b
        E 120 89 3f 00
        E 120 99 3e 1f
        E 120 89 3e 00
        E 120 99 3e 0d
        E 120 89 3e 00
        E 120 99 3e 69
        E 120 89 3e 00
        E 120 99 40 5c
        E 120 89 40 00
        E 120 99 40 56
        E 120 89 40 00
        E 120 99 3e 1f
        E 120 89 3e 00
        E 120 99 3f 5a
        E 120 89 3f 00
        E 120 99 3f 54
        E 120 89 3f 00
        E 34680 99 3e 20
        E 120 89 3e 00
        E 120 99 3e 0c
        E 120 89 3e 00
        E 120 99 3e 6b
        E 120 89 3e 00
        E 120 99 3e 23
        E 120 89 3e 00
        E 120 99 3e 2b
        E 120 89 3e 00
        E 120 99 3e 0d
        E 120 89 3e 00
        E 120 99 3f 60
        E 120 89 3f 00
        E 120 99 3f 4b
        E 120 89 3f 00
        E 120 99 3e 1f
        E 120 89 3e 00
        E 120 99 3e 0d
        E 120 89 3e 00
        E 120 99 3e 69
        E 120 89 3e 00
        E 120 99 40 5c
        E 120 89 40 00
        E 120 99 40 56
        E 120 89 40 00
        E 120 99 3e 1f
        E 120 89 3e 00
        E 120 99 3f 5a
        E 120 89 3f 00
        E 120 99 3f 54
        E 120 89 3f 00
        E 120 99 3e 21
        E 120 89 3e 00
        E 120 99 3e 0c
        E 120 89 3e 00
        E 120 99 3e 6f
        E 120 89 3e 00
        E 120 99 3e 23
        E 120 89 3e 00
        E 120 99 3e 2b
        E 120 89 3e 00
        E 120 99 3e 0d
        E 120 89 3e 00
        E 120 99 3f 5e
        E 120 89 3f 00
        E 120 99 3f 4c
        E 120 89 3f 00
        E 120 99 3e 1f
        E 120 89 3e 00
        E 120 99 3e 0d
        E 120 89 3e 00
        E 120 99 3e 6d
        E 120 89 3e 00
        E 120 99 40 60
        E 120 89 40 00
        E 120 99 40 56
        E 120 89 40 00
        E 120 99 3e 1e
        E 120 89 3e 00
        E 120 99 3f 56
        E 120 89 3f 00
        E 120 99 3f 53
        E 120 89 3f 00
        E 120 99 3e 20
        E 120 89 3e 00
        E 120 99 3e 0c
        E 120 89 3e 00
        E 120 99 3e 6b
        E 120 89 3e 00
        E 120 99 3e 23
        E 120 89 3e 00
        E 120 99 3e 2b
        E 120 89 3e 00
        E 120 99 3e 0d
        E 120 89 3e 00
        E 120 99 3f 60
        E 120 89 3f 00
        E 120 99 3f 4b
        E 120 89 3f 00
        E 120 99 3e 1f
        E 120 89 3e 00
        E 120 99 3e 0d
        E 120 89 3e 00
        E 120 99 3e 69
        E 120 89 3e 00
        E 120 99 40 5c
        E 120 89 40 00
        E 120 99 40 56
        E 120 89 40 00
        E 120 99 3e 1f
        E 120 89 3e 00
        E 120 99 3f 5a
        E 120 89 3f 00
        E 120 99 3f 54
        E 120 89 3f 00
        E 3960 99 3e 20
        E 120 89 3e 00
        E 120 99 3e 0c
        E 120 89 3e 00
        E 120 99 3e 6b
        E 120 89 3e 00
        E 120 99 3e 23
        E 120 89 3e 00
        E 120 99 3e 2b
        E 120 89 3e 00
        E 120 99 3e 0d
        E 120 89 3e 00
        E 120 99 3f 60
        E 120 89 3f 00
        E 120 99 3f 4b
        E 120 89 3f 00
        E 120 99 3e 1f
        E 120 89 3e 00
        E 120 99 3e 0d
        E 120 89 3e 00
        E 120 99 3e 69
        E 120 89 3e 00
        E 120 99 40 5c
        E 120 89 40 00
        E 120 99 40 56
        E 120 89 40 00
        E 120 99 3e 1f
        E 120 89 3e 00
        E 120 99 3f 5a
        E 120 89 3f 00
        E 120 99 3f 54
        E 120 89 3f 00
        E 120 99 3e 21
        E 120 89 3e 00
        E 120 99 3e 0c
        E 120 89 3e 00
        E 120 99 3e 6f
        E 120 89 3e 00
        E 120 99 3e 23
        E 120 89 3e 00
        E 120 99 3e 2b
        E 120 89 3e 00
        E 120 99 3e 0d
        E 120 89 3e 00
        E 120 99 3f 5e
        E 120 89 3f 00
        E 120 99 3f 4c
        E 120 89 3f 00
        E 120 99 3e 1f
        E 120 89 3e 00
        E 120 99 3e 0d
        E 120 89 3e 00
        E 120 99 3e 6d
        E 120 89 3e 00
        E 120 99 40 60
        E 120 89 40 00
        E 120 99 40 56
        E 120 89 40 00
        E 120 99 3e 1e
        E 120 89 3e 00
        E 120 99 3f 56
        E 120 89 3f 00
        E 120 99 3f 53
        E 120 89 3f 00
        E 120 99 3e 20
        E 120 89 3e 00
        E 120 99 3e 0c
        E 120 89 3e 00
        E 120 99 3e 6b
        E 120 89 3e 00
        E 120 99 3e 23
        E 120 89 3e 00
        E 120 99 3e 2b
        E 120 89 3e 00
        E 120 99 3e 0d
        E 120 89 3e 00
        E 120 99 3f 60
        E 120 89 3f 00
        E 120 99 3f 4b
        E 120 89 3f 00
        E 120 99 3e 1f
        E 120 89 3e 00
        E 120 99 3e 0d
        E 120 89 3e 00
        E 120 99 3e 69
        E 120 89 3e 00
        E 120 99 40 5c
        E 120 89 40 00
        E 120 99 40 56
        E 120 89 40 00
        E 120 99 3e 1f
        E 120 89 3e 00
        E 120 99 3f 5a
        E 120 89 3f 00
        E 120 99 3f 54
        E 120 89 3f 00
        E 3960 99 3e 20
        E 120 89 3e 00
        E 120 99 3e 0c
        E 120 89 3e 00
        E 120 99 3e 6b
        E 120 89 3e 00
        E 120 99 3e 23
        E 120 89 3e 00
        E 120 99 3e 2b
        E 120 89 3e 00
        E 120 99 3e 0d
        E 120 89 3e 00
        E 120 99 3f 60
        E 120 89 3f 00
        E 120 99 3f 4b
        E 120 89 3f 00
        E 120 99 3e 1f
        E 120 89 3e 00
        E 120 99 3e 0d
        E 120 89 3e 00
        E 120 99 3e 69
        E 120 89 3e 00
        E 120 99 40 5c
        E 120 89 40 00
        E 120 99 40 56
        E 120 89 40 00
        E 120 99 3e 1f
        E 120 89 3e 00
        E 120 99 3f 5a
        E 120 89 3f 00
        E 120 99 3f 54
        E 120 89 3f 00
        E 120 99 3e 21
        E 120 89 3e 00
        E 120 99 3e 0c
        E 120 89 3e 00
        E 120 99 3e 6f
        E 120 89 3e 00
        E 120 99 3e 23
        E 120 89 3e 00
        E 120 99 3e 2b
        E 120 89 3e 00
        E 120 99 3e 0d
        E 120 89 3e 00
        E 120 99 3f 5e
        E 120 89 3f 00
        E 120 99 3f 4c
        E 120 89 3f 00
        E 120 99 3e 1f
        E 120 89 3e 00
        E 120 99 3e 0d
        E 120 89 3e 00
        E 120 99 3e 6d
        E 120 89 3e 00
        E 120 99 40 60
        E 120 89 40 00
        E 120 99 40 56
        E 120 89 40 00
        E 120 99 3e 1e
        E 120 89 3e 00
        E 120 99 3f 56
        E 120 89 3f 00
        E 120 99 3f 53
        E 120 89 3f 00
        E 15480 b0 7b 00
        CCINTERP 32
        CHASE_CC_TAKEOFFS 1
        GUID {A089D4D0-8A55-4844-B518-C10B3DEC0916}
        IGNTEMPO 0 120 4 4
        SRCCOLOR 172
        VELLANE 131 94 0
        CFGEDITVIEW 0 0.000706 63 12 0 -1 0 0 0 0.5
        KEYSNAP 0
        TRACKSEL 258
        EVTFILTER 0 -1 -1 -1 -1 0 0 0 0 -1 -1 -1 -1 0 -1 0 -1 -1
        CFGEDIT 1 1 0 1 0 0 1 1 1 1 1 0.125 32 75 817 715 0 0 0 0 0 0 0 1 0 0.5 0 0 1 64
      >
    >
  >
  <TRACK {AC9127EE-0EED-4ACD-86AC-D0B41FAFCA5F}
    NAME BASS
    PEAKCOL 16576
    BEAT -1
    AUTOMODE 0
    VOLPAN 1 0 -1 -1 1
    MUTESOLO 0 0 0
    IPHASE 0
    PLAYOFFS 0 1
    ISBUS 0 0
    BUSCOMP 0 0 0 0 0
    SHOWINMIX 1 0.6667 0.5 1 0.5 0 -1 0
    SEL 0
    REC 0 0 1 0 0 0 0 0
    VU 2
    TRACKHEIGHT 0 0 0 0 0 0
    INQ 0 0 0 0.5 100 0 0 100
    NCHAN 2
    FX 1
    TRACKID {AC9127EE-0EED-4ACD-86AC-D0B41FAFCA5F}
    PERF 0
    MIDIOUT -1
    MAINSEND 1 0
    <ITEM
      POSITION 0
      SNAPOFFS 0
      LENGTH 387.2
      LOOP 1
      ALLTAKES 0
      FADEIN 1 0 0 1 0 0 0
      FADEOUT 1 0 0 1 0 0 0
      MUTE 0 0
      SEL 0
      IGUID {41ED94AB-E782-4066-832E-401388F7224B}
      IID 31
      NAME "BASS - Voz Da Verdade - Além Do Rio Azul - E-grudado"
      VOLPAN 1 0 1 -1
      SOFFS 0 0
      PLAYRATE 1 1 0 -1 0 0.0025
      CHANMODE 0
      GUID {4DF37A2C-E7D4-4936-BAE5-A75B005C04C0}
      <SOURCE MIDI
        HASDATA 1 960 QN
        CCINTERP 32
        POOLEDEVTS {242453B7-AA73-4AE7-84B5-1A63A8AD3223}
        <X 0 0 0 0 3 BASS
          /wNCQVNT
        >
        E 0 ca 21 00
        E 3840 9a 28 5d
        E 1824 9a 28 00
        E 96 9a 23 5f
        E 1406 9a 23 00
        E 34 9a 20 5d
        E 218 9a 20 00
        E 22 9a 23 67
        E 240 9a 25 5e
        E 2 9a 23 00
        E 3052 9a 25 00
        E 306 9a 25 64
        E 214 9a 25 00
        E 26 9a 27 5d
        E 230 9a 27 00
        E 10 9a 28 65
        E 1652 9a 28 00
        E 268 9a 23 66
        E 1782 9a 23 00
        E 138 9a 25 61
        E 2930 9a 25 00
        E 190 9a 31 5d
        E 240 9a 2c 65
        E 40 9a 31 00
        E 148 9a 2c 00
        E 52 9a 25 64
        E 226 9a 25 00
        E 14 9a 21 64
        E 1740 9a 21 00
        E 180 9a 23 5e
        E 1860 9a 23 00
        E 60 9a 28 5e
        E 1816 9a 28 00
        E 104 9a 1c 60
        E 140 9a 1c 00
        E 340 9a 1c 63
        E 1370 9a 1c 00
        E 70 9a 28 5c
        E 1416 9a 28 00
        E 24 9a 23 68
        E 240 9a 25 61
        E 22 9a 23 00
        E 198 9a 25 00
        E 20 9a 28 64
        E 146 9a 28 00
        E 334 9a 28 60
        E 900 9a 28 00
        E 60 9a 23 5f
        E 434 9a 23 00
        E 46 9a 1c 5f
        E 1588 9a 1c 00
        E 92 9a 23 62
        E 240 9a 28 66
        E 16 9a 23 00
        E 158 9a 28 00
        E 306 9a 28 63
        E 704 9a 28 00
        E 16 9a 23 65
        E 240 9a 1c 60
        E 16 9a 23 00
        E 372 9a 1c 00
        E 92 9a 21 61
        E 1352 9a 21 00
        E 88 9a 20 5f
        E 176 9a 20 00
        E 64 9a 21 61
        E 178 9a 21 00
        E 62 9a 23 5f
        E 1406 9a 23 00
        E 34 9a 21 5d
        E 182 9a 21 00
        E 58 9a 23 5f
        E 196 9a 23 00
        E 44 9a 28 5f
        E 1514 9a 28 00
        E 166 9a 1c 5e
        E 110 9a 1c 00
        E 130 9a 1c 60
        E 138 9a 1c 00
        E 342 9a 1c 61
        E 576 9a 1c 00
        E 144 9a 28 5e
        E 240 9a 23 61
        E 44 9a 28 00
        E 180 9a 23 00
        E 16 9a 1c 65
        E 160 9a 1c 00
        E 80 9a 21 5f
        E 1242 9a 21 00
        E 198 9a 20 65
        E 218 9a 20 00
        E 22 9a 21 61
        E 200 9a 21 00
        E 40 9a 23 5f
        E 1370 9a 23 00
        E 70 9a 21 68
        E 180 9a 21 00
        E 60 9a 23 5a
        E 232 9a 23 00
        E 8 9a 28 5d
        E 818 9a 28 00
        E 142 9a 27 61
        E 954 9a 27 00
        E 6 9a 25 63
        E 832 9a 25 00
        E 128 9a 23 60
        E 938 9a 23 00
        E 22 9a 21 66
        E 1244 9a 21 00
        E 196 9a 20 61
        E 210 9a 20 00
        E 30 9a 21 61
        E 188 9a 21 00
        E 52 9a 23 5f
        E 1758 9a 23 00
        E 162 9a 28 66
        E 154 9a 28 00
        E 566 9a 28 5d
        E 148 9a 28 00
        E 332 9a 23 65
        E 222 9a 23 00
        E 18 9a 25 64
        E 480 9a 1c 60
        E 18 9a 25 00
        E 998 9a 1c 00
        E 184 9a 28 65
        E 238 9a 28 00
        E 2 9a 23 65
        E 240 9a 1c 5f
        E 18 9a 23 00
        E 188 9a 1c 00
        E 34 9a 21 5f
        E 1416 9a 21 00
        E 24 9a 20 5e
        E 206 9a 20 00
        E 34 9a 21 5e
        E 200 9a 21 00
        E 40 9a 23 63
        E 1730 9a 23 00
        E 190 9a 28 61
        E 1792 9a 28 00
        E 128 9a 1c 67
        E 100 9a 1c 00
        E 380 9a 1c 60
        E 942 9a 1c 00
        E 18 9a 28 5f
        E 178 9a 28 00
        E 62 9a 1c 5f
        E 196 9a 1c 00
        E 44 9a 28 5f
        E 1714 9a 28 00
        E 206 9a 1c 5d
        E 124 9a 1c 00
        E 356 9a 1c 62
        E 796 9a 1c 00
        E 164 9a 23 5d
        E 206 9a 23 00
        E 34 9a 1c 5e
        E 160 9a 1c 00
        E 80 9a 28 61
        E 1538 9a 28 00
        E 142 9a 23 5f
        E 206 9a 23 00
        E 34 9a 28 5f
        E 164 9a 28 00
        E 316 9a 28 63
        E 676 9a 28 00
        E 44 9a 23 5d
        E 240 9a 1c 5d
        E 16 9a 23 00
        E 380 9a 1c 00
        E 84 9a 21 60
        E 1322 9a 21 00
        E 118 9a 20 64
        E 192 9a 20 00
        E 48 9a 21 5f
        E 194 9a 21 00
        E 46 9a 23 60
        E 222 9a 23 00
        E 258 9a 23 62
        E 914 9a 23 00
        E 46 9a 21 66
        E 234 9a 21 00
        E 6 9a 23 68
        E 234 9a 23 00
        E 6 9a 28 61
        E 1640 9a 28 00
        E 280 9a 1c 5d
        E 132 9a 1c 00
        E 348 9a 1c 63
        E 518 9a 1c 00
        E 202 9a 28 62
        E 240 9a 23 63
        E 34 9a 28 00
        E 196 9a 23 00
        E 250 9a 21 62
        E 1340 9a 21 00
        E 100 9a 20 61
        E 206 9a 20 00
        E 34 9a 21 63
        E 238 9a 21 00
        E 2 9a 23 61
        E 1278 9a 23 00
        E 162 9a 21 5f
        E 206 9a 21 00
        E 34 9a 23 64
        E 234 9a 23 00
        E 6 9a 28 62
        E 864 9a 28 00
        E 96 9a 27 60
        E 852 9a 27 00
        E 108 9a 25 5f
        E 886 9a 25 00
        E 74 9a 23 63
        E 876 9a 23 00
        E 84 9a 21 62
        E 1366 9a 21 00
        E 74 9a 20 60
        E 232 9a 20 00
        E 8 9a 21 63
        E 196 9a 21 00
        E 44 9a 23 5e
        E 172 9a 23 00
        E 308 9a 23 62
        E 1350 9a 23 00
        E 90 9a 28 5e
        E 156 9a 28 00
        E 564 9a 28 5f
        E 146 9a 28 00
        E 334 9a 23 65
        E 222 9a 23 00
        E 18 9a 25 65
        E 480 9a 1c 5e
        E 4 9a 25 00
        E 1264 9a 1c 00
        E 172 9a 28 63
        E 222 9a 28 00
        E 18 9a 1c 5c
        E 162 9a 1c 00
        E 78 9a 21 61
        E 1396 9a 21 00
        E 44 9a 20 62
        E 240 9a 21 5e
        E 14 9a 20 00
        E 190 9a 21 00
        E 36 9a 23 61
        E 1352 9a 23 00
        E 88 9a 21 63
        E 238 9a 21 00
        E 2 9a 23 59
        E 216 9a 23 00
        E 24 9a 28 5d
        E 1440 9a 1c 63
        E 38 9a 28 00
        E 80 9a 1c 00
        E 362 9a 1c 6a
        E 92 9a 1c 00
        E 388 9a 1c 67
        E 900 9a 1c 00
        E 60 9a 28 5e
        E 218 9a 28 00
        E 22 9a 1c 61
        E 232 9a 1c 00
        E 8 9a 26 5d
        E 1418 9a 26 00
        E 22 9a 25 5d
        E 240 9a 26 61
        E 18 9a 25 00
        E 222 9a 21 62
        E 14 9a 26 00
        E 194 9a 21 00
        E 272 9a 21 60
        E 676 9a 21 00
        E 44 9a 2d 69
        E 234 9a 2d 00
        E 6 9a 28 62
        E 208 9a 28 00
        E 32 9a 21 5c
        E 144 9a 21 00
        E 96 9a 23 62
        E 1452 9a 23 00
        E 228 9a 2a 63
        E 212 9a 2a 00
        E 28 9a 2f 5c
        E 240 9a 2a 61
        E 8 9a 2f 00
        E 232 9a 2f 5f
        E 4 9a 2a 00
        E 716 9a 2a 5f
        E 120 9a 2f 00
        E 92 9a 2a 00
        E 28 9a 23 60
        E 364 9a 23 00
        E 116 9a 26 61
        E 1244 9a 26 00
        E 196 9a 26 63
        E 240 9a 28 5e
        E 8 9a 26 00
        E 232 9a 21 5f
        E 10 9a 28 00
        E 1430 9a 20 5e
        E 12 9a 21 00
        E 208 9a 20 00
        E 20 9a 21 5b
        E 240 9a 23 5c
        E 12 9a 21 00
        E 1668 9a 2a 66
        E 14 9a 23 00
        E 156 9a 2a 00
        E 70 9a 2f 60
        E 182 9a 2f 00
        E 298 9a 2f 65
        E 706 9a 2f 00
        E 14 9a 2a 61
        E 196 9a 2a 00
        E 44 9a 23 64
        E 386 9a 23 00
        E 94 9a 26 64
        E 1244 9a 26 00
        E 196 9a 26 5c
        E 240 9a 28 5e
        E 8 9a 26 00
        E 232 9a 21 5d
        E 10 9a 28 00
        E 1430 9a 20 5f
        E 12 9a 21 00
        E 208 9a 20 00
        E 20 9a 21 62
        E 240 9a 23 63
        E 12 9a 21 00
        E 1668 9a 2a 5d
        E 14 9a 23 00
        E 156 9a 2a 00
        E 70 9a 2f 64
        E 182 9a 2f 00
        E 298 9a 2f 67
        E 706 9a 2f 00
        E 14 9a 2a 64
        E 196 9a 2a 00
        E 44 9a 23 67
        E 386 9a 23 00
        E 94 9a 25 60
        E 488 9a 25 00
        E 3352 9a 2a 62
        E 1602 9a 2a 00
        E 78 9a 25 61
        E 162 9a 25 00
        E 78 9a 2a 5f
        E 146 9a 2a 00
        E 334 9a 2a 64
        E 910 9a 2a 00
        E 50 9a 25 64
        E 240 9a 1e 64
        E 8 9a 25 00
        E 152 9a 1e 00
        E 80 9a 23 5e
        E 1654 9a 23 00
        E 26 9a 2a 62
        E 226 9a 2a 00
        E 14 9a 2f 60
        E 174 9a 2f 00
        E 306 9a 2f 64
        E 692 9a 2f 00
        E 28 9a 2a 64
        E 222 9a 2a 00
        E 18 9a 23 64
        E 360 9a 23 00
        E 120 9a 28 5f
        E 1240 9a 28 00
        E 200 9a 2a 61
        E 240 9a 2a 00
        E 0 9a 28 61
        E 208 9a 28 00
        E 32 9a 27 62
        E 1296 9a 27 00
        E 144 9a 28 5f
        E 240 9a 27 64
        E 28 9a 28 00
        E 172 9a 27 00
        E 40 9a 25 64
        E 1650 9a 25 00
        E 30 9a 20 61
        E 148 9a 20 00
        E 92 9a 25 66
        E 162 9a 25 00
        E 318 9a 25 64
        E 674 9a 25 00
        E 46 9a 23 64
        E 214 9a 23 00
        E 26 9a 25 65
        E 212 9a 25 00
        E 28 9a 20 63
        E 148 9a 20 00
        E 92 9a 1e 65
        E 1674 9a 1e 00
        E 6 9a 25 60
        E 208 9a 25 00
        E 32 9a 2a 61
        E 158 9a 2a 00
        E 322 9a 2a 63
        E 892 9a 2a 00
        E 68 9a 25 65
        E 240 9a 1e 5d
        E 20 9a 25 00
        E 148 9a 1e 00
        E 72 9a 23 5e
        E 1646 9a 23 00
        E 34 9a 2a 60
        E 210 9a 2a 00
        E 30 9a 2f 61
        E 280 9a 2f 00
        E 200 9a 2f 65
        E 684 9a 2f 00
        E 36 9a 2a 60
        E 216 9a 2a 00
        E 24 9a 23 5f
        E 418 9a 23 00
        E 62 9a 28 61
        E 1656 9a 28 00
        E 264 9a 28 61
        E 114 9a 28 00
        E 366 9a 28 61
        E 884 9a 28 00
        E 76 9a 27 5e
        E 240 9a 28 5d
        E 8 9a 27 00
        E 226 9a 28 00
        E 6 9a 20 5c
        E 260 9a 20 00
        E 220 9a 20 5d
        E 302 9a 20 00
        E 178 9a 20 5f
        E 252 9a 20 00
        E 228 9a 20 64
        E 370 9a 20 00
        E 110 9a 2c 65
        E 240 9a 20 5b
        E 32 9a 2c 00
        E 114 9a 20 00
        E 94 9a 27 61
        E 418 9a 27 00
        E 62 9a 2a 63
        E 382 9a 2a 00
        E 98 9a 2c 61
        E 276 9a 2c 00
        E 204 9a 1e 63
        E 1588 9a 1e 00
        E 92 9a 25 5f
        E 190 9a 25 00
        E 50 9a 2a 61
        E 170 9a 2a 00
        E 310 9a 2a 60
        E 692 9a 2a 00
        E 28 9a 25 61
        E 208 9a 25 00
        E 32 9a 1e 63
        E 380 9a 1e 00
        E 100 9a 23 5d
        E 1568 9a 23 00
        E 112 9a 2a 5f
        E 220 9a 2a 00
        E 20 9a 2f 59
        E 216 9a 2f 00
        E 24 9a 2a 5c
        E 214 9a 2a 00
        E 26 9a 2f 5b
        E 718 9a 2f 00
        E 2 9a 2a 5e
        E 226 9a 2a 00
        E 14 9a 23 5e
        E 480 9a 28 63
        E 10 9a 23 00
        E 1204 9a 28 00
        E 226 9a 2a 66
        E 240 9a 28 63
        E 18 9a 2a 00
        E 214 9a 28 00
        E 8 9a 27 66
        E 1224 9a 27 00
        E 216 9a 28 60
        E 240 9a 27 60
        E 32 9a 28 00
        E 188 9a 27 00
        E 20 9a 25 61
        E 1680 9a 20 5d
        E 22 9a 25 00
        E 168 9a 20 00
        E 50 9a 25 66
        E 204 9a 25 00
        E 36 9a 20 62
        E 132 9a 20 00
        E 108 9a 25 5e
        E 706 9a 25 00
        E 14 9a 20 5c
        E 166 9a 20 00
        E 74 9a 23 5a
        E 224 9a 23 00
        E 16 9a 25 63
        E 174 9a 25 00
        E 66 9a 2a 5d
        E 1630 9a 2a 00
        E 50 9a 25 65
        E 170 9a 25 00
        E 70 9a 2a 64
        E 162 9a 2a 00
        E 318 9a 2a 61
        E 634 9a 2a 00
        E 86 9a 25 63
        E 206 9a 25 00
        E 34 9a 1e 65
        E 428 9a 1e 00
        E 52 9a 23 63
        E 1522 9a 23 00
        E 158 9a 2a 63
        E 226 9a 2a 00
        E 14 9a 2f 62
        E 192 9a 2f 00
        E 288 9a 2f 61
        E 960 9a 2a 5e
        E 10 9a 2f 00
        E 226 9a 2a 00
        E 4 9a 23 5f
        E 216 9a 23 00
        E 24 9a 28 67
        E 1680 9a 23 62
        E 4 9a 28 00
        E 170 9a 23 00
        E 66 9a 28 62
        E 152 9a 28 00
        E 328 9a 28 60
        E 480 9a 23 60
        E 10 9a 28 00
        E 442 9a 23 00
        E 28 9a 21 63
        E 480 9a 20 62
        E 44 9a 21 00
        E 2804 9a 20 00
        E 992 9a 28 5c
        E 1416 9a 28 00
        E 24 9a 23 68
        E 240 9a 25 61
        E 22 9a 23 00
        E 198 9a 25 00
        E 20 9a 28 64
        E 146 9a 28 00
        E 334 9a 28 60
        E 900 9a 28 00
        E 60 9a 23 5f
        E 434 9a 23 00
        E 46 9a 1c 5f
        E 1588 9a 1c 00
        E 92 9a 23 62
        E 240 9a 28 66
        E 16 9a 23 00
        E 158 9a 28 00
        E 306 9a 28 63
        E 704 9a 28 00
        E 16 9a 23 65
        E 240 9a 1c 60
        E 16 9a 23 00
        E 372 9a 1c 00
        E 92 9a 21 61
        E 1352 9a 21 00
        E 88 9a 20 5f
        E 176 9a 20 00
        E 64 9a 21 61
        E 178 9a 21 00
        E 62 9a 23 5f
        E 1406 9a 23 00
        E 34 9a 21 5d
        E 182 9a 21 00
        E 58 9a 23 5f
        E 196 9a 23 00
        E 44 9a 28 5f
        E 1514 9a 28 00
        E 166 9a 1c 5e
        E 110 9a 1c 00
        E 130 9a 1c 60
        E 138 9a 1c 00
        E 342 9a 1c 61
        E 576 9a 1c 00
        E 144 9a 28 5e
        E 240 9a 23 61
        E 44 9a 28 00
        E 180 9a 23 00
        E 16 9a 1c 65
        E 160 9a 1c 00
        E 80 9a 21 5f
        E 1242 9a 21 00
        E 198 9a 20 65
        E 218 9a 20 00
        E 22 9a 21 61
        E 200 9a 21 00
        E 40 9a 23 5f
        E 1370 9a 23 00
        E 70 9a 21 68
        E 180 9a 21 00
        E 60 9a 23 5a
        E 232 9a 23 00
        E 8 9a 28 5d
        E 818 9a 28 00
        E 142 9a 27 61
        E 954 9a 27 00
        E 6 9a 25 63
        E 832 9a 25 00
        E 128 9a 23 60
        E 938 9a 23 00
        E 22 9a 21 66
        E 1244 9a 21 00
        E 196 9a 20 61
        E 210 9a 20 00
        E 30 9a 21 61
        E 188 9a 21 00
        E 52 9a 23 5f
        E 1758 9a 23 00
        E 162 9a 28 66
        E 154 9a 28 00
        E 566 9a 28 5d
        E 148 9a 28 00
        E 332 9a 23 65
        E 222 9a 23 00
        E 18 9a 25 64
        E 480 9a 1c 60
        E 18 9a 25 00
        E 998 9a 1c 00
        E 184 9a 28 65
        E 238 9a 28 00
        E 2 9a 23 65
        E 240 9a 1c 5f
        E 18 9a 23 00
        E 188 9a 1c 00
        E 34 9a 21 5f
        E 1416 9a 21 00
        E 24 9a 20 5e
        E 206 9a 20 00
        E 34 9a 21 5e
        E 200 9a 21 00
        E 40 9a 23 63
        E 1730 9a 23 00
        E 190 9a 28 61
        E 1792 9a 28 00
        E 128 9a 1c 67
        E 100 9a 1c 00
        E 380 9a 1c 60
        E 942 9a 1c 00
        E 18 9a 28 5f
        E 178 9a 28 00
        E 62 9a 1c 5f
        E 196 9a 1c 00
        E 44 9a 28 5f
        E 1714 9a 28 00
        E 206 9a 1c 5d
        E 124 9a 1c 00
        E 356 9a 1c 62
        E 796 9a 1c 00
        E 164 9a 23 5d
        E 206 9a 23 00
        E 34 9a 1c 5e
        E 160 9a 1c 00
        E 80 9a 28 61
        E 1538 9a 28 00
        E 142 9a 23 5f
        E 206 9a 23 00
        E 34 9a 28 5f
        E 164 9a 28 00
        E 316 9a 28 63
        E 676 9a 28 00
        E 44 9a 23 5d
        E 240 9a 1c 5d
        E 16 9a 23 00
        E 380 9a 1c 00
        E 84 9a 21 60
        E 1322 9a 21 00
        E 118 9a 20 64
        E 192 9a 20 00
        E 48 9a 21 5f
        E 194 9a 21 00
        E 46 9a 23 60
        E 222 9a 23 00
        E 258 9a 23 62
        E 914 9a 23 00
        E 46 9a 21 66
        E 234 9a 21 00
        E 6 9a 23 68
        E 234 9a 23 00
        E 6 9a 28 61
        E 1640 9a 28 00
        E 280 9a 1c 5d
        E 132 9a 1c 00
        E 348 9a 1c 63
        E 518 9a 1c 00
        E 202 9a 28 62
        E 240 9a 23 63
        E 34 9a 28 00
        E 196 9a 23 00
        E 250 9a 21 62
        E 1340 9a 21 00
        E 100 9a 20 61
        E 206 9a 20 00
        E 34 9a 21 63
        E 238 9a 21 00
        E 2 9a 23 61
        E 1278 9a 23 00
        E 162 9a 21 5f
        E 206 9a 21 00
        E 34 9a 23 64
        E 234 9a 23 00
        E 6 9a 28 62
        E 864 9a 28 00
        E 96 9a 27 60
        E 852 9a 27 00
        E 108 9a 25 5f
        E 886 9a 25 00
        E 74 9a 23 63
        E 876 9a 23 00
        E 84 9a 21 62
        E 1366 9a 21 00
        E 74 9a 20 60
        E 232 9a 20 00
        E 8 9a 21 63
        E 196 9a 21 00
        E 44 9a 23 5e
        E 172 9a 23 00
        E 308 9a 23 62
        E 1350 9a 23 00
        E 90 9a 28 5e
        E 156 9a 28 00
        E 564 9a 28 5f
        E 146 9a 28 00
        E 334 9a 23 65
        E 222 9a 23 00
        E 18 9a 25 65
        E 480 9a 1c 5e
        E 4 9a 25 00
        E 1264 9a 1c 00
        E 172 9a 28 63
        E 222 9a 28 00
        E 18 9a 1c 5c
        E 162 9a 1c 00
        E 78 9a 21 61
        E 1396 9a 21 00
        E 44 9a 20 62
        E 240 9a 21 5e
        E 14 9a 20 00
        E 190 9a 21 00
        E 36 9a 23 61
        E 1352 9a 23 00
        E 88 9a 21 63
        E 238 9a 21 00
        E 2 9a 23 59
        E 216 9a 23 00
        E 24 9a 28 5d
        E 1440 9a 1c 63
        E 38 9a 28 00
        E 80 9a 1c 00
        E 362 9a 1c 6a
        E 92 9a 1c 00
        E 388 9a 1c 67
        E 900 9a 1c 00
        E 60 9a 28 5e
        E 218 9a 28 00
        E 22 9a 1c 61
        E 232 9a 1c 00
        E 8 9a 26 5d
        E 1418 9a 26 00
        E 22 9a 25 5d
        E 240 9a 26 61
        E 18 9a 25 00
        E 222 9a 21 62
        E 14 9a 26 00
        E 194 9a 21 00
        E 272 9a 21 60
        E 676 9a 21 00
        E 44 9a 2d 69
        E 234 9a 2d 00
        E 6 9a 28 62
        E 208 9a 28 00
        E 32 9a 21 5c
        E 144 9a 21 00
        E 96 9a 23 62
        E 1452 9a 23 00
        E 228 9a 2a 63
        E 212 9a 2a 00
        E 28 9a 2f 5c
        E 240 9a 2a 61
        E 8 9a 2f 00
        E 232 9a 2f 5f
        E 4 9a 2a 00
        E 716 9a 2a 5f
        E 120 9a 2f 00
        E 92 9a 2a 00
        E 28 9a 23 60
        E 364 9a 23 00
        E 116 9a 26 61
        E 1244 9a 26 00
        E 196 9a 26 63
        E 240 9a 28 5e
        E 8 9a 26 00
        E 232 9a 21 5f
        E 10 9a 28 00
        E 1430 9a 20 5e
        E 12 9a 21 00
        E 208 9a 20 00
        E 20 9a 21 5b
        E 240 9a 23 5c
        E 12 9a 21 00
        E 1668 9a 2a 66
        E 14 9a 23 00
        E 156 9a 2a 00
        E 70 9a 2f 60
        E 182 9a 2f 00
        E 298 9a 2f 65
        E 706 9a 2f 00
        E 14 9a 2a 61
        E 196 9a 2a 00
        E 44 9a 23 64
        E 386 9a 23 00
        E 94 9a 26 64
        E 1244 9a 26 00
        E 196 9a 26 5c
        E 240 9a 28 5e
        E 8 9a 26 00
        E 232 9a 21 5d
        E 10 9a 28 00
        E 1430 9a 20 5f
        E 12 9a 21 00
        E 208 9a 20 00
        E 20 9a 21 62
        E 240 9a 23 63
        E 12 9a 21 00
        E 1668 9a 2a 5d
        E 14 9a 23 00
        E 156 9a 2a 00
        E 70 9a 2f 64
        E 182 9a 2f 00
        E 298 9a 2f 67
        E 706 9a 2f 00
        E 14 9a 2a 64
        E 196 9a 2a 00
        E 44 9a 23 67
        E 386 9a 23 00
        E 94 9a 25 60
        E 488 9a 25 00
        E 3352 9a 2a 62
        E 1602 9a 2a 00
        E 78 9a 25 61
        E 162 9a 25 00
        E 78 9a 2a 5f
        E 146 9a 2a 00
        E 334 9a 2a 64
        E 910 9a 2a 00
        E 50 9a 25 64
        E 240 9a 1e 64
        E 8 9a 25 00
        E 152 9a 1e 00
        E 80 9a 23 5e
        E 1654 9a 23 00
        E 26 9a 2a 62
        E 226 9a 2a 00
        E 14 9a 2f 60
        E 174 9a 2f 00
        E 306 9a 2f 64
        E 692 9a 2f 00
        E 28 9a 2a 64
        E 222 9a 2a 00
        E 18 9a 23 64
        E 360 9a 23 00
        E 120 9a 28 5f
        E 1240 9a 28 00
        E 200 9a 2a 61
        E 240 9a 2a 00
        E 0 9a 28 61
        E 208 9a 28 00
        E 32 9a 27 62
        E 1296 9a 27 00
        E 144 9a 28 5f
        E 240 9a 27 64
        E 28 9a 28 00
        E 172 9a 27 00
        E 40 9a 25 64
        E 1650 9a 25 00
        E 30 9a 20 61
        E 148 9a 20 00
        E 92 9a 25 66
        E 162 9a 25 00
        E 318 9a 25 64
        E 674 9a 25 00
        E 46 9a 23 64
        E 214 9a 23 00
        E 26 9a 25 65
        E 212 9a 25 00
        E 28 9a 20 63
        E 148 9a 20 00
        E 92 9a 1e 65
        E 1674 9a 1e 00
        E 6 9a 25 60
        E 208 9a 25 00
        E 32 9a 2a 61
        E 158 9a 2a 00
        E 322 9a 2a 63
        E 892 9a 2a 00
        E 68 9a 25 65
        E 240 9a 1e 5d
        E 20 9a 25 00
        E 148 9a 1e 00
        E 72 9a 23 5e
        E 1646 9a 23 00
        E 34 9a 2a 60
        E 210 9a 2a 00
        E 30 9a 2f 61
        E 280 9a 2f 00
        E 200 9a 2f 65
        E 684 9a 2f 00
        E 36 9a 2a 60
        E 216 9a 2a 00
        E 24 9a 23 5f
        E 418 9a 23 00
        E 62 9a 28 61
        E 1656 9a 28 00
        E 264 9a 28 61
        E 114 9a 28 00
        E 366 9a 28 61
        E 884 9a 28 00
        E 76 9a 27 5e
        E 240 9a 28 5d
        E 8 9a 27 00
        E 226 9a 28 00
        E 6 9a 20 5c
        E 260 9a 20 00
        E 220 9a 20 5d
        E 302 9a 20 00
        E 178 9a 20 5f
        E 252 9a 20 00
        E 228 9a 20 64
        E 370 9a 20 00
        E 110 9a 2c 65
        E 240 9a 20 5b
        E 32 9a 2c 00
        E 114 9a 20 00
        E 94 9a 27 61
        E 418 9a 27 00
        E 62 9a 2a 63
        E 382 9a 2a 00
        E 98 9a 2c 61
        E 276 9a 2c 00
        E 204 9a 1e 63
        E 1588 9a 1e 00
        E 92 9a 25 5f
        E 190 9a 25 00
        E 50 9a 2a 61
        E 170 9a 2a 00
        E 310 9a 2a 60
        E 692 9a 2a 00
        E 28 9a 25 61
        E 208 9a 25 00
        E 32 9a 1e 63
        E 380 9a 1e 00
        E 100 9a 23 5d
        E 1568 9a 23 00
        E 112 9a 2a 5f
        E 220 9a 2a 00
        E 20 9a 2f 59
        E 216 9a 2f 00
        E 24 9a 2a 5c
        E 214 9a 2a 00
        E 26 9a 2f 5b
        E 718 9a 2f 00
        E 2 9a 2a 5e
        E 226 9a 2a 00
        E 14 9a 23 5e
        E 480 9a 28 63
        E 10 9a 23 00
        E 1204 9a 28 00
        E 226 9a 2a 66
        E 240 9a 28 63
        E 18 9a 2a 00
        E 214 9a 28 00
        E 8 9a 27 66
        E 1224 9a 27 00
        E 216 9a 28 60
        E 240 9a 27 60
        E 32 9a 28 00
        E 188 9a 27 00
        E 20 9a 25 61
        E 1680 9a 20 5d
        E 22 9a 25 00
        E 168 9a 20 00
        E 50 9a 25 66
        E 204 9a 25 00
        E 36 9a 20 62
        E 132 9a 20 00
        E 108 9a 25 5e
        E 706 9a 25 00
        E 14 9a 20 5c
        E 166 9a 20 00
        E 74 9a 23 5a
        E 224 9a 23 00
        E 16 9a 25 63
        E 174 9a 25 00
        E 66 9a 2a 5d
        E 1630 9a 2a 00
        E 50 9a 25 65
        E 170 9a 25 00
        E 70 9a 2a 64
        E 162 9a 2a 00
        E 318 9a 2a 61
        E 634 9a 2a 00
        E 86 9a 25 63
        E 206 9a 25 00
        E 34 9a 1e 65
        E 428 9a 1e 00
        E 52 9a 23 63
        E 1522 9a 23 00
        E 158 9a 2a 63
        E 226 9a 2a 00
        E 14 9a 2f 62
        E 192 9a 2f 00
        E 288 9a 2f 61
        E 960 9a 2a 5e
        E 10 9a 2f 00
        E 226 9a 2a 00
        E 4 9a 23 5f
        E 216 9a 23 00
        E 24 9a 28 67
        E 1680 9a 23 62
        E 4 9a 28 00
        E 170 9a 23 00
        E 66 9a 28 62
        E 152 9a 28 00
        E 328 9a 28 60
        E 480 9a 23 60
        E 10 9a 28 00
        E 442 9a 23 00
        E 28 9a 21 63
        E 480 9a 20 62
        E 44 9a 21 00
        E 2804 9a 20 00
        E 992 9a 21 60
        E 1262 9a 21 00
        E 178 9a 20 61
        E 216 9a 20 00
        E 24 9a 21 61
        E 178 9a 21 00
        E 62 9a 23 6a
        E 1298 9a 23 00
        E 142 9a 25 5e
        E 230 9a 25 00
        E 10 9a 27 68
        E 194 9a 27 00
        E 46 9a 28 60
        E 872 9a 28 00
        E 88 9a 27 61
        E 780 9a 27 00
        E 180 9a 25 64
        E 874 9a 25 00
        E 86 9a 23 5f
        E 784 9a 23 00
        E 176 9a 21 61
        E 1368 9a 21 00
        E 72 9a 20 63
        E 192 9a 20 00
        E 48 9a 21 65
        E 158 9a 21 00
        E 82 9a 23 62
        E 1376 9a 23 00
        E 64 9a 25 5e
        E 206 9a 25 00
        E 34 9a 27 5e
        E 148 9a 27 00
        E 92 9a 28 65
        E 840 9a 28 00
        E 120 9a 27 61
        E 786 9a 27 00
        E 174 9a 25 5f
        E 798 9a 25 00
        E 162 9a 23 62
        E 480 9a 25 63
        E 30 9a 23 00
        E 210 9a 23 5d
        E 28 9a 25 00
        E 212 9a 21 64
        E 22 9a 23 00
        E 1304 9a 21 00
        E 114 9a 20 61
        E 240 9a 21 5f
        E 4 9a 20 00
        E 158 9a 21 00
        E 78 9a 23 60
        E 1760 9a 23 00
        E 160 9a 28 5c
        E 876 9a 28 00
        E 84 9a 27 61
        E 804 9a 27 00
        E 156 9a 25 61
        E 3612 9a 25 00
        E 2148 9a 21 5d
        E 3840 8a 21 00
        E 3840 9a 1c 5c
        E 2908 9a 1c 00
        E 12932 9a 34 63
        E 234 9a 34 00
        E 246 9a 34 62
        E 720 9a 2f 64
        E 6 9a 34 00
        E 222 9a 2f 00
        E 12 9a 34 62
        E 144 9a 34 00
        E 96 9a 34 63
        E 134 9a 34 00
        E 106 9a 34 5e
        E 138 9a 34 00
        E 102 9a 34 5e
        E 126 9a 34 00
        E 114 9a 34 64
        E 160 9a 34 00
        E 80 9a 2f 62
        E 240 9a 31 62
        E 46 9a 2f 00
        E 188 9a 31 00
        E 6 9a 34 61
        E 240 9a 28 60
        E 2 9a 34 00
        E 1444 9a 28 00
        E 234 9a 23 5f
        E 222 9a 23 00
        E 18 9a 28 64
        E 166 9a 28 00
        E 314 9a 28 5f
        E 874 9a 28 00
        E 86 9a 23 5f
        E 198 9a 23 00
        E 42 9a 25 61
        E 180 9a 25 00
        E 60 9a 28 5d
        E 1640 9a 28 00
        E 40 9a 23 60
        E 170 9a 23 00
        E 70 9a 28 60
        E 154 9a 28 00
        E 326 9a 28 61
        E 396 9a 28 00
        E 84 9a 23 63
        E 200 9a 23 00
        E 40 9a 25 5f
        E 194 9a 25 00
        E 46 9a 28 60
        E 240 9a 2a 5f
        E 22 9a 28 00
        E 218 9a 23 60
        E 19 9a 2a 00
        E 1517 9a 23 00
        E 144 9a 1e 5f
        E 184 9a 1e 00
        E 56 9a 23 60
        E 214 9a 23 00
        E 26 9a 1e 5e
        E 182 9a 1e 00
        E 58 9a 23 61
        E 808 9a 23 00
        E 152 9a 23 63
        E 180 9a 23 00
        E 60 9a 25 66
        E 164 9a 25 00
        E 76 9a 28 61
        E 566 9a 28 00
        E 154 9a 28 66
        E 162 9a 28 00
        E 78 9a 20 5c
        E 616 9a 20 00
        E 104 9a 21 62
        E 638 9a 21 00
        E 82 9a 22 5c
        E 431 9a 22 00
        E 49 9a 23 64
        E 384 9a 23 00
        E 96 9a 28 61
        E 380 9a 28 00
        E 100 9a 28 5e
        E 550 9a 28 00
        E 170 9a 28 60
        E 178 9a 28 00
        E 62 9a 20 62
        E 608 9a 20 00
        E 112 9a 21 5d
        E 596 9a 21 00
        E 124 9a 22 65
        E 386 9a 22 00
        E 94 9a 23 61
        E 386 9a 23 00
        E 94 9a 25 61
        E 234 9a 25 00
        E 6 9a 23 62
        E 184 9a 23 00
        E 56 9a 28 65
        E 776 9a 28 00
        E 184 9a 20 62
        E 590 9a 20 00
        E 130 9a 21 5f
        E 590 9a 21 00
        E 130 9a 22 5f
        E 408 9a 22 00
        E 72 9a 23 5c
        E 408 9a 23 00
        E 72 9a 25 62
        E 196 9a 25 00
        E 44 9a 20 5c
        E 196 9a 20 00
        E 44 9a 23 65
        E 838 9a 23 00
        E 122 9a 27 5d
        E 606 9a 27 00
        E 114 9a 28 5d
        E 590 9a 28 00
        E 130 9a 29 60
        E 362 9a 29 00
        E 118 9a 2a 63
        E 372 9a 2a 00
        E 108 9a 27 60
        E 214 9a 27 00
        E 26 9a 23 63
        E 152 9a 23 00
        E 88 9a 28 64
        E 836 9a 28 00
        E 124 9a 20 64
        E 614 9a 20 00
        E 106 9a 21 5f
        E 614 9a 21 00
        E 106 9a 22 61
        E 356 9a 22 00
        E 124 9a 23 60
        E 436 9a 23 00
        E 44 9a 28 62
        E 432 9a 28 00
        E 48 9a 28 63
        E 518 9a 28 00
        E 202 9a 28 65
        E 186 9a 28 00
        E 54 9a 20 5e
        E 552 9a 20 00
        E 168 9a 21 61
        E 602 9a 21 00
        E 118 9a 22 60
        E 358 9a 22 00
        E 122 9a 23 61
        E 342 9a 23 00
        E 138 9a 25 5e
        E 228 9a 25 00
        E 12 9a 23 64
        E 168 9a 23 00
        E 72 9a 28 61
        E 774 9a 28 00
        E 186 9a 28 63
        E 188 9a 28 00
        E 52 9a 23 5e
        E 240 9a 28 62
        E 40 9a 23 00
        E 148 9a 28 00
        E 52 9a 2a 5d
        E 240 9a 2a 00
        E 0 9a 28 62
        E 352 9a 28 00
        E 128 9a 28 67
        E 402 9a 28 00
        E 78 9a 27 60
        E 400 9a 27 00
        E 80 9a 25 61
        E 348 9a 25 00
        E 132 9a 23 61
        E 3664 9a 23 00
        E 4016 9a 1c 61
        E 6748 9a 1c 00
        E 932 b0 7b 00
        CCINTERP 32
        CHASE_CC_TAKEOFFS 1
        GUID {B6CD6CE9-057D-41D4-89E8-E672DA6DD78A}
        IGNTEMPO 0 120 4 4
        SRCCOLOR 174
        VELLANE 131 94 0
        CFGEDITVIEW 0 0.000706 75 12 0 -1 0 0 0 0.5
        KEYSNAP 0
        TRACKSEL 258
        EVTFILTER 0 -1 -1 -1 -1 0 0 0 0 -1 -1 -1 -1 0 -1 0 -1 -1
        CFGEDIT 1 1 0 1 0 0 1 1 1 1 1 0.125 32 75 817 715 0 0 0 0 0 0 0 1 0 0.5 0 0 1 64
      >
    >
  >
  <TRACK {6E5D9E4A-5DB7-424E-BF18-42C9C76BEEB5}
    NAME STRING
    PEAKCOL 16576
    BEAT -1
    AUTOMODE 0
    VOLPAN 1 0 -1 -1 1
    MUTESOLO 0 0 0
    IPHASE 0
    PLAYOFFS 0 1
    ISBUS 0 0
    BUSCOMP 0 0 0 0 0
    SHOWINMIX 1 0.6667 0.5 1 0.5 0 -1 0
    SEL 0
    REC 0 0 1 0 0 0 0 0
    VU 2
    TRACKHEIGHT 0 0 0 0 0 0
    INQ 0 0 0 0.5 100 0 0 100
    NCHAN 2
    FX 1
    TRACKID {6E5D9E4A-5DB7-424E-BF18-42C9C76BEEB5}
    PERF 0
    MIDIOUT -1
    MAINSEND 1 0
    <ITEM
      POSITION 0
      SNAPOFFS 0
      LENGTH 387.2
      LOOP 1
      ALLTAKES 0
      FADEIN 1 0 0 1 0 0 0
      FADEOUT 1 0 0 1 0 0 0
      MUTE 0 0
      SEL 0
      IGUID {DCAD900A-9202-49B5-88D0-F268E470648C}
      IID 32
      NAME "STRING - Voz Da Verdade - Além Do Rio Azul - E-grudado"
      VOLPAN 1 0 1 -1
      SOFFS 0 0
      PLAYRATE 1 1 0 -1 0 0.0025
      CHANMODE 0
      GUID {BA486D65-7DB5-4847-B99C-B8C49EAB3AD8}
      <SOURCE MIDI
        HASDATA 1 960 QN
        CCINTERP 32
        POOLEDEVTS {C10EE5E7-7C2F-48CC-860F-3F42375D8957}
        E 0 bb 20 00
        E 0 cb 30 00
        E 3840 9b 44 70
        E 1680 9b 44 00
        E 240 9b 47 72
        E 1440 9b 47 00
        E 0 9b 44 76
        E 240 9b 44 00
        E 0 9b 47 78
        E 240 9b 47 00
        E 0 9b 49 74
        E 2880 9b 49 00
        E 960 9b 40 76
        E 1680 9b 40 00
        E 240 9b 42 74
        E 960 9b 42 00
        E 0 9b 45 78
        E 960 9b 45 00
        E 0 9b 44 76
        E 240 9b 5c 72
        E 240 9b 5c 00
        E 0 9b 5a 65
        E 240 9b 5a 00
        E 0 9b 5c 61
        E 240 9b 5c 00
        E 0 9b 58 6a
        E 240 9b 58 00
        E 0 9b 50 74
        E 240 9b 50 00
        E 0 9b 4e 7b
        E 240 9b 4e 00
        E 0 9b 50 7b
        E 240 9b 50 00
        E 0 9b 4c 7e
        E 960 9b 44 00
        E 0 9b 4c 00
        E 480 9b 3d 74
        E 240 9b 3d 00
        E 0 9b 3f 7d
        E 240 9b 3f 00
        E 0 9b 40 7a
        E 0 9b 49 7d
        E 240 9b 49 00
        E 0 9b 4b 7f
        E 240 9b 4b 00
        E 0 9b 4c 79
        E 960 9b 4c 00
        E 0 9b 4b 6e
        E 240 9b 4b 00
        E 0 9b 4c 78
        E 240 9b 40 00
        E 0 9b 4c 00
        E 0 9b 42 74
        E 0 9b 4e 76
        E 960 9b 42 00
        E 0 9b 3b 71
        E 480 9b 4e 00
        E 240 9b 3b 00
        E 240 9b 42 7a
        E 0 9b 4e 75
        E 240 9b 42 00
        E 0 9b 4e 00
        E 0 9b 44 7c
        E 0 9b 50 76
        E 240 9b 44 00
        E 0 9b 50 00
        E 0 9b 4c 7a
        E 720 9b 4c 00
        E 0 9b 47 74
        E 240 9b 47 00
        E 0 9b 4c 78
        E 240 9b 4c 00
        E 0 9b 50 79
        E 240 9b 50 00
        E 0 9b 51 76
        E 0 9b 49 78
        E 240 9b 51 00
        E 0 9b 49 00
        E 240 9b 50 71
        E 0 9b 47 78
        E 960 9b 50 00
        E 0 9b 47 00
        E 88800 9b 47 47
        E 0 9b 4b 4c
        E 240 9b 47 00
        E 240 9b 4b 00
        E 0 9b 49 49
        E 0 9b 4c 43
        E 480 9b 49 00
        E 0 9b 4c 00
        E 0 9b 4b 4a
        E 0 9b 4e 4a
        E 480 9b 4b 00
        E 0 9b 4e 00
        E 0 9b 4c 50
        E 0 9b 50 4c
        E 480 9b 4c 00
        E 0 9b 50 00
        E 0 9b 4b 49
        E 0 9b 4e 4c
        E 480 9b 4b 00
        E 0 9b 4e 00
        E 0 9b 49 49
        E 0 9b 4c 48
        E 480 9b 49 00
        E 0 9b 4c 00
        E 0 9b 4b 49
        E 0 9b 47 4a
        E 960 9b 4b 00
        E 0 9b 47 00
        E 27840 9b 55 49
        E 240 9b 55 00
        E 0 9b 53 48
        E 240 9b 53 00
        E 0 9b 51 4c
        E 240 9b 51 00
        E 0 9b 50 49
        E 240 9b 50 00
        E 0 9b 5a 4e
        E 1440 9b 5a 00
        E 0 9b 58 4b
        E 240 9b 58 00
        E 0 9b 5a 4a
        E 240 9b 5a 00
        E 0 9b 57 48
        E 240 9b 57 00
        E 0 9b 55 4e
        E 240 9b 55 00
        E 0 9b 53 48
        E 2400 9b 53 00
        E 1920 9b 53 47
        E 240 9b 53 00
        E 0 9b 55 4e
        E 240 9b 55 00
        E 0 9b 53 4e
        E 240 9b 53 00
        E 0 9b 4e 51
        E 240 9b 4e 00
        E 0 9b 50 4d
        E 1920 9b 50 00
        E 30720 9b 44 46
        E 0 9b 4b 4d
        E 0 9b 48 47
        E 2880 9b 44 00
        E 0 9b 4b 00
        E 0 9b 48 00
        E 89280 9b 47 47
        E 0 9b 4b 4c
        E 240 9b 47 00
        E 240 9b 4b 00
        E 0 9b 49 49
        E 0 9b 4c 43
        E 480 9b 49 00
        E 0 9b 4c 00
        E 0 9b 4b 4a
        E 0 9b 4e 4a
        E 480 9b 4b 00
        E 0 9b 4e 00
        E 0 9b 4c 50
        E 0 9b 50 4c
        E 480 9b 4c 00
        E 0 9b 50 00
        E 0 9b 4b 49
        E 0 9b 4e 4c
        E 480 9b 4b 00
        E 0 9b 4e 00
        E 0 9b 49 49
        E 0 9b 4c 48
        E 480 9b 49 00
        E 0 9b 4c 00
        E 0 9b 4b 49
        E 0 9b 47 4a
        E 960 9b 4b 00
        E 0 9b 47 00
        E 27840 9b 55 49
        E 240 9b 55 00
        E 0 9b 53 48
        E 240 9b 53 00
        E 0 9b 51 4c
        E 240 9b 51 00
        E 0 9b 50 49
        E 240 9b 50 00
        E 0 9b 5a 4e
        E 1440 9b 5a 00
        E 0 9b 58 4b
        E 240 9b 58 00
        E 0 9b 5a 4a
        E 240 9b 5a 00
        E 0 9b 57 48
        E 240 9b 57 00
        E 0 9b 55 4e
        E 240 9b 55 00
        E 0 9b 53 48
        E 2400 9b 53 00
        E 1920 9b 53 47
        E 240 9b 53 00
        E 0 9b 55 4e
        E 240 9b 55 00
        E 0 9b 53 4e
        E 240 9b 53 00
        E 0 9b 4e 51
        E 240 9b 4e 00
        E 0 9b 50 4d
        E 1920 9b 50 00
        E 30720 9b 44 46
        E 0 9b 4b 4d
        E 0 9b 48 47
        E 2880 9b 44 00
        E 0 9b 4b 00
        E 0 9b 48 00
        E 960 9b 4c 44
        E 0 9b 49 46
        E 960 9b 49 00
        E 0 9b 45 40
        E 960 9b 4c 00
        E 0 9b 45 00
        E 0 9b 42 4b
        E 0 9b 4b 44
        E 1440 9b 42 00
        E 0 9b 4b 00
        E 480 9b 50 45
        E 960 9b 50 00
        E 0 9b 53 46
        E 960 9b 53 00
        E 0 9b 55 42
        E 960 9b 55 00
        E 0 9b 57 46
        E 960 9b 57 00
        E 0 9b 58 48
        E 1920 9b 58 00
        E 0 9b 5a 48
        E 1920 9b 5a 00
        E 0 9b 5c 3f
        E 960 9b 5c 00
        E 0 9b 5f 42
        E 960 9b 5f 00
        E 0 9b 61 41
        E 1920 9b 61 00
        E 0 9b 55 43
        E 1440 9b 55 00
        E 0 9b 57 46
        E 240 9b 57 00
        E 0 9b 58 48
        E 240 9b 58 00
        E 0 9b 57 43
        E 1440 9b 57 00
        E 0 9b 53 45
        E 480 9b 53 00
        E 0 9b 58 4a
        E 960 9b 58 00
        E 0 9b 57 47
        E 480 9b 57 00
        E 0 9b 58 44
        E 240 9b 58 00
        E 0 9b 57 48
        E 240 9b 57 00
        E 0 9b 55 3e
        E 2880 9b 55 00
        E 36480 9b 5c 48
        E 240 9b 5c 00
        E 0 9b 5a 4d
        E 240 9b 5a 00
        E 0 9b 58 48
        E 240 9b 58 00
        E 0 9b 55 47
        E 240 9b 55 00
        E 0 9b 53 4c
        E 2400 9b 53 00
        E 20640 9b 4c 49
        E 960 9b 4c 00
        E 0 9b 53 49
        E 3840 9b 53 00
        E 240 9b 53 4f
        E 240 9b 53 00
        E 0 9b 58 4c
        E 240 9b 58 00
        E 0 9b 5a 4e
        E 240 9b 5a 00
        E 0 9b 5d 45
        E 480 9b 5d 00
        E 0 9b 5c 47
        E 480 9b 5c 00
        E 0 9b 5a 4d
        E 480 9b 5a 00
        E 0 9b 58 47
        E 480 9b 58 00
        E 0 9b 5a 47
        E 2880 8b 5a 00
        <X 12479 0
          /yEBAA==
        >
        E 1 b0 7b 00
        CCINTERP 32
        CHASE_CC_TAKEOFFS 1
        GUID {09B7BC51-9FB4-456C-8288-62617C88051A}
        IGNTEMPO 0 120 4 4
        SRCCOLOR 176
        VELLANE 131 94 0
        CFGEDITVIEW 0 0.000706 30 12 0 -1 0 0 0 0.5
        KEYSNAP 0
        TRACKSEL 258
        EVTFILTER 0 -1 -1 -1 -1 0 0 0 0 -1 -1 -1 -1 0 -1 0 -1 -1
        CFGEDIT 1 1 0 1 0 0 1 1 1 1 1 0.125 32 75 817 715 0 0 0 0 0 0 0 1 0 0.5 0 0 1 64
      >
    >
  >
  <TRACK {D8D33239-4326-482A-9F62-0D9AD0CAE804}
    NAME BRASS
    PEAKCOL 16576
    BEAT -1
    AUTOMODE 0
    VOLPAN 1 0 -1 -1 1
    MUTESOLO 0 0 0
    IPHASE 0
    PLAYOFFS 0 1
    ISBUS 0 0
    BUSCOMP 0 0 0 0 0
    SHOWINMIX 1 0.6667 0.5 1 0.5 0 -1 0
    SEL 1
    REC 0 0 1 0 0 0 0 0
    VU 2
    TRACKHEIGHT 0 0 0 0 0 0
    INQ 0 0 0 0.5 100 0 0 100
    NCHAN 2
    FX 1
    TRACKID {D8D33239-4326-482A-9F62-0D9AD0CAE804}
    PERF 0
    MIDIOUT -1
    MAINSEND 1 0
    <ITEM
      POSITION 0
      SNAPOFFS 0
      LENGTH 377.60000000002327
      LOOP 1
      ALLTAKES 0
      FADEIN 1 0 0 1 0 0 0
      FADEOUT 1 0 0 1 0 0 0
      MUTE 0 0
      SEL 1
      IGUID {B43ED3AE-271D-4067-94FC-62AF66FFECEB}
      IID 33
      NAME "BRASS - Voz Da Verdade - Além Do Rio Azul - E-grudado"
      VOLPAN 1 0 1 -1
      SOFFS 0 0
      PLAYRATE 1 1 0 -1 0 0.0025
      CHANMODE 0
      GUID {18448DAF-7558-4197-8E9F-7AA63DB6176D}
      <SOURCE MIDI
        HASDATA 1 960 QN
        CCINTERP 32
        POOLEDEVTS {A7954B63-DCEC-4410-B950-87292FBE4FA3}
        e 0 cc 3d 00
        e 123120 9c 47 5a
        e 120 9c 47 00
        e 120 9c 47 53
        e 720 9c 47 00
        e 240 9c 47 54
        e 120 9c 47 00
        e 120 9c 47 4d
        e 120 9c 47 00
        e 120 9c 4e 49
        e 240 9c 4e 00
        e 240 9c 4e 4c
        e 240 9c 4e 00
        e 240 9c 53 52
        e 960 9c 53 00
        e 4320 9c 4c 51
        e 0 9c 49 57
        e 0 9c 51 55
        e 120 9c 4c 00
        e 0 9c 49 00
        e 0 9c 51 00
        e 360 9c 49 59
        e 0 9c 51 57
        e 0 9c 4c 4f
        e 120 9c 49 00
        e 0 9c 51 00
        e 0 9c 4c 00
        e 120 9c 51 57
        e 0 9c 49 5c
        e 0 9c 4c 50
        e 120 9c 51 00
        e 0 9c 49 00
        e 0 9c 4c 00
        e 1080 9c 4c 56
        e 0 9c 49 5c
        e 0 9c 45 5d
        e 120 9c 4c 00
        e 0 9c 49 00
        e 0 9c 45 00
        e 360 9c 4c 58
        e 0 9c 49 56
        e 0 9c 45 57
        e 120 9c 4c 00
        e 0 9c 49 00
        e 0 9c 45 00
        e 120 9c 45 4e
        e 0 9c 49 57
        e 0 9c 4c 57
        e 120 9c 45 00
        e 0 9c 49 00
        e 0 9c 4c 00
        e 600 9c 4e 57
        e 0 9c 4b 5b
        e 0 9c 47 52
        e 960 9c 4e 00
        e 0 9c 4b 00
        e 0 9c 47 00
        e 3360 9c 4c 5f
        e 0 9c 47 5b
        e 0 9c 50 56
        e 120 9c 4c 00
        e 0 9c 47 00
        e 0 9c 50 00
        e 360 9c 50 5b
        e 0 9c 4c 51
        e 0 9c 47 59
        e 120 9c 50 00
        e 0 9c 4c 00
        e 0 9c 47 00
        e 120 9c 4c 5f
        e 0 9c 47 56
        e 0 9c 50 57
        e 120 9c 4c 00
        e 0 9c 47 00
        e 0 9c 50 00
        e 1080 9c 53 50
        e 0 9c 4e 52
        e 0 9c 4b 57
        e 120 9c 53 00
        e 0 9c 4e 00
        e 0 9c 4b 00
        e 360 9c 4e 55
        e 0 9c 53 58
        e 0 9c 4b 54
        e 120 9c 4e 00
        e 0 9c 53 00
        e 0 9c 4b 00
        e 120 9c 53 5a
        e 0 9c 4e 55
        e 0 9c 4b 53
        e 120 9c 53 00
        e 0 9c 4e 00
        e 0 9c 4b 00
        e 600 9c 4c 5a
        e 0 9c 55 59
        e 240 9c 4c 00
        e 0 9c 55 00
        e 0 9c 53 51
        e 0 9c 4b 53
        e 240 9c 53 00
        e 0 9c 4b 00
        e 240 9c 50 5e
        e 0 9c 47 51
        e 120 9c 50 00
        e 0 9c 47 00
        e 360 9c 53 59
        e 0 9c 4b 53
        e 120 9c 53 00
        e 0 9c 4b 00
        e 360 9c 4c 5a
        e 0 9c 55 59
        e 1320 9c 4c 00
        e 0 9c 55 00
        e 7080 9c 4b 58
        e 0 9c 42 54
        e 0 9c 47 53
        e 120 9c 4b 00
        e 0 9c 42 00
        e 0 9c 47 00
        e 360 9c 4b 56
        e 0 9c 42 54
        e 0 9c 47 5c
        e 120 9c 4b 00
        e 0 9c 42 00
        e 0 9c 47 00
        e 120 9c 4b 5a
        e 0 9c 47 57
        e 0 9c 42 4f
        e 120 9c 4b 00
        e 0 9c 47 00
        e 0 9c 42 00
        e 600 9c 47 56
        e 0 9c 44 58
        e 1920 9c 47 00
        e 0 9c 44 00
        e 1920 9c 44 4f
        e 120 9c 44 00
        e 360 9c 44 57
        e 480 9c 44 00
        e 0 9c 48 54
        e 120 9c 48 00
        e 360 9c 48 56
        e 480 9c 48 00
        e 0 9c 4b 55
        e 240 9c 4b 00
        e 240 9c 4b 53
        e 360 9c 4b 00
        e 120 9c 48 54
        e 0 9c 50 57
        e 0 9c 44 5a
        e 120 9c 48 00
        e 0 9c 44 00
        e 120 9c 50 00
        e 240 9c 48 57
        e 0 9c 44 5a
        e 0 9c 50 5c
        e 240 9c 48 00
        e 0 9c 44 00
        e 0 9c 50 00
        e 720 9c 4c 57
        e 0 9c 49 57
        e 0 9c 51 56
        e 120 9c 4c 00
        e 0 9c 49 00
        e 0 9c 51 00
        e 360 9c 49 58
        e 0 9c 51 52
        e 0 9c 4c 54
        e 120 9c 49 00
        e 0 9c 51 00
        e 0 9c 4c 00
        e 120 9c 51 52
        e 0 9c 49 50
        e 0 9c 4c 54
        e 120 9c 51 00
        e 0 9c 49 00
        e 0 9c 4c 00
        e 1080 9c 4c 54
        e 0 9c 49 50
        e 0 9c 45 56
        e 120 9c 4c 00
        e 0 9c 49 00
        e 0 9c 45 00
        e 360 9c 4c 56
        e 0 9c 49 56
        e 0 9c 45 55
        e 120 9c 4c 00
        e 0 9c 49 00
        e 0 9c 45 00
        e 120 9c 45 5a
        e 0 9c 49 5a
        e 0 9c 4c 55
        e 120 9c 45 00
        e 0 9c 49 00
        e 0 9c 4c 00
        e 600 9c 4e 58
        e 0 9c 4b 5d
        e 0 9c 47 54
        e 960 9c 4e 00
        e 0 9c 4b 00
        e 0 9c 47 00
        e 3360 9c 4c 54
        e 0 9c 47 56
        e 0 9c 50 58
        e 120 9c 4c 00
        e 0 9c 47 00
        e 0 9c 50 00
        e 360 9c 50 56
        e 0 9c 4c 56
        e 0 9c 47 52
        e 120 9c 50 00
        e 0 9c 4c 00
        e 0 9c 47 00
        e 120 9c 4c 56
        e 0 9c 47 54
        e 0 9c 50 5b
        e 120 9c 4c 00
        e 0 9c 47 00
        e 0 9c 50 00
        e 1080 9c 53 5a
        e 0 9c 4e 53
        e 0 9c 4b 5a
        e 120 9c 53 00
        e 0 9c 4e 00
        e 0 9c 4b 00
        e 360 9c 4e 5a
        e 0 9c 53 57
        e 0 9c 4b 56
        e 120 9c 4e 00
        e 0 9c 53 00
        e 0 9c 4b 00
        e 120 9c 53 58
        e 0 9c 4e 56
        e 0 9c 4b 53
        e 120 9c 53 00
        e 0 9c 4e 00
        e 0 9c 4b 00
        e 600 9c 4c 51
        e 0 9c 55 53
        e 240 9c 4c 00
        e 0 9c 55 00
        e 0 9c 53 5a
        e 0 9c 4b 50
        e 240 9c 53 00
        e 0 9c 4b 00
        e 240 9c 50 4f
        e 0 9c 47 56
        e 120 9c 50 00
        e 0 9c 47 00
        e 360 9c 53 53
        e 0 9c 4b 50
        e 120 9c 53 00
        e 0 9c 4b 00
        e 360 9c 4c 54
        e 0 9c 55 51
        e 1320 9c 4c 00
        e 0 9c 55 00
        e 112440 9c 47 52
        e 120 9c 47 00
        e 120 9c 47 52
        e 720 9c 47 00
        e 240 9c 47 51
        e 120 9c 47 00
        e 120 9c 47 50
        e 120 9c 47 00
        e 120 9c 4e 52
        e 240 9c 4e 00
        e 240 9c 4e 4f
        e 240 9c 4e 00
        e 240 9c 53 49
        e 960 9c 53 00
        e 4320 9c 4c 51
        e 0 9c 49 5d
        e 0 9c 51 58
        e 120 9c 4c 00
        e 0 9c 49 00
        e 0 9c 51 00
        e 360 9c 49 57
        e 0 9c 51 56
        e 0 9c 4c 59
        e 120 9c 49 00
        e 0 9c 51 00
        e 0 9c 4c 00
        e 120 9c 51 58
        e 0 9c 49 56
        e 0 9c 4c 58
        e 120 9c 51 00
        e 0 9c 49 00
        e 0 9c 4c 00
        e 1080 9c 4c 5c
        e 0 9c 49 59
        e 0 9c 45 58
        e 120 9c 4c 00
        e 0 9c 49 00
        e 0 9c 45 00
        e 360 9c 4c 51
        e 0 9c 49 51
        e 0 9c 45 52
        e 120 9c 4c 00
        e 0 9c 49 00
        e 0 9c 45 00
        e 120 9c 45 59
        e 0 9c 49 61
        e 0 9c 4c 56
        e 120 9c 45 00
        e 0 9c 49 00
        e 0 9c 4c 00
        e 600 9c 4e 5d
        e 0 9c 4b 55
        e 0 9c 47 57
        e 960 9c 4e 00
        e 0 9c 4b 00
        e 0 9c 47 00
        e 3360 9c 4c 5b
        e 0 9c 47 5a
        e 0 9c 50 54
        e 120 9c 4c 00
        e 0 9c 47 00
        e 0 9c 50 00
        e 360 9c 50 5f
        e 0 9c 4c 59
        e 0 9c 47 51
        e 120 9c 50 00
        e 0 9c 4c 00
        e 0 9c 47 00
        e 120 9c 4c 59
        e 0 9c 47 57
        e 0 9c 50 54
        e 120 9c 4c 00
        e 0 9c 47 00
        e 0 9c 50 00
        e 1080 9c 53 4d
        e 0 9c 4e 56
        e 0 9c 4b 59
        e 120 9c 53 00
        e 0 9c 4e 00
        e 0 9c 4b 00
        e 360 9c 4e 57
        e 0 9c 53 58
        e 0 9c 4b 55
        e 120 9c 4e 00
        e 0 9c 53 00
        e 0 9c 4b 00
        e 120 9c 53 56
        e 0 9c 4e 56
        e 0 9c 4b 5d
        e 120 9c 53 00
        e 0 9c 4e 00
        e 0 9c 4b 00
        e 600 9c 4c 5b
        e 0 9c 55 54
        e 240 9c 4c 00
        e 0 9c 55 00
        e 0 9c 53 58
        e 0 9c 4b 50
        e 240 9c 53 00
        e 0 9c 4b 00
        e 240 9c 50 55
        e 0 9c 47 51
        e 120 9c 50 00
        e 0 9c 47 00
        e 360 9c 53 56
        e 0 9c 4b 5a
        e 120 9c 53 00
        e 0 9c 4b 00
        e 360 9c 4c 5c
        e 0 9c 55 54
        e 1320 9c 4c 00
        e 0 9c 55 00
        e 7080 9c 4b 54
        e 0 9c 42 57
        e 0 9c 47 56
        e 120 9c 4b 00
        e 0 9c 42 00
        e 0 9c 47 00
        e 360 9c 4b 5c
        e 0 9c 42 55
        e 0 9c 47 56
        e 120 9c 4b 00
        e 0 9c 42 00
        e 0 9c 47 00
        e 120 9c 4b 5c
        e 0 9c 47 56
        e 0 9c 42 56
        e 120 9c 4b 00
        e 0 9c 47 00
        e 0 9c 42 00
        e 600 9c 47 55
        e 0 9c 44 58
        e 1920 9c 47 00
        e 0 9c 44 00
        e 1920 9c 44 58
        e 120 9c 44 00
        e 360 9c 44 5a
        e 480 9c 44 00
        e 0 9c 48 58
        e 120 9c 48 00
        e 360 9c 48 52
        e 480 9c 48 00
        e 0 9c 4b 5b
        e 240 9c 4b 00
        e 240 9c 4b 4e
        e 360 9c 4b 00
        e 120 9c 48 5c
        e 0 9c 50 5b
        e 0 9c 44 5b
        e 120 9c 48 00
        e 0 9c 44 00
        e 120 9c 50 00
        e 240 9c 48 56
        e 0 9c 44 4f
        e 0 9c 50 56
        e 240 9c 48 00
        e 0 9c 44 00
        e 0 9c 50 00
        e 720 9c 4c 52
        e 0 9c 49 56
        e 0 9c 51 54
        e 120 9c 4c 00
        e 0 9c 49 00
        e 0 9c 51 00
        e 360 9c 49 62
        e 0 9c 51 5a
        e 0 9c 4c 53
        e 120 9c 49 00
        e 0 9c 51 00
        e 0 9c 4c 00
        e 120 9c 51 58
        e 0 9c 49 53
        e 0 9c 4c 56
        e 120 9c 51 00
        e 0 9c 49 00
        e 0 9c 4c 00
        e 1080 9c 4c 56
        e 0 9c 49 51
        e 0 9c 45 54
        e 120 9c 4c 00
        e 0 9c 49 00
        e 0 9c 45 00
        e 360 9c 4c 52
        e 0 9c 49 50
        e 0 9c 45 52
        e 120 9c 4c 00
        e 0 9c 49 00
        e 0 9c 45 00
        e 120 9c 45 4a
        e 0 9c 49 5b
        e 0 9c 4c 51
        e 120 9c 45 00
        e 0 9c 49 00
        e 0 9c 4c 00
        e 600 9c 4e 56
        e 0 9c 4b 56
        e 0 9c 47 57
        e 960 9c 4e 00
        e 0 9c 4b 00
        e 0 9c 47 00
        e 3360 9c 4c 56
        e 0 9c 47 54
        e 0 9c 50 5a
        e 120 9c 4c 00
        e 0 9c 47 00
        e 0 9c 50 00
        e 360 9c 50 5d
        e 0 9c 4c 51
        e 0 9c 47 54
        e 120 9c 50 00
        e 0 9c 4c 00
        e 0 9c 47 00
        e 120 9c 4c 54
        e 0 9c 47 58
        e 0 9c 50 53
        e 120 9c 4c 00
        e 0 9c 47 00
        e 0 9c 50 00
        e 1080 9c 53 5d
        e 0 9c 4e 5e
        e 0 9c 4b 57
        e 120 9c 53 00
        e 0 9c 4e 00
        e 0 9c 4b 00
        e 360 9c 4e 5f
        e 0 9c 53 58
        e 0 9c 4b 54
        e 120 9c 4e 00
        e 0 9c 53 00
        e 0 9c 4b 00
        e 120 9c 53 57
        e 0 9c 4e 56
        e 0 9c 4b 57
        e 120 9c 53 00
        e 0 9c 4e 00
        e 0 9c 4b 00
        e 600 9c 4c 56
        e 0 9c 55 53
        e 240 9c 4c 00
        e 0 9c 55 00
        e 0 9c 53 55
        e 0 9c 4b 51
        e 240 9c 53 00
        e 0 9c 4b 00
        e 240 9c 50 56
        e 0 9c 47 56
        e 120 9c 50 00
        e 0 9c 47 00
        e 360 9c 53 56
        e 0 9c 4b 5d
        e 120 9c 53 00
        e 0 9c 4b 00
        e 360 9c 4c 57
        e 0 9c 55 50
        e 1320 9c 4c 00
        e 0 9c 55 00
        e 70920 9c 53 54
        e 0 9c 50 54
        e 0 9c 4c 55
        e 360 9c 53 00
        e 0 9c 50 00
        e 0 9c 4c 00
        e 360 9c 53 56
        e 0 9c 50 55
        e 0 9c 4c 54
        e 120 9c 53 00
        e 0 9c 50 00
        e 0 9c 4c 00
        e 120 9c 53 51
        e 0 9c 4c 57
        e 0 9c 50 55
        e 1800 9c 53 00
        e 0 9c 4c 00
        e 0 9c 50 00
        e 600 9c 53 57
        e 0 9c 50 54
        e 0 9c 4c 56
        e 120 9c 53 00
        e 0 9c 50 00
        e 0 9c 4c 00
        e 360 9c 53 56
        e 0 9c 50 57
        e 0 9c 4c 52
        e 600 9c 53 00
        e 0 9c 50 00
        e 0 9c 4c 00
        e 120 9c 4c 52
        e 120 9c 4c 00
        e 120 9c 51 5d
        e 0 9c 55 52
        e 0 9c 4c 53
        e 120 9c 51 00
        e 0 9c 55 00
        e 0 9c 4c 00
        e 360 9c 53 5c
        e 0 9c 4c 4d
        e 0 9c 50 56
        e 960 9c 53 00
        e 0 9c 4c 00
        e 0 9c 50 00
        e 1440 9c 4b 54
        e 0 9c 47 53
        e 0 9c 42 57
        e 480 9c 4b 00
        e 0 9c 47 00
        e 0 9c 42 00
        e 240 9c 42 54
        e 0 9c 4b 5a
        e 0 9c 47 57
        e 120 9c 42 00
        e 0 9c 4b 00
        e 0 9c 47 00
        e 120 9c 4c 59
        e 0 9c 47 5e
        e 0 9c 44 54
        e 120 9c 4c 00
        e 0 9c 47 00
        e 0 9c 44 00
        e 360 9c 42 56
        e 0 9c 47 55
        e 0 9c 4b 5b
        e 1080 9c 42 00
        e 0 9c 47 00
        e 0 9c 4b 00
        e 1320 9c 4c 4e
        e 240 9c 4c 00
        e 0 9c 47 53
        e 120 9c 47 00
        e 120 9c 4c 4f
        e 240 9c 4c 00
        e 0 9c 50 56
        e 120 9c 50 00
        e 120 9c 49 56
        e 0 9c 51 52
        e 120 9c 49 00
        e 0 9c 51 00
        e 360 9c 50 55
        e 0 9c 47 5a
        e 120 9c 50 00
        e 0 9c 47 00
        e 120 9c 47 52
        e 0 9c 4c 56
        e 1200 9c 47 00
        e 0 9c 4c 00
        e 16320 9c 4c 58
        e 0 9c 47 54
        e 0 9c 44 55
        e 120 9c 4c 00
        e 0 9c 47 00
        e 0 9c 44 00
        e 600 9c 47 55
        e 0 9c 4c 57
        e 0 9c 44 5e
        e 120 9c 47 00
        e 0 9c 4c 00
        e 0 9c 44 00
        e 120 9c 44 58
        e 0 9c 47 59
        e 0 9c 4c 52
        e 1680 9c 44 00
        e 0 9c 47 00
        e 0 9c 4c 00
        e 1440 9c 47 4f
        e 120 9c 47 00
        e 120 9c 4c 55
        e 240 9c 4c 00
        e 0 9c 4e 5a
        e 120 9c 4e 00
        e 120 9c 49 56
        e 0 9c 51 51
        e 120 9c 49 00
        e 0 9c 51 00
        e 360 9c 50 58
        e 0 9c 47 52
        e 120 9c 50 00
        e 0 9c 47 00
        e 360 9c 4e 59
        e 0 9c 45 5e
        e 120 9c 4e 00
        e 0 9c 45 00
        e 360 9c 4c 4f
        e 0 9c 44 57
        e 120 9c 4c 00
        e 0 9c 44 00
        e 360 9c 4b 56
        e 0 9c 42 54
        e 2880 9c 4b 00
        e 0 9c 42 00
        E 960 b0 7b 00
        CCINTERP 32
        CHASE_CC_TAKEOFFS 1
        GUID {F6E1A1B6-3173-49C0-A75F-2AF8D427FD3E}
        IGNTEMPO 0 120 4 4
        SRCCOLOR 178
        VELLANE -1 94 0
        CFGEDITVIEW 256863.273559 0.002957 42 12 0 -1 0 0 0 0.5
        KEYSNAP 0
        TRACKSEL 258
        EVTFILTER 0 -1 -1 -1 -1 0 0 0 0 -1 -1 -1 -1 0 -1 0 -1 -1
        CFGEDIT 1 1 0 1 0 0 1 1 1 1 1 0.125 32 75 817 715 0 0 0 0 0 0 0 1 0 0.5 0 0 1 64
      >
    >
  >
  <EXTENSIONS
  >
>
